<?xml version="1.0" encoding="UTF-8"?>
<svg width="10px" height="16px" viewBox="0 0 10 16" version="1.1" xmlns="http://www.w3.org/2000/svg" xmlns:xlink="http://www.w3.org/1999/xlink">
    <!-- Generator: sketchtool 52.6 (67491) - http://www.bohemiancoding.com/sketch -->
    <title>DAB50E7A-6A59-4E41-980A-B8FC416E06BA</title>
    <desc>Created with sketchtool.</desc>
    <g id="Symbols" stroke="none" stroke-width="1" fill="none" fill-rule="evenodd">
        <g id="icon/-after-blue" fill="#4480C8" fill-rule="nonzero">
            <g id="suiv." transform="translate(2.000000, 8.000000) scale(-1, 1) translate(-2.000000, -8.000000) translate(-7.000000, -1.000000)">
                <g id="icn" transform="translate(9.106602, 9.106602) rotate(-45.000000) translate(-9.106602, -9.106602) translate(3.106602, 3.106602)">
                    <rect id="Rectangle" x="0" y="0" width="2.4" height="12" rx="1.2"></rect>
                    <path d="M6,-4.8 L6,-4.8 C6.6627417,-4.8 7.2,-4.2627417 7.2,-3.6 L7.2,6 C7.2,6.6627417 6.6627417,7.2 6,7.2 L6,7.2 C5.3372583,7.2 4.8,6.6627417 4.8,6 L4.8,-3.6 C4.8,-4.2627417 5.3372583,-4.8 6,-4.8 Z" id="Rectangle" transform="translate(6.000000, 1.200000) rotate(-90.000000) translate(-6.000000, -1.200000) "></path>
                </g>
            </g>
        </g>
    </g>
</svg>