<svg xmlns="http://www.w3.org/2000/svg" xmlns:xlink="http://www.w3.org/1999/xlink" width="100" height="100" viewBox="0 0 100 100">
    <defs>
        <rect id="a" width="100" height="100" rx="15"/>
    </defs>
    <g fill="none" fill-rule="evenodd">
        <mask id="b" fill="#fff">
            <use xlink:href="#a"/>
        </mask>
        <use fill="#84D1C9" fill-rule="nonzero" xlink:href="#a"/>
        <path fill="#798ED1" fill-rule="nonzero" d="M0 0h49v100H0z" mask="url(#b)"/>
        <g mask="url(#b)">
            <path fill="#84D1C9" d="M48.9 0v9.009h1.607c.367 0 1.228.064 1.575.127 2.172-3.995 5.87-6.503 10.417-6.395a12.128 12.128 0 0 1 9.396 19.425c4.074 8.861 3.077 20.086-.094 26.701.09.343.14.695.147 1.05v4.505a4.368 4.368 0 0 1-4.41 4.378c0 6.5-5.114 14.322-11.141 18.669v9.009l1.396.389v-.273l.347.241c5.008.294 8.242 1.05 10.28 2.237 5.25 1.721 12.138 8.641 17.755 15.77h2.195V0H48.9z"/>
            <path fill="#84D1C9" fill-rule="nonzero" d="M86.7 0H93v105h-6.3z"/>
            <path fill="#F7CDB9" d="M56.828 86.436l-7.498-3.014v17.619h5.944l2.95-14.216-1.396-.389v-9.009z"/>
            <path fill="#F7CDB9" d="M49.33 81.05v2.373l7.498 3.013v-9.009a16.737 16.737 0 0 1-7.498 3.255v.367z"/>
            <path fill="#DEB4A0" d="M49.33 81.05v2.373l7.498 3.013v-9.009a16.737 16.737 0 0 1-7.498 3.255v.367z" style="mix-blend-mode:multiply"/>
            <path fill="#FFF" d="M49.33 101.041v.358h-3.055l-1.512-2.888-1.68 1.775L31.333 88.2l.368-.157C21.054 91.57 13.2 93.733 9.063 98.752L9 98.825l-.084.095-4.42 5.512v.41H46.19l.084-2.573h3.056v2.573h5.155l.788-3.802H49.33z"/>
            <path fill="#2A2932" d="M62.413 102.385l-3.727-5.197 9.503-3.591-9.566-6.804-.346-.252-.053.284-2.95 14.216-.799 3.802h5.912z"/>
            <path fill="#42404D" d="M81.044 92.516c-2.037-1.156-17.391-5.429-22.421-5.723l9.566 6.804-9.45 3.591 3.727 5.25-2.026 2.457 35.473.126c-5.701-7.182-9.672-10.742-14.87-12.505z"/>
            <path fill="#F7CDB9" d="M72.115 49.098a23.006 23.006 0 0 1-2.54-1.48c-.305 4.903-2.92 10.184-9.514 10.184-5.754 0-9.324-3.15-10.605-9.282a6.3 6.3 0 0 1-.115-1.27v20.685h5.68a6.405 6.405 0 0 1-5.68 6.058v6.689a16.737 16.737 0 0 0 7.497-3.255c6.017-4.347 11.13-12.17 11.13-18.627a4.368 4.368 0 0 0 4.41-4.326v-4.546a4.379 4.379 0 0 0-.147-1.05c-.042.063-.073.147-.115.22z"/>
            <path fill="#F7CDB9" d="M72.115 49.098a23.006 23.006 0 0 1-2.54-1.48c-.305 4.903-2.92 10.184-9.514 10.184-5.754 0-9.324-3.15-10.605-9.282a6.3 6.3 0 0 1-.115-1.27v20.685h5.68a6.405 6.405 0 0 1-5.68 6.058v6.689a16.737 16.737 0 0 0 7.497-3.255c6.017-4.347 11.13-12.17 11.13-18.627a4.368 4.368 0 0 0 4.41-4.326v-4.546a4.379 4.379 0 0 0-.147-1.05c-.042.063-.073.147-.115.22z" opacity=".8" style="mix-blend-mode:multiply"/>
            <path fill="#F7CDB9" fill-rule="nonzero" d="M60.062 43.05c-5.481 0-7.655 1.25-8.505 2.3A3.244 3.244 0 0 0 51 48.194c1.123 5.418 4.095 8.043 9.072 8.043 7.602 0 7.99-8.011 7.99-9.608v-.115a22.218 22.218 0 0 1-3.328-3.255 36.929 36.929 0 0 0-4.672-.21zm-4.536 7.256a2.625 2.625 0 0 1 0-.578 2.635 2.635 0 0 1 0-.284 3.423 3.423 0 0 1 6.835-.241c.016.196.016.392 0 .588.006.094.006.19 0 .284a3.423 3.423 0 1 1-6.835.23zm8.168-4.2c.088.01.176.01.263 0 .25-.023.495-.086.724-.19.37-.164.707-.391.998-.671a.094.094 0 0 1 .115 0 .115.115 0 0 1 0 .147 2.635 2.635 0 0 1-.199.356 3.381 3.381 0 0 1-1.386 1.313l-.326.147h-.157a.556.556 0 0 1-.546-.304 4.683 4.683 0 0 0-4.337-2.216 4.126 4.126 0 0 0-3.318 2.247.43.43 0 0 1-.566.22.43.43 0 0 1-.232-.566 4.977 4.977 0 0 1 4.033-2.762 5.355 5.355 0 0 1 4.934 2.279z"/>
            <path fill="#F7CDB9" fill-rule="nonzero" d="M60.062 43.05c-5.481 0-7.655 1.25-8.505 2.3A3.244 3.244 0 0 0 51 48.194c1.123 5.418 4.095 8.043 9.072 8.043 7.602 0 7.99-8.011 7.99-9.608v-.115a22.218 22.218 0 0 1-3.328-3.255 36.929 36.929 0 0 0-4.672-.21zm-4.536 7.256a2.625 2.625 0 0 1 0-.578 2.635 2.635 0 0 1 0-.284 3.423 3.423 0 0 1 6.835-.241c.016.196.016.392 0 .588.006.094.006.19 0 .284a3.423 3.423 0 1 1-6.835.23zm8.168-4.2c.088.01.176.01.263 0 .25-.023.495-.086.724-.19.37-.164.707-.391.998-.671a.094.094 0 0 1 .115 0 .115.115 0 0 1 0 .147 2.635 2.635 0 0 1-.199.356 3.381 3.381 0 0 1-1.386 1.313l-.326.147h-.157a.556.556 0 0 1-.546-.304 4.683 4.683 0 0 0-4.337-2.216 4.126 4.126 0 0 0-3.318 2.247.43.43 0 0 1-.566.22.43.43 0 0 1-.232-.566 4.977 4.977 0 0 1 4.033-2.762 5.355 5.355 0 0 1 4.934 2.279z" opacity=".8" style="mix-blend-mode:multiply"/>
            <path fill="#F7CDB9" d="M50.391 44.331c1.575-1.869 4.82-2.814 9.67-2.814 1.124 0 2.29 0 3.392.063a38 38 0 0 1-5.04-11.655c-2.163 3.034-4.2 6.027-7.507 8.326-.515.368-1.05.704-1.575 1.05v4.725c.369.036.728.139 1.06.305z"/>
            <path fill="#F7CDB9" d="M50.391 44.331c1.575-1.869 4.82-2.814 9.67-2.814 1.124 0 2.29 0 3.392.063a38 38 0 0 1-5.04-11.655c-2.163 3.034-4.2 6.027-7.507 8.326-.515.368-1.05.704-1.575 1.05v4.725c.369.036.728.139 1.06.305z" opacity=".8" style="mix-blend-mode:multiply"/>
            <path fill="#F7CDB9" d="M50.108 34.398l-.777.819v1.533c.359-.747.62-1.538.776-2.352z"/>
            <path fill="#F7CDB9" d="M50.108 34.398l-.777.819v1.533c.359-.747.62-1.538.776-2.352z" opacity=".8" style="mix-blend-mode:multiply"/>
            <path fill="#F7CDB9" d="M59.064 53.634a3.423 3.423 0 0 0 3.297-3.538c.006-.095.006-.19 0-.284a3.413 3.413 0 0 1-6.762-.063 2.625 2.625 0 0 0 0 .578 3.423 3.423 0 0 0 3.465 3.307z"/>
            <path fill="#F7CDB9" d="M59.064 53.634a3.423 3.423 0 0 0 3.297-3.538c.006-.095.006-.19 0-.284a3.413 3.413 0 0 1-6.762-.063 2.625 2.625 0 0 0 0 .578 3.423 3.423 0 0 0 3.465 3.307z" opacity=".8" style="mix-blend-mode:multiply"/>
            <path fill="#F7CDB9" d="M59.064 53.634a3.423 3.423 0 0 0 3.297-3.538c.006-.095.006-.19 0-.284a3.413 3.413 0 0 1-6.762-.063 2.625 2.625 0 0 0 0 .578 3.423 3.423 0 0 0 3.465 3.307z" style="mix-blend-mode:multiply"/>
            <path fill="#3C2417" fill-rule="nonzero" d="M59.064 52.763a3.423 3.423 0 0 0 3.266-2.951 3.612 3.612 0 0 0 0-.588 3.423 3.423 0 0 0-6.836.242c-.005.094-.005.189 0 .283a3.402 3.402 0 0 0 3.57 3.014zm1.05-1.901a.84.84 0 0 1-.882-.819.861.861 0 0 1 .819-.892.871.871 0 0 1 .892.829.861.861 0 0 1-.808.882h-.021z"/>
            <path fill="#FFF" d="M60.072 49.15a.861.861 0 0 0-.819.893.84.84 0 0 0 .882.819.861.861 0 0 0 .83-.882.871.871 0 0 0-.893-.83z"/>
            <path fill="#3C2417" d="M58.812 43.848a4.977 4.977 0 0 0-4.032 2.761.43.43 0 0 0 .231.567.43.43 0 0 0 .567-.22 4.126 4.126 0 0 1 3.318-2.247 4.683 4.683 0 0 1 4.337 2.215.556.556 0 0 0 .546.305h.157l.325-.147a3.381 3.381 0 0 0 1.386-1.313c.076-.113.143-.233.2-.356a.115.115 0 0 0 0-.147.094.094 0 0 0-.116 0c-.29.28-.628.507-.997.672-.23.103-.474.166-.725.188a1.05 1.05 0 0 1-.262 0 5.355 5.355 0 0 0-4.935-2.278z"/>
            <path fill="#3C2415" d="M72.326 22.166A12.127 12.127 0 1 0 52.05 9.072c10.773.662 17.084 6.143 20.276 13.094z"/>
            <path fill="#FFF" d="M60.062 41.517c-4.851 0-8.096.945-9.671 2.814a3.003 3.003 0 0 0-1.05-.315v3.15a6.3 6.3 0 0 0 .115 1.302c1.281 6.153 4.851 9.282 10.605 9.282 6.595 0 9.209-5.25 9.514-10.185a18.364 18.364 0 0 1-1.534-1.102v.115c0 1.596-.388 9.607-7.99 9.607-4.977 0-7.949-2.625-9.072-8.043a3.245 3.245 0 0 1 .567-2.824c.85-1.05 3.024-2.3 8.505-2.3a36.929 36.929 0 0 1 4.651.19 26.933 26.933 0 0 1-1.26-1.68 120.592 120.592 0 0 0-3.38-.011z"/>
            <path fill="#4F3C30" d="M49.33 33.6v1.627l.778-.819a9.629 9.629 0 0 1-.777 2.342v2.52c.535-.336 1.05-.672 1.575-1.05 3.286-2.3 5.344-5.25 7.507-8.326a38 38 0 0 0 5.04 11.654c.399.567.808 1.134 1.26 1.68a22.218 22.218 0 0 0 3.328 3.255c.492.394 1.004.762 1.533 1.103a23.006 23.006 0 0 0 2.541 1.48c0-.073.074-.157.116-.23 3.15-6.615 4.2-17.85.094-26.702-3.192-6.92-9.502-12.4-20.275-13.062-.357 0-.693-.052-1.05-.063h-1.607L49.33 33.6z"/>
            <path fill="#798ED1" d="M9 98.826l.063-.126c4.137-4.966 11.991-7.13 22.638-10.636l7.497-3.297.105.094v-8.085c-5.397-4.105-10.038-10.626-9.817-17.21a4.085 4.085 0 0 1-3.917-4.2l.147-4.252a4.074 4.074 0 0 1 1.554-3.066c.171-.131.354-.247.546-.346-.2-.564-.365-1.139-.493-1.722-1.796-8.988-1.397-17.85 1.764-24.57 0 0 4.956-11.771 20.244-12.37V0H4.495v104.433l4.421-5.513.084-.094z"/>
            <path fill="#F2AE75" d="M41.623 87.003l7.498 6.93.21-.2V82.562l-10.028-2.11v4.41z"/>
            <path fill="#798ED1" d="M39.303 76.776h-.01v3.675h.01z"/>
            <path fill="#DEB4A0" d="M39.303 76.776h-.01v3.675h.01z" style="mix-blend-mode:multiply"/>
            <path fill="#F2AE75" d="M49.33 82.561V81.05h-.105c-2.929-.105-6.572-1.722-9.922-4.273v3.675l10.028 2.11z"/>
            <path fill="#DEB4A0" d="M49.33 82.561V81.05h-.105c-2.929-.105-6.572-1.722-9.922-4.273v3.675l10.028 2.11z" style="mix-blend-mode:multiply"/>
            <path fill="#F15D44" d="M49.33 94.164l-.21-.231-4.357 4.578 1.512 2.888h3.056v-.358z"/>
            <path fill="#E6E7E8" d="M49.12 93.933l.21.231v-.43l-.21.199zM49.12 93.933l-7.496-6.93-2.321-2.1-.105-.095-7.497 3.297-.367.158 11.749 12.022 1.68-1.774z"/>
            <path fill="#F15D44" d="M46.275 102.26l-.084 2.582h3.14v-2.582z"/>
            <path fill="#F2AE75" fill-rule="nonzero" d="M49.225 81.05l.105-3.15v-3.476c-4.063-.147-7.255-3.15-7.129-6.804l7.13.252v-4.41l-4.4-.158a93.209 93.209 0 0 1 4.4-13.146V33.6a104.695 104.695 0 0 1-14.197-2.341L30 44.97s-.273 7.939-.283 7.918c-.347-.998-1.292-3.392-1.901-5.25-.192.099-.375.215-.546.346a4.074 4.074 0 0 0-1.554 3.066l-.147 4.252a4.085 4.085 0 0 0 3.917 4.2c-.221 6.647 4.42 13.168 9.817 17.273 3.35 2.552 6.993 4.169 9.922 4.273zm-5.102-30.954a3.234 3.234 0 1 1-6.405-.557 1.995 1.995 0 0 1 0-.263 3.234 3.234 0 1 1 6.457 0 3.15 3.15 0 0 1 0 .546c-.012.092-.03.184-.052.273z"/>
            <path fill="#F2AE75" d="M49.33 63.462V50.158a93.209 93.209 0 0 0-4.399 13.146l4.4.158z"/>
            <path fill="#F6CCB8" d="M49.33 63.462V50.158a93.209 93.209 0 0 0-4.399 13.146l4.4.158z" opacity=".8" style="mix-blend-mode:multiply"/>
            <path fill="#F2AE75" d="M49.225 81.05h.105V77.9z"/>
            <path fill="#F6CCB8" d="M49.225 81.05h.105V77.9z" opacity=".8" style="mix-blend-mode:multiply"/>
            <path fill="#F2AE75" d="M40.92 52.5a3.224 3.224 0 0 1-3.15-2.971 3.223 3.223 0 1 0 6.405.556c.005-.09.005-.182 0-.273A3.223 3.223 0 0 1 40.92 52.5z"/>
            <path fill="#DEB4A0" d="M40.92 52.5a3.224 3.224 0 0 1-3.15-2.971 3.223 3.223 0 1 0 6.405.556c.005-.09.005-.182 0-.273A3.223 3.223 0 0 1 40.92 52.5z" style="mix-blend-mode:multiply"/>
            <path fill="#3C2417" fill-rule="nonzero" d="M40.92 46.042a3.234 3.234 0 0 0-3.234 3.234 1.995 1.995 0 0 0 0 .263 3.213 3.213 0 0 0 6.373.283 3.15 3.15 0 0 0 0-.546 3.224 3.224 0 0 0-3.139-3.234zm1.134 3.077a.809.809 0 1 1 0-1.617.809.809 0 0 1 0 1.617z"/>
            <path fill="#FFF" d="M42.054 47.502a.808.808 0 1 0 .798.808.798.798 0 0 0-.798-.808z"/>
            <path fill="#F05D44" d="M42.201 67.62c-.126 3.612 3.066 6.657 7.13 6.804v-.43a6.405 6.405 0 0 0 5.68-6.059h-1.229v1.26c0 .58-.47 1.05-1.05 1.05h-3.401v.105l-5.02-.178c-.58 0-1.05-.47-1.05-1.05v-1.407l5.985.21-7.045-.305z"/>
            <path fill="#FFF" d="M43.346 67.662v1.407c0 .58.47 1.05 1.05 1.05l5.018.178v-.052h3.402c.58 0 1.05-.47 1.05-1.05v-1.26h-4.535v-.063l-5.986-.21z"/>
            <path fill="#3C2417" d="M29.716 52.889L30 44.97l5.134-13.723A104.696 104.696 0 0 0 49.332 33.6V9.02c-15.289.598-20.245 12.369-20.245 12.369-3.15 6.772-3.559 15.582-1.763 24.57.128.583.293 1.158.493 1.721.609 1.817 1.554 4.211 1.9 5.209z"/>
        </g>
    </g>
</svg>
