<?xml version="1.0" encoding="UTF-8"?>
<svg width="20px" height="13px" viewBox="0 0 20 13" version="1.1" xmlns="http://www.w3.org/2000/svg" xmlns:xlink="http://www.w3.org/1999/xlink">
    <!-- Generator: sketchtool 52.6 (67491) - http://www.bohemiancoding.com/sketch -->
    <title>51D91C34-841A-4B88-8B1A-F7AF77AED703</title>
    <desc>Created with sketchtool.</desc>
    <g id="Symbols" stroke="none" stroke-width="1" fill="none" fill-rule="evenodd">
        <g id="drapeaux-anglais">
            <g id="260-united-kingdom">
                <path d="M19.6551179,13 L0.344843076,13 C0.154413761,13 0,12.8468053 0,12.6578794 L0,0.342120561 C0,0.153194673 0.154413761,0 0.344843076,0 L19.6551569,0 C19.8455862,0 20,0.153194673 20,0.342120561 L20,12.6578794 C19.9999609,12.8468053 19.8455472,13 19.6551179,13 Z" id="Path" fill="#41479B"></path>
                <path d="M19.9999219,0.342120561 C19.9999219,0.153194673 19.8455084,0 19.6550795,0 L18.1123121,0 L11.7240558,4.15237786 L11.7240558,0 L8.27578799,0 L8.27578799,4.15237786 L1.88757075,0 L0.344842403,0 C0.154413459,0 0,0.153194673 0,0.342120561 L0,1.22691378 L5.4807989,4.78945533 L0,4.78945533 L0,8.21050592 L5.4807989,8.21050592 L0,11.7730862 L0,12.6578794 C0,12.8468053 0.154413459,13 0.344842403,13 L1.88760981,13 L8.27586611,8.84762214 L8.27586611,13 L11.7241339,13 L11.7241339,8.84762214 L18.1123902,13 L19.6551576,13 C19.8455865,13 20,12.8468053 20,12.6578794 L20,11.7730862 L14.5192011,8.21054467 L19.9999219,8.21054467 L19.9999219,4.78949408 L14.519123,4.78949408 L19.9999219,1.22691378 L19.9999219,0.342120561 Z" id="Path" fill="#F5F5F5"></path>
                <g id="Group" fill="#FF4B55">
                    <polygon id="Path" points="19.9610136 5.47539881 11.0129825 5.47539881 11.0129825 0.0106785714 8.94803119 0.0106785714 8.94803119 5.47539881 0 5.47539881 0 7.52463988 8.94803119 7.52463988 8.94803119 12.9893601 11.0129825 12.9893601 11.0129825 7.52463988 19.9610136 7.52463988"></polygon>
                    <path d="M6.97653021,8.20772024 L0.00974658869,12.6956994 C0.0341130604,12.8606369 0.171150097,12.9893601 0.344132554,12.9893601 L0.818167641,12.9893601 L8.24077973,8.20772024 L6.97653021,8.20775893 L6.97653021,8.20772024 Z" id="Path"></path>
                    <path d="M13.5044055,8.20772024 L12.2401559,8.20772024 L19.6519688,12.9822798 C19.8247173,12.9640179 19.9610526,12.8240357 19.9610526,12.6477619 L19.9610526,12.3669464 L13.5044055,8.20772024 Z" id="Path"></path>
                    <path d="M0,0.729276786 L6.30717349,4.79231845 L7.571423,4.79231845 L0.200506823,0.0439910714 C0.0827680312,0.0982738095 0,0.214925595 0,0.352238095 L0,0.729276786 Z" id="Path"></path>
                    <path d="M12.9655361,4.79231845 L19.9490448,0.293505952 C19.920039,0.13402381 19.7859259,0.0107172619 19.6168421,0.0107172619 L19.1237817,0.0107172619 L11.7012865,4.79231845 L12.9655361,4.79231845 Z" id="Path"></path>
                </g>
            </g>
        </g>
    </g>
</svg>