<svg xmlns="http://www.w3.org/2000/svg" width="19" height="20" viewBox="0 0 19 20">
    <g fill="#F8A812" fill-rule="nonzero">
        <path d="M18.769 5.412L13.673.118A.385.385 0 0 0 13.396 0H5.802c-.85 0-1.541.691-1.541 1.54v5.383H1.183C.547 6.923.03 7.44.03 8.076v5.771C.03 14.483.547 15 1.183 15h3.078v3.462c0 .848.691 1.538 1.541 1.538h11.533c.85 0 1.541-.69 1.541-1.537V5.679c0-.1-.038-.195-.107-.267zm-5.277-4.374l4.182 4.347h-4.182V1.038zM1.183 14.231a.384.384 0 0 1-.384-.384V8.076c0-.212.173-.384.384-.384H11.57c.212 0 .384.172.384.384v5.771a.384.384 0 0 1-.384.384H1.183zm16.924 4.232a.77.77 0 0 1-.772.768H5.802a.771.771 0 0 1-.772-.769V15h6.54c.635 0 1.152-.517 1.152-1.153V8.076c0-.636-.517-1.153-1.153-1.153H5.03V1.541c0-.426.346-.772.772-.772h6.92v5c0 .213.173.385.385.385h5v12.309z"/>
        <path d="M8.335 9.389v.558h.98v2.745h.667V9.947h.978V9.39zM2.437 9.389v.558h.98v2.745h.667V9.947h.978V9.39zM7.1 10.993L8.127 9.39h-.773l-.649 1.061-.662-1.061h-.78l1.023 1.58-1.129 1.723h.8l.735-1.142.732 1.142h.805z"/>
    </g>
</svg>
