<?xml version="1.0" encoding="UTF-8"?>
<svg width="17px" height="20px" viewBox="0 0 17 20" version="1.1" xmlns="http://www.w3.org/2000/svg" xmlns:xlink="http://www.w3.org/1999/xlink">
    <!-- Generator: sketchtool 52.6 (67491) - http://www.bohemiancoding.com/sketch -->
    <title>49BFE73B-093B-4CA9-93AC-0D0431B84F0D</title>
    <desc>Created with sketchtool.</desc>
    <g id="HD-Screens" stroke="none" stroke-width="1" fill="none" fill-rule="evenodd">
        <g id="Fiche-360-FULL---Entreprise" transform="translate(-1106.000000, -973.000000)" fill="#4480C8">
            <g id="Données-plié" transform="translate(1085.000000, 897.000000)">
                <g id="icon/-20-homologuation-bleu" transform="translate(21.000000, 76.000000)">
                    <g id="quality">
                        <path d="M16.5852285,17.8033191 L13.9374413,11.4110638 C13.8699944,11.2482553 13.6833136,11.1708511 13.5204625,11.2383404 C13.3576115,11.3058298 13.2802498,11.4925106 13.3477391,11.6553191 L15.7413987,17.4340851 L13.558037,16.8014468 C13.4147178,16.7598723 13.261654,16.8232766 13.1896966,16.9540426 L12.0931434,18.945234 L9.5247604,12.7445532 C12.4891434,12.1728936 14.735271,9.55931915 14.735271,6.43059574 C14.7353136,2.88476596 11.8505902,0 8.3047604,0 C4.75893061,0 1.87416466,2.88476596 1.87416466,6.43059574 C1.87416466,7.86680851 2.34752636,9.19446809 3.14633487,10.2660426 L0.0242923152,17.8033191 C-0.022643855,17.9166809 -0.000473642225,18.0468936 0.081356145,18.1382979 C0.163143379,18.2297021 0.290164656,18.2661277 0.407994443,18.232 L2.98386678,17.4855745 L4.2774838,19.8348085 C4.33382423,19.9370638 4.44118593,20 4.55697317,20 C4.56284551,20 4.5687604,19.9998298 4.57467529,19.9995319 C4.69718593,19.9927234 4.80493061,19.9163404 4.85190934,19.8029787 L7.32578168,13.8305106 C7.39322849,13.6676596 7.31590934,13.4809787 7.15305827,13.4135319 C6.99020721,13.3460851 6.80352636,13.4234043 6.73607955,13.5862553 L4.51629232,18.945234 L3.41982423,16.9540426 C3.34782423,16.8232766 3.19467529,16.7598723 3.05144125,16.8014468 L0.868122102,17.4340851 L3.60841997,10.818383 C4.78280295,12.0745532 6.45352636,12.8611489 8.3047604,12.8611489 C8.49586678,12.8611489 8.68488806,12.8522553 8.87178168,12.8358723 L11.757654,19.8029787 C11.8045902,19.9163404 11.9123774,19.9927234 12.0348455,19.9994894 C12.040803,19.9998298 12.0466753,20 12.0525902,20 C12.1683774,20 12.2757391,19.9370638 12.332037,19.8348085 L13.6256966,17.4855745 L16.2015689,18.232 C16.3194838,18.2661702 16.4463774,18.2297021 16.5282072,18.1382979 C16.610037,18.0468936 16.6321647,17.9166809 16.5852285,17.8033191 Z M2.51246253,6.43059574 C2.51246253,3.2367234 5.11088806,0.638297872 8.3047604,0.638297872 C11.4986327,0.638297872 14.0970157,3.2367234 14.0970157,6.43059574 C14.0970157,9.62446809 11.4986327,12.2228511 8.3047604,12.2228511 C5.11088806,12.2228511 2.51246253,9.62446809 2.51246253,6.43059574 Z" id="Shape" fill-rule="nonzero"></path>
                    </g>
                    <g id="tick" transform="translate(5.000000, 4.000000)">
                        <path d="M6.55623132,0.110409357 C6.42631579,-0.0195191683 6.21568551,-0.0195191683 6.08574399,0.110409357 L2.099987,4.09620533 L0.567927225,2.56414555 C0.438011696,2.43421702 0.227381417,2.43423002 0.097439896,2.56414555 C-0.032488629,2.69406108 -0.032488629,2.90469136 0.097439896,3.03461988 L1.86474334,4.80189734 C1.99461988,4.93181287 2.20540611,4.9317219 2.33523067,4.80189734 L6.55623132,0.580896686 C6.68615984,0.450981157 6.68614685,0.240337882 6.55623132,0.110409357 Z" id="Path"></path>
                    </g>
                </g>
            </g>
        </g>
    </g>
</svg>