<?xml version="1.0" encoding="UTF-8"?>
<svg width="17px" height="20px" viewBox="0 0 17 20" version="1.1" xmlns="http://www.w3.org/2000/svg" xmlns:xlink="http://www.w3.org/1999/xlink">
    <!-- Generator: sketchtool 52.6 (67491) - http://www.bohemiancoding.com/sketch -->
    <title>B19AC49A-356E-4669-B14B-6E1394A0EA62</title>
    <desc>Created with sketchtool.</desc>
    <g id="Symbols" stroke="none" stroke-width="1" fill="none" fill-rule="evenodd">
        <g id="icon/-20-contrat-bleu" fill="#4480C8">
            <g id="diploma">
                <path d="M9.37101562,6.99234375 C9.37101562,7.17632813 9.52,7.32566406 9.70433594,7.32566406 L13.0376562,7.32566406 C13.2219922,7.32566406 13.3709766,7.17632813 13.3709766,6.99234375 C13.3709766,6.80835938 13.2219922,6.65902344 13.0376562,6.65902344 L9.70433594,6.65902344 C9.52,6.65898438 9.37101562,6.80832031 9.37101562,6.99234375 Z" id="Path"></path>
                <path d="M11.3710156,8.99234375 C11.3710156,9.17632813 11.52,9.32566406 11.7043359,9.32566406 L13.7043359,9.32566406 C13.8886719,9.32566406 14.0376563,9.17632813 14.0376563,8.99234375 C14.0376563,8.80835938 13.8886719,8.65902344 13.7043359,8.65902344 L11.7043359,8.65902344 C11.52,8.65898438 11.3710156,8.80832031 11.3710156,8.99234375 Z" id="Path"></path>
                <path d="M11.0376562,5.32566406 C11.2219922,5.32566406 11.3709766,5.17632813 11.3709766,4.99234375 C11.3709766,4.80835938 11.2219922,4.65902344 11.0376562,4.65902344 L10.3709766,4.65902344 C10.1866406,4.65902344 10.0376562,4.80835938 10.0376562,4.99234375 C10.0376562,5.17632813 10.1866406,5.32566406 10.3709766,5.32566406 L11.0376562,5.32566406 Z" id="Path"></path>
                <path d="M7.03765625,8.65898437 C6.85332031,8.65898437 6.70433594,8.80832031 6.70433594,8.99230469 C6.70433594,9.17628906 6.85332031,9.325625 7.03765625,9.325625 L10.3709766,9.325625 C10.5553125,9.325625 10.7042969,9.17628906 10.7042969,8.99230469 C10.7042969,8.80832031 10.5553125,8.65898437 10.3709766,8.65898437 L7.03765625,8.65898437 Z" id="Path"></path>
                <path d="M16.4244135,17.9923438 L2.37101563,17.9923438 C1.8196875,17.9923438 1.37101563,17.5436719 1.37101563,16.9923438 L1.37101562,0.272638123 C1.37101562,-0.076697815 0.704335938,-0.076697815 0.704335938,0.272638123 L0.704335938,16.9923438 C0.704335938,17.9113281 1.45199219,18.6590234 2.37101563,18.6590234 L16.4244135,18.6590234 C16.5512085,18.6590234 16.7023315,18.505426 16.7023315,18.3214417 C16.7023315,18.1374573 16.6087494,17.9923438 16.4244135,17.9923438 Z" id="Path"></path>
                <path d="M3.70433594,7.32566406 L8.37101563,7.32566406 C8.55535156,7.32566406 8.70433594,7.17632813 8.70433594,6.99234375 C8.70433594,6.80835938 8.55535156,6.65902344 8.37101563,6.65902344 L3.70433594,6.65902344 C3.52,6.65902344 3.37101563,6.80835938 3.37101563,6.99234375 C3.37101563,7.17632813 3.52,7.32566406 3.70433594,7.32566406 Z" id="Path"></path>
                <path d="M3.70433594,5.32566406 L5.03765625,5.32566406 C5.22199219,5.32566406 5.37097656,5.17632813 5.37097656,4.99234375 C5.37097656,4.80835938 5.22199219,4.65902344 5.03765625,4.65902344 L3.70433594,4.65902344 C3.52,4.65902344 3.37101563,4.80835938 3.37101563,4.99234375 C3.37101563,5.17632813 3.52,5.32566406 3.70433594,5.32566406 Z" id="Path"></path>
                <path d="M9.03765625,4.65898437 L6.37097656,4.65898437 C6.18664062,4.65898437 6.03765625,4.80832031 6.03765625,4.99230469 C6.03765625,5.17628906 6.18664062,5.325625 6.37097656,5.325625 L9.03765625,5.325625 C9.22199219,5.325625 9.37097656,5.17628906 9.37097656,4.99230469 C9.37101562,4.80832031 9.22199219,4.65898437 9.03765625,4.65898437 Z" id="Path"></path>
                <path d="M13.7043359,0 L0.701309204,0 C0.701309204,0.0150017756 0.701309204,0.7 0.701309204,0.7 L13.7043359,0.666679687 C14.9906641,0.666679687 16.0376562,1.71335938 16.0376562,3 L16.0376562,18.3303399 C16.0376562,18.4993243 16.7042969,18.6183477 16.7042969,18.3303399 L16.7042969,3 C16.7043359,1.34566406 15.3586719,0 13.7043359,0 Z" id="Path"></path>
                <path d="M3.70433594,9.32566406 L5.70433594,9.32566406 C5.88867188,9.32566406 6.03765625,9.17632813 6.03765625,8.99234375 C6.03765625,8.80835938 5.88867188,8.65902344 5.70433594,8.65902344 L3.70433594,8.65902344 C3.52,8.65902344 3.37101563,8.80835938 3.37101563,8.99234375 C3.37101563,9.17632813 3.52,9.32566406 3.70433594,9.32566406 Z" id="Path"></path>
                <path d="M3.70433594,11.3256641 L7.70433594,11.3256641 C7.88867188,11.3256641 8.03765625,11.1763281 8.03765625,10.9923438 C8.03765625,10.8083594 7.88867188,10.6590234 7.70433594,10.6590234 L3.70433594,10.6590234 C3.52,10.6590234 3.37101563,10.8083594 3.37101563,10.9923438 C3.37101563,11.1763281 3.52,11.3256641 3.70433594,11.3256641 Z" id="Path"></path>
                <path d="M12.7043359,10.9923438 C12.7043359,10.8083594 12.5553516,10.6590234 12.3710156,10.6590234 L9.03769531,10.6590234 C8.85335938,10.6590234 8.704375,10.8083594 8.704375,10.9923438 C8.704375,11.1763281 8.85335938,11.3256641 9.03769531,11.3256641 L12.3710156,11.3256641 C12.5553516,11.3256641 12.7043359,11.1763281 12.7043359,10.9923438 Z" id="Path"></path>
            </g>
            <path d="M3.35667513,15.5341021 C3.43336059,15.682288 3.62074494,15.7423007 3.77473695,15.6685065 C3.92872895,15.594396 3.99142179,15.4141119 3.91407871,15.2658909 C3.60543707,14.6718816 3.53624114,14.1390803 3.72826534,13.8399662 C3.8305248,13.6806708 4.00884864,13.5999508 4.25888928,13.5999508 C4.40758382,13.5999508 4.4630794,13.6491351 4.49800617,13.6971593 C4.73025462,14.0193714 4.50955101,15.000668 4.27854473,15.5946773 C4.22710445,15.7269723 4.27854473,15.875791 4.40199407,15.9522922 C4.52482234,16.0281958 4.68725377,16.0117072 4.7910842,15.912108 C4.92421513,15.784313 5.06856209,15.6567993 5.1942035,15.5532977 L5.1942035,15.700007 C5.1942035,15.8211925 5.2699756,15.9307059 5.3865565,15.976902 C5.5031374,16.0236957 5.63688942,15.9978906 5.72636188,15.912108 C5.86884559,15.7753129 6.03405362,15.6411897 6.17310311,15.544614 C6.16937661,15.5521024 6.16561358,15.5593095 6.16188709,15.5662003 C6.11417331,15.65919 6.11947078,15.7696175 6.17624506,15.8577907 C6.23331161,15.9459992 6.33337902,16 6.44122822,16 L7.68825295,16 C7.86065824,16 8,15.8655956 8,15.700007 C8,15.5344185 7.86065824,15.4000141 7.68825295,15.4000141 L6.87675343,15.4000141 C6.90199862,15.2572071 6.89578779,15.1120096 6.82063677,14.9950077 C6.74113816,14.8711152 6.60270976,14.799993 6.44122822,14.799993 C6.24854641,14.799993 6.02192424,14.912776 5.81492099,15.0525946 C5.79902857,14.9217761 5.71858008,14.8140908 5.5963729,14.7655041 C5.5131478,14.7324919 5.40588314,14.6893194 5.14557636,14.8396147 C5.2481281,14.3227043 5.27808621,13.726902 5.01058218,13.3555056 C4.89367247,13.1931866 4.66858475,13 4.25892582,13 C3.79190806,13 3.41498385,13.1862959 3.19771446,13.5247152 C2.88688077,14.0088947 2.94453187,14.7412108 3.35667513,15.5341021 Z" id="Path"></path>
        </g>
    </g>
</svg>