<svg xmlns="http://www.w3.org/2000/svg" width="20" height="20" viewBox="0 0 20 20">
    <g fill="#4480C8" fill-rule="nonzero">
        <path d="M5.572 10.238a.338.338 0 0 1 .24-.576h8.378a.338.338 0 0 1 0 .675H5.81a.335.335 0 0 1-.238-.099z"/>
        <path d="M9.762 14.428a.335.335 0 0 1-.1-.238V5.81a.337.337 0 1 1 .675 0v8.38a.338.338 0 0 1-.575.238z"/>
        <path d="M10 20C4.486 20 0 15.514 0 10S4.486 0 10 0s10 4.486 10 10c0 5.515-4.487 10-10 10zM10 .678C4.86.678.678 4.86.678 10c0 5.14 4.182 9.323 9.322 9.323 5.14 0 9.322-4.182 9.322-9.323C19.322 4.86 15.14.678 10 .678z"/>
    </g>
</svg>
