<?xml version="1.0" encoding="UTF-8"?>
<svg width="20px" height="20px" viewBox="0 0 20 20" version="1.1" xmlns="http://www.w3.org/2000/svg" xmlns:xlink="http://www.w3.org/1999/xlink">
    <!-- Generator: sketchtool 52.6 (67491) - http://www.bohemiancoding.com/sketch -->
    <title>C9586A1B-718F-4436-B7A9-F004E199AFD9</title>
    <desc>Created with sketchtool.</desc>
    <g id="Symbols" stroke="none" stroke-width="1" fill="none" fill-rule="evenodd">
        <g id="icon/-20-phone-fix" fill="#777777">
            <g id="phone-call">
                <path d="M15.9944521,12.3259409 C15.5797464,11.8960573 15.0795343,11.6662186 14.549395,11.6662186 C14.023531,11.6662186 13.5190435,11.8918011 13.0872365,12.3216846 L11.7362363,13.6624104 C11.6250781,13.6028226 11.5139198,13.547491 11.4070369,13.4921595 C11.2531255,13.4155466 11.1077647,13.34319 10.9837805,13.2665771 C9.71828668,12.4663978 8.5682264,11.4236111 7.4651946,10.0743728 C6.93077997,9.40188172 6.57165334,8.83579749 6.310859,8.26120072 C6.66143499,7.94198029 6.98635909,7.60999104 7.30273255,7.29077061 C7.42244143,7.17159498 7.54215031,7.04816308 7.66185918,6.92898746 C8.55967576,6.03517025 8.55967576,4.87746416 7.66185918,3.98364695 L6.49469763,2.82168459 C6.3621628,2.68974014 6.22535265,2.55353943 6.09709314,2.41733871 C5.84057412,2.15344982 5.57122915,1.88104839 5.29333354,1.62567204 C4.87862778,1.21706989 4.38269101,1 3.86110233,1 C3.33951365,1 2.83502623,1.21706989 2.40749453,1.62567204 C2.40321921,1.62992832 2.40321921,1.62992832 2.39894389,1.63418459 L0.945336097,3.09408602 C0.398095515,3.63888889 0.0859973701,4.30286738 0.0175922973,5.07325269 C-0.0850153119,6.31608423 0.282661954,7.47379032 0.56483288,8.23140681 C1.25743424,10.0913978 2.29206097,11.8151882 3.83545042,13.6624104 C5.70803929,15.8884409 7.96113138,17.6462814 10.5348722,18.8848566 C11.5181952,19.3487903 12.8307175,19.8978495 14.2971512,19.9914875 C14.3869329,19.9957437 14.4809899,20 14.5664962,20 C15.5540945,20 16.383506,19.6467294 17.0333542,18.9444444 C17.0376295,18.9359319 17.0461801,18.9316756 17.0504554,18.9231631 C17.2727719,18.6550179 17.5292909,18.4124104 17.7986359,18.1527778 C17.9824745,17.9782706 18.1705885,17.7952509 18.3544271,17.6037186 C18.7776835,17.1653226 19,16.6545699 19,16.1310484 C19,15.6032706 18.7734082,15.0967742 18.3416012,14.671147 L15.9944521,12.3259409 Z M17.5250156,16.8077957 C17.5207403,16.8077957 17.5207403,16.812052 17.5250156,16.8077957 C17.3582783,16.9865591 17.1872656,17.1482975 17.0034269,17.3270609 C16.7255313,17.5909498 16.4433604,17.8676075 16.1782907,18.1783154 C15.7464837,18.6379928 15.237721,18.8550627 14.5707715,18.8550627 C14.5066418,18.8550627 14.4382367,18.8550627 14.374107,18.8508065 C13.1043378,18.7699373 11.9243503,18.2762097 11.0393597,17.8548387 C8.6195302,16.6886201 6.49469763,15.0329301 4.72899169,12.9345878 C3.27110857,11.1852599 2.29633628,9.56787634 1.65076341,7.8313172 C1.25315892,6.77150538 1.10779815,5.94578853 1.1719279,5.16689068 C1.21468107,4.66890681 1.40707034,4.25604839 1.76192165,3.90277778 L3.21980477,2.45138889 C3.4292953,2.25560036 3.65161179,2.14919355 3.86965296,2.14919355 C4.13899793,2.14919355 4.3570391,2.3109319 4.49384925,2.44713262 C4.49812457,2.45138889 4.50239988,2.45564516 4.5066752,2.45990143 C4.76746954,2.70250896 5.01543793,2.95362903 5.27623227,3.22177419 C5.4087671,3.35797491 5.54557724,3.49417563 5.68238739,3.63463262 L6.84954894,4.79659498 C7.30273255,5.24775986 7.30273255,5.66487455 6.84954894,6.11603943 C6.72556475,6.23947133 6.60585587,6.36290323 6.48187168,6.48207885 C6.12274504,6.84811828 5.78071968,7.18862007 5.4087671,7.52060932 C5.40021646,7.52912186 5.39166583,7.53337814 5.38739051,7.54189068 C5.01971325,7.90793011 5.08811832,8.26545699 5.16507403,8.50806452 C5.16934934,8.52083333 5.17362466,8.53360215 5.17789998,8.54637097 C5.48144749,9.27844982 5.90897919,9.96796595 6.55882738,10.7894265 L6.5631027,10.7936828 C7.74309021,12.2408154 8.98720747,13.3687276 10.3595842,14.2327509 C10.5348722,14.343414 10.7144356,14.4327957 10.8854482,14.5179211 C11.0393597,14.5945341 11.1847204,14.6668907 11.3087046,14.7435036 C11.3258059,14.7520161 11.3429072,14.7647849 11.3600084,14.7732975 C11.5053692,14.8456541 11.6421794,14.8797043 11.7832648,14.8797043 C12.1381161,14.8797043 12.3604326,14.6583781 12.433113,14.5860215 L13.8952714,13.1303763 C14.0406322,12.9856631 14.2714993,12.8111559 14.5408443,12.8111559 C14.805914,12.8111559 15.0239551,12.9771505 15.15649,13.1218638 C15.1607653,13.1261201 15.1607653,13.1261201 15.1650406,13.1303763 L17.5207403,15.4755824 C17.961098,15.9097222 17.961098,16.3566308 17.5250156,16.8077957 Z" id="Shape" fill-rule="nonzero"></path>
                <path d="M11.4669237,4.12539289 C12.5678191,4.31029178 13.5678691,4.83137047 14.3662283,5.6297975 C15.1645875,6.42822452 15.6814201,7.42835943 15.8705052,8.52934828 C15.916726,8.80669661 16.1562337,9 16.4293566,9 C16.4629718,9 16.492385,8.99579775 16.5260001,8.9915955 C16.83694,8.94116853 17.0428327,8.64701121 16.99241,8.33604489 C16.7655079,7.00393243 16.1352243,5.7894829 15.1729913,4.82716822 C14.2107583,3.86485354 12.9964119,3.23451642 11.6644126,3.00759505 C11.3534726,2.95716808 11.0635422,3.16307821 11.0089176,3.46984228 C10.954293,3.77660635 11.1559838,4.07496592 11.4669237,4.12539289 Z" id="Path"></path>
                <path d="M19.9926719,7.44435989 C19.6757859,5.58510259 18.7998986,3.89324969 17.454023,2.54689096 C16.1081475,1.20053222 14.4169017,0.32433051 12.5583117,0.00733070282 C12.2983939,-0.0389726398 12.0527182,0.13911714 12.0064315,0.399128217 C11.9637053,0.662701091 12.1381706,0.908464986 12.4016489,0.954768329 C14.06085,1.23615018 15.5740699,2.02330701 16.7775248,3.22363212 C17.9809796,4.42751903 18.7642934,5.94128215 19.0455743,7.60107889 C19.08474,7.8361574 19.2876895,8 19.5191231,8 C19.5476073,8 19.5725309,7.9964382 19.601015,7.99287641 C19.8609328,7.95369666 20.0389587,7.70437097 19.9926719,7.44435989 Z" id="Path"></path>
            </g>
        </g>
    </g>
</svg>