<?xml version="1.0" encoding="UTF-8"?>
<svg width="20px" height="20px" viewBox="0 0 20 20" version="1.1" xmlns="http://www.w3.org/2000/svg" xmlns:xlink="http://www.w3.org/1999/xlink">
    <!-- Generator: sketchtool 52.6 (67491) - http://www.bohemiancoding.com/sketch -->
    <title>B42E0C58-5B78-4ADA-BAA6-FCC0DADC5338</title>
    <desc>Created with sketchtool.</desc>
    <g id="Symbols" stroke="none" stroke-width="1" fill="none" fill-rule="evenodd">
        <g id="icon/-20-anniversaire-rose" fill="#E61C5D">
            <g id="confetti">
                <path d="M13.6140125,12.5212474 C13.5517256,12.3483992 13.3611227,12.2587942 13.188316,12.3210811 C13.0154678,12.383368 12.9258628,12.5739709 12.9881497,12.7467775 C12.9896881,12.7510187 12.9913098,12.7552183 12.9930146,12.7594179 C13.2963825,13.5511019 13.3183368,14.1565073 13.0528898,14.4226195 C12.730894,14.7439501 11.9288981,14.6434927 10.907027,14.1545114 C9.5389605,13.444158 8.2954262,12.5161746 7.22503119,11.4069023 C4.61945946,8.80099792 3.5443659,6.24399168 4.20931393,5.57904366 C4.42149688,5.41147609 4.6972973,5.34711019 4.96174636,5.40340956 C5.14494802,5.4168815 5.30440748,5.27925156 5.31787942,5.0960499 C5.33089397,4.9189605 5.20253638,4.76286902 5.02627859,4.7414553 C4.56378378,4.65962578 4.08927235,4.79446985 3.7389605,5.10735967 C2.52016632,6.32582121 4.38328482,9.50419958 6.75467775,11.8759252 C7.87821206,13.0385863 9.1837422,14.0103534 10.6199584,14.7529314 C10.8800416,14.8774636 11.1480665,14.9846985 11.4222869,15.0739293 L9.05887734,15.9700624 C5.90295218,14.7702287 3.63106029,11.9723909 3.10461538,8.63733888 C3.07613306,8.455842 2.90590437,8.33176715 2.72440748,8.36024948 C2.5429106,8.38873181 2.41883576,8.5589605 2.44731809,8.74045738 C2.49954262,9.07309771 2.56939709,9.40573805 2.65488565,9.73106029 C3.42087318,12.6333056 5.43837838,15.0443243 8.16008316,16.3100208 L4.27018711,17.7819543 C4.25234927,17.752183 4.22989605,17.7254886 4.20365904,17.7027859 C3.21505198,16.9090644 2.59476091,15.7450312 2.48723493,14.4818295 L2.33288981,12.6127235 C2.32074844,12.4316424 2.16407484,12.2946778 1.98295218,12.3068191 C1.97950104,12.3070686 1.9760499,12.3073181 1.97264033,12.3076923 C1.78952183,12.3222453 1.65284823,12.4825364 1.66740125,12.6656549 C1.66744283,12.6664033 1.66752599,12.6671933 1.66760915,12.6679418 L1.82461538,14.5363825 C1.94153846,15.8866112 2.57139293,17.1406653 3.58461538,18.0407484 L0.80972973,19.0912266 L1.30869023,17.0434927 C1.35222453,16.8649064 1.24278586,16.6848649 1.06419958,16.6413306 C0.885613306,16.5977963 0.705571726,16.7072349 0.662037422,16.8858212 L0.0130561331,19.5469439 C-0.0306860707,19.7253638 0.0785031185,19.9054886 0.256964657,19.9491892 C0.322411642,19.9652391 0.391143451,19.9609979 0.454137214,19.937131 L12.7618295,15.2801663 C12.7814137,15.2706029 12.7999168,15.2590021 12.8170478,15.2455717 C13.0834096,15.204657 13.3303534,15.0814969 13.5232432,14.8933056 C13.8528482,14.563659 14.1365904,13.8840748 13.6140125,12.5212474 Z" id="Path"></path>
                <path d="M16.7531393,11.663368 C14.9549272,10.9901871 13.0113514,10.8014553 11.1172141,11.1161746 L9.92869023,11.3157588 C9.74827443,11.3504366 9.63014553,11.5247817 9.66482328,11.7051975 C9.6983368,11.879501 9.86278586,11.9967983 10.0384615,11.9717256 L11.2266528,11.7738046 C13.0055301,11.4780457 14.8309356,11.6554262 16.5196258,12.2880665 C16.5570894,12.3013306 16.596632,12.3079834 16.6363825,12.3076923 C16.8200832,12.3079834 16.9692723,12.1593347 16.9695634,11.9755925 C16.9698129,11.8365073 16.8834927,11.7119751 16.7531393,11.663368 Z" id="Path"></path>
                <path d="M17.9356757,6.50977131 C17.8566736,6.34386694 17.6581705,6.27343035 17.4922661,6.35243243 L10.5068191,9.67883576 C10.3409563,9.75779626 10.2704782,9.9562578 10.3494387,10.1221622 C10.3494387,10.1222037 10.3494802,10.1222453 10.3494802,10.1222453 C10.4284407,10.2881081 10.6269023,10.3585863 10.7928067,10.2796258 C10.7928482,10.2796258 10.7928482,10.2795842 10.7928898,10.2795842 L17.7783368,6.95318087 C17.9442412,6.87417879 18.0146778,6.67567568 17.9356757,6.50977131 Z" id="Path"></path>
                <path d="M8.08220374,2.25762994 C8.04561331,2.07758836 7.87002079,1.96128898 7.68997921,1.99787942 C7.50993763,2.03446985 7.39363825,2.21006237 7.43022869,2.39010395 C7.43101871,2.39409563 7.43193347,2.39804574 7.43288981,2.40199584 C7.85392931,4.28303534 7.6804158,6.24844075 6.9362578,8.02661123 L6.45259875,9.18719335 C6.3827027,9.35629938 6.4624948,9.55010395 6.63122661,9.62095634 C6.67164241,9.63796258 6.71509356,9.64665281 6.7589605,9.64656965 C6.89322245,9.64656965 7.01430353,9.56590437 7.06598753,9.44199584 L7.54997921,8.28274428 C8.34727651,6.37800416 8.53326403,4.27264033 8.08220374,2.25762994 Z" id="Path"></path>
                <path d="M18.2995842,11.975052 C17.7484407,11.975052 17.3016632,12.4218295 17.3016632,12.972973 C17.3016632,13.5241164 17.7484407,13.970894 18.2995842,13.970894 C18.8507277,13.970894 19.2975052,13.5241164 19.2975052,12.972973 C19.2975052,12.4218295 18.8507277,11.975052 18.2995842,11.975052 Z M18.2995842,13.3056133 C18.1158836,13.3056133 17.9669439,13.1566736 17.9669439,12.972973 C17.9669439,12.7892723 18.1158836,12.6403326 18.2995842,12.6403326 C18.4832848,12.6403326 18.6322245,12.7892723 18.6322245,12.972973 C18.6322245,13.1566736 18.4832848,13.3056133 18.2995842,13.3056133 Z" id="Shape" fill-rule="nonzero"></path>
                <path d="M10.3162162,2.66112266 C9.76507277,2.66112266 9.31829522,3.10790021 9.31829522,3.65904366 C9.31829522,4.21018711 9.76507277,4.65696466 10.3162162,4.65696466 C10.8673597,4.65696466 11.3141372,4.21018711 11.3141372,3.65904366 C11.3141372,3.10790021 10.8673597,2.66112266 10.3162162,2.66112266 Z M10.3162162,3.99168399 C10.1325156,3.99168399 9.98357588,3.84274428 9.98357588,3.65904366 C9.98357588,3.47534304 10.1325156,3.32640333 10.3162162,3.32640333 C10.4999168,3.32640333 10.6488565,3.47534304 10.6488565,3.65904366 C10.6488565,3.84274428 10.4999168,3.99168399 10.3162162,3.99168399 Z" id="Shape" fill-rule="nonzero"></path>
                <circle id="Oval" cx="7.32245322" cy="0.665280665" r="1"></circle>
                <path d="M16.6363825,1.66320166 C16.4526819,1.66320166 16.3037422,1.81214137 16.3037422,1.995842 L16.3037422,2.32848233 C16.3037422,2.51218295 16.4526819,2.66112266 16.6363825,2.66112266 C16.8200832,2.66112266 16.9690229,2.51218295 16.9690229,2.32848233 L16.9690229,1.995842 C16.9690229,1.81214137 16.8200832,1.66320166 16.6363825,1.66320166 Z" id="Path"></path>
                <path d="M16.6363825,0 C16.4526819,0 16.3037422,0.148939709 16.3037422,0.332640333 L16.3037422,0.665280665 C16.3037422,0.848981289 16.4526819,0.997920998 16.6363825,0.997920998 C16.8200832,0.997920998 16.9690229,0.848981289 16.9690229,0.665280665 L16.9690229,0.332640333 C16.9690229,0.148939709 16.8200832,0 16.6363825,0 Z" id="Path"></path>
                <path d="M17.6343035,0.997920998 L17.3016632,0.997920998 C17.1179626,0.997920998 16.9690229,1.14686071 16.9690229,1.33056133 C16.9690229,1.51426195 17.1179626,1.66320166 17.3016632,1.66320166 L17.6343035,1.66320166 C17.8180042,1.66320166 17.9669439,1.51426195 17.9669439,1.33056133 C17.9669439,1.14686071 17.8180042,0.997920998 17.6343035,0.997920998 Z" id="Path"></path>
                <path d="M15.9711019,0.997920998 L15.6384615,0.997920998 C15.4547609,0.997920998 15.3058212,1.14686071 15.3058212,1.33056133 C15.3058212,1.51426195 15.4547609,1.66320166 15.6384615,1.66320166 L15.9711019,1.66320166 C16.1548025,1.66320166 16.3037422,1.51426195 16.3037422,1.33056133 C16.3037422,1.14686071 16.1548025,0.997920998 15.9711019,0.997920998 Z" id="Path"></path>
                <path d="M14.3079002,3.65205821 L12.6377131,3.65205821 C12.4540125,3.65205821 12.3050728,3.80099792 12.3050728,3.98469854 L12.3050728,5.65488565 C12.3050728,5.83858628 12.4540125,5.98752599 12.6377131,5.98752599 L14.3079002,5.98752599 C14.4916008,5.98752599 14.6405405,5.83858628 14.6405405,5.65488565 L14.6405405,3.98469854 C14.6405405,3.80099792 14.4916008,3.65205821 14.3079002,3.65205821 Z M13.9752599,5.32224532 L12.9703534,5.32224532 L12.9703534,4.31733888 L13.9752599,4.31733888 L13.9752599,5.32224532 Z" id="Shape" fill-rule="nonzero"></path>
                <path d="M11.884657,6.42977131 C11.7625364,6.29941788 11.5592931,6.28877339 11.4242412,6.40565489 L8.09783784,9.39941788 C7.96137214,9.52232848 7.95035343,9.73259875 8.07322245,9.86910603 C8.19613306,10.0055717 8.40640333,10.0165904 8.5429106,9.89372141 L11.8693139,6.89995842 C12.0034096,6.77434511 12.0102703,6.56386694 11.884657,6.42977131 Z" id="Path"></path>
                <path d="M17.9669439,7.65072765 C17.7832432,7.65072765 17.6343035,7.79966736 17.6343035,7.98336798 L17.6343035,8.31600832 C17.6343035,8.49970894 17.7832432,8.64864865 17.9669439,8.64864865 C18.1506445,8.64864865 18.2995842,8.49970894 18.2995842,8.31600832 L18.2995842,7.98336798 C18.2995842,7.79966736 18.1506445,7.65072765 17.9669439,7.65072765 Z" id="Path"></path>
                <path d="M19.3783368,7.59351351 L19.1431601,7.3583368 C19.0110187,7.23068607 18.8004574,7.23434511 18.6728067,7.36648649 C18.548316,7.49538462 18.548316,7.69975052 18.6728067,7.82869023 L18.9079834,8.06386694 C19.0401247,8.19151767 19.2506861,8.18785863 19.3783368,8.05571726 C19.502869,7.92677755 19.502869,7.72241164 19.3783368,7.59351351 Z" id="Path"></path>
                <path d="M19.6301455,6.32016632 L19.2975052,6.32016632 C19.1138046,6.32016632 18.9648649,6.46910603 18.9648649,6.65280665 C18.9648649,6.83650728 19.1138046,6.98544699 19.2975052,6.98544699 L19.6301455,6.98544699 C19.8138462,6.98544699 19.9627859,6.83650728 19.9627859,6.65280665 C19.9627859,6.46910603 19.8138462,6.32016632 19.6301455,6.32016632 Z" id="Path"></path>
                <path d="M19.3701871,5.24174636 C19.241289,5.11725572 19.0369231,5.11725572 18.9079834,5.24174636 L18.6728067,5.47692308 C18.5429106,5.60686071 18.5429522,5.81746362 18.6728898,5.94735967 C18.7352599,6.00968815 18.8198337,6.04474012 18.9079834,6.04474012 C18.9962162,6.04474012 19.08079,6.00964657 19.1431601,5.94727651 L19.3783368,5.71209979 C19.5059875,5.57995842 19.5023285,5.36935551 19.3701871,5.24174636 Z" id="Path"></path>
                <path d="M17.9669439,4.65696466 C17.7832432,4.65696466 17.6343035,4.80590437 17.6343035,4.98960499 L17.6343035,5.32224532 C17.6343035,5.50594595 17.7832432,5.65488565 17.9669439,5.65488565 C18.1506445,5.65488565 18.2995842,5.50594595 18.2995842,5.32224532 L18.2995842,4.98960499 C18.2995842,4.80590437 18.1506445,4.65696466 17.9669439,4.65696466 Z" id="Path"></path>
                <path d="M17.2610811,5.47692308 L17.0259044,5.24174636 C16.893763,5.11413721 16.6832017,5.11775468 16.5555509,5.24989605 C16.4310603,5.37879418 16.4310603,5.58316008 16.5555509,5.71209979 L16.7907277,5.94727651 C16.922869,6.07492723 17.1334304,6.07126819 17.2610811,5.93912682 C17.3856133,5.81018711 17.3856133,5.60582121 17.2610811,5.47692308 Z" id="Path"></path>
                <path d="M3.97975052,1.4383368 C3.94058212,1.31800416 3.83650728,1.23035343 3.71130977,1.21214137 L2.7350104,1.07010395 L2.2995842,0.185613306 C2.20253638,0.0208316008 1.99027027,-0.0340956341 1.82548857,0.062952183 C1.77484407,0.0927650728 1.73264033,0.134968815 1.70282744,0.185613306 L1.26540541,1.07010395 L0.289106029,1.21214137 C0.107276507,1.23837838 -0.0188357588,1.40706861 0.0074012474,1.58889813 C0.0178378378,1.66128898 0.0518503119,1.72819127 0.104158004,1.77929314 L0.81035343,2.46785863 L0.644033264,3.44016632 C0.612099792,3.62108108 0.732848233,3.79363825 0.913762994,3.82557173 C0.986611227,3.83841996 1.06162162,3.82665281 1.12702703,3.79209979 L2.0002079,3.33172557 L2.87338877,3.79076923 C3.03600832,3.8762578 3.23713098,3.81376299 3.32261954,3.65114345 C3.3566736,3.58640333 3.36839917,3.51226611 3.3560499,3.44016632 L3.18972973,2.46785863 L3.8962578,1.77929314 C3.98669439,1.69076923 4.01904366,1.55862786 3.97975052,1.4383368 Z M2.5989605,2.11359667 C2.5206237,2.18989605 2.48482328,2.29983368 2.50316008,2.40765073 L2.58565489,2.88831601 L2.15488565,2.66112266 C2.05804574,2.61027027 1.94237006,2.61027027 1.84553015,2.66112266 L1.41309771,2.88798337 L1.49559252,2.40731809 C1.51426195,2.29991684 1.47908524,2.19014553 1.4014553,2.11359667 L1.05185031,1.77330561 L1.53451143,1.7031185 C1.64286902,1.68740125 1.73654886,1.61933472 1.7849896,1.52116424 L2.0002079,1.08440748 L2.21575884,1.52116424 C2.264158,1.61925156 2.35767152,1.68727651 2.46590437,1.7031185 L2.94823285,1.77330561 L2.5989605,2.11359667 Z" id="Shape" fill-rule="nonzero"></path>
                <path d="M18.8391268,16.6735967 L18.8377963,16.6735967 L18.7007484,16.4680249 C17.9323077,15.3188773 16.7239501,14.5375052 15.3607069,14.3081913 C15.1788358,14.2822453 15.0103534,14.4086486 14.9844075,14.5905198 C14.9593347,14.766237 15.076632,14.9306861 15.2509356,14.964158 C16.2342204,15.1310603 17.1303119,15.6306029 17.7893139,16.37921 C17.2352599,16.4788773 16.7506861,16.8116424 16.4587526,17.292973 C16.100499,17.9345946 16.3302287,18.7451143 16.9718503,19.103368 C17.6134719,19.4616216 18.4239917,19.2318919 18.7822453,18.5902703 C18.9190852,18.3261123 18.992973,18.0338462 18.9981289,17.7363825 C19.3520582,18.2504366 19.3803742,18.9217464 19.0709771,19.4637838 C18.9772557,19.6217879 19.0293555,19.8258628 19.1873597,19.9195842 C19.3453638,20.0133056 19.5494387,19.9612058 19.6431601,19.8032017 C19.6461538,19.7981289 19.6490229,19.7930146 19.6517672,19.7877755 C20.2608316,18.6998753 19.902079,17.3251975 18.8391268,16.6735967 Z M18.2021206,18.2656133 C18.0245738,18.5873181 17.6198753,18.704158 17.2982121,18.5266112 C16.9765489,18.3490644 16.8596674,17.9443659 17.0372141,17.6227027 C17.0382121,17.6209148 17.03921,17.6190852 17.0402079,17.6172973 C17.2365073,17.2958836 17.5676091,17.0804158 17.9409979,17.031185 C17.9988358,17.029605 18.0560915,17.0429106 18.1073181,17.0697713 C18.3880665,17.2264449 18.4030353,17.9056965 18.2021206,18.2656133 Z" id="Shape" fill-rule="nonzero"></path>
            </g>
        </g>
    </g>
</svg>