<?xml version="1.0" encoding="UTF-8"?>
<svg width="6px" height="11px" viewBox="0 0 6 11" version="1.1" xmlns="http://www.w3.org/2000/svg" xmlns:xlink="http://www.w3.org/1999/xlink">
    <!-- Generator: sketchtool 52.6 (67491) - http://www.bohemiancoding.com/sketch -->
    <title>8694A6F8-6BB3-4E60-994A-68FB5F55A22A</title>
    <desc>Created with sketchtool.</desc>
    <g id="Symbols" stroke="none" stroke-width="1" fill="none" fill-rule="evenodd">
        <g id="icon/after-2-copy" fill="#333333">
            <g id="close-circular-button-of-a-cross" transform="translate(0.000000, -1.000000)">
                <path d="M0.613229731,7 C0.456190574,7 0.299151416,6.94029749 0.179736223,6.82007463 C-0.0599120744,6.58044675 -0.0599120744,6.19115367 0.179736223,5.95152579 L5.15755867,1 C5.39720697,0.760372118 5.7857153,0.760372118 6.0253636,1 C6.2650119,1.23962788 6.2650119,1.62810312 6.0253636,1.867731 L1.04672324,6.82007463 C0.927308046,6.94029749 0.770268889,7 0.613229731,7 Z" id="Path"></path>
            </g>
            <g id="close-circular-button-of-a-cross-copy" transform="translate(3.500000, 8.500000) scale(1, -1) translate(-3.500000, -8.500000) translate(0.000000, 5.000000)">
                <path d="M0.613229731,7 C0.456190574,7 0.299151416,6.94029749 0.179736223,6.82007463 C-0.0599120744,6.58044675 -0.0599120744,6.19115367 0.179736223,5.95152579 L5.16138873,1.01853345 C5.40103703,0.77890557 5.78954536,0.77890557 6.02919366,1.01853345 C6.26884195,1.25816133 6.26884195,1.64663657 6.02919366,1.88626445 L1.04672324,6.82007463 C0.927308046,6.94029749 0.770268889,7 0.613229731,7 Z" id="Path"></path>
            </g>
        </g>
    </g>
</svg>