<svg xmlns="http://www.w3.org/2000/svg" width="20" height="20" viewBox="0 0 20 20">
    <g fill="#E82967" fill-rule="nonzero">
        <path d="M14.2 0H5.8C5 0 4.4.7 4.4 1.5v17.1c0 .8.6 1.4 1.4 1.4h8.4c.8 0 1.5-.7 1.5-1.5v-17C15.7.7 15 0 14.2 0zM5 2.7h10v12.7H5V2.7zm.8-2h8.4c.4 0 .8.4.8.8V2H5v-.5c0-.4.4-.8.8-.8zm8.4 18.7H5.8c-.4 0-.8-.4-.8-.8V16h10v2.5c0 .5-.3.9-.8.9z"/>
        <path d="M10 16.4c-.7 0-1.3.6-1.3 1.3 0 .7.6 1.3 1.3 1.3.7 0 1.3-.6 1.3-1.3 0-.7-.5-1.3-1.3-1.3zm0 2c-.4 0-.7-.3-.7-.7 0-.4.4-.7.7-.7.4 0 .7.3.7.7 0 .4-.3.7-.7.7zM8.7 1.7H10c.2 0 .3-.1.3-.3 0-.2-.1-.4-.3-.4H8.7c-.2 0-.3.2-.3.4s.1.3.3.3zM11 1.7h.3c.2 0 .3-.1.3-.3 0-.2-.1-.4-.2-.4H11c-.2 0-.3.1-.3.3 0 .2.1.4.3.4z"/>
    </g>
</svg>
