<svg xmlns="http://www.w3.org/2000/svg" width="19" height="20" viewBox="0 0 19 20">
    <g fill="#F8A812" fill-rule="nonzero">
        <path d="M18.862 5.412L13.767.118A.385.385 0 0 0 13.49 0H5.896c-.85 0-1.541.691-1.541 1.54v5.383H1.277c-.636 0-1.153.517-1.153 1.153v5.771C.124 14.483.64 15 1.277 15h3.078v3.462c0 .848.691 1.538 1.54 1.538H17.43c.85 0 1.541-.69 1.541-1.537V5.679c0-.1-.039-.195-.108-.267zm-5.277-4.374l4.183 4.347h-4.183V1.038zM1.277 14.231a.384.384 0 0 1-.384-.384V8.076c0-.212.172-.384.384-.384h10.386c.212 0 .384.172.384.384v5.771a.384.384 0 0 1-.384.384H1.277zm16.924 4.232a.77.77 0 0 1-.772.768H5.896a.771.771 0 0 1-.772-.769V15h6.539c.636 0 1.153-.517 1.153-1.153V8.076c0-.636-.517-1.153-1.153-1.153h-6.54V1.541c0-.426.347-.772.773-.772h6.92v5c0 .213.172.385.385.385h5v12.309z"/>
        <g transform="translate(2.5 10)">
            <circle cx="1" cy="1" r="1"/>
            <circle cx="4" cy="1" r="1"/>
            <circle cx="7" cy="1" r="1"/>
        </g>
    </g>
</svg>
