<?xml version="1.0" encoding="UTF-8"?>
<svg width="20px" height="20px" viewBox="0 0 20 20" version="1.1" xmlns="http://www.w3.org/2000/svg" xmlns:xlink="http://www.w3.org/1999/xlink">
    <!-- Generator: sketchtool 52.6 (67491) - http://www.bohemiancoding.com/sketch -->
    <title>0DF0610B-E86D-4C0E-B421-792626F2A1D7</title>
    <desc>Created with sketchtool.</desc>
    <g id="Symbols" stroke="none" stroke-width="1" fill="none" fill-rule="evenodd">
        <g id="icon/20-ligne-denumeroté">
            <path d="M4.08017625,5.09418202 L3.37611659,5.09418202 L3.37611659,1.69316658 L2.33748314,2.04810575 L2.33748314,1.45169158 L3.98998679,0.843640061 L4.08017625,0.843640061 L4.08017625,5.09418202 Z M11.3680665,5.09418202 L8.51982513,5.09418202 L8.51982513,4.60832267 L9.93085378,3.06928318 C10.1345084,2.84235373 10.2794889,2.6527638 10.3657997,2.50050772 C10.4521105,2.34825163 10.4952652,2.19551294 10.4952652,2.04228707 C10.4952652,1.840572 10.4385337,1.67765074 10.325069,1.55351839 C10.2116043,1.42938604 10.0588656,1.36732079 9.86684836,1.36732079 C9.63797933,1.36732079 9.46051153,1.43714419 9.33443961,1.57679309 C9.20836769,1.71644198 9.14533268,1.90748656 9.14533268,2.14993256 L8.43836369,2.14993256 C8.43836369,1.89197002 8.49703474,1.65971024 8.6143786,1.45314625 C8.73172246,1.24658226 8.89949258,1.08608542 9.11769397,0.971650907 C9.33589537,0.857216397 9.58755054,0.8 9.87266703,0.8 C10.2838554,0.8 10.6082433,0.903280445 10.8458404,1.10984443 C11.0834375,1.31640842 11.2022342,1.60200552 11.2022342,1.9666443 C11.2022342,2.17805721 11.1425934,2.39964953 11.02331,2.6314279 C10.9040265,2.86320627 10.708618,3.12649867 10.4370785,3.42131301 L9.40135437,4.52977056 L11.3680665,4.52977056 L11.3680665,5.09418202 Z M15.6913418,2.65324793 L16.1219238,2.65324793 C16.3391554,2.65130836 16.5112895,2.59506173 16.6383312,2.48450636 C16.7653729,2.37395099 16.8288928,2.21393903 16.8288928,2.00446569 C16.8288928,1.80275062 16.7760403,1.64613285 16.6703339,1.5346077 C16.5646274,1.42308254 16.4031608,1.36732079 16.1859292,1.36732079 C15.9958515,1.36732079 15.8397187,1.42211277 15.7175259,1.53169836 C15.5953331,1.64128395 15.5342376,1.78432494 15.5342376,1.96082563 L14.8272686,1.96082563 C14.8272686,1.74359401 14.8849699,1.54576105 15.0003742,1.36732079 C15.1157785,1.18888054 15.2767602,1.04971863 15.4833242,0.949830877 C15.6898882,0.849943126 15.9211782,0.8 16.1772012,0.8 C16.600027,0.8 16.932173,0.906189754 17.1736493,1.11857245 C17.4151255,1.33095514 17.5358618,1.62624993 17.5358618,2.00446569 C17.5358618,2.19454335 17.4752512,2.37346581 17.3540282,2.54123844 C17.2328052,2.70901107 17.0761874,2.83556598 16.8841702,2.92090697 C17.1169183,3.00042926 17.2939013,3.12552952 17.4151243,3.2962115 C17.5363473,3.46689348 17.5969579,3.67054506 17.5969579,3.90717235 C17.5969579,4.28732768 17.4665239,4.58989574 17.205652,4.81488563 C16.9447801,5.03987551 16.6019666,5.15236876 16.1772012,5.15236876 C15.7698919,5.15236876 15.4362912,5.04375459 15.1763891,4.82652297 C14.916487,4.60929136 14.7865379,4.32030007 14.7865379,3.95954043 L15.4935069,3.95954043 C15.4935069,4.14573895 15.556057,4.29702298 15.6811592,4.41339706 C15.8062613,4.52977114 15.9745163,4.58795731 16.1859292,4.58795731 C16.4051004,4.58795731 16.5777193,4.52977114 16.7037913,4.41339706 C16.8298632,4.29702298 16.8928982,4.1282831 16.8928982,3.90717235 C16.8928982,3.68412204 16.8269539,3.51247285 16.6950633,3.39221963 C16.5631726,3.27196642 16.3672792,3.21184071 16.1073771,3.21184071 L15.6913418,3.21184071 L15.6913418,2.65324793 Z M4.55730758,10.7342235 L5.08389765,10.7342235 L5.08389765,11.3015443 L4.55730758,11.3015443 L4.55730758,12.2441696 L3.85033859,12.2441696 L3.85033859,11.3015443 L2.02036536,11.3015443 L2,10.8709624 L3.82706389,8.00817437 L4.55730758,8.00817437 L4.55730758,10.7342235 Z M2.74188104,10.7342235 L3.85033859,10.7342235 L3.85033859,8.96534637 L3.79797052,9.05844517 L2.74188104,10.7342235 Z M8.70893207,10.143628 L8.93876972,8.00817437 L11.2138716,8.00817437 L11.2138716,8.61913522 L9.52645588,8.61913522 L9.41008238,9.63158464 C9.60597875,9.5190897 9.82708618,9.46284307 10.0734113,9.46284307 C10.4768414,9.46284307 10.7905619,9.59182241 11.014582,9.84978495 C11.2386021,10.1077475 11.3506104,10.4549249 11.3506104,10.8913277 C11.3506104,11.3219118 11.2264799,11.6647253 10.9782152,11.9197785 C10.7299505,12.1748317 10.3895615,12.3023564 9.95703782,12.3023564 C9.56912422,12.3023564 9.24764565,12.1922876 8.99259246,11.9721466 C8.73753928,11.7520056 8.59934713,11.4615597 8.57801188,11.1008 L9.26170617,11.1008 C9.28886013,11.3063942 9.3625626,11.4639818 9.48281582,11.5735674 C9.60306903,11.683153 9.76017168,11.7379449 9.95412848,11.7379449 C10.1713601,11.7379449 10.3405849,11.6603634 10.4618079,11.5051979 C10.5830309,11.3500325 10.6436414,11.1386228 10.6436414,10.8709624 C10.6436414,10.6129998 10.5767274,10.4088634 10.4428972,10.2585469 C10.309067,10.1082303 10.1248108,10.0330732 9.89012305,10.0330732 C9.76211157,10.0330732 9.65349739,10.0500442 9.56427726,10.0839866 C9.47505714,10.117929 9.37808019,10.1843583 9.27334352,10.2832762 L8.70893207,10.143628 Z M17.0732771,7.987809 L17.0732771,8.57258582 L16.985997,8.57258582 C16.5903251,8.57840453 16.2741803,8.6870187 16.037553,8.89843161 C15.8009257,9.10984452 15.6603091,9.40950328 15.6156991,9.79741687 C15.8426285,9.55885001 16.1325896,9.43956837 16.485591,9.43956837 C16.8599276,9.43956837 17.1552224,9.57145702 17.3714842,9.83523826 C17.587746,10.0990195 17.6958753,10.4394086 17.6958753,10.8564157 C17.6958753,11.2869998 17.5693204,11.6356319 17.3162068,11.9023225 C17.0630932,12.1690131 16.7309471,12.3023564 16.3197587,12.3023564 C15.8969329,12.3023564 15.5541194,12.1462235 15.291308,11.8339531 C15.0284965,11.5216826 14.8970927,11.1124399 14.8970927,10.6062127 L14.8970927,10.3647377 C14.8970927,9.62188313 15.0779547,9.04002147 15.4396842,8.61913522 C15.8014136,8.19824897 16.3216949,7.987809 17.0005437,7.987809 L17.0732771,7.987809 Z M16.3139401,10.0097985 C16.1587746,10.0097985 16.0167034,10.0534381 15.8877221,10.1407187 C15.7587409,10.2279992 15.6641883,10.3443716 15.6040617,10.4898392 L15.6040617,10.7051301 C15.6040617,11.0193402 15.670006,11.2690558 15.8018967,11.4542845 C15.9337873,11.6395133 16.1044667,11.7321263 16.3139401,11.7321263 C16.5234134,11.7321263 16.689244,11.6535749 16.8114368,11.4964699 C16.9336295,11.3393649 16.994725,11.132804 16.994725,10.8767811 C16.994725,10.6207581 16.9326598,10.4122577 16.8085274,10.2512735 C16.6843951,10.0902894 16.5195343,10.0097985 16.3139401,10.0097985 Z M4.98498018,15.5509225 L3.29174581,19.3941573 L2.54986477,19.3941573 L4.24018981,15.7254828 L2.04945874,15.7254828 L2.04945874,15.158162 L4.98498018,15.158162 L4.98498018,15.5509225 Z M11.1876875,16.2753475 C11.1876875,16.4828813 11.1343502,16.6676224 11.027674,16.8295763 C10.9209977,16.9915303 10.7755323,17.1190549 10.5912734,17.2121542 C10.8123841,17.3149513 10.9825787,17.4555679 11.1018621,17.6340081 C11.2211455,17.8124484 11.2807863,18.0141604 11.2807863,18.2391503 C11.2807863,18.6115474 11.1547163,18.9068421 10.9025725,19.1250435 C10.6504286,19.3432449 10.3148884,19.452344 9.89594173,19.452344 C9.47505548,19.452344 9.1380606,19.3427601 8.88494698,19.1235889 C8.63183336,18.9044177 8.50527845,18.6096078 8.50527845,18.2391503 C8.50527845,18.0122208 8.56540415,17.8085693 8.68565737,17.6281894 C8.80591058,17.4478096 8.97465046,17.3091326 9.19188208,17.2121542 C9.00956269,17.1190549 8.86555193,16.9915303 8.75984547,16.8295763 C8.65413902,16.6676224 8.60128658,16.4828813 8.60128658,16.2753475 C8.60128658,15.9145879 8.71765891,15.6285059 8.95040707,15.417093 C9.18315523,15.2056801 9.49736053,15.0999752 9.89303239,15.0999752 C10.2906438,15.0999752 10.6058189,15.2056801 10.8385671,15.417093 C11.0713152,15.6285059 11.1876875,15.9145879 11.1876875,16.2753475 Z M10.5738173,18.2042383 C10.5738173,17.9947649 10.5112672,17.8255401 10.3861651,17.6965589 C10.2610629,17.5675776 10.0957173,17.5030879 9.89012305,17.5030879 C9.68452885,17.5030879 9.52015293,17.5670927 9.39699036,17.6951042 C9.2738278,17.8231157 9.21224744,17.9928253 9.21224744,18.2042383 C9.21224744,18.411772 9.27285803,18.5776026 9.39408103,18.7017349 C9.51530402,18.8258673 9.68258925,18.8879325 9.89594173,18.8879325 C10.1092942,18.8879325 10.2756097,18.8278068 10.3948931,18.7075536 C10.5141765,18.5873004 10.5738173,18.4195303 10.5738173,18.2042383 Z M10.4836279,16.3015316 C10.4836279,16.1172726 10.4302906,15.9655037 10.3236143,15.8462203 C10.2169381,15.7269369 10.0734122,15.667296 9.89303239,15.667296 C9.71265257,15.667296 9.57009646,15.7240275 9.46535979,15.8374923 C9.36062312,15.950957 9.30825557,16.1056352 9.30825557,16.3015316 C9.30825557,16.4954884 9.36110801,16.6496817 9.46681446,16.7641162 C9.57252092,16.8785507 9.71556191,16.9357671 9.89594173,16.9357671 C10.0763216,16.9357671 10.2193625,16.8785507 10.325069,16.7641162 C10.4307755,16.6496817 10.4836279,16.4954884 10.4836279,16.3015316 Z M16.8783515,17.6223708 C16.6417242,17.872575 16.3653399,17.9976753 16.0491904,17.9976753 C15.6767933,17.9976753 15.3800439,17.8672413 15.1589331,17.6063694 C14.9378224,17.3454975 14.8272686,17.002684 14.8272686,16.5779186 C14.8272686,16.2986209 14.8835153,16.045511 14.9960102,15.8185816 C15.1085052,15.5916521 15.2685171,15.4151541 15.4760509,15.2890822 C15.6835847,15.1630102 15.9240875,15.0999752 16.1975666,15.0999752 C16.6242715,15.0999752 16.962721,15.2590174 17.2129253,15.5771066 C17.4631296,15.8951957 17.5882298,16.3209245 17.5882298,16.8543057 L17.5882298,17.0521406 C17.5882298,17.8163304 17.4156109,18.3991619 17.0703678,18.8006524 C16.7251247,19.202143 16.2101771,19.4057946 15.5255096,19.4116133 L15.4411388,19.4116133 L15.4411388,18.8268365 L15.5429656,18.8268365 C15.9599728,18.8210178 16.2799967,18.7206466 16.503047,18.52572 C16.7260973,18.3307935 16.8511976,18.02968 16.8783515,17.6223708 Z M16.1975666,17.4449012 C16.339155,17.4449012 16.4720134,17.4041709 16.5961458,17.322709 C16.7202781,17.2412472 16.8162853,17.1287539 16.8841702,16.9852259 L16.8841702,16.7088388 C16.8841702,16.3965684 16.8201654,16.1453981 16.6921539,15.9553204 C16.5641424,15.7652428 16.3983119,15.6702054 16.1946572,15.6702054 C15.9910026,15.6702054 15.8285662,15.7540904 15.7073432,15.9218631 C15.5861202,16.0896357 15.5255096,16.3015303 15.5255096,16.5575533 C15.5255096,16.8232741 15.5866051,17.0375931 15.7087979,17.2005168 C15.8309907,17.3634406 15.9939119,17.4449012 16.1975666,17.4449012 Z" id="1-2-3-4-5-6-7-8-9" fill="#777777"></path>
            <path d="M7.33322222,13.5212222 C7.24788889,13.5212222 7.16255556,13.4887778 7.09766667,13.4234444 C6.96744444,13.2932222 6.96744444,13.0816667 7.09766667,12.9514444 L12.9514444,7.09766667 C13.0816667,6.96744444 13.2927778,6.96744444 13.423,7.09766667 C13.5532222,7.22788889 13.5532222,7.439 13.423,7.56922222 L7.56877778,13.4234444 C7.50388889,13.4887778 7.41855556,13.5212222 7.33322222,13.5212222 Z" id="Path" fill="#ED5565"></path>
            <path d="M13.1874444,13.5207778 C13.1021111,13.5207778 13.0167778,13.4883333 12.9518889,13.423 L7.09766667,7.56922222 C6.96744444,7.439 6.96744444,7.22788889 7.09766667,7.09766667 C7.22788889,6.96744444 7.439,6.96744444 7.56922222,7.09766667 L13.423,12.9514444 C13.5532222,13.0816667 13.5532222,13.2932222 13.423,13.4234444 C13.3581111,13.4883333 13.2727778,13.5207778 13.1874444,13.5207778 Z" id="Path" fill="#ED5565"></path>
        </g>
    </g>
</svg>