<?xml version="1.0" encoding="UTF-8"?>
<svg width="20px" height="20px" viewBox="0 0 20 20" version="1.1" xmlns="http://www.w3.org/2000/svg" xmlns:xlink="http://www.w3.org/1999/xlink">
    <!-- Generator: sketchtool 52.6 (67491) - http://www.bohemiancoding.com/sketch -->
    <title>69302552-C0C4-4D63-8E0A-8B4F77D3B6E5</title>
    <desc>Created with sketchtool.</desc>
    <g id="Symbols" stroke="none" stroke-width="1" fill="none" fill-rule="evenodd">
        <g id="icon/-20-sortie-red" fill="#ED5565">
            <g id="close-circular-button-of-a-cross">
                <path d="M6.90355556,13.0911111 C6.81822222,13.0911111 6.73288889,13.0586667 6.668,12.9933333 C6.53777778,12.8631111 6.53777778,12.6515556 6.668,12.5213333 L12.5217778,6.66755556 C12.652,6.53733333 12.8631111,6.53733333 12.9933333,6.66755556 C13.1235556,6.79777778 13.1235556,7.00888889 12.9933333,7.13911111 L7.13911111,12.9933333 C7.07422222,13.0586667 6.98888889,13.0911111 6.90355556,13.0911111 Z" id="Path"></path>
                <path d="M12.7573333,13.0911111 C12.672,13.0911111 12.5866667,13.0586667 12.5217778,12.9933333 L6.66755556,7.13955556 C6.53733333,7.00933333 6.53733333,6.79822222 6.66755556,6.668 C6.79777778,6.53777778 7.00888889,6.53777778 7.13911111,6.668 L12.9928889,12.5217778 C13.1231111,12.652 13.1231111,12.8635556 12.9928889,12.9937778 C12.928,13.0586667 12.8426667,13.0911111 12.7573333,13.0911111 Z" id="Path"></path>
                <path d="M9.83066667,19.6608889 C4.40977778,19.6608889 0,15.2511111 0,9.83111111 C0,4.41066667 4.40977778,0.000444444444 9.83066667,0.000444444444 C15.2515556,0.000444444444 19.6613333,4.41022222 19.6613333,9.83111111 C19.6613333,15.252 15.2506667,19.6608889 9.83066667,19.6608889 Z M9.83066667,0.667111111 C4.77777778,0.667111111 0.666666667,4.77822222 0.666666667,9.83111111 C0.666666667,14.884 4.77777778,18.9951111 9.83066667,18.9951111 C14.8835556,18.9951111 18.9946667,14.884 18.9946667,9.83111111 C18.9946667,4.77822222 14.8835556,0.667111111 9.83066667,0.667111111 Z" id="Shape" fill-rule="nonzero"></path>
            </g>
        </g>
    </g>
</svg>