<svg xmlns="http://www.w3.org/2000/svg" width="20" height="20" viewBox="0 0 20 20">
    <g fill="#0D8FB6" fill-rule="nonzero">
        <path d="M16.62 13.576a1.302 1.302 0 0 1-1.84 0l-.29-.291-9.387 4.886c.35.451.31 1.092-.092 1.496a1.14 1.14 0 0 1-1.61 0L1.333 17.6a1.14 1.14 0 0 1 0-1.61 1.136 1.136 0 0 1 1.495-.092l.336-.646a1.093 1.093 0 0 1-.448-.117 1.107 1.107 0 0 1-.483-1.487l1.774-3.474a1.102 1.102 0 0 1 1.487-.482c.161.083.29.202.39.34l1.832-3.52-.292-.291a1.302 1.302 0 0 1 1.84-1.84l7.356 7.357a1.3 1.3 0 0 1 0 1.839zM5.199 10.27a.455.455 0 0 0-.614.198l-1.773 3.476a.455.455 0 0 0 .81.414l1.775-3.474a.455.455 0 0 0-.198-.613zM2.482 16.45a.488.488 0 0 0-.69.69l2.07 2.068a.488.488 0 0 0 .69-.689l-.04-.039-1.991-1.991-.04-.04zm.836-.084l1.316 1.317 9.373-4.88-5.81-5.809-4.88 9.373v-.001zM8.804 4.84a.65.65 0 0 0-.92.92l.146.146 7.064 7.064.147.146a.65.65 0 0 0 .92-.92L8.803 4.84zM14.416 6.048l-.232.231a.328.328 0 1 1-.463-.463l.23-.232a.328.328 0 1 1 .465.464zm-1.623.696l.232-.232a.328.328 0 1 1 .463.463l-.232.232a.328.328 0 1 1-.463-.463zm2.55-1.623l-.232.232a.328.328 0 1 1-.464-.464l.232-.232a.328.328 0 1 1 .464.464zm1.458 4.32a.327.327 0 0 1 .232-.096h.328a.328.328 0 0 1 0 .655h-.328a.328.328 0 0 1-.231-.56l-.001.001zm1.312 0a.327.327 0 0 1 .232-.096h.327a.328.328 0 0 1 0 .655h-.327a.328.328 0 0 1-.232-.56v.001zm-2.623 0a.327.327 0 0 1 .232-.096h.328a.328.328 0 0 1 0 .655h-.328a.328.328 0 0 1-.232-.56v.001zm-.719-1.013l-.293.147a.328.328 0 1 1-.293-.586l.293-.148a.328.328 0 1 1 .293.587zm.502-.964a.327.327 0 0 1 .084-.062l.293-.147a.328.328 0 1 1 .293.587l-.293.147a.328.328 0 0 1-.377-.525zm1.11-.208a.328.328 0 0 1 .147-.44l.294-.147a.328.328 0 0 1 .293.586l-.292.148a.328.328 0 0 1-.441-.148v.001zm-5.728-5.601a.328.328 0 1 1-.655 0v-.327a.328.328 0 1 1 .655 0v.327zm0 1.312a.328.328 0 1 1-.655 0v-.328a.327.327 0 0 1 .328-.328c.18 0 .327.148.327.328v.328zm0 1.311a.328.328 0 1 1-.655 0V3.95a.327.327 0 0 1 .328-.328c.18 0 .327.148.327.328v.328zm1.356.07l.148-.291a.327.327 0 0 1 .604.042.328.328 0 0 1-.018.25l-.148.294a.328.328 0 1 1-.585-.294zm.148 1.174l-.148.293a.328.328 0 1 1-.586-.293l.147-.293a.327.327 0 0 1 .44-.146.328.328 0 0 1 .147.44zm1.172-2.346l-.146.294a.328.328 0 0 1-.587-.295l.147-.293a.328.328 0 1 1 .586.294z"/>
    </g>
</svg>
