<?xml version="1.0" encoding="UTF-8"?>
<svg width="20px" height="20px" viewBox="0 0 20 20" version="1.1" xmlns="http://www.w3.org/2000/svg" xmlns:xlink="http://www.w3.org/1999/xlink">
    <!-- Generator: Sketch 52.6 (67491) - http://www.bohemiancoding.com/sketch -->
    <title>icon/ 20-exclamation copy</title>
    <desc>Created with Sketch.</desc>
    <g id="icon/-20-exclamation-copy" stroke="none" stroke-width="1" fill="none" fill-rule="evenodd">
        <g id="close-circular-button-of-a-cross" fill="#FFFFFF" fill-rule="nonzero">
            <path d="M9.83066667,19.6604444 C4.40977778,19.6604444 0,15.2506667 0,9.83066667 C0,4.41022222 4.40977778,0 9.83066667,0 C15.2515556,0 19.6613333,4.40977778 19.6613333,9.83066667 C19.6613333,15.2515556 15.2506667,19.6604444 9.83066667,19.6604444 Z M9.83066667,0.666666667 C4.77777778,0.666666667 0.666666667,4.77777778 0.666666667,9.83066667 C0.666666667,14.8835556 4.77777778,18.9946667 9.83066667,18.9946667 C14.8835556,18.9946667 18.9946667,14.8835556 18.9946667,9.83066667 C18.9946667,4.77777778 14.8835556,0.666666667 9.83066667,0.666666667 Z" id="Shape"></path>
        </g>
        <path d="M10.27832,12.1435532 L9.13671872,12.1435532 L9.04785155,5 L10.3740232,5 L10.27832,12.1435532 Z M9,14.3173809 C9,14.1123018 9.06266212,13.9402658 9.18798824,13.8012677 C9.31331436,13.6622696 9.4990221,13.5927716 9.74511703,13.5927716 C9.99121196,13.5927716 10.178059,13.6622696 10.3056638,13.8012677 C10.4332686,13.9402658 10.49707,14.1123018 10.49707,14.3173809 C10.49707,14.52246 10.4332686,14.6922174 10.3056638,14.8266581 C10.178059,14.9610989 9.99121196,15.0283182 9.74511703,15.0283182 C9.4990221,15.0283182 9.31331436,14.9610989 9.18798824,14.8266581 C9.06266212,14.6922174 9,14.52246 9,14.3173809 Z" id="!" fill="#FFFFFF"></path>
    </g>
</svg>