<?xml version="1.0" encoding="UTF-8"?>
<svg width="20px" height="20px" viewBox="0 0 20 20" version="1.1" xmlns="http://www.w3.org/2000/svg" xmlns:xlink="http://www.w3.org/1999/xlink">
    <!-- Generator: sketchtool 52.6 (67491) - http://www.bohemiancoding.com/sketch -->
    <title>84C2A584-3280-4DDB-9275-3231C077EEC0</title>
    <desc>Created with sketchtool.</desc>
    <g id="Symbols" stroke="none" stroke-width="1" fill="none" fill-rule="evenodd">
        <g id="icon/20-filtre-nbr-2">
            <g id="right-arrow" transform="translate(5.500000, 10.500000) rotate(90.000000) translate(-5.500000, -10.500000) translate(-3.000000, 5.000000)" fill="#4480C8">
                <path d="M11.4476024,0.16543221 C11.2160051,-0.0551440701 10.8305494,-0.0551440701 10.5908542,0.16543221 C10.3592569,0.378556589 10.3592569,0.733267094 10.5908542,0.94589468 L14.9350587,4.94359136 L0.599777707,4.94359136 C0.26560813,4.94408816 0,5.18851052 0,5.49602565 C0,5.80354078 0.26560813,6.05591184 0.599777707,6.05591184 L14.9350587,6.05591184 L10.5908542,10.0461566 C10.3592569,10.2667329 10.3592569,10.6219402 10.5908542,10.8345678 C10.8305494,11.0551441 11.2165449,11.0551441 11.4476024,10.8345678 L16.8202286,5.89047963 C17.0599238,5.67735525 17.0599238,5.32264475 16.8202286,5.11001716 L11.4476024,0.16543221 Z" id="Path"></path>
            </g>
            <polygon id="1" fill="#4480C8" points="17.7451172 9 16.5634766 9 16.5634766 3.29199219 14.8203125 3.88769531 14.8203125 2.88671875 17.59375 1.86621094 17.7451172 1.86621094"></polygon>
            <path d="M18.0527344,15.875 C17.8639313,16.0996105 17.6385104,16.2802728 17.3764648,16.4169922 C17.1144193,16.5537116 16.82715,16.6220703 16.5146484,16.6220703 C16.1044901,16.6220703 15.7472346,16.5211599 15.4428711,16.3193359 C15.1385076,16.117512 14.9033211,15.8334979 14.7373047,15.4672852 C14.5712882,15.1010724 14.4882812,14.6966168 14.4882812,14.2539062 C14.4882812,13.7786435 14.5786124,13.3505878 14.7592773,12.9697266 C14.9399423,12.5888653 15.1962874,12.2975271 15.5283203,12.0957031 C15.8603532,11.8938792 16.2477191,11.7929688 16.6904297,11.7929688 C17.3935582,11.7929688 17.9477519,12.0558242 18.3530273,12.581543 C18.7583028,13.1072617 18.9609375,13.8242142 18.9609375,14.7324219 L18.9609375,14.9960938 C18.9609375,16.3795642 18.6875027,17.3894825 18.140625,18.0258789 C17.5937473,18.6622753 16.7685602,18.9886067 15.6650391,19.0048828 L15.4892578,19.0048828 L15.4892578,18.2431641 L15.6796875,18.2431641 C16.4251339,18.2301432 16.9980449,18.0356464 17.3984375,17.659668 C17.7988301,17.2836895 18.0169269,16.6888062 18.0527344,15.875 Z M16.6611328,15.875 C16.9638687,15.875 17.243,15.7822275 17.4985352,15.5966797 C17.7540703,15.4111319 17.9404291,15.181642 18.0576172,14.9082031 L18.0576172,14.546875 C18.0576172,13.9544241 17.9290377,13.4726581 17.671875,13.1015625 C17.4147123,12.7304669 17.0891947,12.5449219 16.6953125,12.5449219 C16.2981751,12.5449219 15.9791679,12.6971013 15.7382812,13.0014648 C15.4973946,13.3058283 15.3769531,13.7070288 15.3769531,14.2050781 C15.3769531,14.6901066 15.4933257,15.0896794 15.7260742,15.4038086 C15.9588228,15.7179378 16.2705059,15.875 16.6611328,15.875 Z" id="9" fill="#777777"></path>
        </g>
    </g>
</svg>