<svg xmlns="http://www.w3.org/2000/svg" width="19" height="20" viewBox="0 0 19 20">
    <g fill="#E82967" fill-rule="nonzero">
        <path d="M18.769 5.412L13.673.118A.385.385 0 0 0 13.396 0H5.802c-.85 0-1.541.691-1.541 1.54v5.383H1.183C.547 6.923.03 7.44.03 8.076v5.771C.03 14.483.547 15 1.183 15h3.078v3.462c0 .848.691 1.538 1.541 1.538h11.533c.85 0 1.541-.69 1.541-1.537V5.679c0-.1-.038-.195-.107-.267zm-5.277-4.374l4.182 4.347h-4.182V1.038zM1.183 14.231a.384.384 0 0 1-.384-.384V8.076c0-.212.173-.384.384-.384H11.57c.212 0 .384.172.384.384v5.771a.384.384 0 0 1-.384.384H1.183zm16.924 4.232a.77.77 0 0 1-.772.768H5.802a.771.771 0 0 1-.772-.769V15h6.54c.635 0 1.152-.517 1.152-1.153V8.076c0-.636-.517-1.153-1.153-1.153H5.03V1.541c0-.426.346-.772.772-.772h6.92v5c0 .213.173.385.385.385h5v12.309z"/>
        <path d="M4.628 9.761a.866.866 0 0 0-.475-.323c-.124-.033-.388-.05-.794-.05H2.29v3.304h.667v-1.246h.435c.302 0 .533-.016.692-.047a.967.967 0 0 0 .346-.157.906.906 0 0 0 .28-.326c.074-.138.11-.308.11-.511 0-.263-.063-.477-.19-.644zm-.571.91a.438.438 0 0 1-.209.162c-.088.035-.264.052-.527.052h-.365v-.938h.322c.24 0 .4.008.48.023.108.02.198.068.268.146.071.079.106.178.106.298a.444.444 0 0 1-.075.257zM8.027 10.291a1.444 1.444 0 0 0-.316-.535 1.105 1.105 0 0 0-.498-.304 2.38 2.38 0 0 0-.629-.063H5.365v3.303H6.62c.247 0 .444-.023.59-.07.198-.063.354-.15.47-.263.153-.149.27-.344.353-.584.068-.197.102-.431.102-.703 0-.31-.036-.57-.108-.78zm-.65 1.357a.7.7 0 0 1-.174.319.616.616 0 0 1-.27.137 1.816 1.816 0 0 1-.403.032h-.498V9.947h.3c.272 0 .454.01.547.032a.635.635 0 0 1 .31.155.756.756 0 0 1 .189.32c.045.137.067.333.067.589 0 .255-.022.457-.067.605zM10.97 9.947V9.39H8.705v3.303h.667v-1.404h1.38v-.559h-1.38v-.782z"/>
    </g>
</svg>
