<svg xmlns="http://www.w3.org/2000/svg" width="20" height="20" viewBox="0 0 20 20">
    <g fill="#E82967" fill-rule="nonzero">
        <path d="M11.52 1.789a.415.415 0 0 0-.294-.122H4.162c-.916 0-1.662.747-1.662 1.666v15c0 .92.746 1.667 1.662 1.667h9.974c.917 0 1.663-.747 1.663-1.667V6.25a.417.417 0 0 0-.122-.295L11.519 1.79zm3.448 16.544c0 .46-.373.834-.832.834H4.162a.833.833 0 0 1-.83-.834v-15c0-.46.372-.833.83-.833h6.892l3.914 3.923v11.91z"/>
        <path d="M4.994 9.583v6.667c0 .69.559 1.25 1.246 1.25h5.818a1.25 1.25 0 0 0 1.247-1.25V9.583c0-.689-.56-1.25-1.247-1.25H6.24a1.25 1.25 0 0 0-1.246 1.25zm2.493 7.084H6.24a.416.416 0 0 1-.415-.417V15h1.662v1.667zm2.494 0H8.318V15h1.663v1.667zm2.493-.417c0 .23-.186.417-.416.417h-1.246v-2.084a.416.416 0 0 0-.416-.416H5.825v-2.5h6.649v4.583zm-1.662-7.083h1.246c.23 0 .416.186.416.416v1.25h-1.662V9.167zm-2.494 0h1.663v1.666H8.318V9.167zm-.831 1.666H5.825v-1.25c0-.23.186-.416.415-.416h1.247v1.666z"/>
        <path d="M17.34 4.289L13.181.122A.415.415 0 0 0 12.888 0H5.409a.416.416 0 0 0 0 .833h7.307l3.914 3.923V17.07a.416.416 0 1 0 .831 0V4.583a.417.417 0 0 0-.122-.294z"/>
    </g>
</svg>
