<svg xmlns="http://www.w3.org/2000/svg" width="19" height="20" viewBox="0 0 19 20">
    <g fill="#E82967" fill-rule="nonzero">
        <path d="M18.66 1.333h-2.374v-1a.336.336 0 0 0-.34-.333h-2.375a.336.336 0 0 0-.339.333v1H5.768v-1A.336.336 0 0 0 5.428 0H3.055a.336.336 0 0 0-.34.333v1H.34A.336.336 0 0 0 0 1.667v18c0 .184.152.333.34.333h18.32c.188 0 .34-.149.34-.333v-18a.336.336 0 0 0-.34-.334zM13.91.667h1.697v2h-1.696v-2zm-10.517 0h1.696v2H3.393v-2zM.679 2h2.035v1c0 .184.152.333.34.333h2.375c.187 0 .339-.149.339-.333V2h7.464v1c0 .184.152.333.34.333h2.374c.188 0 .34-.149.34-.333V2h2.035v3H.68V2zm0 17.333V5.667H18.32v13.666H.68z"/>
        <path d="M12.237 8H3v10h13V8H12.237zm-2.395.69h2.395v2.413H9.842V8.69zm2.395 5.517H9.842v-2.414h2.395v2.414zm-5.474-2.414h2.395v2.414H6.763v-2.414zm0-3.103h2.395v2.413H6.763V8.69zm-3.079 0H6.08v2.413H3.684V8.69zm0 3.103H6.08v2.414H3.684v-2.414zM6.08 17.31H3.684v-2.413H6.08v2.413zm3.079 0H6.763v-2.413h2.395v2.413zm3.079 0H9.842v-2.413h2.395v2.413zm3.079 0H12.92v-2.413h2.395v2.413zm0-3.103H12.92v-2.414h2.395v2.414zm0-5.517v2.413H12.92V8.69h2.395z"/>
    </g>
</svg>
