<?xml version="1.0" encoding="UTF-8"?>
<svg width="20px" height="20px" viewBox="0 0 20 20" version="1.1" xmlns="http://www.w3.org/2000/svg" xmlns:xlink="http://www.w3.org/1999/xlink">
    <!-- Generator: sketchtool 52.6 (67491) - http://www.bohemiancoding.com/sketch -->
    <title>66B97116-02B8-42A5-AE3B-6F01713A8785</title>
    <desc>Created with sketchtool.</desc>
    <g id="Symbols" stroke="none" stroke-width="1" fill="none" fill-rule="evenodd">
        <g id="icon/20-filtre3">
            <g id="right-arrow" transform="translate(5.500000, 10.500000) rotate(90.000000) translate(-5.500000, -10.500000) translate(-3.000000, 5.000000)" fill="#4480C8">
                <path d="M11.4476024,0.16543221 C11.2160051,-0.0551440701 10.8305494,-0.0551440701 10.5908542,0.16543221 C10.3592569,0.378556589 10.3592569,0.733267094 10.5908542,0.94589468 L14.9350587,4.94359136 L0.599777707,4.94359136 C0.26560813,4.94408816 0,5.18851052 0,5.49602565 C0,5.80354078 0.26560813,6.05591184 0.599777707,6.05591184 L14.9350587,6.05591184 L10.5908542,10.0461566 C10.3592569,10.2667329 10.3592569,10.6219402 10.5908542,10.8345678 C10.8305494,11.0551441 11.2165449,11.0551441 11.4476024,10.8345678 L16.8202286,5.89047963 C17.0599238,5.67735525 17.0599238,5.32264475 16.8202286,5.11001716 L11.4476024,0.16543221 Z" id="Path"></path>
            </g>
            <polygon id="Z" fill="#4480C8" points="15.8847656 8.01367188 19.6835938 8.01367188 19.6835938 9 14.390625 9 14.390625 8.19921875 18.0673828 2.88671875 14.4150391 2.88671875 14.4150391 1.890625 19.5664062 1.890625 19.5664062 2.671875"></polygon>
            <path d="M18.7509766,17.1445312 L15.7724609,17.1445312 L15.1035156,19 L14.1367188,19 L16.8515625,11.890625 L17.671875,11.890625 L20.3916016,19 L19.4296875,19 L18.7509766,17.1445312 Z M16.0556641,16.3730469 L18.4726562,16.3730469 L17.2617188,13.0478516 L16.0556641,16.3730469 Z" id="A" fill="#777777"></path>
        </g>
    </g>
</svg>