<?xml version="1.0" encoding="UTF-8"?>
<svg width="20px" height="20px" viewBox="0 0 20 20" version="1.1" xmlns="http://www.w3.org/2000/svg" xmlns:xlink="http://www.w3.org/1999/xlink">
    <!-- Generator: sketchtool 52.6 (67491) - http://www.bohemiancoding.com/sketch -->
    <title>9B5ECBD4-82ED-4BE8-857C-286A93BB5925</title>
    <desc>Created with sketchtool.</desc>
    <g id="HD-Screens" stroke="none" stroke-width="1" fill="none" fill-rule="evenodd">
        <g id="Fiche-360-FULL---Beneficiaire" transform="translate(-1281.000000, -951.000000)">
            <g id="Données-plié-Copy" transform="translate(1085.000000, 801.000000)">
                <g id="icon/-20-euro-bleu-copy" transform="translate(196.000000, 150.000000)">
                    <path d="M10,19.5 C15.2467051,19.5 19.5,15.2467051 19.5,10 C19.5,4.75329488 15.2467051,0.5 10,0.5 C4.75329488,0.5 0.5,4.75329488 0.5,10 C0.5,15.2467051 4.75329488,19.5 10,19.5 Z" id="Oval-2" stroke="#D10B27" stroke-width="1" fill="#D10B27" fill-rule="nonzero"></path>
                    <path d="M10.4973573,13.9855352 C9.06818163,13.9855352 7.83602446,12.9786834 7.2857176,11.5376391 L9.9136207,11.5376391 C10.1933237,11.5376391 10.4200138,11.3109491 10.4200138,11.031246 C10.4200138,10.751543 10.1933237,10.524853 9.9136207,10.524853 L7.02599336,10.524853 C6.99533283,10.3056797 6.97871681,10.0811656 6.97871681,9.85210184 C6.97871681,9.67466647 6.98920077,9.50019821 7.00779486,9.32849936 L10.6817161,9.32849936 C10.9614191,9.32849936 11.1883069,9.10180932 11.1883069,8.8221063 C11.1883069,8.54240324 10.9614191,8.31571324 10.6817161,8.31571324 L7.23171554,8.31571324 C7.75195532,6.79534717 9.0193226,5.71866848 10.4973573,5.71866848 C11.0534007,5.71866848 11.5864981,5.86821268 12.0820116,6.16314709 C12.3223505,6.30616358 12.6331096,6.22723746 12.7761261,5.98689855 C12.9191426,5.74655964 12.8404143,5.4358005 12.6000754,5.29278401 C11.9548199,4.90883522 11.2278689,4.70588235 10.4973573,4.70588235 C8.46960918,4.70588235 6.74886186,6.22605057 6.17204851,8.31571324 L5.21227541,8.31571324 C4.93277014,8.31571324 4.70588235,8.54240324 4.70588235,8.8221063 C4.70588235,9.10180932 4.93277014,9.32849936 5.21227541,9.32849936 L5.98907447,9.32849936 C5.97364528,9.50059386 5.96573289,9.67525991 5.96573289,9.85210184 C5.96573289,10.0799787 5.97898616,10.3044928 6.00450361,10.524853 L5.21227541,10.524853 C4.93277014,10.524853 4.70588235,10.751543 4.70588235,11.031246 C4.70588235,11.3109491 4.93277014,11.5376391 5.21227541,11.5376391 L6.21556667,11.5376391 C6.83174412,13.5497602 8.51827042,14.9981235 10.4973573,14.9981235 C11.2276711,14.9981235 11.9548199,14.7951707 12.5998776,14.4112219 C12.8402165,14.2682054 12.9191426,13.9574462 12.7761261,13.7171073 C12.6331096,13.4767684 12.3223505,13.3978423 12.0820116,13.5410566 C11.5864981,13.835991 11.0534007,13.9855352 10.4973573,13.9855352 Z" id="Path" fill="#FFFFFF" fill-rule="evenodd"></path>
                </g>
            </g>
        </g>
    </g>
</svg>