<?xml version="1.0" encoding="UTF-8"?>
<svg width="20px" height="20px" viewBox="0 0 20 20" version="1.1" xmlns="http://www.w3.org/2000/svg" xmlns:xlink="http://www.w3.org/1999/xlink">
    <!-- Generator: sketchtool 52.6 (67491) - http://www.bohemiancoding.com/sketch -->
    <title>35355129-210A-4DAD-89C6-2406615847D4</title>
    <desc>Created with sketchtool.</desc>
    <g id="Symbols" stroke="none" stroke-width="1" fill="none" fill-rule="evenodd">
        <g id="icon/20-filtre-nbr-3">
            <g id="right-arrow" transform="translate(5.500000, 10.500000) rotate(90.000000) translate(-5.500000, -10.500000) translate(-3.000000, 5.000000)" fill="#4480C8">
                <path d="M11.4476024,0.16543221 C11.2160051,-0.0551440701 10.8305494,-0.0551440701 10.5908542,0.16543221 C10.3592569,0.378556589 10.3592569,0.733267094 10.5908542,0.94589468 L14.9350587,4.94359136 L0.599777707,4.94359136 C0.26560813,4.94408816 0,5.18851052 0,5.49602565 C0,5.80354078 0.26560813,6.05591184 0.599777707,6.05591184 L14.9350587,6.05591184 L10.5908542,10.0461566 C10.3592569,10.2667329 10.3592569,10.6219402 10.5908542,10.8345678 C10.8305494,11.0551441 11.2165449,11.0551441 11.4476024,10.8345678 L16.8202286,5.89047963 C17.0599238,5.67735525 17.0599238,5.32264475 16.8202286,5.11001716 L11.4476024,0.16543221 Z" id="Path"></path>
            </g>
            <path d="M17.8964844,6.02636719 C17.499347,6.44629116 17.0354844,6.65625 16.5048828,6.65625 C15.8798797,6.65625 15.3818378,6.43733943 15.0107422,5.99951172 C14.6396466,5.56168401 14.4541016,4.98633169 14.4541016,4.2734375 C14.4541016,3.80468516 14.5485017,3.37988472 14.7373047,2.99902344 C14.9261077,2.61816216 15.1946597,2.32194116 15.5429688,2.11035156 C15.8912778,1.89876196 16.2949196,1.79296875 16.7539062,1.79296875 C17.4700557,1.79296875 18.0380838,2.05989316 18.4580078,2.59375 C18.8779318,3.12760684 19.0878906,3.84211792 19.0878906,4.73730469 L19.0878906,5.06933594 C19.0878906,6.35189443 18.79818,7.33007476 18.21875,8.00390625 C17.63932,8.67773774 16.7750708,9.0195312 15.6259766,9.02929688 L15.484375,9.02929688 L15.484375,8.04785156 L15.6552734,8.04785156 C16.3551467,8.03808589 16.8922507,7.86963054 17.2666016,7.54248047 C17.6409524,7.2153304 17.8509112,6.70996436 17.8964844,6.02636719 Z M16.7539062,5.72851562 C16.9915376,5.72851562 17.2145172,5.66015693 17.4228516,5.5234375 C17.6311859,5.38671807 17.7923171,5.19791787 17.90625,4.95703125 L17.90625,4.49316406 C17.90625,3.9690729 17.7988292,3.54752764 17.5839844,3.22851562 C17.3691396,2.90950361 17.090822,2.75 16.7490234,2.75 C16.4072249,2.75 16.1346039,2.89078635 15.9311523,3.17236328 C15.7277008,3.45394021 15.6259766,3.80956816 15.6259766,4.23925781 C15.6259766,4.68522358 15.7285146,5.04492051 15.9335938,5.31835938 C16.1386729,5.59179824 16.4121077,5.72851562 16.7539062,5.72851562 Z" id="9" fill="#4480C8"></path>
            <polygon id="1" fill="#777777" points="17.5595703 19 16.6513672 19 16.6513672 12.9794922 14.8300781 13.6484375 14.8300781 12.828125 17.4179688 11.8564453 17.5595703 11.8564453"></polygon>
        </g>
    </g>
</svg>