<?xml version="1.0" encoding="UTF-8"?>
<svg width="20px" height="20px" viewBox="0 0 20 20" version="1.1" xmlns="http://www.w3.org/2000/svg" xmlns:xlink="http://www.w3.org/1999/xlink">
    <!-- Generator: sketchtool 52.6 (67491) - http://www.bohemiancoding.com/sketch -->
    <title>1C533052-58AB-44EF-BC22-391C4B9E3D1D</title>
    <desc>Created with sketchtool.</desc>
    <g id="Symbols" stroke="none" stroke-width="1" fill="none" fill-rule="evenodd">
        <g id="icon/20-ligne-en-cours-portabilité" fill="#777777">
            <g id="smartphone-(2)" transform="translate(2.000000, 0.000000)">
                <path d="M11.167,10.3316667 C10.983,10.3316667 10.8336667,10.4806667 10.8336667,10.665 L10.8336667,15.3333333 L0.833666667,15.3333333 L0.833666667,2.66666667 L10.8336667,2.66666667 L10.8336667,7.33266667 C10.8336667,7.517 10.983,7.666 11.167,7.666 C11.351,7.666 11.5003333,7.517 11.5003333,7.33266667 L11.5003333,1.46833333 C11.5003333,0.659 10.8416667,0 10.0316667,0 L1.63533333,0 C0.825666667,0 0.167,0.659 0.167,1.46833333 L0.167,18.5313333 C0.167,19.341 0.825666667,20 1.63533333,20 L10.0316667,20 C10.8413333,20 11.5,19.341 11.5,18.5316667 L11.5,10.665 C11.5003333,10.4806667 11.351,10.3316667 11.167,10.3316667 Z M1.63533333,0.666666667 L10.0316667,0.666666667 C10.4736667,0.666666667 10.8333333,1.02633333 10.8333333,1.46833333 L10.8333333,2 L0.833333333,2 L0.833333333,1.46833333 C0.833666667,1.02633333 1.19333333,0.666666667 1.63533333,0.666666667 Z M10.0316667,19.3333333 L1.63533333,19.3333333 C1.19333333,19.3333333 0.833666667,18.9736667 0.833666667,18.5316667 L0.833666667,16 L10.8336667,16 L10.8336667,18.5316667 C10.8336667,18.9736667 10.474,19.3333333 10.0316667,19.3333333 Z" id="Shape" fill-rule="nonzero"></path>
                <path d="M5.83366667,16.3333333 C5.09833333,16.3333333 4.50033333,16.9313333 4.50033333,17.6666667 C4.50033333,18.402 5.09833333,19 5.83366667,19 C6.569,19 7.167,18.402 7.167,17.6666667 C7.167,16.9313333 6.56866667,16.3333333 5.83366667,16.3333333 Z M5.83366667,18.3333333 C5.466,18.3333333 5.167,18.0343333 5.167,17.6666667 C5.167,17.299 5.466,17 5.83366667,17 C6.20133333,17 6.50033333,17.299 6.50033333,17.6666667 C6.50033333,18.0343333 6.20133333,18.3333333 5.83366667,18.3333333 Z" id="Shape" fill-rule="nonzero"></path>
                <path d="M4.50033333,1.66666667 L5.83366667,1.66666667 C6.01766667,1.66666667 6.167,1.51766667 6.167,1.33333333 C6.167,1.149 6.01766667,1 5.83366667,1 L4.50033333,1 C4.31633333,1 4.167,1.149 4.167,1.33333333 C4.167,1.51766667 4.316,1.66666667 4.50033333,1.66666667 Z" id="Path"></path>
                <path d="M6.83366667,1.66666667 L7.167,1.66666667 C7.351,1.66666667 7.50033333,1.51766667 7.50033333,1.33333333 C7.50033333,1.149 7.351,1 7.167,1 L6.83366667,1 C6.64966667,1 6.50033333,1.149 6.50033333,1.33333333 C6.50033333,1.51766667 6.64933333,1.66666667 6.83366667,1.66666667 Z" id="Path"></path>
                <path d="M18.4746667,9.12733333 C18.5083333,9.046 18.5083333,8.954 18.4746667,8.87266667 C18.4576667,8.83166667 18.433,8.79466667 18.4023333,8.76366667 L14.4026667,4.76433333 C14.2723333,4.634 14.0616667,4.634 13.9313333,4.76433333 C13.801,4.89466667 13.801,5.10533333 13.9313333,5.23566667 L17.3623333,8.66666667 L5.50033333,8.66666667 C5.31633333,8.66666667 5.167,8.81566667 5.167,9 C5.167,9.18433333 5.31633333,9.33333333 5.50033333,9.33333333 L17.3623333,9.33333333 L13.9313333,12.7643333 C13.801,12.8946667 13.801,13.1053333 13.9313333,13.2356667 C13.9963333,13.3006667 14.0816667,13.3333333 14.167,13.3333333 C14.2523333,13.3333333 14.3376667,13.3006667 14.4026667,13.2356667 L18.4023333,9.236 C18.433,9.20533333 18.4576667,9.16833333 18.4746667,9.12733333 Z" id="Path"></path>
            </g>
        </g>
    </g>
</svg>