<?xml version="1.0" encoding="UTF-8"?>
<svg width="20px" height="21px" viewBox="0 0 20 21" version="1.1" xmlns="http://www.w3.org/2000/svg" xmlns:xlink="http://www.w3.org/1999/xlink">
    <title>key (1)</title>
    <g id="VUE-DEMANDE-TÂCHES" stroke="none" stroke-width="1" fill="none" fill-rule="evenodd">
        <g id="1440_DASHBOARD-TÂCHES-/-EN-COURS---TERMINEES" transform="translate(-875.000000, -619.000000)">
            <g id="BLOC-TÂCHES-EN-COURS" transform="translate(5.000000, 457.000000)">
                <g id="TABLEAU" transform="translate(21.000000, 62.000000)">
                    <g id="L-2" transform="translate(0.000000, 87.000000)">
                        <g id="PICTO" transform="translate(730.000000, 12.000000)">
                            <g id="key-(1)" transform="translate(119.000000, 1.000000)">
                                <polygon id="Path-2" fill="#C1D82F" points="1.03565217 15.8938554 7.53967394 9.5 6.99540815 5.6283004 9.50792234 1.5567269 13.3360079 0.410931251 16.0732411 0.996956522 18.0905364 2.89106719 19.5255763 5.90526084 18.9645059 9.5 18.0905364 11.0392394 15.203083 12.7702868 12.4658737 12.7702868 10.776087 12.1929249 9.50792234 13.945899 7.53967394 13.945899 6.99540815 14.545757 6.99540815 15.8938554 6.1619035 16.3664032 6.1619035 17.2178494 4.53043056 17.2178494 4.53043056 18.1496381 3 19.6783488 0.462954857 19.2401976"></polygon>
                                <path d="M13.121502,0 C9.35,0 6.28162055,3.06837945 6.28162055,6.83988142 C6.28162055,7.67833992 6.43059289,8.49312253 6.72474308,9.26687747 L0.184664032,15.8074308 C0.0911857708,15.9009486 0.0386561265,16.0277075 0.0386561265,16.1598814 L0.0386561265,19.7386957 C0.0386561265,20.0139921 0.261818182,20.2371542 0.537114625,20.2371542 L3.48636364,20.2371542 C3.61841897,20.2371542 3.74505929,20.1847826 3.83853755,20.0914625 L4.83241107,19.0990909 C4.92608696,19.0055731 4.97869565,18.8786561 4.97869565,18.7463241 L4.97869565,17.5259289 L6.19754941,17.5259289 C6.47284585,17.5259289 6.69600791,17.3027668 6.69600791,17.0274704 L6.69600791,16.5389328 L7.18458498,16.5389328 C7.4598419,16.5389328 7.68304348,16.3157708 7.68304348,16.0404743 L7.68304348,14.9679051 L8.75561265,14.9679051 C8.88778656,14.9679051 9.01454545,14.9153755 9.10806324,14.8218972 L10.6938735,13.236087 C11.467747,13.5305138 12.2826482,13.6796838 13.1214229,13.6796838 C16.8929249,13.6796838 19.9613043,10.6113043 19.9613043,6.83980237 C19.9613043,3.06837945 16.893004,0 13.121502,0 Z M13.121502,12.6827668 C12.3056126,12.6827668 11.5165217,12.5179842 10.776087,12.1929249 C10.5846245,12.1088933 10.3690119,12.1551383 10.2278261,12.2927273 L8.54920949,13.9709881 L7.18466403,13.9709881 C6.90936759,13.9709881 6.68620553,14.1941502 6.68620553,14.4694466 L6.68620553,15.5420158 L6.19762846,15.5420158 C5.92237154,15.5420158 5.69916996,15.7651779 5.69916996,16.0404743 L5.69916996,16.5290119 L4.48027668,16.5290119 C4.20501976,16.5290119 3.98181818,16.7521739 3.98181818,17.0274704 L3.98181818,18.5396047 L3.28011858,19.2401976 L1.03565217,19.2401976 L1.03565217,18.5358103 L7.12818182,12.4433202 C7.30339921,12.2681028 7.30339921,11.9840711 7.12818182,11.8088933 C6.95296443,11.6337154 6.66901186,11.6336364 6.49367589,11.8088933 L1.03565217,17.2669565 L1.03565217,16.3664032 L7.66395257,9.73762846 C7.80561265,9.59221344 7.85201581,9.37660079 7.76798419,9.18498024 C7.44324111,8.44458498 7.27865613,7.6555336 7.27865613,6.83992095 C7.27865613,3.61810277 9.89980237,0.996956522 13.1216206,0.996956522 C16.3434387,0.996956522 18.9645059,3.61806324 18.9645059,6.83992095 C18.9645059,10.0616601 16.3432411,12.6827668 13.121502,12.6827668 Z" id="Shape" fill="#777777" fill-rule="nonzero"></path>
                                <path d="M15.203083,2.89106719 C14.1735573,2.89106719 13.3360079,3.7286166 13.3360079,4.75814229 C13.3360079,5.78766798 14.1735573,6.62521739 15.203083,6.62521739 C16.2326087,6.62521739 17.0701581,5.78766798 17.0701581,4.75814229 C17.0701581,3.7286166 16.2326482,2.89106719 15.203083,2.89106719 Z M15.203083,5.6283004 C14.7232806,5.6283004 14.3329249,5.23794466 14.3329249,4.75814229 C14.3329249,4.27833992 14.7232806,3.88798419 15.203083,3.88798419 C15.6828854,3.88798419 16.0732411,4.27833992 16.0732411,4.75814229 C16.0732411,5.23794466 15.6828854,5.6283004 15.203083,5.6283004 Z" id="Shape" fill="#777777" fill-rule="nonzero"></path>
                            </g>
                        </g>
                    </g>
                </g>
            </g>
        </g>
    </g>
</svg>