<svg xmlns="http://www.w3.org/2000/svg" width="20" height="20" viewBox="0 0 20 20">
    <g fill="#4480C8">
        <path d="M2.5 10.083c-.46 0-.833-.373-.833-.833V5c0-2.761 2.238-5 5-5 2.761 0 5 2.239 5 5v.833c0 .46-.373.834-.834.834-.46 0-.833-.373-.833-.834V5c0-1.84-1.492-3.333-3.333-3.333-1.841 0-3.334 1.492-3.334 3.333v4.25c0 .46-.373.833-.833.833zM6.667 14.167C5.747 14.167 5 13.42 5 12.5s.746-1.667 1.667-1.667c.92 0 1.666.747 1.666 1.667s-.746 1.667-1.666 1.667z" transform="translate(3.333)"/>
        <path d="M6.667 15.833c-.46 0-.834-.373-.834-.833v-1.667c0-.46.373-.833.834-.833.46 0 .833.373.833.833V15c0 .46-.373.833-.833.833z" transform="translate(3.333)"/>
        <path d="M6.667 20C2.985 20 0 17.015 0 13.333s2.985-6.666 6.667-6.666 6.666 2.984 6.666 6.666c0 1.768-.702 3.464-1.952 4.714C10.13 19.297 8.435 20 6.667 20zm0-11.667c-2.762 0-5 2.239-5 5 0 2.762 2.238 5 5 5 2.761 0 5-2.238 5-5 0-2.761-2.239-5-5-5z" transform="translate(3.333)"/>
    </g>
</svg>
