<svg xmlns="http://www.w3.org/2000/svg" width="20" height="20" viewBox="0 0 20 20">
    <g fill="none" fill-rule="evenodd">
        <g fill-rule="nonzero">
            <g>
                <path fill="#4480C8" d="M15.235 8.058V3.415c0-.47-.183-.91-.515-1.243L13.063.515C12.731.183 12.29 0 11.82 0H1.759C.789 0 0 .789 0 1.758v16.484C0 19.212.789 20 1.759 20h11.718c.97 0 1.758-.789 1.758-1.758v-5.21c.137-3.453.137-5.11 0-4.974zM11.72 1.172c.111 0 .325-.02.515.171l1.658 1.658c.186.186.171.39.171.515H11.72V1.172zm2.344 17.07c0 .323-.263.586-.586.586H1.76c-.324 0-.586-.263-.586-.586V1.758c0-.323.262-.586.586-.586h8.789v2.93c0 .323.262.585.586.585h2.93v4.544l-.3 5.186c.085-.028.164-.077.228-.141l.071-.071v4.037z"/>
                <path fill="#4480C8" d="M11.134 5.86H2.93c-.323 0-.586.262-.586.585 0 .324.263.586.586.586h8.204c.323 0 .585-.262.585-.586 0-.323-.262-.586-.585-.586zM8.79 8.203H2.93c-.323 0-.586.262-.586.586 0 .324.263.586.586.586h5.86c.323 0 .586-.262.586-.586 0-.324-.263-.586-.586-.586zM8.79 10.547H2.93c-.323 0-.586.262-.586.586 0 .323.263.586.586.586h5.86c.323 0 .586-.263.586-.586 0-.324-.263-.586-.586-.586zM8.79 12.89H2.93c-.323 0-.586.263-.586.587 0 .323.263.585.586.585h5.86c.323 0 .586-.262.586-.585 0-.324-.263-.586-.586-.586z"/>
                <path fill="#4480C8" stroke="#4480C8" d="M12.5 20C8.364 20 5 16.636 5 12.5 5 8.365 8.364 5 12.5 5S20 8.364 20 12.5 16.635 20 12.5 20z"/>
                <g>
                    <path fill="#FFF" stroke="#FFF" d="M9.56 1.05c-.587-.585-1.536-.585-2.122 0L1.49 6.997c-.04.04-.07.091-.086.146L.623 9.967c-.032.115 0 .24.086.324.085.085.209.118.324.086l2.824-.782c.055-.016.106-.045.146-.086L9.95 3.563c.585-.586.585-1.535 0-2.121l-.39-.392z" transform="translate(7 7)"/>
                    <path fill="#4480C8" d="M2.217 7.213L7.084 2.347 8.654 3.916 3.787 8.783zM1.703 7.944L2.957 9.198 1.222 9.679zM9.623 2.914l-.353.353-1.57-1.57.354-.353c.325-.325.853-.325 1.178 0l.391.391c.325.326.325.853 0 1.179z" transform="translate(7 7)"/>
                </g>
            </g>
        </g>
    </g>
</svg>
