<svg xmlns="http://www.w3.org/2000/svg" width="20" height="20" viewBox="0 0 20 20">
    <g fill="none">
        <path fill="#F8A812" d="M0 0H20V20H0z"/>
        <path fill="#FFF" d="M13.488 10.222c0 .766-.132 1.438-.397 2.017-.265.578-.644 1.022-1.136 1.332-.493.31-1.06.464-1.7.464-.634 0-1.199-.155-1.695-.464-.496-.31-.879-.751-1.15-1.324-.27-.573-.406-1.234-.41-1.982v-.44c0-.763.135-1.437.406-2.02.27-.584.651-1.03 1.144-1.34C9.042 6.155 9.607 6 10.244 6c.638 0 1.202.153 1.695.46.492.305.873.746 1.141 1.32.269.575.405 1.244.408 2.007v.435zm-1.359-.409c0-.866-.163-1.53-.491-1.992-.328-.462-.792-.693-1.394-.693-.587 0-1.046.23-1.378.69-.33.46-.5 1.111-.507 1.953v.45c0 .86.167 1.524.502 1.993.335.47.8.704 1.394.704.601 0 1.064-.23 1.388-.688.324-.458.486-1.127.486-2.008v-.409z"/>
    </g>
</svg>
