<svg xmlns="http://www.w3.org/2000/svg" xmlns:xlink="http://www.w3.org/1999/xlink" width="20" height="27" viewBox="0 0 20 27">
    <defs>
        <path id="7cp0iujfka" d="M10 .5c2.817 0 5.282 1.36 7.379 3.597.72.768 1.346 1.588 1.876 2.41.32.495.54.886.657 1.12.117.235.117.511 0 .746-.117.234-.337.625-.657 1.12-.53.822-1.156 1.642-1.876 2.41C15.282 14.14 12.817 15.5 10 15.5c-2.817 0-5.282-1.36-7.379-3.597-.72-.768-1.346-1.588-1.876-2.41-.32-.495-.54-.886-.657-1.12-.117-.235-.117-.511 0-.746.117-.234.337-.625.657-1.12.53-.822 1.156-1.642 1.876-2.41C4.718 1.86 7.183.5 10 .5zm0 1.667c-2.288 0-4.353 1.14-6.163 3.07-.647.69-1.213 1.432-1.692 2.173-.136.21-.256.409-.361.59.105.181.225.38.361.59.48.741 1.045 1.483 1.692 2.173 1.81 1.93 3.875 3.07 6.163 3.07 2.288 0 4.353-1.14 6.163-3.07.647-.69 1.213-1.432 1.692-2.173.136-.21.256-.409.361-.59-.105-.181-.225-.38-.361-.59-.48-.741-1.045-1.483-1.692-2.173-1.81-1.93-3.875-3.07-6.163-3.07zm0 2.5c1.84 0 3.333 1.492 3.333 3.333 0 1.84-1.492 3.333-3.333 3.333-1.84 0-3.333-1.492-3.333-3.333 0-1.84 1.492-3.333 3.333-3.333zm0 1.666c-.92 0-1.667.747-1.667 1.667S9.08 9.667 10 9.667 11.667 8.92 11.667 8 10.92 6.333 10 6.333z"/>
    </defs>
    <g fill="none" fill-rule="evenodd" transform="translate(0 6)">
        <use fill="#FFF" fill-rule="nonzero" xlink:href="#7cp0iujfka"/>
    </g>
</svg>
