<svg xmlns="http://www.w3.org/2000/svg" width="15" height="17" viewBox="0 0 15 17">
    <g fill="#777">
        <path d="M0 .534v4.287C0 8.78 3.037 12 6.77 12h6.638c.712 0 .822-1.257.11-1.257h-6.66c-2.612-.008-5.516-2.033-5.516-5.922V.534C1.342-.178 0-.178 0 .534z"/>
        <g>
            <path d="M1.613 7c-.157 0-.332.06-.452-.06-.24-.24-.22-.749.019-.988L6.158 1c.24-.24.628-.24.867 0 .24.24.24.628 0 .868L2.047 6.82c-.12.12-.277.18-.434.18z" transform="matrix(-1 0 0 1 16 5)"/>
            <path d="M1.613 6c-.157 0-.355-.12-.474 0-.24.24-.199.809.04 1.048l4.982 4.933c.24.24.629.24.868 0 .24-.24.24-.628 0-.867L2.047 6.18C1.927 6.06 1.77 6 1.613 6z" transform="matrix(-1 0 0 1 16 5)"/>
        </g>
    </g>
</svg>
