<svg xmlns="http://www.w3.org/2000/svg" width="20" height="20" viewBox="0 0 20 20">
    <g fill="#202021" fill-rule="evenodd">
        <path fill-rule="nonzero" stroke="#FFF" stroke-width=".2" d="M15.411 10.774c-.983-.908-2.153-1.58-3.43-1.986 1.367-.87 2.266-2.325 2.266-3.97C14.247 2.16 11.906 0 9.027 0 6.15 0 3.81 2.161 3.81 4.818c0 1.645.898 3.1 2.266 3.97-1.277.407-2.448 1.078-3.43 1.986C.938 12.348 0 14.441 0 16.667h1.41c0-3.877 3.418-7.032 7.618-7.032s7.617 3.155 7.617 7.032h1.41c0-2.226-.939-4.319-2.644-5.893zm-6.383-2.44c-2.1 0-3.809-1.578-3.809-3.516 0-1.939 1.709-3.516 3.809-3.516s3.808 1.577 3.808 3.516c0 1.938-1.708 3.515-3.808 3.515z" transform="translate(1)"/>
        <path stroke="#202021" stroke-width=".4" d="M10.793 13.43c-.129-.13-.342-.13-.475 0-.129.126-.129.335 0 .46l2.409 2.356h-7.95c-.185 0-.333.145-.333.326 0 .18.148.33.333.33h7.95l-2.41 2.35c-.128.13-.128.34 0 .465.134.13.348.13.476 0l2.98-2.913c.132-.125.132-.334 0-.46l-2.98-2.913z" transform="translate(1)"/>
    </g>
</svg>
