<?xml version="1.0" encoding="UTF-8"?>
<svg width="20px" height="20px" viewBox="0 0 20 20" version="1.1" xmlns="http://www.w3.org/2000/svg" xmlns:xlink="http://www.w3.org/1999/xlink">
    <!-- Generator: sketchtool 52.6 (67491) - http://www.bohemiancoding.com/sketch -->
    <title>267B5BF2-BF15-4FCC-A9F5-FAF882EB1EC6</title>
    <desc>Created with sketchtool.</desc>
    <g id="Symbols" stroke="none" stroke-width="1" fill="none" fill-rule="evenodd">
        <g id="icon/20-filtre2">
            <g id="right-arrow" transform="translate(5.500000, 10.500000) rotate(90.000000) translate(-5.500000, -10.500000) translate(-3.000000, 5.000000)" fill="#4480C8">
                <path d="M11.4476024,0.16543221 C11.2160051,-0.0551440701 10.8305494,-0.0551440701 10.5908542,0.16543221 C10.3592569,0.378556589 10.3592569,0.733267094 10.5908542,0.94589468 L14.9350587,4.94359136 L0.599777707,4.94359136 C0.26560813,4.94408816 0,5.18851052 0,5.49602565 C0,5.80354078 0.26560813,6.05591184 0.599777707,6.05591184 L14.9350587,6.05591184 L10.5908542,10.0461566 C10.3592569,10.2667329 10.3592569,10.6219402 10.5908542,10.8345678 C10.8305494,11.0551441 11.2165449,11.0551441 11.4476024,10.8345678 L16.8202286,5.89047963 C17.0599238,5.67735525 17.0599238,5.32264475 16.8202286,5.11001716 L11.4476024,0.16543221 Z" id="Path"></path>
            </g>
            <path d="M18.7021484,7.34472656 L15.9482422,7.34472656 L15.3720703,9 L14.0878906,9 L16.7734375,1.890625 L17.8818359,1.890625 L20.5722656,9 L19.2832031,9 L18.7021484,7.34472656 Z M16.2949219,6.34863281 L18.3554688,6.34863281 L17.3251953,3.39941406 L16.2949219,6.34863281 Z" id="A" fill="#4480C8"></path>
            <polygon id="Z" fill="#777777" points="15.5283203 18.2333984 19.5957031 18.2333984 19.5957031 19 14.4199219 19 14.4199219 18.296875 18.3164062 12.6621094 14.4833984 12.6621094 14.4833984 11.890625 19.4394531 11.890625 19.4394531 12.5791016"></polygon>
        </g>
    </g>
</svg>