<?xml version="1.0" encoding="UTF-8"?>
<svg width="15px" height="20px" viewBox="0 0 15 20" version="1.1" xmlns="http://www.w3.org/2000/svg" xmlns:xlink="http://www.w3.org/1999/xlink">
    <!-- Generator: sketchtool 52.6 (67491) - http://www.bohemiancoding.com/sketch -->
    <title>9A7320A3-91F7-4A5E-898B-B8379493DE2F</title>
    <desc>Created with sketchtool.</desc>
    <g id="Symbols" stroke="none" stroke-width="1" fill="none" fill-rule="evenodd">
        <g id="icon/-before-copy" fill="#DADADA">
            <g id="repeat-button" transform="translate(7.500000, 10.000000) scale(1, -1) translate(-7.500000, -10.000000) translate(0.000000, 1.000000)">
                <path d="M9.0516978,13 C8.78271257,13 8.51317902,12.8880386 8.30771942,12.6635166 C7.89742686,12.2145581 7.89742686,11.4865522 8.30771942,11.0375937 L12.4607763,6.50041729 L8.30771942,1.96264167 C7.89742686,1.51368324 7.89742686,0.785677248 8.30771942,0.336718821 C8.71856029,-0.112239607 9.38475698,-0.112239607 9.79559785,0.336718821 L14.6920848,5.68749866 C14.8893197,5.90303295 15,6.1957761 15,6.50050288 C15,6.80522967 14.8893197,7.09797282 14.6920848,7.31350711 L9.79559785,12.6636878 C9.59021658,12.8880386 9.32068304,13 9.0516978,13 Z" id="Path"></path>
                <path d="M1.31514817,18 C0.589113511,18 0,17.3799495 0,16.6157876 L0,12.2729908 C0,8.26230035 3.09953039,5 6.9101105,5 L11.6848518,5 C12.4108865,5 13,5.62005045 13,6.38421238 C13,7.1483743 12.4108865,7.76842475 11.6848518,7.76842475 L6.91001256,7.76842475 C4.55022853,7.76842475 2.63029633,9.78928411 2.63029633,12.2728877 L2.63029633,16.6157876 C2.63029633,17.3800526 2.04118282,18 1.31514817,18 Z" id="Path"></path>
            </g>
        </g>
    </g>
</svg>