<?xml version="1.0" encoding="UTF-8"?>
<svg width="20px" height="21px" viewBox="0 0 20 21" version="1.1" xmlns="http://www.w3.org/2000/svg" xmlns:xlink="http://www.w3.org/1999/xlink">
    <!-- Generator: sketchtool 52.6 (67491) - http://www.bohemiancoding.com/sketch -->
    <title>5F0CEB37-4B34-464D-B336-E41077A75620</title>
    <desc>Created with sketchtool.</desc>
    <g id="HD-Screens" stroke="none" stroke-width="1" fill="none" fill-rule="evenodd">
        <g id="Header---Recherche---v4" transform="translate(-1045.000000, -114.000000)" fill="#777777">
            <g id="Auto-complession" transform="translate(185.000000, 59.000000)">
                <g id="recherche---beneficiaire-copy" transform="translate(1.000000, 45.000000)">
                    <g id="icon/-20-loupe" transform="translate(862.000000, 7.000000)">
                        <path d="M17,22.086 L15.586,23.5 L9.929,17.843 L11.343,16.429 L17,22.086 Z M4,15.5 C1.243,15.5 -1,13.257 -1,10.5 C-1,7.743 1.243,5.5 4,5.5 C6.757,5.5 9,7.743 9,10.5 C9,13.257 6.757,15.5 4,15.5 L4,15.5 Z M4,3.5 C0.134,3.5 -3,6.634 -3,10.5 C-3,14.366 0.134,17.5 4,17.5 C7.866,17.5 11,14.366 11,10.5 C11,6.634 7.866,3.5 4,3.5 L4,3.5 Z" id="search_left-[#1506]"></path>
                    </g>
                </g>
            </g>
        </g>
    </g>
</svg>