<svg xmlns="http://www.w3.org/2000/svg" xmlns:xlink="http://www.w3.org/1999/xlink" width="100" height="100" viewBox="0 0 100 100">
    <defs>
        <rect id="a" width="100" height="100" rx="15"/>
    </defs>
    <g fill="none" fill-rule="evenodd">
        <mask id="b" fill="#fff">
            <use xlink:href="#a"/>
        </mask>
        <use fill="#798ED1" fill-rule="nonzero" xlink:href="#a"/>
        <g mask="url(#b)">
            <path fill="#798ED1" d="M3.612 104.39l4.473-5.617.085-.097.064-.096c4.154-5.115 12.133-7.319 22.907-10.893l7.587-3.36.106.097v-8.239c-5.462-4.162-10.158-10.775-9.935-17.516-2.262-.093-4.029-2.001-3.963-4.28l.149-4.28a4.161 4.161 0 0 1 1.572-3.124c.174-.134.359-.252.553-.353-.203-.574-.37-1.16-.5-1.755-1.816-9.16-1.413-18.19 1.786-25.038 0 0 5.514-13.247 22.896-12.626h1.063a23.721 23.721 0 0 1 11.093 2.867s5.11 2.729 9.488.792a.2.2 0 0 1 .199.027.204.204 0 0 1 .077.187 6.098 6.098 0 0 1-1.264 2.836c1.289.1 2.586.029 3.856-.214a13.276 13.276 0 0 1-2.57 7.64c2.709 7.104 2.485 16.05 0 25.09a17.616 17.616 0 0 1-.553 1.734 4.15 4.15 0 0 1 1.848 3.606l-.148 4.334c-.075 2.289-1.977 4.084-4.25 4.012-.05 1.226-.25 2.44-.595 3.617 0 .128-.075.267-.117.396-.043.128-.096.267-.138.406-.043.14-.128.375-.202.567-1.902 4.933-6.099 9.31-10.562 12.134v7.19l.096-.085 7.724 3.37c10.041 3.371 17.67 5.511 22.005 9.93V-2H3.612v106.39z"/>
            <path fill="#798ED1" fill-rule="nonzero" d="M8-2h85v107H8z"/>
            <path fill="#F2AE75" fill-rule="nonzero" d="M48.768 93.69l7.576-7.062 2.358-2.14v-7.244c4.463-2.825 8.66-7.2 10.562-12.134-3.347 8.71-13.813 15.676-20.39 15.451l.234-6.762h-.127c-4.112-.14-7.342-3.21-7.215-6.923h1.169l2.932.107 3.475.118.149-4.494-4.962-.172s2.273-9.298 5.514-15.654c0 0 .255-7.2.5-14.487a106.005 106.005 0 0 1-15.938-2.526L29.42 43.796s-.276 8.09-.287 8.068c-.35-1.07-1.307-3.456-1.923-5.35-.194.101-.379.22-.552.353a4.161 4.161 0 0 0-1.573 3.124l-.149 4.28c-.066 2.28 1.701 4.187 3.963 4.28-.223 6.859 4.474 13.472 9.914 17.655 3.389 2.6 7.076 4.28 10.04 4.355 2.965.075 6.375-1.155 9.818-3.317v6.912l-19.858-4.205v4.494l2.348 2.14 7.607 7.105zM37.166 49.018c.004-.19.026-.38.063-.568a2.047 2.047 0 0 1 0-.267 3.302 3.302 0 0 1 1.578-3.01 3.253 3.253 0 0 1 3.38 0 3.302 3.302 0 0 1 1.577 3.01c-.002.187-.02.373-.053.556.005.093.005.186 0 .279 0 1.82-1.466 3.295-3.273 3.295-1.807 0-3.272-1.475-3.272-3.295z"/>
            <path fill="#798ED1" d="M38.834 76.206v3.745-3.745z"/>
            <path fill="#DEB4A0" d="M38.834 76.206v3.745-3.745z" style="mix-blend-mode:multiply"/>
            <path fill="#F2AE75" d="M58.692 77.244c-3.41 2.14-6.98 3.413-9.818 3.317-2.837-.096-6.65-1.755-10.062-4.355v3.745l19.859 4.205.02-6.912z"/>
            <path fill="#DEB4A0" d="M58.692 77.244c-3.41 2.14-6.98 3.413-9.818 3.317-2.837-.096-6.65-1.755-10.062-4.355v3.745l19.859 4.205.02-6.912z" style="mix-blend-mode:multiply"/>
            <path fill="#FFF" d="M66.438 87.72l.35.15-11.91 12.294-1.7-1.798-1.488 2.932h-5.801l-1.53-2.943-1.7 1.809-11.89-12.284.372-.16c-10.773 3.563-18.753 5.767-22.907 10.86l-.064.086-.085.096-4.473 5.628-.31 1.68 42.502-1.263.085-2.632h5.801l.085 2.632 41.62.214v-2.161c-.108-.109.708-1.07-2.239-5.232-2.946-4.163-14.925-6.621-24.718-9.909z"/>
            <path fill="#F15D44" d="M48.768 93.69l-4.41 4.665 1.53 2.943h5.802l1.488-2.932z"/>
            <path fill="#E6E7E8" d="M48.768 93.69l4.41 4.676 1.7 1.798L66.755 87.88l-.319-.16-7.639-3.371-.096.086-2.358 2.14z"/>
            <path fill="#E6E7E8" d="M42.659 100.164l1.7-1.809 4.41-4.665-7.587-7.062-2.348-2.14-.107-.096-7.586 3.36-.372.16z"/>
            <path fill="#F15D44" d="M45.889 102.175l-.075 2.632h5.961l-.085-2.632z"/>
            <path fill="#F2AE75" d="M69.625 64.137c0 .139-.096.267-.138.406.021-.139.074-.267.138-.406zM70.316 60.124z"/>
            <path fill="#798ED1" d="M69.72 63.74c0 .13-.074.268-.116.397.021-.129.074-.268.117-.396z"/>
            <path fill="#F6CCB8" d="M69.72 63.74c0 .13-.074.268-.116.397.021-.129.074-.268.117-.396z" opacity=".8" style="mix-blend-mode:multiply"/>
            <path fill="#798ED1" d="M69.466 64.543c-.064.182-.128.375-.202.567.074-.192.138-.385.202-.567z"/>
            <path fill="#F6CCB8" d="M69.466 64.543c-.064.182-.128.375-.202.567.074-.192.138-.385.202-.567z" opacity=".8" style="mix-blend-mode:multiply"/>
            <path fill="#F2AE75" d="M70.688 45.251l-4.112-14.316A105.408 105.408 0 0 1 50.5 32.336c-.244 7.287-.5 14.488-.5 14.488-3.187 6.356-5.514 15.654-5.514 15.654l4.962.171-.149 4.494 7.321.257c-.127 3.649-3.496 6.484-7.554 6.42l-.234 6.763c6.534.224 17-6.741 20.39-15.451.074-.193.137-.385.201-.567.064-.182.096-.268.138-.407.043-.139.075-.267.117-.396.346-1.176.546-2.39.595-3.616 2.273.072 4.175-1.724 4.25-4.013l.149-4.333a4.15 4.15 0 0 0-1.849-3.606c-.67 1.765-1.434 2.974-2.37 5.136.033.01.234-8.079.234-8.079z"/>
            <path fill="#F6CCB8" fill-rule="nonzero" d="M70.688 45.251l-4.112-14.316A105.408 105.408 0 0 1 50.5 32.336c-.244 7.287-.5 14.488-.5 14.488-3.187 6.356-5.514 15.654-5.514 15.654l4.962.171-.149 4.494 7.321.257c-.127 3.649-3.496 6.484-7.554 6.42l-.234 6.763c6.534.224 17-6.741 20.39-15.451.074-.193.137-.385.201-.567.064-.182.096-.268.138-.407.043-.139.075-.267.117-.396.346-1.176.546-2.39.595-3.616 2.273.072 4.175-1.724 4.25-4.013l.149-4.333a4.15 4.15 0 0 0-1.849-3.606c-.67 1.765-1.434 2.974-2.37 5.136.033.01.234-8.079.234-8.079zm-7.97 4.43c0 1.82-1.464 3.296-3.272 3.296-1.807 0-3.272-1.476-3.272-3.296a3.233 3.233 0 0 1 0-.556v-.279a3.299 3.299 0 0 1 1.78-3.008 3.254 3.254 0 0 1 3.464.303 3.307 3.307 0 0 1 1.237 3.273c.034.087.063.176.085.267h-.021z" opacity=".8" style="mix-blend-mode:multiply"/>
            <path fill="#F2AE75" d="M43.71 49.018a2.478 2.478 0 0 0 0-.279 3.257 3.257 0 0 1-3.351 2.735 3.262 3.262 0 0 1-3.098-3.023 3.296 3.296 0 0 0 1.285 3.17c.985.732 2.293.846 3.388.297a3.287 3.287 0 0 0 1.809-2.9h-.032z"/>
            <path fill="#DEB4A0" d="M43.71 49.018a2.478 2.478 0 0 0 0-.279 3.257 3.257 0 0 1-3.351 2.735 3.262 3.262 0 0 1-3.098-3.023 3.296 3.296 0 0 0 1.285 3.17c.985.732 2.293.846 3.388.297a3.287 3.287 0 0 0 1.809-2.9h-.032z" style="mix-blend-mode:multiply"/>
            <path fill="#3C2417" fill-rule="nonzero" d="M40.47 51.5a3.269 3.269 0 0 0 3.188-2.74c.033-.183.051-.369.053-.556a3.302 3.302 0 0 0-1.578-3.01 3.253 3.253 0 0 0-3.38 0 3.302 3.302 0 0 0-1.577 3.01c-.006.09-.006.179 0 .268A3.27 3.27 0 0 0 40.47 51.5zm1.148-3.467a.818.818 0 0 1-.765-.503.828.828 0 0 1 .175-.903.814.814 0 0 1 .897-.177c.307.13.504.435.5.77a.81.81 0 0 1-.807.792v.021z"/>
            <path fill="#FFF" d="M41.617 46.375a.818.818 0 0 0-.763.5.828.828 0 0 0 .17.902c.234.238.586.31.893.184a.824.824 0 0 0 .508-.762.816.816 0 0 0-.233-.582.805.805 0 0 0-.575-.242z"/>
            <path fill="#F2AE75" d="M59.5 52.142a3.271 3.271 0 0 1-3.252-3.017 3.233 3.233 0 0 0 0 .556c0 1.82 1.465 3.296 3.273 3.296 1.807 0 3.272-1.476 3.272-3.296.006-.09.006-.178 0-.267a3.257 3.257 0 0 1-3.294 2.728z"/>
            <path fill="#F6CCB8" d="M59.5 52.142a3.271 3.271 0 0 1-3.252-3.017 3.233 3.233 0 0 0 0 .556c0 1.82 1.465 3.296 3.273 3.296 1.807 0 3.272-1.476 3.272-3.296.006-.09.006-.178 0-.267a3.257 3.257 0 0 1-3.294 2.728z" opacity=".8" style="mix-blend-mode:multiply"/>
            <path fill="#DEB4A0" d="M59.5 51.5a3.282 3.282 0 0 1-3.252-3.028 3.416 3.416 0 0 0 0 .567c0 1.82 1.465 3.296 3.273 3.296 1.807 0 3.272-1.476 3.272-3.296a2.478 2.478 0 0 0 0-.278A3.268 3.268 0 0 1 59.5 51.5z" style="mix-blend-mode:multiply"/>
            <path fill="#3C2417" fill-rule="nonzero" d="M59.5 44.898c-1.808 0-3.273 1.476-3.273 3.296v.267a3.272 3.272 0 0 0 3.104 2.992 3.267 3.267 0 0 0 3.356-2.703 3.233 3.233 0 0 0 0-.556c0-1.787-1.414-3.25-3.188-3.296zm1.136 3.135a.821.821 0 0 1-.818-.824c0-.455.366-.824.818-.824.452 0 .818.37.818.824a.821.821 0 0 1-.818.824z"/>
            <path fill="#FFF" d="M60.636 46.385a.821.821 0 0 0-.818.824c0 .455.366.824.818.824a.821.821 0 0 0 .818-.824.821.821 0 0 0-.818-.824z"/>
            <path fill="#F05D44" d="M56.663 67.4l-7.321-.257-3.474-.117 9.466.331v1.424c0 .59-.475 1.07-1.062 1.07l-10.285-.364c-.587 0-1.063-.48-1.063-1.07l.053-1.434H41.81c-.128 3.68 3.102 6.784 7.214 6.923h.128c4.016-.022 7.384-2.857 7.511-6.506z"/>
            <path fill="#FFF" d="M43.902 69.455l10.285.363c.587 0 1.062-.479 1.062-1.07v-1.423l-9.467-.331-2.932-.107-.053 1.433c-.018.303.091.599.302.815.21.216.502.332.803.32z"/>
            <path fill="#3C2417" d="M29.42 43.796l5.196-13.985a106.005 106.005 0 0 0 15.937 2.525 105.408 105.408 0 0 0 16.033-1.401l4.102 14.316s-.224 8.09-.213 8.057c.935-2.14 1.7-3.37 2.37-5.136.213-.567.398-1.146.552-1.733 2.444-8.999 2.667-17.987 0-25.092A13.275 13.275 0 0 0 76 13.707c-1.27.244-2.568.316-3.857.215a6.098 6.098 0 0 0 1.264-2.836.204.204 0 0 0-.077-.187.2.2 0 0 0-.199-.027c-4.377 1.937-9.488-.792-9.488-.792a23.722 23.722 0 0 0-11.188-2.92h-1.063c-17.382-.6-22.896 12.604-22.896 12.604-3.188 6.901-3.602 15.879-1.785 25.038.13.595.296 1.18.499 1.755.616 1.85 1.572 4.28 1.923 5.35.01-.022.287-8.111.287-8.111z"/>
        </g>
    </g>
</svg>
