<svg xmlns="http://www.w3.org/2000/svg" xmlns:xlink="http://www.w3.org/1999/xlink" width="100" height="100" viewBox="0 0 100 100">
    <defs>
        <rect id="a" width="100" height="100" rx="15"/>
    </defs>
    <g fill="none" fill-rule="evenodd">
        <mask id="b" fill="#fff">
            <use xlink:href="#a"/>
        </mask>
        <use fill="#84D1C9" fill-rule="nonzero" xlink:href="#a"/>
        <g mask="url(#b)">
            <path fill="#84D1C9" d="M11.114 105c5.627-7.13 12.537-14.049 17.703-15.813 2.037-1.155 5.25-1.953 10.279-2.236l.347-.252.063.273 1.396-.378V77.7c-6.069-4.337-11.235-12.201-11.235-18.732a4.379 4.379 0 0 1-4.41-4.368v-4.515c-.517.238-1.046.448-1.585.63-2.216-8.348-3.318-42.525 28.665-41.559.367 0 .713 0 1.05.073a12.128 12.128 0 1 1 20.348 13.094c4.064 8.862 3.077 20.076-.105 26.691.091.343.14.695.147 1.05V54.6a4.378 4.378 0 0 1-4.41 4.337c0 6.499-5.113 14.311-11.14 18.669v9.009l1.396.378.063-.273.336.252c5.009.283 8.243 1.05 10.28 2.226 5.176 1.774 12.085 8.694 17.713 15.823h2.205V.105H5.77V105h5.344z"/>
            <path fill="#84D1C9" d="M56.673 101.199l2.95-14.227-1.396-.378v-9.01 9.01l-17.325-6.972v6.972l-1.396.378 2.95 14.227z"/>
            <path fill="#84D1C9" d="M40.902 77.647h1v1.974h-1z"/>
            <path fill="#84D1C9" d="M40.902 77.647h1v1.974h-1z"/>
            <path fill="#84D1C9" d="M58.227 77.585a15.582 15.582 0 0 1-8.715 3.339 15.404 15.404 0 0 1-8.61-3.224v1.974l17.325 6.972v-9.061z"/>
            <path fill="#84D1C9" d="M58.227 77.585a15.582 15.582 0 0 1-8.715 3.339 15.404 15.404 0 0 1-8.61-3.224v1.974l17.325 6.972v-9.061zM42.456 101.199l.788 3.801h12.642l.787-3.801zM39.044 97.346l-9.45-3.592 9.555-6.803c-4.998.283-8.243 1.05-10.28 2.236-5.218 1.764-12.127 8.684-17.755 15.813h26.25l-2.027-2.457 3.706-5.198z"/>
            <path fill="#84D1C9" d="M39.506 86.972l-.063-.273-.347.252-9.555 6.803 9.503 3.591-3.738 5.198L37.343 105h5.9l-.787-3.801zM60.086 97.346l9.502-3.592-9.565-6.803-.337-.252-.063.273-2.95 14.227-.788 3.801h5.902l2.026-2.457z"/>
            <path fill="#84D1C9" d="M70.302 89.177c-2.037-1.145-5.25-1.943-10.28-2.227l9.566 6.804-9.502 3.591 3.727 5.25L61.787 105h26.25c-5.65-7.13-12.559-14.049-17.735-15.823zM37.111 56.364a13.65 13.65 0 0 0 3.77-.42c3.077-.966 4.998-3.465 5.859-7.592a3.245 3.245 0 0 0-.567-2.824c-.819-1.05-2.835-2.184-7.791-2.289-.472.147-.934.305-1.417.43.161-.138.315-.286.462-.44-.798 0-1.701 0-2.604.063a54.022 54.022 0 0 1-5.124 4.2c.126 2.362 1.092 8.515 7.413 8.872zM38.687 41.696a16.8 16.8 0 0 0 2.026-4.6 38.619 38.619 0 0 1-4.2 4.568h1.05c.452 0 .788.021 1.123.032zM49.512 44.1v-3.948c-.588.325-1.197.64-1.806.903a15.11 15.11 0 0 0 1.806-2.1v-2.362A29.767 29.767 0 0 1 41.7 42c2.657.41 4.557 1.25 5.639 2.541a4.725 4.725 0 0 1 2.173-.441z"/>
            <path fill="#84D1C9" d="M49.512 80.924v-6.668c-3.822 0-6.93-2.761-6.93-6.163h6.962v-3.15l-4.442-.893a59.294 59.294 0 0 1 4.41-13.87v-3.465c-.48-.032-.93.24-1.123.682.009.434-.034.867-.127 1.291-1.312 6.143-4.84 9.272-10.604 9.272-6.3 0-8.946-4.809-9.45-9.502a25.305 25.305 0 0 1-2.961 1.627V54.6a4.378 4.378 0 0 0 4.41 4.337c0 6.53 5.166 14.395 11.235 18.731a15.404 15.404 0 0 0 8.62 3.255zM51.507 34.556a30.326 30.326 0 0 1-1.995 2.037v2.362a10.72 10.72 0 0 0 1.995-4.4z"/>
            <path fill="#84D1C9" d="M51.507 34.556a30.326 30.326 0 0 1-1.995 2.037v2.362a10.72 10.72 0 0 0 1.995-4.4zM49.565 44.1a4.798 4.798 0 0 1 2.236.399c1.565-1.869 4.809-2.825 9.67-2.825 1.114 0 2.279 0 3.382.063a37.8 37.8 0 0 1-5.04-11.644c-2.163 3.034-4.2 6.016-7.498 8.326a30.23 30.23 0 0 1-2.803 1.744V44.1h.053z"/>
            <path fill="#84D1C9" d="M49.565 44.1a4.798 4.798 0 0 1 2.236.399c1.565-1.869 4.809-2.825 9.67-2.825 1.114 0 2.279 0 3.382.063a37.8 37.8 0 0 1-5.04-11.644c-2.163 3.034-4.2 6.016-7.498 8.326a30.23 30.23 0 0 1-2.803 1.744V44.1h.053z"/>
            <path fill="#84D1C9" fill-rule="nonzero" d="M61.472 43.228c-5.492 0-7.666 1.25-8.516 2.3a3.245 3.245 0 0 0-.567 2.825c1.123 5.417 4.095 8.042 9.083 8.042 7.591 0 7.98-8.011 7.98-9.617v-.105a22.281 22.281 0 0 1-3.329-3.266 38.913 38.913 0 0 0-4.651-.178zm2.278 7.014a3.425 3.425 0 1 1-6.846.242 2.772 2.772 0 0 1 0-.588 2.457 2.457 0 0 1 0-.273 3.426 3.426 0 1 1 6.846-.273c.01.192.01.385 0 .578v.315zm1.323-3.979h.263c.251-.032.498-.095.735-.189.364-.166.698-.393.987-.672a.105.105 0 0 1 .168.115 3.15 3.15 0 0 1-.2.368c-.16.269-.354.516-.577.735-.241.23-.513.424-.809.578l-.325.136h-.147a.546.546 0 0 1-.557-.294 4.714 4.714 0 0 0-4.336-2.226 4.2 4.2 0 0 0-3.318 2.247.433.433 0 0 1-.798-.336 5.019 5.019 0 0 1 4.032-2.772 5.365 5.365 0 0 1 4.903 2.31h-.021z"/>
            <path fill="#84D1C9" fill-rule="nonzero" d="M61.472 43.228c-5.492 0-7.666 1.25-8.516 2.3a3.245 3.245 0 0 0-.567 2.825c1.123 5.417 4.095 8.042 9.083 8.042 7.591 0 7.98-8.011 7.98-9.617v-.105a22.281 22.281 0 0 1-3.329-3.266 38.913 38.913 0 0 0-4.651-.178zm2.278 7.014a3.425 3.425 0 1 1-6.846.242 2.772 2.772 0 0 1 0-.588 2.457 2.457 0 0 1 0-.273 3.426 3.426 0 1 1 6.846-.273c.01.192.01.385 0 .578v.315zm1.323-3.979h.263c.251-.032.498-.095.735-.189.364-.166.698-.393.987-.672a.105.105 0 0 1 .168.115 3.15 3.15 0 0 1-.2.368c-.16.269-.354.516-.577.735-.241.23-.513.424-.809.578l-.325.136h-.147a.546.546 0 0 1-.557-.294 4.714 4.714 0 0 0-4.336-2.226 4.2 4.2 0 0 0-3.318 2.247.433.433 0 0 1-.798-.336 5.019 5.019 0 0 1 4.032-2.772 5.365 5.365 0 0 1 4.903 2.31h-.021z"/>
            <path fill="#84D1C9" d="M70.974 47.775c-.305 4.904-2.909 10.185-9.502 10.185-5.765 0-9.335-3.15-10.605-9.293a5.491 5.491 0 0 1-.126-1.291c-.2-.46-.677-.738-1.176-.682h-.053v3.464a59.293 59.293 0 0 0-4.41 13.892l4.41.861v3.15H56.4c0 3.391-3.087 6.142-6.909 6.163v6.668a15.582 15.582 0 0 0 8.715-3.339c6.027-4.358 11.14-12.17 11.14-18.669a4.379 4.379 0 0 0 4.431-4.284v-4.526a4.452 4.452 0 0 0-.147-1.05c0 .084-.073.169-.115.242a24.79 24.79 0 0 1-2.541-1.491z"/>
            <path fill="#84D1C9" d="M70.974 47.775c-.305 4.904-2.909 10.185-9.502 10.185-5.765 0-9.335-3.15-10.605-9.293a5.491 5.491 0 0 1-.126-1.291c-.2-.46-.677-.738-1.176-.682h-.053v3.464a59.293 59.293 0 0 0-4.41 13.892l4.41.861v3.15H56.4c0 3.391-3.087 6.142-6.909 6.163v6.668a15.582 15.582 0 0 0 8.715-3.339c6.027-4.358 11.14-12.17 11.14-18.669a4.379 4.379 0 0 0 4.431-4.284v-4.526a4.452 4.452 0 0 0-.147-1.05c0 .084-.073.169-.115.242a24.79 24.79 0 0 1-2.541-1.491zM42.11 51.103v-.283a3.402 3.402 0 0 1-6.762-.063 3.696 3.696 0 0 0 0 .588 3.391 3.391 0 0 0 1.848 2.898h.546a10.92 10.92 0 0 0 3.223-.452 3.444 3.444 0 0 0 1.145-2.688z"/>
            <path fill="#84D1C9" d="M42.11 50.232v-.273a3.413 3.413 0 0 1-6.762-.063 3.475 3.475 0 0 0 0 .578 3.15 3.15 0 0 0 1.848 2.908 3.622 3.622 0 0 0 3.769-.42 3.423 3.423 0 0 0 1.145-2.73z"/>
            <path fill="#84D1C9" fill-rule="nonzero" d="M38.802 52.91a3.423 3.423 0 0 0 3.266-2.951c.01-.196.01-.392 0-.588a3.425 3.425 0 1 0-6.846.241v.284a3.412 3.412 0 0 0 3.58 3.014zm1.05-1.901a.85.85 0 0 1-.882-.819.871.871 0 0 1 .83-.892.861.861 0 0 1 .882.829.85.85 0 0 1-.809.882h-.021z"/>
            <path fill="#84D1C9" d="M39.82 49.35a.871.871 0 0 0-.829.892.861.861 0 0 0 1.712-.063.861.861 0 0 0-.883-.829zM33.373 47.187c.104.056.213.102.326.137h.147c.23.021.45-.1.557-.305a4.683 4.683 0 0 1 4.326-2.215 4.116 4.116 0 0 1 3.318 2.246c.1.22.357.317.577.221a.43.43 0 0 0 .22-.567 4.977 4.977 0 0 0-4.021-2.772A5.408 5.408 0 0 0 33.93 46.2a1.05 1.05 0 0 1-.252 0 2.53 2.53 0 0 1-.735-.189 3.518 3.518 0 0 1-.987-.672.115.115 0 0 0-.126 0 .095.095 0 0 0 0 .136c.054.127.117.25.189.368a4.2 4.2 0 0 0 .588.735c.226.238.484.443.767.609zM60.464 52.92a3.413 3.413 0 0 1-3.497-3.024c-.02.195-.02.393 0 .588a3.423 3.423 0 0 0 6.783-.242v-.283a3.423 3.423 0 0 1-3.286 2.961z"/>
            <path fill="#84D1C9" d="M60.464 52.92a3.413 3.413 0 0 1-3.497-3.024c-.02.195-.02.393 0 .588a3.423 3.423 0 0 0 6.783-.242v-.283a3.423 3.423 0 0 1-3.286 2.961z"/>
            <path fill="#84D1C9" d="M60.464 52.92a3.413 3.413 0 0 1-3.497-3.024c-.02.195-.02.393 0 .588a3.423 3.423 0 0 0 6.783-.242v-.283a3.423 3.423 0 0 1-3.286 2.961z"/>
            <path fill="#84D1C9" fill-rule="nonzero" d="M60.222 46.074a3.444 3.444 0 0 0-3.297 3.549c-.005.09-.005.182 0 .273a3.402 3.402 0 0 0 6.762.063c.033-.202.054-.405.063-.609a3.444 3.444 0 0 0-3.528-3.276zm1.313 4.946a.861.861 0 1 1-.063-1.721.861.861 0 0 1 .063 1.72z"/>
            <path fill="#84D1C9" d="M61.482 49.35a.861.861 0 1 0 .043 1.721.861.861 0 0 0-.043-1.721zM60.212 43.995a5.019 5.019 0 0 0-4.032 2.772.433.433 0 0 0 .798.336 4.2 4.2 0 0 1 3.318-2.247 4.714 4.714 0 0 1 4.336 2.226.546.546 0 0 0 .556.294h.148l.325-.136c.296-.154.568-.348.809-.578.223-.22.417-.466.577-.735a3.15 3.15 0 0 0 .2-.367.105.105 0 0 0-.168-.116 3.518 3.518 0 0 1-.987.672 3.035 3.035 0 0 1-.735.189h-.263a5.366 5.366 0 0 0-4.882-2.31zM56.4 68.093h-1.218v1.26c0 .58-.47 1.05-1.05 1.05h-9.45c-.58 0-1.05-.47-1.05-1.05v-1.26h-1.05c0 3.401 3.15 6.163 6.93 6.163 3.822-.021 6.888-2.772 6.888-6.163z"/>
            <path fill="#84D1C9" d="M44.682 70.403h9.45c.58 0 1.05-.47 1.05-1.05v-1.26h-11.55v1.26c0 .58.47 1.05 1.05 1.05zM73.736 22.323A12.128 12.128 0 1 0 53.397 9.229c10.826.662 17.147 6.143 20.339 13.094zM38.687 41.696h-2.1c-.547.535-1.124 1.05-1.733 1.627.903 0 1.806-.063 2.604-.063.464-.476.876-1 1.228-1.564zM50.74 47.376c-.009.434.034.867.127 1.291 1.27 6.164 4.84 9.293 10.605 9.293 6.593 0 9.197-5.25 9.502-10.185a93.207 93.207 0 0 1-1.533-1.05v.105c0 1.607-.388 9.618-7.98 9.618-4.987 0-7.959-2.625-9.082-8.043a3.245 3.245 0 0 1 .567-2.825c.85-1.05 3.024-2.299 8.515-2.299 1.55-.033 3.099.027 4.641.178a25.01 25.01 0 0 1-1.26-1.68c-1.05-.063-2.268-.063-3.381-.063-4.861 0-8.106.956-9.67 2.825a4.798 4.798 0 0 0-2.226-.441h-.053a4.725 4.725 0 0 0-2.184.399c-1.05-1.291-2.982-2.1-5.638-2.541a25.704 25.704 0 0 1-3.308 1.291c4.956.105 6.972 1.282 7.791 2.29.62.8.83 1.846.567 2.824-.84 4.137-2.782 6.615-5.859 7.581a10.92 10.92 0 0 1-3.223.451h-.546c-6.3-.357-7.287-6.51-7.413-8.904-.494.347-.987.683-1.481.998.494 4.694 3.15 9.503 9.45 9.503 5.765 0 9.335-3.15 10.605-9.293.093-.424.135-.858.126-1.291a1.145 1.145 0 0 1 1.124-.683h.052c.488-.056.957.206 1.166.651z"/>
            <path fill="#84D1C9" d="M29.698 47.46a54.022 54.022 0 0 0 5.124-4.2c.61-.546 1.187-1.05 1.733-1.627a38.619 38.619 0 0 0 4.2-4.568 16.8 16.8 0 0 1-2.027 4.599 9.324 9.324 0 0 1-1.26 1.533c-.146.155-.3.302-.462.441.483-.126.945-.283 1.418-.43A25.704 25.704 0 0 0 41.7 42a29.767 29.767 0 0 0 7.822-5.355 30.326 30.326 0 0 0 1.995-2.037 10.72 10.72 0 0 1-1.995 4.4 15.11 15.11 0 0 1-1.806 2.1 20.685 20.685 0 0 0 1.806-.903 30.23 30.23 0 0 0 2.804-1.743c3.276-2.31 5.334-5.25 7.497-8.327a37.8 37.8 0 0 0 5.04 11.644 22.281 22.281 0 0 0 4.588 4.946c.483.389.998.745 1.533 1.05a24.79 24.79 0 0 0 2.542 1.48c0-.073.073-.157.115-.241 3.15-6.615 4.2-17.85.105-26.691-3.15-6.951-9.513-12.432-20.338-13.094-.347 0-.694-.063-1.05-.073-32.004-.966-30.902 33.212-28.686 41.559.539-.182 1.068-.392 1.585-.63a25.305 25.305 0 0 0 2.961-1.627c.494-.316.987-.651 1.48-.998z"/>
            <path fill="#84D1C9" d="M11.114 105c5.627-7.13 12.537-14.049 17.703-15.813 2.037-1.155 5.25-1.953 10.279-2.236l.347-.252.063.273 1.396-.378V77.7c-6.069-4.337-11.235-12.201-11.235-18.732a4.379 4.379 0 0 1-4.41-4.368v-4.515c-.517.238-1.046.448-1.585.63-2.216-8.348-3.318-42.525 28.665-41.559.367 0 .713 0 1.05.073a12.128 12.128 0 1 1 20.348 13.094c4.064 8.862 3.077 20.076-.105 26.691.091.343.14.695.147 1.05V54.6a4.378 4.378 0 0 1-4.41 4.337c0 6.499-5.113 14.311-11.14 18.669v9.009l1.396.378.063-.273.336.252c5.009.283 8.243 1.05 10.28 2.226 5.176 1.774 12.085 8.694 17.713 15.823h2.205V.105H5.77V105h5.344z"/>
            <path fill="#F7CDB9" d="M56.673 101.199l2.95-14.227-1.396-.378v-9.01 9.01l-17.325-6.972v6.972l-1.396.378 2.95 14.227z"/>
            <path fill="#84D1C9" d="M40.902 77.647h1v1.974h-1z"/>
            <path fill="#DEB4A0" d="M40.902 77.647h1v1.974h-1z" style="mix-blend-mode:multiply"/>
            <path fill="#F7CDB9" d="M58.227 77.585a15.582 15.582 0 0 1-8.715 3.339 15.404 15.404 0 0 1-8.61-3.224v1.974l17.325 6.972v-9.061z"/>
            <path fill="#DEB4A0" d="M58.227 77.585a15.582 15.582 0 0 1-8.715 3.339 15.404 15.404 0 0 1-8.61-3.224v1.974l17.325 6.972v-9.061z" style="mix-blend-mode:multiply"/>
            <path fill="#FFF" d="M42.456 101.199l.788 3.801h12.642l.787-3.801z"/>
            <path fill="#42404D" d="M39.044 97.346l-9.45-3.592 9.555-6.803c-4.998.283-8.243 1.05-10.28 2.236-5.218 1.764-12.127 8.684-17.755 15.813h26.25l-2.027-2.457 3.706-5.198z"/>
            <path fill="#2A2932" d="M39.506 86.972l-.063-.273-.347.252-9.555 6.803 9.503 3.591-3.738 5.198L37.343 105h5.9l-.787-3.801zM60.086 97.346l9.502-3.592-9.565-6.803-.337-.252-.063.273-2.95 14.227-.788 3.801h5.902l2.026-2.457z"/>
            <path fill="#42404D" d="M70.302 89.177c-2.037-1.145-5.25-1.943-10.28-2.227l9.566 6.804-9.502 3.591 3.727 5.25L61.787 105h26.25c-5.65-7.13-12.559-14.049-17.735-15.823z"/>
            <path fill="#F7CDB9" d="M37.111 56.364a13.65 13.65 0 0 0 3.77-.42c3.077-.966 4.998-3.465 5.859-7.592a3.245 3.245 0 0 0-.567-2.824c-.819-1.05-2.835-2.184-7.791-2.289-.472.147-.934.305-1.417.43.161-.138.315-.286.462-.44-.798 0-1.701 0-2.604.063a54.022 54.022 0 0 1-5.124 4.2c.126 2.362 1.092 8.515 7.413 8.872zM38.687 41.696a16.8 16.8 0 0 0 2.026-4.6 38.619 38.619 0 0 1-4.2 4.568h1.05c.452 0 .788.021 1.123.032zM49.512 44.1v-3.948c-.588.325-1.197.64-1.806.903a15.11 15.11 0 0 0 1.806-2.1v-2.362A29.767 29.767 0 0 1 41.7 42c2.657.41 4.557 1.25 5.639 2.541a4.725 4.725 0 0 1 2.173-.441z"/>
            <path fill="#F7CDB9" d="M49.512 80.924v-6.668c-3.822 0-6.93-2.761-6.93-6.163h6.962v-3.15l-4.442-.893a59.294 59.294 0 0 1 4.41-13.87v-3.465c-.48-.032-.93.24-1.123.682.009.434-.034.867-.127 1.291-1.312 6.143-4.84 9.272-10.604 9.272-6.3 0-8.946-4.809-9.45-9.502a25.305 25.305 0 0 1-2.961 1.627V54.6a4.378 4.378 0 0 0 4.41 4.337c0 6.53 5.166 14.395 11.235 18.731a15.404 15.404 0 0 0 8.62 3.255zM51.507 34.556a30.326 30.326 0 0 1-1.995 2.037v2.362a10.72 10.72 0 0 0 1.995-4.4z"/>
            <path fill="#F7CDB9" d="M51.507 34.556a30.326 30.326 0 0 1-1.995 2.037v2.362a10.72 10.72 0 0 0 1.995-4.4z" opacity=".8" style="mix-blend-mode:multiply"/>
            <path fill="#F7CDB9" d="M49.565 44.1a4.798 4.798 0 0 1 2.236.399c1.565-1.869 4.809-2.825 9.67-2.825 1.114 0 2.279 0 3.382.063a37.8 37.8 0 0 1-5.04-11.644c-2.163 3.034-4.2 6.016-7.498 8.326a30.23 30.23 0 0 1-2.803 1.744V44.1h.053z"/>
            <path fill="#F7CDB9" d="M49.565 44.1a4.798 4.798 0 0 1 2.236.399c1.565-1.869 4.809-2.825 9.67-2.825 1.114 0 2.279 0 3.382.063a37.8 37.8 0 0 1-5.04-11.644c-2.163 3.034-4.2 6.016-7.498 8.326a30.23 30.23 0 0 1-2.803 1.744V44.1h.053z" opacity=".8" style="mix-blend-mode:multiply"/>
            <path fill="#F7CDB9" fill-rule="nonzero" d="M61.472 43.228c-5.492 0-7.666 1.25-8.516 2.3a3.245 3.245 0 0 0-.567 2.825c1.123 5.417 4.095 8.042 9.083 8.042 7.591 0 7.98-8.011 7.98-9.617v-.105a22.281 22.281 0 0 1-3.329-3.266 38.913 38.913 0 0 0-4.651-.178zm2.278 7.014a3.425 3.425 0 1 1-6.846.242 2.772 2.772 0 0 1 0-.588 2.457 2.457 0 0 1 0-.273 3.426 3.426 0 1 1 6.846-.273c.01.192.01.385 0 .578v.315zm1.323-3.979h.263c.251-.032.498-.095.735-.189.364-.166.698-.393.987-.672a.105.105 0 0 1 .168.115 3.15 3.15 0 0 1-.2.368c-.16.269-.354.516-.577.735-.241.23-.513.424-.809.578l-.325.136h-.147a.546.546 0 0 1-.557-.294 4.714 4.714 0 0 0-4.336-2.226 4.2 4.2 0 0 0-3.318 2.247.433.433 0 0 1-.798-.336 5.019 5.019 0 0 1 4.032-2.772 5.365 5.365 0 0 1 4.903 2.31h-.021z"/>
            <path fill="#F7CDB9" fill-rule="nonzero" d="M61.472 43.228c-5.492 0-7.666 1.25-8.516 2.3a3.245 3.245 0 0 0-.567 2.825c1.123 5.417 4.095 8.042 9.083 8.042 7.591 0 7.98-8.011 7.98-9.617v-.105a22.281 22.281 0 0 1-3.329-3.266 38.913 38.913 0 0 0-4.651-.178zm2.278 7.014a3.425 3.425 0 1 1-6.846.242 2.772 2.772 0 0 1 0-.588 2.457 2.457 0 0 1 0-.273 3.426 3.426 0 1 1 6.846-.273c.01.192.01.385 0 .578v.315zm1.323-3.979h.263c.251-.032.498-.095.735-.189.364-.166.698-.393.987-.672a.105.105 0 0 1 .168.115 3.15 3.15 0 0 1-.2.368c-.16.269-.354.516-.577.735-.241.23-.513.424-.809.578l-.325.136h-.147a.546.546 0 0 1-.557-.294 4.714 4.714 0 0 0-4.336-2.226 4.2 4.2 0 0 0-3.318 2.247.433.433 0 0 1-.798-.336 5.019 5.019 0 0 1 4.032-2.772 5.365 5.365 0 0 1 4.903 2.31h-.021z" opacity=".8" style="mix-blend-mode:multiply"/>
            <path fill="#F7CDB9" d="M70.974 47.775c-.305 4.904-2.909 10.185-9.502 10.185-5.765 0-9.335-3.15-10.605-9.293a5.491 5.491 0 0 1-.126-1.291c-.2-.46-.677-.738-1.176-.682h-.053v3.464a59.293 59.293 0 0 0-4.41 13.892l4.41.861v3.15H56.4c0 3.391-3.087 6.142-6.909 6.163v6.668a15.582 15.582 0 0 0 8.715-3.339c6.027-4.358 11.14-12.17 11.14-18.669a4.379 4.379 0 0 0 4.431-4.284v-4.526a4.452 4.452 0 0 0-.147-1.05c0 .084-.073.169-.115.242a24.79 24.79 0 0 1-2.541-1.491z"/>
            <path fill="#F7CDB9" d="M70.974 47.775c-.305 4.904-2.909 10.185-9.502 10.185-5.765 0-9.335-3.15-10.605-9.293a5.491 5.491 0 0 1-.126-1.291c-.2-.46-.677-.738-1.176-.682h-.053v3.464a59.293 59.293 0 0 0-4.41 13.892l4.41.861v3.15H56.4c0 3.391-3.087 6.142-6.909 6.163v6.668a15.582 15.582 0 0 0 8.715-3.339c6.027-4.358 11.14-12.17 11.14-18.669a4.379 4.379 0 0 0 4.431-4.284v-4.526a4.452 4.452 0 0 0-.147-1.05c0 .084-.073.169-.115.242a24.79 24.79 0 0 1-2.541-1.491z" opacity=".8" style="mix-blend-mode:multiply"/>
            <path fill="#F7CDB9" d="M42.11 51.103v-.283a3.402 3.402 0 0 1-6.762-.063 3.696 3.696 0 0 0 0 .588 3.391 3.391 0 0 0 1.848 2.898h.546a10.92 10.92 0 0 0 3.223-.452 3.444 3.444 0 0 0 1.145-2.688z"/>
            <path fill="#F7CDB9" d="M42.11 50.232v-.273a3.413 3.413 0 0 1-6.762-.063 3.475 3.475 0 0 0 0 .578 3.15 3.15 0 0 0 1.848 2.908 3.622 3.622 0 0 0 3.769-.42 3.423 3.423 0 0 0 1.145-2.73z" style="mix-blend-mode:multiply"/>
            <path fill="#3C2417" fill-rule="nonzero" d="M38.802 52.91a3.423 3.423 0 0 0 3.266-2.951c.01-.196.01-.392 0-.588a3.425 3.425 0 1 0-6.846.241v.284a3.412 3.412 0 0 0 3.58 3.014zm1.05-1.901a.85.85 0 0 1-.882-.819.871.871 0 0 1 .83-.892.861.861 0 0 1 .882.829.85.85 0 0 1-.809.882h-.021z"/>
            <path fill="#FFF" d="M39.82 49.35a.871.871 0 0 0-.829.892.861.861 0 0 0 1.712-.063.861.861 0 0 0-.883-.829z"/>
            <path fill="#3C2417" d="M33.373 47.187c.104.056.213.102.326.137h.147c.23.021.45-.1.557-.305a4.683 4.683 0 0 1 4.326-2.215 4.116 4.116 0 0 1 3.318 2.246c.1.22.357.317.577.221a.43.43 0 0 0 .22-.567 4.977 4.977 0 0 0-4.021-2.772A5.408 5.408 0 0 0 33.93 46.2a1.05 1.05 0 0 1-.252 0 2.53 2.53 0 0 1-.735-.189 3.518 3.518 0 0 1-.987-.672.115.115 0 0 0-.126 0 .095.095 0 0 0 0 .136c.054.127.117.25.189.368a4.2 4.2 0 0 0 .588.735c.226.238.484.443.767.609z"/>
            <path fill="#F7CDB9" d="M60.464 52.92a3.413 3.413 0 0 1-3.497-3.024c-.02.195-.02.393 0 .588a3.423 3.423 0 0 0 6.783-.242v-.283a3.423 3.423 0 0 1-3.286 2.961z"/>
            <path fill="#F7CDB9" d="M60.464 52.92a3.413 3.413 0 0 1-3.497-3.024c-.02.195-.02.393 0 .588a3.423 3.423 0 0 0 6.783-.242v-.283a3.423 3.423 0 0 1-3.286 2.961z" opacity=".8" style="mix-blend-mode:multiply"/>
            <path fill="#F7CDB9" d="M60.464 52.92a3.413 3.413 0 0 1-3.497-3.024c-.02.195-.02.393 0 .588a3.423 3.423 0 0 0 6.783-.242v-.283a3.423 3.423 0 0 1-3.286 2.961z" style="mix-blend-mode:multiply"/>
            <path fill="#3C2417" fill-rule="nonzero" d="M60.222 46.074a3.444 3.444 0 0 0-3.297 3.549c-.005.09-.005.182 0 .273a3.402 3.402 0 0 0 6.762.063c.033-.202.054-.405.063-.609a3.444 3.444 0 0 0-3.528-3.276zm1.313 4.946a.861.861 0 1 1-.063-1.721.861.861 0 0 1 .063 1.72z"/>
            <path fill="#FFF" d="M61.482 49.35a.861.861 0 1 0 .043 1.721.861.861 0 0 0-.043-1.721z"/>
            <path fill="#3C2417" d="M60.212 43.995a5.019 5.019 0 0 0-4.032 2.772.433.433 0 0 0 .798.336 4.2 4.2 0 0 1 3.318-2.247 4.714 4.714 0 0 1 4.336 2.226.546.546 0 0 0 .556.294h.148l.325-.136c.296-.154.568-.348.809-.578.223-.22.417-.466.577-.735a3.15 3.15 0 0 0 .2-.367.105.105 0 0 0-.168-.116 3.518 3.518 0 0 1-.987.672 3.035 3.035 0 0 1-.735.189h-.263a5.366 5.366 0 0 0-4.882-2.31z"/>
            <path fill="#F05D44" d="M56.4 68.093h-1.218v1.26c0 .58-.47 1.05-1.05 1.05h-9.45c-.58 0-1.05-.47-1.05-1.05v-1.26h-1.05c0 3.401 3.15 6.163 6.93 6.163 3.822-.021 6.888-2.772 6.888-6.163z"/>
            <path fill="#FFF" d="M44.682 70.403h9.45c.58 0 1.05-.47 1.05-1.05v-1.26h-11.55v1.26c0 .58.47 1.05 1.05 1.05z"/>
            <path fill="#3C2415" d="M73.736 22.323A12.128 12.128 0 1 0 53.397 9.229c10.826.662 17.147 6.143 20.339 13.094z"/>
            <path fill="#FFF" d="M38.687 41.696h-2.1c-.547.535-1.124 1.05-1.733 1.627.903 0 1.806-.063 2.604-.063.464-.476.876-1 1.228-1.564zM50.74 47.376c-.009.434.034.867.127 1.291 1.27 6.164 4.84 9.293 10.605 9.293 6.593 0 9.197-5.25 9.502-10.185a93.207 93.207 0 0 1-1.533-1.05v.105c0 1.607-.388 9.618-7.98 9.618-4.987 0-7.959-2.625-9.082-8.043a3.245 3.245 0 0 1 .567-2.825c.85-1.05 3.024-2.299 8.515-2.299 1.55-.033 3.099.027 4.641.178a25.01 25.01 0 0 1-1.26-1.68c-1.05-.063-2.268-.063-3.381-.063-4.861 0-8.106.956-9.67 2.825a4.798 4.798 0 0 0-2.226-.441h-.053a4.725 4.725 0 0 0-2.184.399c-1.05-1.291-2.982-2.1-5.638-2.541a25.704 25.704 0 0 1-3.308 1.291c4.956.105 6.972 1.282 7.791 2.29.62.8.83 1.846.567 2.824-.84 4.137-2.782 6.615-5.859 7.581a10.92 10.92 0 0 1-3.223.451h-.546c-6.3-.357-7.287-6.51-7.413-8.904-.494.347-.987.683-1.481.998.494 4.694 3.15 9.503 9.45 9.503 5.765 0 9.335-3.15 10.605-9.293.093-.424.135-.858.126-1.291a1.145 1.145 0 0 1 1.124-.683h.052c.488-.056.957.206 1.166.651z"/>
            <path fill="#4F3C30" d="M29.698 47.46a54.022 54.022 0 0 0 5.124-4.2c.61-.546 1.187-1.05 1.733-1.627a38.619 38.619 0 0 0 4.2-4.568 16.8 16.8 0 0 1-2.027 4.599 9.324 9.324 0 0 1-1.26 1.533c-.146.155-.3.302-.462.441.483-.126.945-.283 1.418-.43A25.704 25.704 0 0 0 41.7 42a29.767 29.767 0 0 0 7.822-5.355 30.326 30.326 0 0 0 1.995-2.037 10.72 10.72 0 0 1-1.995 4.4 15.11 15.11 0 0 1-1.806 2.1 20.685 20.685 0 0 0 1.806-.903 30.23 30.23 0 0 0 2.804-1.743c3.276-2.31 5.334-5.25 7.497-8.327a37.8 37.8 0 0 0 5.04 11.644 22.281 22.281 0 0 0 4.588 4.946c.483.389.998.745 1.533 1.05a24.79 24.79 0 0 0 2.542 1.48c0-.073.073-.157.115-.241 3.15-6.615 4.2-17.85.105-26.691-3.15-6.951-9.513-12.432-20.338-13.094-.347 0-.694-.063-1.05-.073-32.004-.966-30.902 33.212-28.686 41.559.539-.182 1.068-.392 1.585-.63a25.305 25.305 0 0 0 2.961-1.627c.494-.316.987-.651 1.48-.998z"/>
        </g>
    </g>
</svg>
