<svg xmlns="http://www.w3.org/2000/svg" xmlns:xlink="http://www.w3.org/1999/xlink" width="100" height="100" viewBox="0 0 100 100">
    <defs>
        <linearGradient id="b" x1="0%" y1="0%" y2="100%">
            <stop offset="0%" stop-color="#186CA9"/>
            <stop offset="100%" stop-color="#4AD6F1"/>
        </linearGradient>
        <rect id="a" width="100" height="100" rx="15"/>
        <linearGradient id="d" x1="17.905%" x2="82.095%" y1="0%" y2="100%">
            <stop offset="0%" stop-color="#186CA9"/>
            <stop offset="100%" stop-color="#4AD6F1"/>
        </linearGradient>
    </defs>
    <g fill="none" fill-rule="evenodd">
        <mask id="c" fill="#fff">
            <use xlink:href="#a"/>
        </mask>
        <use fill="url(#b)" fill-rule="nonzero" xlink:href="#a"/>
        <g mask="url(#c)">
            <path fill="url(#d)" fill-rule="nonzero" d="M.882 93.072v-2.468h5.89v-3.37h.925V68.848h1.942v-2.73h12.138v2.73h1.827V54.948h4.232v-6.038h2.709v-6.195h12.432v6.195h2.709v6.038h5.47v49.99h2.174V39.868h2.12v-3.16h2.08v-3.16l9.544-6.574 9.86 6.573v3.161h2.079v3.16h1.868v42.473h3.192V0H0l.189 99.362 1.155-.82v-5.47z" transform="translate(6 -5)"/>
            <path fill="#9AA9AE" fill-rule="nonzero" d="M14.232 81.541h4.274v.693h.44V65.728h-5.25v16.506h.536v-.693zm0-14.805h4.274v1.386h-4.274v-1.386zm0 2.961h4.274v1.386h-4.274v-1.386zm0 2.961h4.274v1.386h-4.274v-1.386zm0 2.961h4.274v1.386h-4.274v-1.386zm0 2.961h4.274v1.386h-4.274V78.58z"/>
            <path fill="#748197" d="M18.947 65.728h1v16.517h-1z"/>
            <path fill="#524B5F" fill-rule="nonzero" d="M19.765 65.728v16.506h.525v3.37h.589V85.3h8.043v.273h.682V65.728h-9.838zm2.373 3.822h5.25v5.701h-5.25V69.55zm-1.26 6.898h8.044v1.387h-8.043v-1.386zm0 2.962h8.044v1.386h-8.043v-1.387zm0 2.96h8.044v1.386h-8.043v-1.385z"/>
            <path fill="#9AA9AE" d="M19.618 63.849v-2.73H15.64v2.73h3.307z"/>
            <path fill="#748197" d="M19.765 63.849H20.227v-2.73h-.609v2.73z"/>
            <path fill="#524B5F" d="M20.312 63.849h7.465v-2.73h-7.549v2.73z"/>
            <path fill="#2A2E4B" d="M22.139 69.55h3.055v5.702h-3.055z"/>
            <path fill="#748197" d="M25.194 69.55h2.152v5.702h-2.152z"/>
            <path fill="#524B5F" d="M20.879 76.448h8.043v1.375h-8.043z"/>
            <path fill="#D5D6D2" d="M20.879 76.448h8.043v1.375h-8.043z" opacity=".2" style="mix-blend-mode:overlay"/>
            <path fill="#524B5F" d="M20.879 79.409h8.043v1.375h-8.043z"/>
            <path fill="#D5D6D2" d="M20.879 79.409h8.043v1.375h-8.043z" opacity=".2" style="mix-blend-mode:overlay"/>
            <path fill="#524B5F" d="M20.879 82.371h8.043v1.375h-8.043z"/>
            <path fill="#D5D6D2" d="M20.879 82.371h8.043v1.375h-8.043z" opacity=".2" style="mix-blend-mode:overlay"/>
            <path fill="#524B5F" d="M28.922 85.605v-.273h-8.043v.273h7.37z"/>
            <path fill="#D5D6D2" d="M28.922 85.605v-.273h-8.043v.273h7.37z" opacity=".2" style="mix-blend-mode:overlay"/>
            <path fill="#9AA9AE" d="M14.232 66.736h4.284v1.375h-4.284z"/>
            <path fill="#D5D6D2" d="M14.232 66.736h4.284v1.375h-4.284z" opacity=".2" style="mix-blend-mode:overlay"/>
            <path fill="#9AA9AE" d="M14.232 69.697h4.284v1.375h-4.284z"/>
            <path fill="#D5D6D2" d="M14.232 69.697h4.284v1.375h-4.284z" opacity=".2" style="mix-blend-mode:overlay"/>
            <path fill="#9AA9AE" d="M14.232 72.658h4.284v1.375h-4.284z"/>
            <path fill="#D5D6D2" d="M14.232 72.658h4.284v1.375h-4.284z" opacity=".2" style="mix-blend-mode:overlay"/>
            <path fill="#9AA9AE" d="M14.232 75.619h4.284v1.375h-4.284z"/>
            <path fill="#D5D6D2" d="M14.232 75.619h4.284v1.375h-4.284z" opacity=".2" style="mix-blend-mode:overlay"/>
            <path fill="#9AA9AE" d="M14.232 78.58h4.284v1.375h-4.284z"/>
            <path fill="#D5D6D2" d="M14.232 78.58h4.284v1.375h-4.284z" opacity=".2" style="mix-blend-mode:overlay"/>
            <path fill="#9AA9AE" d="M14.232 81.541v.693h4.273v-.693z"/>
            <path fill="#D5D6D2" d="M14.232 81.541v.693h4.273v-.693z" opacity=".2" style="mix-blend-mode:overlay"/>
            <path fill="#9AA9AE" d="M18.947 63.849h-5.25v1.879h5.25z"/>
            <path fill="#C0C7D2" d="M18.947 63.849h-5.25v1.879h5.25z" opacity=".5" style="mix-blend-mode:multiply"/>
            <path fill="#748197" d="M18.947 63.849v1.879h.819v-1.88h-.147z"/>
            <path fill="#C0C7D2" d="M18.947 63.849v1.879h.819v-1.88h-.147z" opacity=".5" style="mix-blend-mode:multiply"/>
            <path fill="#524B5F" d="M20.312 63.849h-.547v1.879h9.839v-1.88h-1.827z"/>
            <path fill="#C0C7D2" d="M20.312 63.849h-.547v1.879h9.839v-1.88h-1.827z" opacity=".5" style="mix-blend-mode:multiply"/>
            <path fill="#748197" d="M80.77 38.68h1.596v38.661h1.103V38.68h1.596v38.661h1.817V34.869h-7.886v47.974h1.775z"/>
            <path fill="#9AA9AE" fill-rule="nonzero" d="M77.138 31.75H61.45v3.15h16.412v-3.15h-.724zm-9.45 2.846H66.08v-2.268h1.596l.01 2.267zm2.698 0H68.78v-2.268h1.596l.01 2.267zm2.699 0h-1.607v-2.268h1.596l.01 2.267z"/>
            <path fill="#706281" d="M85.013 31.708H77.862v3.16H85.013z"/>
            <path fill="#C0C7D2" d="M63.529 28.547h13.514v3.16H63.529z"/>
            <path fill="#748197" d="M77.043 28.547v3.161h5.891v-3.16h-5.796z"/>
            <path fill="#D5D6D2" d="M74.67 38.68h2.31v3.885h-2.31z"/>
            <path fill="#748197" d="M73.862 38.68h1v3.885h-1z"/>
            <path fill="#D5D6D2" d="M74.67 43.489h2.31v3.885h-2.31z"/>
            <path fill="#748197" d="M73.862 43.489h1v3.885h-1z"/>
            <path fill="#D5D6D2" d="M74.597 48.288h2.31v3.885h-2.31z"/>
            <path fill="#748197" d="M73.778 48.288h1v3.885h-1z"/>
            <path fill="#D5D6D2" d="M74.67 53.453h2.31v3.885h-2.31z"/>
            <path fill="#748197" d="M73.862 53.453h1v3.885h-1z"/>
            <path fill="#D5D6D2" d="M74.67 58.263h2.31v3.885h-2.31z"/>
            <path fill="#748197" d="M73.862 58.263h1v3.885h-1z"/>
            <path fill="#D5D6D2" d="M74.597 63.061h2.31v3.885h-2.31z"/>
            <path fill="#748197" d="M73.778 63.061h1v3.885h-1z"/>
            <path fill="#D5D6D2" d="M61.965 38.68h2.31v3.885h-2.31z"/>
            <path fill="#748197" d="M61.146 38.68h1v3.885h-1z"/>
            <path fill="#D5D6D2" d="M61.965 43.489h2.31v3.885h-2.31z"/>
            <path fill="#748197" d="M61.146 43.489h1v3.885h-1z"/>
            <path fill="#D5D6D2" d="M61.965 48.288h2.31v3.885h-2.31z"/>
            <path fill="#748197" d="M61.146 48.288h1v3.885h-1z"/>
            <path fill="#D5D6D2" d="M61.965 53.453h2.31v3.885h-2.31z"/>
            <path fill="#748197" d="M61.146 53.453h1v3.885h-1z"/>
            <path fill="#D5D6D2" d="M61.965 58.263h2.31v3.885h-2.31z"/>
            <path fill="#748197" d="M61.146 58.263h1v3.885h-1z"/>
            <path fill="#D5D6D2" d="M61.965 63.061h2.31v3.885h-2.31z"/>
            <path fill="#748197" d="M61.146 63.061h1v3.885h-1z"/>
            <path fill="#D5D6D2" d="M61.965 68.227h2.31v3.885h-2.31z"/>
            <path fill="#748197" d="M61.146 68.227h1v3.885h-1z"/>
            <path fill="#D5D6D2" d="M61.965 73.036h2.31v3.885h-2.31z"/>
            <path fill="#748197" d="M61.146 73.036h1v3.885h-1z"/>
            <path fill="#D5D6D2" d="M61.965 77.845h2.31v3.885h-2.31z"/>
            <path fill="#748197" d="M61.146 77.845h1v3.885h-1z"/>
            <path fill="#D5D6D2" d="M66.133 38.68h2.31v3.885h-2.31z"/>
            <path fill="#748197" d="M65.325 38.68h1v3.885h-1z"/>
            <path fill="#D5D6D2" d="M66.133 43.489h2.31v3.885h-2.31z"/>
            <path fill="#748197" d="M65.325 43.489h1v3.885h-1z"/>
            <path fill="#D5D6D2" d="M66.133 48.288h2.31v3.885h-2.31z"/>
            <path fill="#748197" d="M65.325 48.288h1v3.885h-1z"/>
            <path fill="#D5D6D2" d="M66.133 53.453h2.31v3.885h-2.31z"/>
            <path fill="#748197" d="M65.325 53.453h1v3.885h-1z"/>
            <path fill="#D5D6D2" d="M66.133 58.263h2.31v3.885h-2.31z"/>
            <path fill="#748197" d="M65.325 58.263h1v3.885h-1z"/>
            <path fill="#D5D6D2" d="M66.133 63.061h2.31v3.885h-2.31z"/>
            <path fill="#748197" d="M65.325 63.061h1v3.885h-1z"/>
            <path fill="#D5D6D2" d="M66.133 68.227h2.31v3.885h-2.31z"/>
            <path fill="#748197" d="M65.325 68.227h1v3.885h-1z"/>
            <path fill="#D5D6D2" d="M66.133 73.036h2.31v3.885h-2.31z"/>
            <path fill="#748197" d="M65.325 73.036h1v3.885h-1z"/>
            <path fill="#D5D6D2" d="M68.444 77.835h-2.31v3.895h.871l1.438-.798z"/>
            <path fill="#748197" d="M65.325 77.845h1v3.885h-1z"/>
            <path fill="#D5D6D2" d="M70.313 38.68h2.31v3.885h-2.31z"/>
            <path fill="#748197" d="M69.493 38.68h1v3.885h-1z"/>
            <path fill="#D5D6D2" d="M70.313 43.489h2.31v3.885h-2.31z"/>
            <path fill="#748197" d="M69.493 43.489h1v3.885h-1z"/>
            <path fill="#D5D6D2" d="M70.313 48.288h2.31v3.885h-2.31z"/>
            <path fill="#748197" d="M69.493 48.288h1v3.885h-1z"/>
            <path fill="#D5D6D2" d="M70.313 53.453h2.31v3.885h-2.31z"/>
            <path fill="#748197" d="M69.493 53.453h1v3.885h-1z"/>
            <path fill="#D5D6D2" d="M70.313 58.263h2.31v3.885h-2.31z"/>
            <path fill="#748197" d="M69.493 58.263h1v3.885h-1z"/>
            <path fill="#D5D6D2" d="M70.313 63.061h2.31v3.885h-2.31z"/>
            <path fill="#748197" d="M69.493 63.061h1v3.885h-1z"/>
            <path fill="#D5D6D2" d="M70.313 68.227h2.31v3.885h-2.31z"/>
            <path fill="#748197" d="M69.493 68.227h1v3.885h-1z"/>
            <path fill="#D5D6D2" d="M72.612 75.23v-2.194h-2.3v3.402z"/>
            <path fill="#748197" d="M70.313 73.036h-.82v3.822l.82-.42z"/>
            <path fill="#D5D6D2" d="M74.67 68.227h2.31v3.885h-2.31z"/>
            <path fill="#748197" d="M73.862 68.227h1v3.885h-1z"/>
            <path fill="#D5D6D2" d="M74.67 73.036h2.31v1.827h-2.31z"/>
            <path fill="#748197" d="M73.862 73.036h1v1.827h-1zM66.081 32.328h1.596v2.236h-1.596zM68.78 32.328v2.225h1.596v-2.225h-1.124zM71.478 32.328v2.225H73.074v-2.225H71.94z"/>
            <path fill="#706281" d="M83.469 38.68h1.123v38.661h-1.123z"/>
            <path fill="#524B5F" d="M85.065 38.68h-.472v38.661h-2.226V38.68h-.473v44.163H87.102v-5.502h-2.037z"/>
            <path fill="#F5F3EF" d="M73.074 21.974l-9.544 6.573h13.513z"/>
            <path fill="#C0C7D2" d="M77.138 28.547h5.795l-9.859-6.573 3.969 6.573z"/>
            <path fill="#706281" d="M87.102 77.341v5.502h-5.25V38.68H80.77v44.163h-2.32v-7.98l-4.389 2.3v3.507l-4.82 2.53v2.667h19.037v2.457h-.462v5.639h.462v.787h-.462V100h2.257V80.869H90a.399.399 0 0 1-.388-.388.64.64 0 0 1 .493-.62v-2.52h-3.003z"/>
            <path fill="#2A2E4B" d="M74.082 77.162l4.389-2.299h-5.155l-.704.368-2.3 1.207-.819.42-.577.304z"/>
            <path fill="#748197" d="M68.916 77.162h5.155v3.507h-5.155z"/>
            <path fill="#2A2E4B" d="M74.082 80.67h-5.166l-.472.262-1.439.798-2.657 1.47h4.894z"/>
            <path fill="#748197" d="M64.349 83.2h4.904v2.667h-4.904z"/>
            <path fill="#9AA9AE" fill-rule="nonzero" d="M45.197 38.554h-8.653v5.355h8.653v-5.355zm-5.776 5.072H38.31v-4.463h1.113v4.463zm1.87 0h-1.05v-4.463h1.05v4.463zm1.05 0h-.326v-4.463h1.155v4.463h-.83z"/>
            <path fill="#748197" d="M45.197 38.208v-.494h-8.653v.84h8.653z"/>
            <path fill="#706281" d="M45.197 38.554H48.977v-.84H45.197v.494z"/>
            <path fill="#748197" d="M38.309 39.153v4.473h1.113v-4.473h-.788zM42.393 39.153h-.336v4.473h1.113v-4.473zM40.178 39.153v4.473h1.112v-4.473h-.776z"/>
            <path fill="#F5F3EF" d="M47.559 96.525c.26.178.559.29.872.325v-2.52h-.893l.021 2.195zM48.913 94.33v3.392c.106-.179.221-.337.326-.504V94.34l-.325-.011z"/>
            <path fill="#748197" d="M49.775 97.438c-.188.26-.357.534-.505.819V100h1.785v-4.053c-.46.467-.889.965-1.28 1.491zM49.27 94.34v2.877l.074-.094c.418-.562.885-1.086 1.396-1.565l.316-.304v-.735a18.01 18.01 0 0 0-1.785-.178zM51.685 49.947v-6.038h-2.709v-5.355h-3.78v5.355h1.05v6.038h3.003v38.419a6.3 6.3 0 0 1 1.785.41V53.8h1.596v35.942c.395.35.748.744 1.05 1.175V53.8h1.67V100h1.816V49.947h-5.48z"/>
            <path fill="#748197" d="M52.651 94.802V100h1.05v-5.008a21.9 21.9 0 0 1-1.05-.19zM35.936 95.611a.577.577 0 0 1 0 .493c.525-.314 1.102-.241 1.28.179a.672.672 0 0 1-.199.756h.315V53.8h-1.606v41.559a.62.62 0 0 1 .21.252zM39.075 97.732h.913V53.8h-1.564v43.523c.238.099.458.237.651.409zM39.516 98.016a.598.598 0 0 1 .504.283v-.294h-.504v.01zM41.91 94.32c.086-.87.373-1.708.84-2.447V53.8h-1.627V100h1.627v-4.977c-.546-.021-.84-.21-.84-.703z"/>
            <path fill="#C0C7D2" fill-rule="nonzero" d="M46.267 43.909H33.835v6.038h12.432v-6.038zm-8.305 5.418h-1.596v-4.462h1.596v4.462zm2.688 0h-1.596v-4.462h1.596v4.462zm2.699 0h-1.596v-4.462h1.596v4.462z"/>
            <path fill="#D5D6D2" d="M32.239 53.758h2.31v3.885h-2.31z"/>
            <path fill="#748197" d="M31.431 53.758h1v3.885h-1z"/>
            <path fill="#D5D6D2" d="M32.239 58.567h2.31v3.885h-2.31z"/>
            <path fill="#748197" d="M31.431 58.567h1v3.885h-1z"/>
            <path fill="#D5D6D2" d="M32.239 63.365h2.31v3.885h-2.31z"/>
            <path fill="#748197" d="M31.431 63.365h1v3.885h-1z"/>
            <path fill="#D5D6D2" d="M45.322 53.758h2.31v3.885h-2.31z"/>
            <path fill="#748197" d="M44.514 53.758h1v3.885h-1z"/>
            <path fill="#D5D6D2" d="M45.322 58.567h2.31v3.885h-2.31z"/>
            <path fill="#748197" d="M44.514 58.567h1v3.885h-1z"/>
            <path fill="#D5D6D2" d="M45.249 63.365h2.31v3.885h-2.31z"/>
            <path fill="#748197" d="M44.43 63.365h1v3.885h-1z"/>
            <path fill="#D5D6D2" d="M32.239 68.531h2.31v3.885h-2.31z"/>
            <path fill="#748197" d="M31.431 68.531h1v3.885h-1z"/>
            <path fill="#D5D6D2" d="M32.239 73.341h2.31v3.885h-2.31z"/>
            <path fill="#748197" d="M31.431 73.341h1v3.885h-1z"/>
            <path fill="#D5D6D2" d="M32.239 78.139h2.31v3.885h-2.31z"/>
            <path fill="#748197" d="M31.431 78.139h1v3.885h-1z"/>
            <path fill="#D5D6D2" d="M45.322 68.531h2.31v3.885h-2.31z"/>
            <path fill="#748197" d="M44.514 68.531h1v3.885h-1z"/>
            <path fill="#D5D6D2" d="M45.322 73.341h2.31v3.885h-2.31z"/>
            <path fill="#748197" d="M44.514 73.341h1v3.885h-1z"/>
            <path fill="#D5D6D2" d="M45.249 78.139h2.31v3.885h-2.31z"/>
            <path fill="#748197" d="M44.43 78.139h1v3.885h-1z"/>
            <path fill="#D5D6D2" d="M32.25 85.605h.473v1.585h1.826v-3.885h-2.31v2.3zM32.25 91.999h2.3v-3.885h-2.3v.231zM33.3 95.632c.32 0 .64.049.945.147.085-.1.184-.19.294-.263v-2.604H32.25V95.8a2.93 2.93 0 0 1 1.05-.168zM45.322 83.305h2.31v3.885h-2.31z"/>
            <path fill="#748197" d="M44.514 83.305h1v3.885h-1z"/>
            <path fill="#D5D6D2" d="M47.633 88.45v-.305h-2.31v1.05c.717-.387 1.5-.64 2.31-.745z"/>
            <path fill="#748197" d="M45.322 88.114h-.808v1.638c.26-.196.53-.379.808-.546v-1.092z"/>
            <path fill="#D5D6D2" d="M46.31 94.519c.109.597.373 1.154.766 1.617.139.155.302.286.483.389v-2.1c-.43-.022-.85.031-1.25.094zM46.089 95.548a5.491 5.491 0 0 1-.283-.956l-.557.095v2.1h1.764l-.336-.305a3.36 3.36 0 0 1-.588-.934z"/>
            <path fill="#748197" d="M44.43 94.834v2.016h.819v-2.1zM36.366 44.854v4.473h1.596v-4.473h-1.124zM39.054 44.854v4.473h1.596v-4.473h-1.123zM41.752 44.854v4.473h1.596v-4.473h-1.123z"/>
            <path fill="#706281" d="M54.867 53.8h-1.123v37.118a7.256 7.256 0 0 1 1.123 2.162V53.8zM53.743 94.992V100h1.124v-5.124c-.349.17-.747.211-1.123.115z"/>
            <path fill="#524B5F" d="M54.867 53.8v39.28c.14.4.222.817.242 1.24a.609.609 0 0 1-.242.556V100h.483V53.8h-.483z"/>
            <path fill="#706281" d="M52.2 53.8h-1.145v34.975c.393.168.77.372 1.124.61L52.2 53.8zM52.084 94.75c-.084.153-.179.3-.283.441-.225.271-.463.53-.714.777V100H52.2v-5.25h-.116zM51.056 95.254c.139-.123.266-.26.378-.41.063-.073.115-.157.168-.23l-.546-.095v.735z"/>
            <path fill="#524B5F" d="M52.651 89.742V53.8H52.2v35.585zM52.2 94.75V100h.472v-5.145zM51.056 95.947c.25-.247.489-.506.714-.777.104-.14.198-.288.283-.441l-.483-.084c0 .074-.105.157-.168.231a2.772 2.772 0 0 1-.378.41l-.315.304a11.697 11.697 0 0 0-1.397 1.564l-.073.095c-.105.168-.22.326-.325.504v-3.391h-.462v2.52a2.436 2.436 0 0 1-1.355-.715 3.465 3.465 0 0 1-.767-1.617l-.503.074c.065.326.16.646.283.956.141.349.34.672.588.955l.336.305c.175.147.37.27.578.367.26.126.54.2.829.22V100h.546v-.798c.07-.309.176-.608.315-.892.148-.285.316-.56.504-.82.38-.543.797-1.058 1.25-1.543z"/>
            <path fill="#DED432" d="M45.806 94.593l.504-.074c.398-.063.819-.116 1.249-.147.43-.031.588 0 .893 0h.819c.63 0 1.228.094 1.785.178l.546.095.483.084.115.021.472.084c.41.084.778.147 1.05.189.377.096.775.055 1.124-.115a.609.609 0 0 0 .242-.557c-.02-.423-.101-.84-.242-1.239-.25-.78-.63-1.51-1.123-2.163a6.751 6.751 0 0 0-1.05-1.176l-.473-.388a6.783 6.783 0 0 0-1.123-.61 6.3 6.3 0 0 0-1.785-.409h-.568c-.351.002-.702.03-1.05.084a6.668 6.668 0 0 0-2.31.787c-.279.168-.549.35-.808.547a7.486 7.486 0 0 0-1.806 2.1 5.618 5.618 0 0 0-.798 2.446c0 .493.294.683.798.704a7.675 7.675 0 0 0 1.722-.19l.819-.146.515-.105z"/>
            <path fill="#9AA9AE" d="M82.933 94.729v-.01H62.05l.01.01z"/>
            <path fill="#9AA9AE" fill-rule="nonzero" d="M61.209 93.7h.346c.045.005.08.04.084.084v.21h21.714v-.21c0-.043.032-.079.074-.084h.357v-.094H82.944a.147.147 0 0 1 0-.074v-.357a.147.147 0 0 1 0-.063.094.094 0 0 1 .063 0h.777v-.462h-.357a.084.084 0 0 1-.074-.084v-.368a.084.084 0 0 1 .074-.094h.357v-.084h-.777a.094.094 0 0 1-.063 0 .147.147 0 0 1 0-.063V91.6a.147.147 0 0 1 0-.073H83.784v-.452h-.357a.073.073 0 0 1-.074-.084v-.441a.084.084 0 0 1 .074-.094h.357v-.085h-.777a.094.094 0 0 1-.063 0 .116.116 0 0 1 0-.063v-.357a.116.116 0 0 1 0-.063.094.094 0 0 1 .063 0h.777V89.5h-.357a.084.084 0 0 1-.074-.094v-.358a.084.084 0 0 1 .074-.094h.357v-.084h-.777a.074.074 0 0 1-.063 0 .147.147 0 0 1 0-.074v-.168H62.059v.168a.084.084 0 0 1 0 .074h-.776v-.546 5.639l-.074-.263zm20.475-4.725v4.484h-.913v-4.516l.913.032zm-1.05 0v4.484h-4.757v-4.516l4.757.032zm-6.363 0h1.47v4.484h-1.47v-4.484zm-1.764 1.365v.284a.053.053 0 0 1-.053 0h-.724v-.284h.766s.043-.053.053-.032l-.042.032zm-1.197-.472a.053.053 0 0 1 .052 0H72.203v.283a.063.063 0 0 1-.052 0h-.767-.052l-.021-.283zm-.609-.893v4.484h-1.05v-4.516l1.05.032zm-1.155 0v4.484H64.8v-4.516l4.746.032zm-6.216 0h1.312v4.484h-1.27l-.042-4.484zm-2.163 0h.346a.095.095 0 0 1 .084.095v.357c0 .048-.035.089-.084.094h-.346v-.546zm0 .903h.777v.483h-.777v-.483zm0 .63h.346a.095.095 0 0 1 .137.042v.368a.084.084 0 0 1-.084.083h-.347l-.052-.493zm0 1.05h.777a.084.084 0 0 1 0 .073v.358c.01.02.01.043 0 .063h-.777v-.494zm0 .63h.346a.095.095 0 0 1 .084.094v.368a.094.094 0 0 1-.084.084h-.346v-.546zm0 .903h.777c.01.02.01.043 0 .063v.357a.084.084 0 0 1 0 .074h-.777v-.494zM83.007 99.906a.095.095 0 0 1-.063 0 .147.147 0 0 1 0-.064v-.356a.147.147 0 0 1 0-.074H83.784v-.357h-.357a.084.084 0 0 1-.074-.095v-.367a.073.073 0 0 1 .074-.084h.357v-.094H82.944a.147.147 0 0 1 0-.074V97.9a.116.116 0 0 1 0-.063.095.095 0 0 1 .063 0h.777v-.462h-.357a.084.084 0 0 1-.074-.094v-.358a.084.084 0 0 1 .074-.094h.357v-.094h-.777a.074.074 0 0 1-.063 0 .147.147 0 0 1 0-.074v-.357a.147.147 0 0 1 0-.063.095.095 0 0 1 .063 0h.777V95.8h-.357a.084.084 0 0 1-.074-.084v-.336a.084.084 0 0 1 .074-.094h.357V95.2h-.777a.095.095 0 0 1-.063 0 .116.116 0 0 1 0-.063v-.105H62.059V95.202h-.776v-.451V100h3.034v-3.811h6.006V100h1.281v-3.811h2.636V100h9.618l-.851-.094zm-21.798-4.62h.346a.095.095 0 0 1 .084.094v.42a.094.094 0 0 1-.084.084h-.346v-.599zm0 1.543h.346a.095.095 0 0 1 .084.095v.356c0 .049-.035.09-.084.095h-.346v-.546zm0 1.628h.346c.047 0 .084.037.084.084v.409c0 .048-.035.09-.084.094h-.346v-.587zm.85 1.354c.01.02.01.043 0 .063h-.776v-.546h.776a.084.084 0 0 1 0 .073v.41zm0-1.544a.084.084 0 0 1 0 .074h-.776v-.546h.776v.473zm0-1.627a.084.084 0 0 1 0 .073h-.776v-.545h.776c.01.02.01.043 0 .063v.409zm14.438-1.27H75.678v-.284h.767a.063.063 0 0 1 .052 0v.284zm.535 3.034v-2.95h.904v2.95h-.904zm.998 0v-2.95h2.782v2.95H78.03zm3.665 0h-.788v-2.95h.788v2.95z"/>
            <path fill="#F5F3EF" d="M63.761 88.944h1v4.484h-1zM69.682 88.944h1.071v4.484h-1.071zM64.779 88.944h4.798v4.484h-4.798z"/>
            <path fill="#748197" d="M63.372 88.944h1v4.484h-1z"/>
            <path fill="#F5F3EF" d="M74.701 88.944h1.081v4.484h-1.081zM75.877 88.944h4.798v4.484h-4.798zM80.77 88.944h1v4.484h-1z"/>
            <path fill="#748197" d="M74.313 88.944h1v4.484h-1z"/>
            <path fill="#F5F3EF" d="M77.421 95.454h1v2.95h-1zM80.907 95.454h1v2.95h-1z"/>
            <path fill="#F5F3EF" d="M78.03 95.454h2.783v2.95H78.03z"/>
            <path fill="#748197" d="M77.032 95.454h1v2.95h-1zM83.784 95.002v4.935h4.032v-4.935zM83.784 88.608v6.121h4.032v-.01h.462v-.756h-.462v-5.355z"/>
            <path fill="#9AA9AE" d="M83.427 90.55a.084.084 0 0 0-.074.094v.368a.074.074 0 0 0 .074.084h.357v-.546h-.357z"/>
            <path fill="#FFF" d="M83.427 90.55a.084.084 0 0 0-.074.094v.368a.074.074 0 0 0 .074.084h.357v-.546h-.357z" opacity=".4"/>
            <path fill="#9AA9AE" d="M83.007 89.868a.094.094 0 0 0-.063 0 .116.116 0 0 0 0 .063v.356a.116.116 0 0 0 0 .063c.02.008.043.008.063 0h.777v-.545l-.777.063z"/>
            <path fill="#FFF" d="M83.007 89.868a.094.094 0 0 0-.063 0 .116.116 0 0 0 0 .063v.356a.116.116 0 0 0 0 .063c.02.008.043.008.063 0h.777v-.545l-.777.063z" opacity=".4"/>
            <path fill="#9AA9AE" d="M83.427 88.965a.084.084 0 0 0-.074.094v.357a.084.084 0 0 0 .074.094h.357v-.546h-.357z"/>
            <path fill="#FFF" d="M83.427 88.965a.084.084 0 0 0-.074.094v.357a.084.084 0 0 0 .074.094h.357v-.546h-.357z" opacity=".4"/>
            <path fill="#FFF" d="M83.427 88.965a.084.084 0 0 0-.074.094v.357a.084.084 0 0 0 .074.094h.357v-.546h-.357z" opacity=".4"/>
            <path fill="#9AA9AE" d="M83.784 88.608h-.861v.167a.147.147 0 0 0 0 .074c.02.01.043.01.063 0h.777v-.263l.021.022z"/>
            <path fill="#FFF" d="M83.784 88.608h-.861v.167a.147.147 0 0 0 0 .074c.02.01.043.01.063 0h.777v-.263l.021.022z" opacity=".4"/>
            <path fill="#FFF" d="M83.784 88.608h-.861v.167a.147.147 0 0 0 0 .074c.02.01.043.01.063 0h.777v-.263l.021.022z" opacity=".4"/>
            <path fill="#9AA9AE" d="M61.65 90.96v-.41a.095.095 0 0 0-.084-.094h-.347V91h.347a.084.084 0 0 0 .084-.041z"/>
            <path fill="#FFF" d="M61.65 90.96v-.41a.095.095 0 0 0-.084-.094h-.347V91h.347a.084.084 0 0 0 .084-.041z" opacity=".4"/>
            <path fill="#9AA9AE" d="M62.038 90.382v-.42-.063h-.776v.546h.776a.052.052 0 0 0 0-.063z"/>
            <path fill="#FFF" d="M62.038 90.382v-.42-.063h-.776v.546h.776a.052.052 0 0 0 0-.063z" opacity=".4"/>
            <path fill="#9AA9AE" d="M61.65 89.416v-.357a.095.095 0 0 0-.084-.094h-.347v.535h.347a.094.094 0 0 0 .084-.084z"/>
            <path fill="#FFF" d="M61.65 89.416v-.357a.095.095 0 0 0-.084-.094h-.347v.535h.347a.094.094 0 0 0 .084-.084z" opacity=".4"/>
            <path fill="#FFF" d="M61.65 89.416v-.357a.095.095 0 0 0-.084-.094h-.347v.535h.347a.094.094 0 0 0 .084-.084z" opacity=".4"/>
            <path fill="#9AA9AE" d="M61.209 88.324v.546h.777a.084.084 0 0 0 0-.074v-.168h-.85l.073-.304z"/>
            <path fill="#FFF" d="M61.209 88.324v.546h.777a.084.084 0 0 0 0-.074v-.168h-.85l.073-.304z" opacity=".4"/>
            <path fill="#FFF" d="M61.209 88.324v.546h.777a.084.084 0 0 0 0-.074v-.168h-.85l.073-.304z" opacity=".4"/>
            <path fill="#9AA9AE" d="M83.427 93.7a.084.084 0 0 0-.074.084v.21h.431V93.7h-.357z"/>
            <path fill="#FFF" d="M83.427 93.7a.084.084 0 0 0-.074.084v.21h.431V93.7h-.357z" opacity=".4"/>
            <path fill="#9AA9AE" d="M83.007 93.028a.094.094 0 0 0-.063 0 .147.147 0 0 0 0 .063v.357a.147.147 0 0 0 0 .074H83.784v-.547l-.777.053z"/>
            <path fill="#FFF" d="M83.007 93.028a.094.094 0 0 0-.063 0 .147.147 0 0 0 0 .063v.357a.147.147 0 0 0 0 .074H83.784v-.547l-.777.053z" opacity=".4"/>
            <path fill="#9AA9AE" d="M83.427 92.125a.084.084 0 0 0-.074.094v.368c0 .043.032.079.074.084h.357v-.546h-.357z"/>
            <path fill="#FFF" d="M83.427 92.125a.084.084 0 0 0-.074.094v.368c0 .043.032.079.074.084h.357v-.546h-.357z" opacity=".4"/>
            <path fill="#FFF" d="M83.427 92.125a.084.084 0 0 0-.074.094v.368c0 .043.032.079.074.084h.357v-.546h-.357z" opacity=".4"/>
            <path fill="#9AA9AE" d="M83.007 91.495h-.063a.147.147 0 0 0 0 .073v.358a.147.147 0 0 0 0 .063c.02.007.043.007.063 0h.777v-.494h-.777z"/>
            <path fill="#FFF" d="M83.007 91.495h-.063a.147.147 0 0 0 0 .073v.358a.147.147 0 0 0 0 .063c.02.007.043.007.063 0h.777v-.494h-.777z" opacity=".4"/>
            <path fill="#FFF" d="M83.007 91.495h-.063a.147.147 0 0 0 0 .073v.358a.147.147 0 0 0 0 .063c.02.007.043.007.063 0h.777v-.494h-.777z" opacity=".4"/>
            <path fill="#9AA9AE" d="M61.556 93.7h-.347v.294h.441v-.21a.095.095 0 0 0-.094-.084z"/>
            <path fill="#FFF" d="M61.556 93.7h-.347v.294h.441v-.21a.095.095 0 0 0-.094-.084z" opacity=".4"/>
            <path fill="#9AA9AE" d="M62.038 93.553a.084.084 0 0 0 0-.073v-.358a.074.074 0 0 0 0-.063h-.776v.547h.776v-.053z"/>
            <path fill="#FFF" d="M62.038 93.553a.084.084 0 0 0 0-.073v-.358a.074.074 0 0 0 0-.063h-.776v.547h.776v-.053z" opacity=".4"/>
            <path fill="#9AA9AE" d="M61.65 92.587v-.368a.095.095 0 0 0-.084-.094h-.347v.525h.347a.094.094 0 0 0 .084-.063z"/>
            <path fill="#FFF" d="M61.65 92.587v-.368a.095.095 0 0 0-.084-.094h-.347v.525h.347a.094.094 0 0 0 .084-.063z" opacity=".4"/>
            <path fill="#FFF" d="M61.65 92.587v-.368a.095.095 0 0 0-.084-.094h-.347v.525h.347a.094.094 0 0 0 .084-.063z" opacity=".4"/>
            <path fill="#9AA9AE" d="M62.038 92.01a.074.074 0 0 0 0-.064V91.6a.084.084 0 0 0 0-.073h-.776v.546h.776a.052.052 0 0 0 0-.063z"/>
            <path fill="#FFF" d="M62.038 92.01a.074.074 0 0 0 0-.064V91.6a.084.084 0 0 0 0-.073h-.776v.546h.776a.052.052 0 0 0 0-.063z" opacity=".4"/>
            <path fill="#FFF" d="M62.038 92.01a.074.074 0 0 0 0-.064V91.6a.084.084 0 0 0 0-.073h-.776v.546h.776a.052.052 0 0 0 0-.063z" opacity=".4"/>
            <path fill="#9AA9AE" d="M83.427 96.85a.084.084 0 0 0-.074.095v.357a.084.084 0 0 0 .074.094h.357v-.546h-.357z"/>
            <path fill="#FFF" d="M83.427 96.85a.084.084 0 0 0-.074.095v.357a.084.084 0 0 0 .074.094h.357v-.546h-.357z" opacity=".4"/>
            <path fill="#9AA9AE" d="M83.007 96.189a.095.095 0 0 0-.063 0 .147.147 0 0 0 0 .063v.357a.147.147 0 0 0 0 .073c.02.01.043.01.063 0h.777v-.546l-.777.053z"/>
            <path fill="#FFF" d="M83.007 96.189a.095.095 0 0 0-.063 0 .147.147 0 0 0 0 .063v.357a.147.147 0 0 0 0 .073c.02.01.043.01.063 0h.777v-.546l-.777.053z" opacity=".4"/>
            <path fill="#9AA9AE" d="M83.427 95.285a.084.084 0 0 0-.074.095v.42c0 .043.032.079.074.084h.357v-.546l-.357-.052z"/>
            <path fill="#FFF" d="M83.427 95.285a.084.084 0 0 0-.074.095v.42c0 .043.032.079.074.084h.357v-.546l-.357-.052z" opacity=".4"/>
            <path fill="#FFF" d="M83.427 95.285a.084.084 0 0 0-.074.095v.42c0 .043.032.079.074.084h.357v-.546l-.357-.052z" opacity=".4"/>
            <path fill="#9AA9AE" d="M82.923 95.002v.105a.116.116 0 0 0 0 .063c.02.007.043.007.063 0h.777v-.2l-.84.032z"/>
            <path fill="#FFF" d="M82.923 95.002v.105a.116.116 0 0 0 0 .063c.02.007.043.007.063 0h.777v-.2l-.84.032z" opacity=".4"/>
            <path fill="#FFF" d="M82.923 95.002v.105a.116.116 0 0 0 0 .063c.02.007.043.007.063 0h.777v-.2l-.84.032z" opacity=".4"/>
            <path fill="#9AA9AE" d="M83.784 94.729v-.01h-.85v.01z"/>
            <path fill="#FFF" d="M83.784 94.729v-.01h-.85v.01z" opacity=".4"/>
            <path fill="#FFF" d="M83.784 94.729v-.01h-.85v.01z" opacity=".4"/>
            <path fill="#9AA9AE" d="M61.65 97.28v-.356a.095.095 0 0 0-.084-.095h-.347v.546h.347a.095.095 0 0 0 .084-.094z"/>
            <path fill="#FFF" d="M61.65 97.28v-.356a.095.095 0 0 0-.084-.095h-.347v.546h.347a.095.095 0 0 0 .084-.094z" opacity=".4"/>
            <path fill="#9AA9AE" d="M61.986 96.189h-.777v.546h.777a.084.084 0 0 0 0-.074v-.357a.074.074 0 0 0 0-.063.053.053 0 0 0 0-.052z"/>
            <path fill="#FFF" d="M61.986 96.189h-.777v.546h.777a.084.084 0 0 0 0-.074v-.357a.074.074 0 0 0 0-.063.053.053 0 0 0 0-.052z" opacity=".4"/>
            <path fill="#9AA9AE" d="M61.65 95.8v-.42a.095.095 0 0 0-.084-.094h-.347v.514h.347a.095.095 0 0 0 .084 0z"/>
            <path fill="#FFF" d="M61.65 95.8v-.42a.095.095 0 0 0-.084-.094h-.347v.514h.347a.095.095 0 0 0 .084 0z" opacity=".4"/>
            <path fill="#FFF" d="M61.65 95.8v-.42a.095.095 0 0 0-.084-.094h-.347v.514h.347a.095.095 0 0 0 .084 0z" opacity=".4"/>
            <path fill="#9AA9AE" d="M61.209 94.75v.483h.777V95.065h-.85l.073-.315z"/>
            <path fill="#FFF" d="M61.209 94.75v.483h.777V95.065h-.85l.073-.315z" opacity=".4"/>
            <path fill="#FFF" d="M61.209 94.75v.483h.777V95.065h-.85l.073-.315z" opacity=".4"/>
            <path fill="#9AA9AE" d="M83.007 99.36h-.063a.147.147 0 0 0 0 .073v.357a.147.147 0 0 0 0 .063c.02.007.043.007.063 0h.777v-.546l-.777.052z"/>
            <path fill="#FFF" d="M83.007 99.36h-.063a.147.147 0 0 0 0 .073v.357a.147.147 0 0 0 0 .063c.02.007.043.007.063 0h.777v-.546l-.777.052z" opacity=".4"/>
            <path fill="#9AA9AE" d="M83.427 98.457a.074.074 0 0 0-.074.084v.409a.084.084 0 0 0 .074.094h.357V98.5l-.357-.042z"/>
            <path fill="#FFF" d="M83.427 98.457a.074.074 0 0 0-.074.084v.409a.084.084 0 0 0 .074.094h.357V98.5l-.357-.042z" opacity=".4"/>
            <path fill="#FFF" d="M83.427 98.457a.074.074 0 0 0-.074.084v.409a.084.084 0 0 0 .074.094h.357V98.5l-.357-.042z" opacity=".4"/>
            <path fill="#9AA9AE" d="M83.007 97.816a.095.095 0 0 0-.063 0 .116.116 0 0 0 0 .063v.357a.147.147 0 0 0 0 .073H83.784v-.546l-.777.053z"/>
            <path fill="#FFF" d="M83.007 97.816a.095.095 0 0 0-.063 0 .116.116 0 0 0 0 .063v.357a.147.147 0 0 0 0 .073H83.784v-.546l-.777.053z" opacity=".4"/>
            <path fill="#FFF" d="M83.007 97.816a.095.095 0 0 0-.063 0 .116.116 0 0 0 0 .063v.357a.147.147 0 0 0 0 .073H83.784v-.546l-.777.053z" opacity=".4"/>
            <path fill="#9AA9AE" d="M61.986 99.36h-.777v.546h.777a.074.074 0 0 0 0-.064v-.356a.084.084 0 0 0 0-.074v-.053z"/>
            <path fill="#FFF" d="M61.986 99.36h-.777v.546h.777a.074.074 0 0 0 0-.064v-.356a.084.084 0 0 0 0-.074v-.053z" opacity=".4"/>
            <path fill="#9AA9AE" d="M61.65 98.95v-.368a.084.084 0 0 0-.084-.083h-.347v.546h.347a.095.095 0 0 0 .084-.095z"/>
            <path fill="#FFF" d="M61.65 98.95v-.368a.084.084 0 0 0-.084-.083h-.347v.546h.347a.095.095 0 0 0 .084-.095z" opacity=".4"/>
            <path fill="#FFF" d="M61.65 98.95v-.368a.084.084 0 0 0-.084-.083h-.347v.546h.347a.095.095 0 0 0 .084-.095z" opacity=".4"/>
            <path fill="#9AA9AE" d="M61.986 97.816h-.777v.546h.777a.084.084 0 0 0 0-.073V97.9v-.063a.052.052 0 0 0 0-.021z"/>
            <path fill="#FFF" d="M61.986 97.816h-.777v.546h.777a.084.084 0 0 0 0-.073V97.9v-.063a.052.052 0 0 0 0-.021z" opacity=".4"/>
            <path fill="#FFF" d="M61.986 97.816h-.777v.546h.777a.084.084 0 0 0 0-.073V97.9v-.063a.052.052 0 0 0 0-.021z" opacity=".4"/>
            <path fill="#C0C7D2" d="M61.209 88.324h22.575v-2.457H60.736v2.457z"/>
            <path fill="#748197" d="M83.784 88.335h4.494v-2.468h-4.494v2.468z"/>
            <path fill="#9AA9AE" d="M82.944 88.356a.094.094 0 0 1 .063 0h-21c.01.02.01.043 0 .063v.189h20.916v-.158a.147.147 0 0 1 .021-.094z"/>
            <path fill="#C0C7D2" d="M82.944 88.356a.094.094 0 0 1 .063 0h-21c.01.02.01.043 0 .063v.189h20.916v-.158a.147.147 0 0 1 .021-.094z" opacity=".5" style="mix-blend-mode:multiply"/>
            <path fill="#9AA9AE" d="M83.784 88.608v-.284h-.777a.094.094 0 0 0-.063 0 .147.147 0 0 0 0 .063v.189l.84.032z"/>
            <path fill="#FFF" d="M83.784 88.608v-.284h-.777a.094.094 0 0 0-.063 0 .147.147 0 0 0 0 .063v.189l.84.032z" opacity=".4"/>
            <path fill="#FFF" d="M83.784 88.608v-.284h-.777a.094.094 0 0 0-.063 0 .147.147 0 0 0 0 .063v.189l.84.032z" opacity=".4"/>
            <path fill="#C0C7D2" d="M83.784 88.608v-.284h-.777a.094.094 0 0 0-.063 0 .147.147 0 0 0 0 .063v.189l.84.032z" opacity=".5" style="mix-blend-mode:multiply"/>
            <path fill="#9AA9AE" d="M62.038 88.356h-.776v.283h.85v-.189a.074.074 0 0 0-.074-.094z"/>
            <path fill="#FFF" d="M62.038 88.356h-.776v.283h.85v-.189a.074.074 0 0 0-.074-.094z" opacity=".4"/>
            <path fill="#FFF" d="M62.038 88.356h-.776v.283h.85v-.189a.074.074 0 0 0-.074-.094z" opacity=".4"/>
            <path fill="#C0C7D2" d="M62.038 88.356h-.776v.283h.85v-.189a.074.074 0 0 0-.074-.094z" opacity=".5" style="mix-blend-mode:multiply"/>
            <path fill="#748197" d="M83.784 88.324h4.032v1h-4.032z"/>
            <path fill="#748197" d="M83.784 88.324h4.032v1h-4.032z" opacity=".5" style="mix-blend-mode:multiply"/>
            <path fill="#748197" d="M83.784 88.324h1v1h-1z"/>
            <path fill="#C0C7D2" d="M83.784 88.324h1v1h-1z" opacity=".5" style="mix-blend-mode:multiply"/>
            <path fill="#748197" d="M83.784 88.324h1v1h-1z" opacity=".5" style="mix-blend-mode:multiply"/>
            <path fill="#9AA9AE" d="M83.784 88.324h1v1h-1z"/>
            <path fill="#FFF" d="M83.784 88.324h1v1h-1z" opacity=".4"/>
            <path fill="#FFF" d="M83.784 88.324h1v1h-1z" opacity=".4"/>
            <path fill="#C0C7D2" d="M83.784 88.324h1v1h-1z" opacity=".5" style="mix-blend-mode:multiply"/>
            <path fill="#748197" d="M83.784 88.324h1v1h-1z" opacity=".5" style="mix-blend-mode:multiply"/>
            <path fill="#9AA9AE" d="M82.933 94.75H62.06v.273h20.864v-.273z"/>
            <path fill="#C0C7D2" d="M82.933 94.75H62.06v.273h20.864v-.273z" opacity=".5" style="mix-blend-mode:multiply"/>
            <path fill="#748197" d="M83.784 94.729h1v1h-1z"/>
            <path fill="#C0C7D2" d="M83.784 94.729h1v1h-1z" opacity=".5" style="mix-blend-mode:multiply"/>
            <path fill="#9AA9AE" d="M82.933 94.75v.252h.861v-.252z"/>
            <path fill="#FFF" d="M82.933 94.75v.252h.861v-.252z" opacity=".4"/>
            <path fill="#FFF" d="M82.933 94.75v.252h.861v-.252z" opacity=".4"/>
            <path fill="#C0C7D2" d="M82.933 94.75v.252h.861v-.252z" opacity=".5" style="mix-blend-mode:multiply"/>
            <path fill="#9AA9AE" d="M62.06 94.75h-.851v.273h.85z"/>
            <path fill="#FFF" d="M62.06 94.75h-.851v.273h.85z" opacity=".4"/>
            <path fill="#FFF" d="M62.06 94.75h-.851v.273h.85z" opacity=".4"/>
            <path fill="#C0C7D2" d="M62.06 94.75h-.851v.273h.85z" opacity=".5" style="mix-blend-mode:multiply"/>
            <path fill="#748197" d="M83.784 94.729h4.032v1h-4.032z"/>
            <path fill="#748197" d="M83.784 94.729h4.032v1h-4.032z" opacity=".5" style="mix-blend-mode:multiply"/>
            <path fill="#748197" d="M83.784 94.729h1v1h-1z"/>
            <path fill="#C0C7D2" d="M83.784 94.729h1v1h-1z" opacity=".5" style="mix-blend-mode:multiply"/>
            <path fill="#748197" d="M83.784 94.729h1v1h-1z" opacity=".5" style="mix-blend-mode:multiply"/>
            <path fill="#C0C7D2" d="M62.049 94.719h21.735v-.756H60.736v.756h.473z"/>
            <path fill="#9AA9AE" d="M71.425 90.193h.725a.063.063 0 0 0 .052 0v-.284H71.383a.053.053 0 0 0-.052 0v.284h.094z"/>
            <path fill="#FFF" d="M71.425 90.193h.725a.063.063 0 0 0 .052 0v-.284H71.383a.053.053 0 0 0-.052 0v.284h.094z" opacity=".4"/>
            <path fill="#9AA9AE" d="M71.688 90.308v.284h.766c.017.01.037.01.053 0v-.284H71.688z"/>
            <path fill="#FFF" d="M71.688 90.308v.284h.766c.017.01.037.01.053 0v-.284H71.688z" opacity=".4"/>
            <path fill="#9AA9AE" d="M76.424 95.013h-.767v.283H76.476v-.284a.063.063 0 0 0-.052 0z"/>
            <path fill="#FFF" d="M76.424 95.013h-.767v.283H76.476v-.284a.063.063 0 0 0-.052 0z" opacity=".4"/>
            <path fill="#2A2E4B" d="M64.243 96.189h6.006v3.748h-6.006z"/>
            <path fill="#748197" d="M71.531 96.189h2.635v3.748h-2.635z"/>
            <path fill="#F5F3EF" d="M17.193 85.605v-3.371h-4.421v3.37z"/>
            <path fill="#F5F3EF" fill-rule="nonzero" d="M27.872 93.406h.378v-.095H27.389a.095.095 0 0 1 0-.073v-.378a.094.094 0 0 1 0-.063.053.053 0 0 1 .052 0h.809v-.357h-.378a.084.084 0 0 1-.084-.084v-.367a.084.084 0 0 1 .084-.095h.378v-.084h-.809a.053.053 0 0 1-.052 0 .074.074 0 0 1 0-.063v-.357a.074.074 0 0 1 0-.063.053.053 0 0 1 .052 0h.809v-.441h-.378a.084.084 0 0 1-.084-.094v-.368a.074.074 0 0 1 .084-.084h.378v-.094H27.389a.095.095 0 0 1 0-.074v-.357a.094.094 0 0 1 0-.063.053.053 0 0 1 .052 0h.809v-.357h-.378a.084.084 0 0 1-.084-.094v-.358a.084.084 0 0 1 .084-.094h.378v-.084h-.809a.053.053 0 0 1-.052 0 .094.094 0 0 1 0-.063v-.357H8.204v.178a.147.147 0 0 1 0 .064.094.094 0 0 1-.063 0h-.787v-.547 5.471-.136H7.7a.084.084 0 0 1 .073.084h20.014a.084.084 0 0 1 .084-.053zM7.355 88.702H7.7a.084.084 0 0 1 .074.094v.357a.084.084 0 0 1-.074.095h-.346v-.546zm0 1.544H7.7a.073.073 0 0 1 .074.084v.367a.084.084 0 0 1-.074.094h-.346v-.545zm0 1.617H7.7a.084.084 0 0 1 .074.094v.368a.084.084 0 0 1-.074.084h-.347v-.547zm.85 1.354a.147.147 0 0 1 0 .073H7.355v-.546H8.1a.094.094 0 0 1 .063 0 .147.147 0 0 1 0 .064l.042.409zm0-1.533a.115.115 0 0 1 0 .063.094.094 0 0 1-.063 0h-.787v-.546H8.1a.094.094 0 0 1 .063 0 .115.115 0 0 1 0 .063l.042.42zm0-1.627a.147.147 0 0 1 0 .073H7.355v-.525H8.1a.094.094 0 0 1 .063 0 .147.147 0 0 1 0 .063l.042.388zm8.684 2.352h-7.35V88.68h7.35v3.728zm.315-2.5v-.283a.063.063 0 0 1 .052 0H18.075v.283a.053.053 0 0 1-.052 0h-.767s-.031.021-.053 0zm1.196.473c.01.02.01.043 0 .063h-.85a.147.147 0 0 1 0-.063v-.284h.766l.084.284zm1.817 2.026h-1.46v-3.727h7.35v3.728h-5.89z"/>
            <path fill="#D5D6D2" d="M9.906 88.681h1v3.728h-1zM15.818 88.681h1.071v3.728h-1.071zM10.925 88.681h4.798v3.728h-4.798z"/>
            <path fill="#748197" d="M9.518 88.681h1v3.728h-1z"/>
            <path fill="#9AA9AE" d="M10.83 88.681h1v3.728h-1zM15.723 88.681h1v3.728h-1z"/>
            <path fill="#D5D6D2" d="M25.204 88.681h1v3.728h-1zM19.136 88.681h1.081v3.728h-1.081zM20.312 88.681h4.798v3.728h-4.798z"/>
            <path fill="#748197" d="M18.758 88.681h1v3.728h-1z"/>
            <path fill="#9AA9AE" d="M20.217 88.681h1v3.728h-1zM25.11 88.681h1v3.728h-1z"/>
            <path fill="#748197" d="M28.25 88.345v5.198l-2.1 1.459V100h1.375a.651.651 0 0 1-.095-.315v-1.05c0-.336.273-.609.61-.609h-.473a.136.136 0 0 1-.137-.136c0-.078.06-.142.137-.147h1.05c.431-.364.962-.59 1.523-.651a.693.693 0 0 1-.148-.788c.221-.389.799-.399 1.292 0l.126.115a2.74 2.74 0 0 1 .84-.619v-7.455h-4z"/>
            <path fill="#F5F3EF" d="M27.788 90.33v.367a.084.084 0 0 0 .084.094h.378v-.545h-.378a.074.074 0 0 0-.084.084z"/>
            <path fill="#FFF" d="M27.788 90.33v.367a.084.084 0 0 0 .084.094h.378v-.545h-.378a.074.074 0 0 0-.084.084z" opacity=".4"/>
            <path fill="#F5F3EF" d="M27.389 89.636a.094.094 0 0 0 0 .064v.356a.095.095 0 0 0 0 .074H28.25v-.525h-.809a.052.052 0 0 0-.052.031z"/>
            <path fill="#FFF" d="M27.389 89.636a.094.094 0 0 0 0 .064v.356a.095.095 0 0 0 0 .074H28.25v-.525h-.809a.052.052 0 0 0-.052.031z" opacity=".4"/>
            <path fill="#F5F3EF" d="M27.788 88.796v.357a.084.084 0 0 0 .084.095h.378v-.546h-.378a.084.084 0 0 0-.084.094z"/>
            <path fill="#FFF" d="M27.788 88.796v.357a.084.084 0 0 0 .084.095h.378v-.546h-.378a.084.084 0 0 0-.084.094z" opacity=".4"/>
            <path fill="#FFF" d="M27.788 88.796v.357a.084.084 0 0 0 .084.095h.378v-.546h-.378a.084.084 0 0 0-.084.094z" opacity=".4"/>
            <path fill="#F5F3EF" d="M27.357 88.523a.094.094 0 0 0 0 .064c.016.009.036.009.053 0h.808v-.242h-.892l.031.178z"/>
            <path fill="#FFF" d="M27.357 88.523a.094.094 0 0 0 0 .064c.016.009.036.009.053 0h.808v-.242h-.892l.031.178z" opacity=".4"/>
            <path fill="#FFF" d="M27.357 88.523a.094.094 0 0 0 0 .064c.016.009.036.009.053 0h.808v-.242h-.892l.031.178z" opacity=".4"/>
            <path fill="#F5F3EF" d="M7.774 90.697v-.368a.074.074 0 0 0-.073-.083h-.347v.546h.347a.084.084 0 0 0 .074-.095z"/>
            <path fill="#FFF" d="M7.774 90.697v-.368a.074.074 0 0 0-.073-.083h-.347v.546h.347a.084.084 0 0 0 .074-.095z" opacity=".4"/>
            <path fill="#F5F3EF" d="M8.1 89.605h-.746v.546H8.163a.147.147 0 0 0 0-.073v-.358a.147.147 0 0 0 0-.063.095.095 0 0 0-.063-.052z"/>
            <path fill="#FFF" d="M8.1 89.605h-.746v.546H8.163a.147.147 0 0 0 0-.073v-.358a.147.147 0 0 0 0-.063.095.095 0 0 0-.063-.052z" opacity=".4"/>
            <path fill="#F5F3EF" d="M7.774 89.153v-.357a.084.084 0 0 0-.073-.094h-.346v.546H7.7a.084.084 0 0 0 .074-.095z"/>
            <path fill="#FFF" d="M7.774 89.153v-.357a.084.084 0 0 0-.073-.094h-.346v.546H7.7a.084.084 0 0 0 .074-.095z" opacity=".4"/>
            <path fill="#FFF" d="M7.774 89.153v-.357a.084.084 0 0 0-.073-.094h-.346v.546H7.7a.084.084 0 0 0 .074-.095z" opacity=".4"/>
            <path fill="#F5F3EF" d="M7.354 88.072v.546H8.1c.02.007.043.007.063 0a.147.147 0 0 0 0-.063v-.21h-.808v-.273z"/>
            <path fill="#FFF" d="M7.354 88.072v.546H8.1c.02.007.043.007.063 0a.147.147 0 0 0 0-.063v-.21h-.808v-.273z" opacity=".4"/>
            <path fill="#FFF" d="M7.354 88.072v.546H8.1c.02.007.043.007.063 0a.147.147 0 0 0 0-.063v-.21h-.808v-.273z" opacity=".4"/>
            <path fill="#F5F3EF" d="M27.872 93.406a.084.084 0 0 0-.084.084h.462v-.136l-.378.052z"/>
            <path fill="#FFF" d="M27.872 93.406a.084.084 0 0 0-.084.084h.462v-.136l-.378.052z" opacity=".4"/>
            <path fill="#F5F3EF" d="M27.389 92.797a.094.094 0 0 0 0 .063v.357a.095.095 0 0 0 0 .073H28.25v-.546h-.809a.053.053 0 0 0-.052.053z"/>
            <path fill="#FFF" d="M27.389 92.797a.094.094 0 0 0 0 .063v.357a.095.095 0 0 0 0 .073H28.25v-.546h-.809a.053.053 0 0 0-.052.053z" opacity=".4"/>
            <path fill="#F5F3EF" d="M27.788 91.957v.368c0 .046.037.084.084.084h.378v-.547h-.378a.084.084 0 0 0-.084.095z"/>
            <path fill="#FFF" d="M27.788 91.957v.368c0 .046.037.084.084.084h.378v-.547h-.378a.084.084 0 0 0-.084.095z" opacity=".4"/>
            <path fill="#FFF" d="M27.788 91.957v.368c0 .046.037.084.084.084h.378v-.547h-.378a.084.084 0 0 0-.084.095z" opacity=".4"/>
            <path fill="#F5F3EF" d="M27.389 91.264a.074.074 0 0 0 0 .063v.357a.074.074 0 0 0 0 .063c.016.01.036.01.052 0h.809v-.546h-.809a.052.052 0 0 0-.052.063z"/>
            <path fill="#FFF" d="M27.389 91.264a.074.074 0 0 0 0 .063v.357a.074.074 0 0 0 0 .063c.016.01.036.01.052 0h.809v-.546h-.809a.052.052 0 0 0-.052.063z" opacity=".4"/>
            <path fill="#FFF" d="M27.389 91.264a.074.074 0 0 0 0 .063v.357a.074.074 0 0 0 0 .063c.016.01.036.01.052 0h.809v-.546h-.809a.052.052 0 0 0-.052.063z" opacity=".4"/>
            <path fill="#F5F3EF" d="M7.701 93.406h-.346v.136h.42a.084.084 0 0 0-.074-.136z"/>
            <path fill="#FFF" d="M7.701 93.406h-.346v.136h.42a.084.084 0 0 0-.074-.136z" opacity=".4"/>
            <path fill="#F5F3EF" d="M8.1 92.766h-.746v.545H8.163a.147.147 0 0 0 0-.073v-.378a.147.147 0 0 0 0-.063.095.095 0 0 0-.063-.031z"/>
            <path fill="#FFF" d="M8.1 92.766h-.746v.545H8.163a.147.147 0 0 0 0-.073v-.378a.147.147 0 0 0 0-.063.095.095 0 0 0-.063-.031z" opacity=".4"/>
            <path fill="#F5F3EF" d="M7.774 92.325v-.368a.084.084 0 0 0-.073-.094h-.346v.546H7.7a.084.084 0 0 0 .074-.085z"/>
            <path fill="#FFF" d="M7.774 92.325v-.368a.084.084 0 0 0-.073-.094h-.346v.546H7.7a.084.084 0 0 0 .074-.085z" opacity=".4"/>
            <path fill="#FFF" d="M7.774 92.325v-.368a.084.084 0 0 0-.073-.094h-.346v.546H7.7a.084.084 0 0 0 .074-.085z" opacity=".4"/>
            <path fill="#F5F3EF" d="M8.1 91.233h-.746v.545H8.1c.02.008.043.008.063 0a.115.115 0 0 0 0-.063v-.356a.115.115 0 0 0 0-.063.094.094 0 0 0-.063-.064z"/>
            <path fill="#FFF" d="M8.1 91.233h-.746v.545H8.1c.02.008.043.008.063 0a.115.115 0 0 0 0-.063v-.356a.115.115 0 0 0 0-.063.094.094 0 0 0-.063-.064z" opacity=".4"/>
            <path fill="#FFF" d="M8.1 91.233h-.746v.545H8.1c.02.008.043.008.063 0a.115.115 0 0 0 0-.063v-.356a.115.115 0 0 0 0-.063.094.094 0 0 0-.063-.064z" opacity=".4"/>
            <path fill="#C0C7D2" d="M7.354 88.072H28.25v-2.468H20.29v-3.37h-3.097v3.37H6.882v2.468h.472z"/>
            <path fill="#748197" d="M28.25 85.605v2.467h4.473v-2.467h-.483v-2.3h-.809v2.3h-2.509z"/>
            <path fill="#C0C7D2" d="M8.1 88.072h-.746v.273H28.25v-.273z" style="mix-blend-mode:multiply"/>
            <path fill="#748197" d="M28.25 88.072v.273h4v-.273z" opacity=".3" style="mix-blend-mode:multiply"/>
            <path fill="#F5F3EF" d="M18.075 89.91v-.284H17.256a.063.063 0 0 0-.053 0v.283H18.023c.016.01.036.01.052 0z"/>
            <path fill="#FFF" d="M18.075 89.91v-.284H17.256a.063.063 0 0 0-.053 0v.283H18.023c.016.01.036.01.052 0z" opacity=".4"/>
            <path fill="#F5F3EF" d="M18.337 90.025h-.787v.283a.147.147 0 0 0 0 .063h.766a.074.074 0 0 0 0-.063v-.283h.021z"/>
            <path fill="#FFF" d="M18.337 90.025h-.787v.283a.147.147 0 0 0 0 .063h.766a.074.074 0 0 0 0-.063v-.283h.021z" opacity=".4"/>
            <path fill="#524B5F" d="M26.118 95.002l2.132-1.46H7.344l-1.155.82v.64zM13.077 99.937V95.936H6.62v4.001z"/>
            <path fill="#748197" d="M15.818 99.937V95.947h-2.121v3.99z"/>
            <path fill="#524B5F" d="M22.821 99.937V95.936h-6.447v4.001z"/>
            <path fill="#748197" d="M25.572 99.937V95.947h-2.131v3.99z"/>
            <path fill="#F5F3EF" d="M89.58 80.48a.399.399 0 0 0 .389.389h.105v-1.05a.64.64 0 0 0-.494.662z"/>
            <path fill="#DED432" d="M33.3 95.632a2.93 2.93 0 0 0-1.05.168 2.74 2.74 0 0 0-.892.556l-.158-.094c-.494-.368-1.05-.357-1.291 0a.693.693 0 0 0 .146.787 2.835 2.835 0 0 0-1.522.651h10.5a2.31 2.31 0 0 0-.651-.409 3.465 3.465 0 0 0-1.102-.263h-.316a.672.672 0 0 0 .2-.756c-.179-.42-.756-.493-1.281-.178a.577.577 0 0 0 0-.493.62.62 0 0 0-.21-.252 1.05 1.05 0 0 0-1.05.063l-.095.094c-.11.073-.208.162-.294.263a3.076 3.076 0 0 0-.934-.137z"/>
            <path fill="#524B5F" fill-rule="nonzero" d="M39.516 98.016H28.05a.609.609 0 0 0-.609.608v1.05c.004.112.037.22.095.316h11.15v-.305H39.8V100h.23a.651.651 0 0 0 .095-.315v-1.05a.63.63 0 0 0-.609-.609v-.01zm-10.836.745v-.367h1.113v.367H28.68zm4.966 1.05h-1.112v-.368h1.113v.368zm.547-.504H33.09v-.357h1.102v.357zm3.78-.378H36.86v-.368h1.113v.368z"/>
            <path fill="#9AA9AE" d="M39.075 97.732h-11.55a.147.147 0 0 0-.137.147c0 .075.062.136.137.136H40.02a.126.126 0 1 0 0-.252l-.945-.031z"/>
            <path fill="#706281" d="M28.68 98.394h1.113v1H28.68zM32.534 99.454h1.113v1h-1.113z"/>
            <path fill="#706281" d="M33.09 98.95h1.113v1H33.09zM36.86 98.572h1.113v1H36.86zM38.687 99.643H39.8v1h-1.113z"/>
            <path fill="#F5F3EF" fill-rule="nonzero" d="M90.073 100H61.21v-5.25h-.473v-.756h.473v-5.67h-.473v-2.457h3.613V83.2l2.656-1.47h-1.68v-3.885h3.15v3.087l.472-.263v-3.507l.578-.304v-3.822h3.15v2.195l.703-.368h.546v-1.827h3.15v1.827h1.376v7.98h.525V34.9H59.329V100H49.27v-1.743a4.116 4.116 0 0 0-.315.892V100h-.546v-2.604a2.258 2.258 0 0 1-.829-.22 2.562 2.562 0 0 1-.578-.368H44.43v-1.974a7.675 7.675 0 0 1-1.722.189V100h-1.586V53.8h1.628v38.115a7.486 7.486 0 0 1 1.806-2.1v-1.701h3.15v.336a7.025 7.025 0 0 1 1.05-.084h.567v-38.42H29.604v35.7h1.827v-2.341h3.15v3.885h-1.859v.882h-.472 2.3v3.885h-2.3v.914h2.3v2.604l.094-.095a1.05 1.05 0 0 1 1.05-.063V53.8h1.596v43.26c.38.026.752.115 1.102.263V53.8h1.628v43.995a.126.126 0 1 1 0 .252v.294c.066.096.102.21.105.326v1.05a.651.651 0 0 1-.095.314H26.118v-5.029H6.189v8.148h83.884V100zM76.98 72.112h-3.15v-3.885h3.15v3.885zm0-9.965h-3.15v-3.884h3.15v3.884zm0-4.808h-3.15v-3.886h3.15v3.886zM73.83 38.68h3.15v3.885h-3.15V38.68zm0 4.809h3.15v3.885h-3.15v-3.885zm-.084 4.799h3.15v3.895h-3.15v-3.895zm0 14.773h3.15v3.896h-3.15V63.06zM69.494 38.68h3.15v3.885h-3.15V38.68zm0 4.809h3.15v3.885h-3.15v-3.885zm0 4.799h3.15v3.895h-3.15v-3.895zm0 5.166h3.15v3.885h-3.15v-3.886zm0 4.809h3.15V62.2h-3.15v-3.938zm0 4.798h3.15v3.896h-3.15V63.06zm0 5.166h3.15v3.885h-3.15v-3.885zm-4.2-29.547h3.15v3.885h-3.15V38.68zm0 4.809h3.15v3.885h-3.15v-3.885zm0 4.799h3.15v3.895h-3.15v-3.895zm0 5.166h3.15v3.885h-3.15v-3.886zm0 4.809h3.15V62.2h-3.15v-3.938zm0 4.798h3.15v3.896h-3.15V63.06zm0 5.166h3.15v3.885h-3.15v-3.885zm0 4.809h3.15V76.9h-3.15v-3.864zm-4.2-34.356h3.15v3.885h-3.15V38.68zm0 4.809h3.15v3.885h-3.15v-3.885zm0 4.799h3.15v3.895h-3.15v-3.895zm0 5.166h3.15v3.885h-3.15v-3.886zm0 4.809h3.15V62.2h-3.15v-3.938zm0 4.798h3.15v3.896h-3.15V63.06zm0 5.166h3.15v3.885h-3.15v-3.885zm0 4.809h3.15V76.9h-3.15v-3.864zm0 4.809h3.15v3.885h-3.15v-3.885zM47.631 87.19h-3.15v-3.885h3.15v3.885zm0-9.965h-3.15v-3.884h3.15v3.885zm0-4.808h-3.15V68.5h3.15v3.916zM44.514 53.8h3.15v3.885h-3.15V53.8zm0 4.809h3.15v3.885h-3.15v-3.885zm-.084 4.798h3.15v3.896h-3.15v-3.895zm0 14.774h3.15v3.895h-3.15v-3.895zm-9.88 3.895H31.4V78.14h3.15v3.938zm0-4.808H31.4v-3.886h3.15v3.885zm0-4.81H31.4V68.5h3.15v3.959zm0-5.155H31.4v-3.938h3.15v3.938zm0-4.809H31.4v-3.885h3.15v3.885zm0-4.809H31.4V53.8h3.15v3.885zm-8.978 38.262V100h-2.1v-4.053h2.1zm-2.751 0V100h-6.458v-4.064l6.458.011zm-7.004 0V100h-2.1v-4.053h2.1zm-9.198 0h6.458V100H6.619v-4.053z"/>
        </g>
    </g>
</svg>
