<?xml version="1.0" encoding="UTF-8"?>
<svg width="20px" height="20px" viewBox="0 0 20 20" version="1.1" xmlns="http://www.w3.org/2000/svg" xmlns:xlink="http://www.w3.org/1999/xlink">
    <!-- Generator: sketchtool 52.6 (67491) - http://www.bohemiancoding.com/sketch -->
    <title>53FA7FB4-C29F-4580-95F4-C4660A267E7D</title>
    <desc>Created with sketchtool.</desc>
    <g id="Symbols" stroke="none" stroke-width="1" fill="none" fill-rule="evenodd">
        <g id="icon/-20-add">
            <g id="Group-2">
                <g id="close-circular-button-of-a-cross"></g>
                <g id="Group" transform="translate(4.500000, 4.500000)" fill="#777777">
                    <path d="M2.53727635,8.8 C2.45090482,8.8 2.36453328,8.76716362 2.29885492,8.70104105 C2.16704836,8.56924571 2.16704836,8.35513452 2.29885492,8.22333918 L8.22385237,2.2988465 C8.35565893,2.16705117 8.56933851,2.16705117 8.70114508,2.2988465 C8.83295164,2.43064184 8.83295164,2.64430322 8.70114508,2.77609855 L2.77569778,8.70104105 C2.71001943,8.76716362 2.62364789,8.8 2.53727635,8.8 Z" id="Path" transform="translate(5.500000, 5.500000) rotate(45.000000) translate(-5.500000, -5.500000) "></path>
                    <path d="M8.46272365,8.8 C8.37635211,8.8 8.28998057,8.76716138 8.22430222,8.7010343 L2.29885492,2.77613782 C2.16704836,2.6443335 2.16704836,2.43065756 2.29885492,2.29885324 C2.43066149,2.16704892 2.64434107,2.16704892 2.77614763,2.29885324 L8.70114508,8.22374972 C8.83295164,8.35555404 8.83295164,8.56967983 8.70114508,8.70148414 C8.63546672,8.76716138 8.54909518,8.8 8.46272365,8.8 Z" id="Path" transform="translate(5.500000, 5.500000) rotate(45.000000) translate(-5.500000, -5.500000) "></path>
                </g>
                <path d="M10,20 C4.48573624,20 0,15.5140609 0,10.0004521 C0,4.48639117 4.48573624,0 10,0 C15.5142638,0 20,4.48593905 20,10.0004521 C20,15.5149652 15.5133596,20 10,20 Z M10,0.678180667 C4.86007505,0.678180667 0.678150007,4.86029478 0.678150007,10.0004521 C0.678150007,15.1406095 4.86007505,19.3227236 10,19.3227236 C15.139925,19.3227236 19.32185,15.1406095 19.32185,10.0004521 C19.32185,4.86029478 15.139925,0.678180667 10,0.678180667 Z" id="Shape" fill="#777777" fill-rule="nonzero"></path>
            </g>
        </g>
    </g>
</svg>