<svg xmlns="http://www.w3.org/2000/svg" width="17" height="20" viewBox="0 0 17 20">
    <g fill="#4480C8" fill-rule="nonzero">
        <path d="M8.305 17.288a.339.339 0 0 0 .34-.339V5.763a.339.339 0 1 0-.679 0v11.186c0 .188.152.34.34.34zM4.915 17.288a.339.339 0 0 0 .34-.339V5.763a.339.339 0 1 0-.679 0v11.186c0 .188.152.34.34.34zM11.695 17.288a.339.339 0 0 0 .339-.339V5.763a.339.339 0 1 0-.678 0v11.186c0 .188.152.34.339.34z"/>
        <path d="M16.102 2.034H11.34c-.037-.424-.168-1.138-.615-1.597A1.434 1.434 0 0 0 9.661 0H6.27c-.424 0-.783.147-1.066.437-.446.459-.577 1.173-.614 1.597H.508a.339.339 0 1 0 0 .678H1.2l.65 15.6c.012.584.375 1.688 1.663 1.688h9.584c1.288 0 1.651-1.104 1.663-1.68l.65-15.608h.692a.339.339 0 1 0 0-.678zM5.692.909a.768.768 0 0 1 .58-.231H9.66c.237 0 .427.076.579.23.273.28.382.77.42 1.126H5.272c.038-.355.148-.846.42-1.125zm8.39 17.389c-.001.105-.048 1.024-.985 1.024H3.513c-.927 0-.982-.921-.986-1.031L1.88 2.71H14.73l-.648 15.587z"/>
    </g>
</svg>
