<?xml version="1.0" encoding="UTF-8"?>
<svg width="20px" height="20px" viewBox="0 0 20 20" version="1.1" xmlns="http://www.w3.org/2000/svg" xmlns:xlink="http://www.w3.org/1999/xlink">
    <!-- Generator: sketchtool 52.6 (67491) - http://www.bohemiancoding.com/sketch -->
    <title>3FB79CA0-7520-4001-9CA0-6E249B7C803F</title>
    <desc>Created with sketchtool.</desc>
    <g id="Symbols" stroke="none" stroke-width="1" fill="none" fill-rule="evenodd">
        <g id="icon/20-recurrent" fill="#777777">
            <g id="reload">
                <path d="M3.76146939,3.96371429 C6.7124898,1.29432653 11.1288163,1.2535102 14.1206531,3.6902449 L11.7492245,3.78004082 C11.443102,3.79228571 11.2063673,4.04534694 11.2186122,4.35146939 C11.2308571,4.64942857 11.4757551,4.88208163 11.7696327,4.88208163 C11.7777959,4.88208163 11.7818776,4.88208163 11.7900408,4.88208163 L15.4308571,4.74738776 C15.7288163,4.73514286 15.9614694,4.49432653 15.9614694,4.19636735 L15.9614694,4.15555102 C15.9614694,4.14738776 15.9614694,4.14330612 15.9614694,4.13514286 L15.9614694,4.13106122 L15.8267755,0.531061224 C15.8145306,0.224938776 15.5573878,-0.0117959184 15.2553469,0.000448979592 C14.9492245,0.0126938776 14.7124898,0.265755102 14.7247347,0.571877551 L14.810449,2.82902041 C13.3288163,1.61677551 11.5043265,0.914734694 9.55330612,0.81677551 C7.13697959,0.694326531 4.81453061,1.52289796 3.02269388,3.14738776 C0.557387755,5.38004082 -0.487510204,8.77595918 0.296163265,12.0086122 C0.357387755,12.2616735 0.581877551,12.4290204 0.830857143,12.4290204 C0.875755102,12.4290204 0.916571429,12.4249388 0.961469388,12.4126939 C1.25534694,12.3392245 1.43902041,12.0412653 1.36555102,11.7473878 C0.679836735,8.90657143 1.59412245,5.92289796 3.76146939,3.96371429 Z" id="Path"></path>
                <path d="M18.0594286,7.98004082 C17.9859592,7.68616327 17.688,7.5024898 17.3941224,7.57595918 C17.1002449,7.64942857 16.9165714,7.94738776 16.9900408,8.24126531 C17.6798367,11.0820816 16.7614694,14.0657551 14.5941224,16.0249388 C13.0716735,17.400449 11.1614694,18.078 9.25942857,18.078 C7.44310204,18.078 5.63085714,17.4616735 4.16963265,16.2453469 L6.56963265,16.0290204 C6.87167347,16.000449 7.09616327,15.7351429 7.06759184,15.4290204 C7.03902041,15.122898 6.77371429,14.9024898 6.46759184,14.9310612 L2.83902041,15.2575918 C2.53697959,15.2861633 2.3124898,15.5514694 2.34106122,15.8575918 L2.66759184,19.4861633 C2.69208163,19.7718776 2.93289796,19.9882041 3.21453061,19.9882041 C3.23085714,19.9882041 3.24718367,19.9882041 3.2635102,19.9841224 C3.56555102,19.955551 3.79004082,19.6902449 3.76146939,19.3841224 L3.56555102,17.1759592 C5.04718367,18.3759592 6.8635102,19.0739184 8.80228571,19.1718776 C8.95738776,19.1800408 9.1124898,19.1841224 9.2635102,19.1841224 C11.5124898,19.1841224 13.6512653,18.3596327 15.332898,16.8412653 C17.7982041,14.6086122 18.843102,11.2167755 18.0594286,7.98004082 Z" id="Path"></path>
            </g>
        </g>
    </g>
</svg>