<svg xmlns="http://www.w3.org/2000/svg" width="20" height="20" viewBox="0 0 20 20">
    <path fill="#F8A812" fill-rule="nonzero" d="M15.49 0a2.966 2.966 0 0 0-2.937 2.593H1.417a.37.37 0 0 0-.29.6l6.956 8.788v7.278H5.12V20h6.667v-.74H8.824v-7.28l5.138-6.489c.46.285.989.435 1.529.435a2.963 2.963 0 0 0 0-5.926zM2.183 3.333h12.545l-2.06 2.593H4.235L2.182 3.333zm6.272 7.922L4.82 6.667h7.265l-3.632 4.588zm7.037-6.07a2.178 2.178 0 0 1-1.07-.274l1.36-1.718a.37.37 0 0 0-.29-.6h-2.192a2.222 2.222 0 1 1 2.192 2.592z"/>
</svg>
