<svg xmlns="http://www.w3.org/2000/svg" width="20" height="20" viewBox="0 0 20 20">
    <g fill="none" fill-rule="nonzero">
        <path fill="#0D8FB6" d="M18.317 17.172H1.607C.72 17.172 0 16.452 0 15.566V4.614c0-.885.72-1.606 1.606-1.606h16.711c.886 0 1.606.72 1.606 1.606v10.952c0 .886-.72 1.606-1.606 1.606z"/>
        <path fill="#FFF" d="M1.672 3.717a.965.965 0 0 0-.964.963v10.952c0 .531.433.964.964.964h16.711a.965.965 0 0 0 .964-.964V4.68a.965.965 0 0 0-.964-.963H1.673z"/>
        <path fill="#0D8FB6" d="M16.062 14.204a.318.318 0 0 1-.22-.087l-3.697-3.468a.32.32 0 1 1 .44-.468l3.697 3.468a.32.32 0 0 1-.22.555zM3.864 14.203a.321.321 0 0 1-.22-.555l3.698-3.468a.322.322 0 0 1 .44.468l-3.698 3.468a.318.318 0 0 1-.22.087z"/>
        <path fill="#0D8FB6" d="M10.247 11.901c-.427 0-.854-.142-1.18-.425L.82 4.28a.322.322 0 0 1-.032-.454.323.323 0 0 1 .454-.03L9.49 10.99c.41.357 1.104.357 1.514 0l8.239-7.184a.322.322 0 0 1 .422.484l-8.238 7.184a1.795 1.795 0 0 1-1.18.426z"/>
    </g>
</svg>
