<svg xmlns="http://www.w3.org/2000/svg" width="20" height="20" viewBox="0 0 20 20">
    <g fill="#F8A812" fill-rule="nonzero">
        <path d="M19.234 18.183l-1.2 1.2c-.782.781-2.1.827-2.938.1l-2.108-1.827a.34.34 0 0 1-.068-.081l-2.052-3.418-1.318-.44a.339.339 0 0 1-.132-.56l3.59-3.591a.339.339 0 0 1 .561.132l.44 1.318 3.468 2.095c.03.018.058.041.081.068l1.784 2.068c.723.837.674 2.154-.108 2.936zm-.404-2.494l-1.75-2.026-3.528-2.131a.338.338 0 0 1-.146-.183l-.306-.917-.809.81-1.197 1.197-.81.81.917.305a.339.339 0 0 1 .183.147l2.089 3.479 2.067 1.792c.575.499 1.48.468 2.016-.069l1.2-1.199c.536-.537.57-1.44.074-2.015z"/>
        <path d="M18.274 6.397a3.725 3.725 0 0 1-3.782.91l-7.195 7.195a3.726 3.726 0 0 1-4.904 4.616.339.339 0 0 1-.116-.554l2.154-2.154-1.436-1.436L.84 17.127a.339.339 0 0 1-.555-.116 3.726 3.726 0 0 1 4.617-4.903l2.69-2.69-3.35-3.351-2.131-1.191a.339.339 0 0 1-.138-.145l-.957-1.915a.339.339 0 0 1 .063-.39l1.197-1.197a.338.338 0 0 1 .391-.064l1.915.958c.06.03.111.078.144.137L5.92 4.391l3.35 3.35 2.829-2.828A3.725 3.725 0 0 1 17.002.296a.339.339 0 0 1 .116.555l-2.154 2.153L16.4 4.441l2.154-2.154a.338.338 0 0 1 .554.116 3.726 3.726 0 0 1-.834 3.994zM5.407 4.837a.338.338 0 0 1-.056-.074L4.187 2.682 2.584 1.88l-.852.852.801 1.603L4.614 5.5a.338.338 0 0 1 .074.056l3.384 3.384.718-.719-3.383-3.383zM18.63 3.168l-1.99 1.99a.339.339 0 0 1-.48 0l-1.914-1.914a.339.339 0 0 1 0-.48l1.99-1.99a3.049 3.049 0 0 0-3.432 4.103c.05.125.02.268-.076.363L5.23 12.738a.339.339 0 0 1-.363.076 3.049 3.049 0 0 0-4.102 3.432l1.99-1.99a.339.339 0 0 1 .479 0l1.915 1.915a.339.339 0 0 1 0 .478l-1.99 1.99a3.048 3.048 0 0 0 3.432-4.102.339.339 0 0 1 .076-.363l7.497-7.498a.339.339 0 0 1 .363-.075 3.049 3.049 0 0 0 4.103-3.433z"/>
    </g>
</svg>
