<?xml version="1.0" encoding="UTF-8"?>
<svg width="20px" height="20px" viewBox="0 0 20 20" version="1.1" xmlns="http://www.w3.org/2000/svg" xmlns:xlink="http://www.w3.org/1999/xlink">
    <!-- Generator: Sketch 52.6 (67491) - http://www.bohemiancoding.com/sketch -->
    <title>icon/ 20-paiement</title>
    <desc>Created with Sketch.</desc>
    <g id="icon/-20-paiement" stroke="none" stroke-width="1" fill="none" fill-rule="evenodd">
        <g id="credit-card" transform="translate(0.000000, 3.000000)" fill="#4480C8">
            <path d="M17.8817544,0.0129824561 L2.07925926,0.0129824561 C0.933177388,0.0129824561 0,0.946159844 0,2.0922807 L0,11.2410916 C0,12.3871735 0.933177388,13.3203509 2.07925926,13.3203509 L17.8817154,13.3203509 C19.0277973,13.3203509 19.9609747,12.3871735 19.9609747,11.2410916 L19.9609747,2.0922807 C19.9610136,0.946159844 19.0278363,0.0129824561 17.8817544,0.0129824561 Z M19.1293177,11.2410526 C19.1293177,11.9288889 18.5695906,12.488616 17.8817544,12.488616 L2.07925926,12.488616 C1.391423,12.488616 0.831695906,11.9288889 0.831695906,11.2410526 L0.831695906,2.0922807 C0.831695906,1.40444444 1.391423,0.844717349 2.07925926,0.844717349 L17.8817154,0.844717349 C18.5695517,0.844717349 19.1292788,1.40444444 19.1292788,2.0922807 L19.1292788,11.2410526 L19.1293177,11.2410526 Z" id="Shape" fill-rule="nonzero"></path>
            <path d="M19.5451462,2.50810916 L0.415867446,2.50810916 C0.186315789,2.50810916 0,2.69442495 0,2.92397661 L0,5.41910331 C0,5.64865497 0.186315789,5.83497076 0.415867446,5.83497076 L19.5451852,5.83497076 C19.7747368,5.83497076 19.9610526,5.64865497 19.9610526,5.41910331 L19.9610526,2.92397661 C19.9610136,2.69442495 19.7746979,2.50810916 19.5451462,2.50810916 Z M19.1293177,5.00323587 L0.831695906,5.00323587 L0.831695906,3.33980507 L19.1293177,3.33980507 L19.1293177,5.00323587 Z" id="Shape" fill-rule="nonzero"></path>
            <path d="M7.90124756,8.33009747 L2.91099415,8.33009747 C2.6814425,8.33009747 2.49512671,8.51641326 2.49512671,8.74596491 C2.49512671,8.97551657 2.6814425,9.16179337 2.91099415,9.16179337 L7.90124756,9.16179337 C8.13079922,9.16179337 8.31711501,8.97547758 8.31711501,8.74592593 C8.31711501,8.51637427 8.13079922,8.33009747 7.90124756,8.33009747 Z" id="Path"></path>
            <path d="M7.90124756,9.99348928 L2.91099415,9.99348928 C2.6814425,9.99348928 2.49512671,10.1798051 2.49512671,10.4093567 C2.49512671,10.6389084 2.6814425,10.8252242 2.91099415,10.8252242 L7.90124756,10.8252242 C8.13079922,10.8252242 8.31711501,10.6389084 8.31711501,10.4093567 C8.31707602,10.1798051 8.13079922,9.99348928 7.90124756,9.99348928 Z" id="Path"></path>
            <path d="M16.2183236,7.49836257 L15.3866277,7.49836257 C14.6987914,7.49836257 14.1390643,8.05808967 14.1390643,8.74592593 L14.1390643,9.57762183 C14.1390643,10.2654581 14.6987914,10.8251852 15.3866277,10.8251852 L16.2183236,10.8251852 C16.9061598,10.8251852 17.4658869,10.2654581 17.4658869,9.57762183 L17.4658869,8.74592593 C17.4658869,8.05812865 16.9061598,7.49836257 16.2183236,7.49836257 Z M16.634191,9.57766082 C16.634191,9.80721248 16.4478752,9.99352827 16.2183236,9.99352827 L15.3866277,9.99352827 C15.157076,9.99352827 14.9707602,9.80721248 14.9707602,9.57766082 L14.9707602,8.74596491 C14.9707602,8.51641326 15.157076,8.33009747 15.3866277,8.33009747 L16.2183236,8.33009747 C16.4478752,8.33009747 16.634191,8.51641326 16.634191,8.74596491 L16.634191,9.57766082 Z" id="Shape" fill-rule="nonzero"></path>
        </g>
    </g>
</svg>