<?xml version="1.0" encoding="UTF-8"?>
<svg width="20px" height="20px" viewBox="0 0 20 20" version="1.1" xmlns="http://www.w3.org/2000/svg" xmlns:xlink="http://www.w3.org/1999/xlink">
    <!-- Generator: sketchtool 52.6 (67491) - http://www.bohemiancoding.com/sketch -->
    <title>F190EF48-0DA1-4065-8BC8-5D413934F337</title>
    <desc>Created with sketchtool.</desc>
    <g id="Symbols" stroke="none" stroke-width="1" fill="none" fill-rule="evenodd">
        <g id="icon/-20-intineraire-rose" fill="#E61C5D" fill-rule="nonzero">
            <g id="navigation">
                <path d="M19.7511538,0.351538462 C19.6376923,0.234230769 19.4626923,0.201538462 19.3146154,0.269615385 L0.224230769,9.03115385 C0.0707692308,9.10192308 -0.0188461538,9.26384615 0.00346153846,9.43153846 C0.0257692308,9.59923077 0.154615385,9.73230769 0.321153846,9.76 L8.88384615,11.195 L9.86269231,19.2865385 C9.88346154,19.455 10.0123077,19.5907692 10.1796154,19.6192308 C10.2015385,19.6230769 10.2230769,19.625 10.2446154,19.625 C10.3888462,19.625 10.5238462,19.5438462 10.5892308,19.4111538 L19.82,0.79 C19.8923077,0.644230769 19.8646154,0.468461538 19.7511538,0.351538462 Z M10.4715385,17.9161538 L9.61307692,10.8173077 C9.59230769,10.6480769 9.46269231,10.5123077 9.29461538,10.4842308 L1.68230769,9.20807692 L18.6480769,1.42192308 L10.4715385,17.9161538 Z" id="Shape"></path>
            </g>
        </g>
    </g>
</svg>