<?xml version="1.0" encoding="UTF-8"?>
<svg width="21px" height="21px" viewBox="0 0 21 21" version="1.1" xmlns="http://www.w3.org/2000/svg" xmlns:xlink="http://www.w3.org/1999/xlink">
    <!-- Generator: sketchtool 52.6 (67491) - http://www.bohemiancoding.com/sketch -->
    <title>267B5BF2-BF15-4FCC-A9F5-FAF882EB1EC6</title>
    <desc>Created with sketchtool.</desc>
    <g id="Symbols" stroke="none" stroke-width="1" fill="none" fill-rule="evenodd">
        <g id="icon/filtre2">
            <g id="right-arrow" transform="translate(5.500000, 10.500000) rotate(90.000000) translate(-5.500000, -10.500000) translate(-3.000000, 5.000000)" fill="#479AEF">
                <path d="M11.4476024,0.16543221 C11.2160051,-0.0551440701 10.8305494,-0.0551440701 10.5908542,0.16543221 C10.3592569,0.378556589 10.3592569,0.733267094 10.5908542,0.94589468 L14.9350587,4.94359136 L0.599777707,4.94359136 C0.26560813,4.94408816 0,5.18851052 0,5.49602565 C0,5.80354078 0.26560813,6.05591184 0.599777707,6.05591184 L14.9350587,6.05591184 L10.5908542,10.0461566 C10.3592569,10.2667329 10.3592569,10.6219402 10.5908542,10.8345678 C10.8305494,11.0551441 11.2165449,11.0551441 11.4476024,10.8345678 L16.8202286,5.89047963 C17.0599238,5.67735525 17.0599238,5.32264475 16.8202286,5.11001716 L11.4476024,0.16543221 Z" id="Path"></path>
            </g>
            <text id="A" font-family="Roboto-Medium, Roboto" font-size="10" font-weight="400" fill="#479AEF">
                <tspan x="14" y="9">A</tspan>
            </text>
            <text id="Z" font-family="Roboto-Regular, Roboto" font-size="10" font-weight="normal" fill="#777777">
                <tspan x="14" y="19">Z</tspan>
            </text>
        </g>
    </g>
</svg>