<?xml version="1.0" encoding="UTF-8"?>
<svg width="20px" height="20px" viewBox="0 0 20 20" version="1.1" xmlns="http://www.w3.org/2000/svg" xmlns:xlink="http://www.w3.org/1999/xlink">
    <!-- Generator: sketchtool 52.6 (67491) - http://www.bohemiancoding.com/sketch -->
    <title>837AEEAD-8B8B-4B8A-886B-5D8EAE500178</title>
    <desc>Created with sketchtool.</desc>
    <g id="Symbols" stroke="none" stroke-width="1" fill="none" fill-rule="evenodd">
        <g id="icon/20-skype" fill-rule="nonzero">
            <g id="icons8-skype-2" fill="#03A9F4">
                <path d="M5.80398133,0 C2.60758624,0 0,2.60817385 0,5.80528923 C0,6.67067385 0.264363504,7.46394308 0.606834022,8.20312462 C0.498686085,8.78605846 0.42057907,9.38100923 0.42057907,10 C0.42057907,15.2824523 4.71648485,19.5793277 9.99774705,19.5793277 C10.6165984,19.5793277 11.2174245,19.5072123 11.8062334,19.3930292 C12.5452499,19.7295677 13.3323325,20 14.1975222,20 C17.3879094,20 19.9954941,17.3918277 19.9954941,14.1947123 C20.001502,14.1947123 20.001502,14.1947123 19.9954941,14.1887015 C19.9954941,13.3293277 19.7311306,12.5360585 19.3946679,11.7968754 C19.5028174,11.2139431 19.5809244,10.6189908 19.5809244,10 C19.5809244,4.71754769 15.2790092,0.420673846 9.99774705,0.420673846 C9.38490515,0.420673846 8.784079,0.492789231 8.19526861,0.606970769 C7.45625207,0.264423077 6.66316156,0 5.80398133,0 Z M5.80398133,1.53846154 C6.54299633,1.53846154 7.2279389,1.72476 7.83477293,2.05528923 C7.99098849,2.13942308 8.17724344,2.16346154 8.35148418,2.12740462 C8.88621906,2.01923077 9.43897912,1.95913538 9.99774705,1.95913538 C14.4498684,1.95913538 18.0428095,5.54687538 18.0428095,10 C18.0428095,10.5649046 17.9767182,11.1117785 17.8685703,11.6466354 C17.83252,11.8209138 17.856553,12.0072123 17.9466773,12.1694708 C18.2711227,12.7704323 18.4573792,13.4615385 18.4573792,14.1947123 C18.4573792,16.5625 16.5587685,18.4615385 14.1975222,18.4615385 C13.4585056,18.4615385 12.7675552,18.27524 12.166729,17.9507215 C12.0045071,17.8605769 11.8182506,17.8365385 11.6440115,17.8725969 C11.109275,17.9807692 10.5625244,18.0408662 9.99774705,18.0408662 C5.5456257,18.0408662 1.958694,14.4531246 1.958694,10 C1.958694,9.43509692 2.01877585,8.88822154 2.12692532,8.35336615 C2.16297412,8.17908615 2.1329332,7.99278923 2.04881677,7.83653846 C1.72437142,7.22956769 1.53811493,6.54447077 1.53811493,5.80528923 C1.53811493,3.4375 3.43672555,1.53846154 5.80398133,1.53846154 Z M9.94968095,4.61538462 C7.92489723,4.61538462 5.77994828,5.47476 5.77994828,7.75841385 C5.77994828,8.85817385 6.17048489,10.0300477 8.33345901,10.5709138 L11.0191523,11.2379815 C11.8302664,11.4423077 12.0345481,11.8990385 12.0345481,12.3137015 C12.0345481,12.9987985 11.3556149,13.6718754 10.1179123,13.6718754 C7.70259194,13.6718754 8.03905458,11.8149046 6.74727799,11.8149046 C6.16447701,11.8149046 5.74389794,12.2175477 5.74389794,12.7884615 C5.74389794,13.90024 7.09575638,15.3846154 10.1179123,15.3846154 C12.989862,15.3846154 14.4198275,13.9963938 14.4198275,12.1394231 C14.4198275,10.9435092 13.8670674,9.66947077 11.6860681,9.18269231 L9.69733474,8.74399077 C8.94029303,8.56971231 8.06909551,8.34735538 8.06909551,7.63221231 C8.06909551,6.91706769 8.6819374,6.41826923 9.78144963,6.41826923 C12.0045071,6.41826923 11.8062334,7.94471231 12.9057456,7.94471231 C13.4885466,7.94471231 13.9932405,7.60216308 13.9932405,7.01322154 C13.9932405,5.64302923 11.8062334,4.61538462 9.94968095,4.61538462 Z" id="Shape"></path>
            </g>
            <circle id="Oval" stroke="#FFFFFF" stroke-width="0.5" fill="#F80303" cx="16" cy="16" r="4"></circle>
        </g>
    </g>
</svg>