<svg xmlns="http://www.w3.org/2000/svg" width="20" height="20" viewBox="0 0 20 20">
    <g fill="#777">
        <path d="M19.785 4.09C17.164 1.467 13.68.023 9.972.023 6.264.024 2.779 1.468.158 4.09c-.21.21-.21.552 0 .762.21.21.551.21.762 0 2.418-2.418 5.632-3.75 9.052-3.75 3.419 0 6.634 1.332 9.051 3.75.106.105.243.158.381.158s.276-.053.381-.158c.21-.21.21-.551 0-.762z" transform="translate(0 3)"/>
        <path d="M9.972 3.019c-2.908 0-5.641 1.132-7.697 3.188-.21.21-.21.551 0 .762.105.105.243.157.381.157s.276-.052.381-.157c1.852-1.853 4.315-2.873 6.935-2.873 2.619 0 5.082 1.02 6.934 2.873.21.21.551.21.762 0 .21-.21.21-.552 0-.762-2.056-2.056-4.79-3.188-7.696-3.188z" transform="translate(0 3)"/>
        <path d="M9.971 5.953c-2.123 0-4.12.827-5.621 2.329-.21.21-.21.551 0 .762.21.21.551.21.762 0C6.41 7.746 8.136 7.03 9.972 7.03c1.835 0 3.56.715 4.859 2.013.105.105.243.158.38.158.139 0 .277-.053.382-.158.21-.21.21-.552 0-.762C14.09 6.78 12.095 5.953 9.97 5.953z" transform="translate(0 3)"/>
        <path d="M9.971 8.918c-1.331 0-2.583.518-3.525 1.46-.21.21-.21.551 0 .762.21.21.552.21.762 0 .738-.738 1.72-1.145 2.763-1.145 1.044 0 2.026.407 2.764 1.145.105.105.243.158.38.158.138 0 .276-.053.381-.158.21-.21.21-.552 0-.762-.94-.942-2.193-1.46-3.525-1.46zM9.972 12.107c-.276 0-.552.105-.762.316-.421.42-.421 1.103 0 1.523.21.21.486.316.762.316.275 0 .551-.105.761-.316.421-.42.421-1.103 0-1.523-.21-.21-.486-.316-.761-.316z" transform="translate(0 3)"/>
    </g>
</svg>
