<?xml version="1.0" encoding="UTF-8"?>
<svg width="20px" height="20px" viewBox="0 0 20 20" version="1.1" xmlns="http://www.w3.org/2000/svg" xmlns:xlink="http://www.w3.org/1999/xlink">
    <!-- Generator: sketchtool 52.6 (67491) - http://www.bohemiancoding.com/sketch -->
    <title>6092F9BC-A4CE-4828-98D0-2B2E84E9C0D7</title>
    <desc>Created with sketchtool.</desc>
    <g id="Symbols" stroke="none" stroke-width="1" fill="none" fill-rule="evenodd">
        <g id="icon/20-ligne-orange-VIP" fill="#F8A812">
            <path d="M4.87304688,13.1425781 L7.04101562,6.46875 L8.66992188,6.46875 L5.59960938,15 L4.1640625,15 L1.10546875,6.46875 L2.72851562,6.46875 L4.87304688,13.1425781 Z M11.1953125,15 L9.71875,15 L9.71875,6.46875 L11.1953125,6.46875 L11.1953125,15 Z M14.5,11.8300781 L14.5,15 L13.0175781,15 L13.0175781,6.46875 L16.28125,6.46875 C17.2343798,6.46875 17.9912081,6.71679439 18.5517578,7.21289062 C19.1123075,7.70898686 19.3925781,8.36523029 19.3925781,9.18164062 C19.3925781,10.0175823 19.1181668,10.6679664 18.5693359,11.1328125 C18.0205051,11.5976586 17.2519581,11.8300781 16.2636719,11.8300781 L14.5,11.8300781 Z M14.5,10.640625 L16.28125,10.640625 C16.8085964,10.640625 17.2109361,10.5166028 17.4882812,10.2685547 C17.7656264,10.0205066 17.9042969,9.66211172 17.9042969,9.19335938 C17.9042969,8.73241957 17.7636733,8.36425919 17.4824219,8.08886719 C17.2011705,7.81347519 16.8144556,7.67187504 16.3222656,7.6640625 L14.5,7.6640625 L14.5,10.640625 Z" id="VIP"></path>
        </g>
    </g>
</svg>