<svg xmlns="http://www.w3.org/2000/svg" width="19" height="20" viewBox="0 0 19 20">
    <g fill="#F8A812" fill-rule="nonzero">
        <path d="M18.769 5.412L13.673.118A.385.385 0 0 0 13.396 0H5.802c-.85 0-1.541.691-1.541 1.54v5.383H1.183C.547 6.923.03 7.44.03 8.076v5.771C.03 14.483.547 15 1.183 15h3.078v3.462c0 .848.691 1.538 1.541 1.538h11.533c.85 0 1.541-.69 1.541-1.537V5.679c0-.1-.038-.195-.107-.267zm-5.277-4.374l4.182 4.347h-4.182V1.038zM1.183 14.231a.384.384 0 0 1-.384-.384V8.076c0-.212.173-.384.384-.384H11.57c.212 0 .384.172.384.384v5.771a.384.384 0 0 1-.384.384H1.183zm16.924 4.232a.77.77 0 0 1-.772.768H5.802a.771.771 0 0 1-.772-.769V15h6.54c.635 0 1.152-.517 1.152-1.153V8.076c0-.636-.517-1.153-1.153-1.153H5.03V1.541c0-.426.346-.772.772-.772h6.92v5c0 .213.173.385.385.385h5v12.309z"/>
        <path d="M10.572 11.204a.928.928 0 0 0-.365-.336c-.156-.082-.395-.161-.72-.238-.325-.076-.529-.15-.613-.22a.254.254 0 0 1-.1-.201.24.24 0 0 1 .107-.205c.11-.08.261-.12.455-.12.188 0 .329.038.423.112.093.074.155.196.183.366l.667-.03a.962.962 0 0 0-.33-.727c-.21-.182-.522-.273-.936-.273-.254 0-.47.038-.65.115a.896.896 0 0 0-.413.335.85.85 0 0 0-.143.472.86.86 0 0 0 .304.665c.145.129.395.238.753.327.278.069.456.117.534.144a.55.55 0 0 1 .24.143.3.3 0 0 1 .069.2.406.406 0 0 1-.164.318c-.108.091-.27.136-.485.136-.203 0-.364-.05-.484-.153-.119-.102-.198-.262-.237-.48l-.65.063c.044.37.178.651.402.844.224.193.544.29.962.29.287 0 .527-.04.719-.12a.972.972 0 0 0 .604-.9.982.982 0 0 0-.132-.527zM6.052 12.136v-2.72h-.667v3.276h2.326v-.556zM3.896 10.993L4.923 9.39H4.15l-.649 1.061-.662-1.061h-.78l1.023 1.58-1.129 1.723h.8l.735-1.142.732 1.142h.805z"/>
    </g>
</svg>
