<?xml version="1.0" encoding="UTF-8"?>
<svg width="8px" height="13px" viewBox="0 0 8 13" version="1.1" xmlns="http://www.w3.org/2000/svg" xmlns:xlink="http://www.w3.org/1999/xlink">
    <!-- Generator: sketchtool 52.6 (67491) - http://www.bohemiancoding.com/sketch -->
    <title>83C9F23A-37AB-440B-9FE8-1E9CB12D187C</title>
    <desc>Created with sketchtool.</desc>
    <g id="Symbols" stroke="none" stroke-width="1" fill="none" fill-rule="evenodd">
        <g id="icon/before-gris-dada" fill="#DADADA">
            <g id="close-circular-button-of-a-cross">
                <path d="M1.61322973,7 C1.45619057,7 1.28058043,7.06044638 1.16116524,6.94022352 C0.921516937,6.70059564 0.940087926,6.19115367 1.17973622,5.95152579 L6.15755867,1 C6.39720697,0.760372118 6.7857153,0.760372118 7.0253636,1 C7.2650119,1.23962788 7.2650119,1.62810312 7.0253636,1.867731 L2.04672324,6.82007463 C1.92730805,6.94029749 1.77026889,7 1.61322973,7 Z" id="Path"></path>
            </g>
            <g id="close-circular-button-of-a-cross-copy" transform="translate(4.000000, 9.000000) scale(1, -1) translate(-4.000000, -9.000000) translate(0.000000, 5.000000)">
                <path d="M1.61322973,7 C1.45619057,7 1.257965,7.12022286 1.1385498,7 C0.898901507,6.76037212 0.940087926,6.19115367 1.17973622,5.95152579 L6.16138873,1.01853345 C6.40103703,0.77890557 6.78954536,0.77890557 7.02919366,1.01853345 C7.26884195,1.25816133 7.26884195,1.64663657 7.02919366,1.88626445 L2.04672324,6.82007463 C1.92730805,6.94029749 1.77026889,7 1.61322973,7 Z" id="Path"></path>
            </g>
        </g>
    </g>
</svg>