<svg xmlns="http://www.w3.org/2000/svg" width="20" height="20" viewBox="0 0 20 20">
    <g fill="#4480C8">
        <path d="M13.122 0c-3.772 0-6.84 3.068-6.84 6.84 0 .838.149 1.653.443 2.427l-6.54 6.54c-.094.094-.146.22-.146.353v3.579c0 .275.223.498.498.498h2.95c.131 0 .258-.052.352-.146l.993-.992c.094-.093.147-.22.147-.353v-1.22h1.219c.275 0 .498-.223.498-.499v-.488h.489c.275 0 .498-.223.498-.499v-1.072h1.073c.132 0 .259-.053.352-.146l1.586-1.586c.774.295 1.589.444 2.427.444 3.772 0 6.84-3.069 6.84-6.84 0-3.772-3.068-6.84-6.84-6.84zm0 12.683c-.816 0-1.605-.165-2.346-.49-.191-.084-.407-.038-.548.1l-.005.004L8.55 13.97H7.185c-.276 0-.499.223-.499.498v1.073h-.488c-.276 0-.499.223-.499.498v.489H4.48c-.275 0-.498.223-.498.498v1.513l-.702.7H1.036v-.704l6.092-6.093c.175-.175.175-.459 0-.634s-.459-.175-.634 0l-5.458 5.458v-.9l6.628-6.63.004-.004c.138-.14.184-.356.1-.548-.325-.74-.49-1.53-.49-2.345C7.279 3.618 9.9.997 13.123.997c3.221 0 5.843 2.621 5.843 5.843s-2.622 5.843-5.843 5.843z"/>
        <path d="M15.203 2.891c-1.03 0-1.867.838-1.867 1.867 0 1.03.838 1.867 1.867 1.867 1.03 0 1.867-.837 1.867-1.867s-.837-1.867-1.867-1.867zm0 2.737c-.48 0-.87-.39-.87-.87s.39-.87.87-.87.87.39.87.87-.39.87-.87.87z"/>
    </g>
</svg>
