<svg xmlns="http://www.w3.org/2000/svg" width="19" height="20" viewBox="0 0 19 20">
    <g fill="#E82967" fill-rule="nonzero">
        <path d="M18.769 5.412L13.673.118A.385.385 0 0 0 13.396 0H5.802c-.85 0-1.541.691-1.541 1.54v5.383H1.183C.547 6.923.03 7.44.03 8.076v5.771C.03 14.483.547 15 1.183 15h3.078v3.462c0 .848.691 1.538 1.541 1.538h11.533c.85 0 1.541-.69 1.541-1.537V5.679c0-.1-.038-.195-.107-.267zm-5.277-4.374l4.182 4.347h-4.182V1.038zM1.183 14.231a.384.384 0 0 1-.384-.384V8.076c0-.212.173-.384.384-.384H11.57c.212 0 .384.172.384.384v5.771a.384.384 0 0 1-.384.384H1.183zm16.924 4.232a.77.77 0 0 1-.772.768H5.802a.771.771 0 0 1-.772-.769V15h6.54c.635 0 1.152-.517 1.152-1.153V8.076c0-.636-.517-1.153-1.153-1.153H5.03V1.541c0-.426.346-.772.772-.772h6.92v5c0 .213.173.385.385.385h5v12.309z"/>
        <path d="M4.564 10.291a1.443 1.443 0 0 0-.316-.535 1.104 1.104 0 0 0-.498-.304 2.377 2.377 0 0 0-.629-.063H1.902v3.303h1.255c.247 0 .444-.023.59-.07.198-.063.354-.15.47-.263.153-.149.27-.344.353-.584.068-.197.102-.431.102-.703 0-.31-.036-.57-.108-.78zm-.65 1.357a.699.699 0 0 1-.174.319.615.615 0 0 1-.27.137 1.816 1.816 0 0 1-.403.032H2.57V9.947h.3c.272 0 .454.01.547.032a.636.636 0 0 1 .31.155.756.756 0 0 1 .188.32c.046.137.068.333.068.589 0 .255-.022.457-.068.605zM10.941 11.478c-.055.241-.147.419-.275.531a.668.668 0 0 1-.457.17.732.732 0 0 1-.586-.266c-.15-.178-.225-.475-.225-.893 0-.393.076-.678.228-.854a.752.752 0 0 1 .596-.264.7.7 0 0 1 .452.15.7.7 0 0 1 .245.405l.66-.158c-.075-.265-.188-.467-.338-.609-.252-.238-.58-.358-.985-.358-.463 0-.836.152-1.12.457-.284.304-.426.73-.426 1.28 0 .52.141.93.424 1.23.282.3.643.45 1.082.45.354 0 .647-.088.877-.263.231-.175.396-.443.495-.803l-.647-.205zM7.869 9.785c-.293-.302-.682-.453-1.169-.453-.269 0-.506.044-.712.13a1.286 1.286 0 0 0-.427.298c-.13.134-.233.285-.308.453-.1.229-.15.511-.15.848 0 .525.144.938.434 1.238.29.3.68.45 1.172.45.485 0 .873-.151 1.163-.452.29-.301.435-.719.435-1.252 0-.538-.146-.958-.438-1.26zm-.508 2.106a.837.837 0 0 1-.654.287.844.844 0 0 1-.658-.29c-.173-.192-.26-.476-.26-.85 0-.38.085-.664.253-.853a.848.848 0 0 1 .665-.283c.275 0 .495.093.661.28.166.186.25.469.25.847 0 .383-.086.67-.257.862z"/>
    </g>
</svg>
