<svg xmlns="http://www.w3.org/2000/svg" width="20" height="20" viewBox="0 0 20 20">
    <g fill="#FFF">
        <g>
            <path d="M1.072 5.738c-.061-.06-.1-.145-.099-.238 0-.186.151-.338.338-.338H9.69c.186 0 .337.152.337.338 0 .186-.151.337-.337.337H1.31c-.093 0-.177-.037-.238-.099z" transform="translate(4.5 4.5)"/>
            <path d="M5.262 9.928c-.062-.06-.1-.145-.1-.238V1.31c0-.186.152-.337.338-.337.186 0 .337.151.337.337v8.38c0 .186-.15.337-.337.337-.093 0-.177-.038-.238-.099z" transform="translate(4.5 4.5)"/>
        </g>
        <path d="M10 20C4.486 20 0 15.514 0 10S4.486 0 10 0s10 4.486 10 10c0 5.515-4.487 10-10 10zM10 .678C4.86.678.678 4.86.678 10c0 5.14 4.182 9.323 9.322 9.323 5.14 0 9.322-4.182 9.322-9.323C19.322 4.86 15.14.678 10 .678z"/>
    </g>
</svg>
