<svg xmlns="http://www.w3.org/2000/svg" width="20" height="20" viewBox="0 0 20 20">
    <g fill="none" fill-rule="evenodd">
        <g fill="#4480C8" fill-rule="nonzero">
            <g>
                <path d="M19.484 6.294c-.685-.685-1.8-.685-2.486 0l-1.763 1.764V3.415c0-.47-.183-.91-.515-1.243L13.063.515C12.731.183 12.29 0 11.82 0H1.759C.789 0 0 .789 0 1.758v16.484C0 19.212.789 20 1.759 20h11.718c.97 0 1.758-.789 1.758-1.758v-5.21l4.249-4.252c.687-.687.687-1.799 0-2.486zm-7.765-5.122c.111 0 .325-.02.515.171l1.658 1.658c.186.186.171.39.171.515H11.72V1.172zm2.344 17.07c0 .323-.263.586-.586.586H1.76c-.324 0-.586-.263-.586-.586V1.758c0-.323.262-.586.586-.586h8.789v2.93c0 .323.262.585.586.585h2.93v4.544l-1.73 1.73-.828.829c-.064.064-.113.143-.141.229l-.829 2.486c-.07.21-.015.442.142.6.157.157.389.211.6.141l2.485-.829c.086-.028.165-.077.23-.141l.07-.071v4.037zm-1.314-6.038l.829.829-.317.316-1.243.415.415-1.243.316-.317zm1.657 0l-.828-.829 2.816-2.819.829.829-2.817 2.819zm4.25-4.253l-.605.605-.828-.829.604-.604c.228-.229.6-.229.828 0 .229.228.23.599 0 .828z"/>
                <path d="M11.134 5.86H2.93c-.323 0-.586.262-.586.585 0 .324.263.586.586.586h8.204c.323 0 .585-.262.585-.586 0-.323-.262-.586-.585-.586zM8.79 8.203H2.93c-.323 0-.586.262-.586.586 0 .324.263.586.586.586h5.86c.323 0 .586-.262.586-.586 0-.324-.263-.586-.586-.586zM8.79 10.547H2.93c-.323 0-.586.262-.586.586 0 .323.263.586.586.586h5.86c.323 0 .586-.263.586-.586 0-.324-.263-.586-.586-.586zM8.79 12.89H2.93c-.323 0-.586.263-.586.587 0 .323.263.585.586.585h5.86c.323 0 .586-.262.586-.585 0-.324-.263-.586-.586-.586zM11.134 16.484H7.618c-.324 0-.586.263-.586.586 0 .324.262.586.586.586h3.516c.323 0 .585-.262.585-.586 0-.323-.262-.586-.585-.586z"/>
            </g>
        </g>
    </g>
</svg>
