<svg xmlns="http://www.w3.org/2000/svg" width="20" height="20" viewBox="0 0 20 20">
    <g fill="none" fill-rule="evenodd">
        <path fill="#F8A812" fill-rule="nonzero" d="M0 0H20V20H0z"/>
        <g fill="#000">
            <path fill-rule="nonzero" d="M5.661.013c1.863-.123 3.462.659 4.422 1.581.997.96 1.769 2.307 1.9 4.086.142 1.959-.649 3.38-1.58 4.388-.978 1.054-2.277 1.817-4.064 1.92-1.816.113-3.387-.62-4.404-1.562C.882 9.456.148 8.185.016 6.358-.125 4.41.684 2.95 1.578 1.952c.46-.508.997-.95 1.693-1.309.64-.338 1.525-.574 2.39-.63zm-1.9 1.495c-.573.29-1.036.68-1.418 1.09-.753.799-1.426 2.07-1.335 3.623.1 1.57.681 2.606 1.571 3.423.872.8 2.044 1.399 3.642 1.354 1.453-.046 2.643-.718 3.424-1.571.818-.9 1.39-1.962 1.353-3.642-.036-1.49-.763-2.66-1.57-3.424C8.61 1.59 7.328.917 5.784 1.008c-.726.046-1.47.218-2.025.5z" transform="translate(4 4)"/>
            <path d="M6.53 3c1.463-.036 2.367 1.043 2.46 2.322.112 1.544-.727 2.787-2.19 2.896-.791.064-1.415-.155-1.853-.502V10h-.894V5.459c0-.42.111-1.215-.066-1.444-.195-.237-.689-.082-.987-.128V3.12c.764.009 1.546-.073 1.807.393.308.539.084 1.562.13 2.302.066.923.625 1.8 1.77 1.69 1.873-.2 1.948-3.773-.195-3.782v-.658c0-.028 0-.064.019-.064z" transform="translate(4 4)"/>
        </g>
    </g>
</svg>
