<svg xmlns="http://www.w3.org/2000/svg" width="20" height="20" viewBox="0 0 20 20">
    <g fill="none" fill-rule="evenodd">
        <path fill="#E2574C" d="M12.486 6.294c0 3.45-2.794 6.245-6.243 6.245C2.795 12.54 0 9.743 0 6.294 0 2.845 2.795.05 6.243.05c3.448 0 6.243 2.796 6.243 6.245z" transform="translate(0 4)"/>
        <path fill="#F4B459" d="M13.74.05c-1.4 0-2.688.466-3.73 1.245h.005c.205.198.431.337.605.565l-1.299.02c-.203.206-.389.43-.564.662h2.29c.175.21.336.391.482.622H8.342c-.117.201-.225.408-.32.623h3.87c.101.214.192.376.269.603H7.794c-.07.215-.129.435-.174.66h4.724c.046.216.082.416.106.62H7.526c-.02.205-.03.414-.03.624h4.99c0 .221-.016.426-.039.625h-4.92c.02.211.052.42.093.624h4.716c-.048.203-.105.406-.175.617H7.779c.067.214.147.421.235.623h3.878c-.107.228-.229.41-.363.622H8.33c.126.219.265.428.416.627l2.301.035c-.196.235-.448.377-.677.583.012.01-.367-.001-1.113-.013 1.135 1.172 2.722 1.902 4.483 1.902 3.449 0 6.245-2.796 6.245-6.245C19.986 2.845 17.19.05 13.74.05z" transform="translate(0 4)"/>
    </g>
</svg>
