<svg xmlns="http://www.w3.org/2000/svg" xmlns:xlink="http://www.w3.org/1999/xlink" width="20" height="20" viewBox="0 0 20 20">
    <defs>
        <path id="prefix__a" d="M5.144 1.704c3.25-1.793 7.294-1.219 9.9 1.389l2.452 2.31.001-3.07c0-.425.318-.775.73-.827l.104-.006c.46 0 .833.373.833.833v5l-.001.048-.004.04c-.002.027-.006.052-.012.078l-.005.026c-.014.057-.033.11-.057.162l-.017.036c-.036.065-.077.124-.126.176l-.018.02-.06.054-.024.02c-.019.014-.038.028-.058.04-.012.009-.025.017-.039.024l-.055.029-.033.015c-.023.01-.048.019-.073.027l-.023.006c-.023.007-.047.013-.071.018l-.038.006c-.039.005-.079.008-.12.008l.065-.002-.054.002h-5.01c-.46 0-.834-.373-.834-.833 0-.46.373-.833.834-.833l2.898-.001-2.346-2.21c-2.036-2.037-5.14-2.53-7.697-1.25l-.238.124c-2.6 1.434-3.939 4.415-3.283 7.31.656 2.897 3.149 5.01 6.113 5.184 2.964.173 5.686-1.635 6.675-4.435.154-.434.63-.661 1.064-.508.434.153.661.63.508 1.063-1.237 3.5-4.639 5.76-8.344 5.543-3.706-.216-6.821-2.858-7.641-6.478-.82-3.62.853-7.346 4.104-9.138z"/>
    </defs>
    <g fill="none" fill-rule="evenodd">
        <use fill="#4480C8" fill-rule="nonzero" xlink:href="#prefix__a"/>
    </g>
</svg>
