<svg xmlns="http://www.w3.org/2000/svg" width="19" height="20" viewBox="0 0 19 20">
    <g fill="none">
        <g fill="#777">
            <path d="M18.66 1.333h-2.374v-1c0-.184-.152-.333-.34-.333h-2.375c-.187 0-.339.149-.339.333v1H5.768v-1C5.768.15 5.616 0 5.428 0H3.055c-.188 0-.34.149-.34.333v1H.34c-.187 0-.339.15-.339.334v18c0 .184.152.333.34.333H14c.188 0 5-4.816 5-5V1.667c0-.185-.152-.334-.34-.334zM13.91.667h1.697v2h-1.696v-2zm-10.517 0h1.696v2H3.393v-2zM.679 2h2.035v1c0 .184.152.333.34.333h2.375c.187 0 .339-.149.339-.333V2h7.464v1c0 .184.152.333.34.333h2.374c.188 0 .34-.149.34-.333V2h2.035v3H.68V2zm0 17.333V5.667H18.32v10.14l-3.642 3.526h-14z"/>
            <path d="M12.237 8H3v10h13V8H12.237zm-2.395.69h2.395v2.413H9.842V8.69zm2.395 5.517H9.842v-2.414h2.395v2.414zm-5.474-2.414h2.395v2.414H6.763v-2.414zm0-3.103h2.395v2.413H6.763V8.69zm-3.079 0H6.08v2.413H3.684V8.69zm0 3.103H6.08v2.414H3.684v-2.414zM6.08 17.31H3.684v-2.413H6.08v2.413zm3.079 0H6.763v-2.413h2.395v2.413zm3.079 0H9.842v-2.413h2.395v2.413zm3.079 0H12.92v-2.413h2.395v2.413zm0-3.103H12.92v-2.414h2.395v2.414zm0-5.517v2.413H12.92V8.69h2.395z"/>
        </g>
        <g>
            <path fill="#4480C8" d="M5 10c-2.757 0-5-2.243-5-5s2.243-5 5-5 5 2.243 5 5-2.243 5-5 5z" transform="translate(9 10)"/>
            <g fill="#FFF" stroke="#FFF" stroke-width=".3">
                <path d="M.536 2.87c-.03-.031-.05-.073-.05-.12 0-.093.076-.169.17-.169h4.189c.093 0 .169.076.169.169 0 .093-.076.169-.17.169H.656c-.047 0-.089-.02-.12-.05z" transform="translate(9 10) translate(2.25 2.25)"/>
                <path d="M2.63 4.964c-.03-.03-.049-.072-.049-.12V.656c0-.093.076-.169.169-.169.093 0 .169.076.169.17v4.189c0 .093-.076.169-.17.169-.046 0-.088-.02-.118-.05z" transform="translate(9 10) translate(2.25 2.25)"/>
            </g>
        </g>
    </g>
</svg>
