<?xml version="1.0" encoding="UTF-8"?>
<svg width="27px" height="27px" viewBox="0 0 27 27" version="1.1" xmlns="http://www.w3.org/2000/svg" xmlns:xlink="http://www.w3.org/1999/xlink">
    <!-- Generator: sketchtool 52.6 (67491) - http://www.bohemiancoding.com/sketch -->
    <title>A25378FB-588F-4A27-AFC3-E0E8F800DEA3</title>
    <desc>Created with sketchtool.</desc>
    <g id="Symbols" stroke="none" stroke-width="1" fill="none" fill-rule="evenodd">
        <g id="poincon">
            <g id="Poinçon">
                <path d="M12.7375748,0.0285258772 C16.9290252,-0.246861646 20.5277453,1.51138177 22.6869774,3.58738002 C24.9308852,5.74811289 26.6667384,8.77737564 26.9631036,12.7810866 C27.2806377,17.1872869 25.5024466,20.3860189 23.4067214,22.6526701 C21.2051514,25.0252395 18.2838375,26.7411156 14.2617386,26.9741358 C10.1761328,27.2283397 6.64091958,25.5760145 4.35467388,23.457649 C1.98375242,21.2757325 0.332574967,18.4159389 0.0362097841,14.3063098 C-0.281324341,9.92129305 1.53920464,6.63782643 3.5502541,4.39235893 C4.58753224,3.24844153 5.79416192,2.25280972 7.3606636,1.4478308 C8.80015163,0.685219201 10.7900321,0.155627811 12.7375748,0.0285258772 Z M8.27092809,3.01542132 C6.93728477,3.6932983 5.85766874,4.60419549 4.96857319,5.55745999 C3.21155103,7.42162169 1.64504935,10.3873335 1.85673877,14.0097386 C2.08959713,17.674511 3.44440939,20.0894477 5.51896567,21.9959767 C7.55118407,23.8601384 10.2819775,25.2582597 14.0077113,25.1523414 C17.3947419,25.0464232 20.1678733,23.4788326 21.9884023,21.487569 C23.893607,19.3903871 25.2272504,16.9118994 25.1425746,12.9929231 C25.0578988,9.51880359 23.3643835,6.78611202 21.4803477,5.00668495 C19.5751429,3.20607422 16.5903222,1.6384837 12.9916021,1.85032026 C11.2980867,1.95623854 9.56223353,2.35872799 8.27092809,3.01542132 Z" id="Shape" fill="#000000" fill-rule="nonzero"></path>
                <path d="M13.0062696,2.0189817 C16.5572884,1.81013523 19.5025453,3.35559906 21.3824964,5.13079399 C23.2206709,6.88510428 24.9126269,9.57922365 24.9961803,13.0043056 C25.0797337,16.8679652 23.7846562,19.3114688 21.8838167,21.3790488 C20.087419,23.3213209 17.3719339,24.8876694 14.0089102,24.9920926 C10.3325612,25.1174005 7.63796457,23.7390138 5.63268332,21.8802803 C3.58562538,20.0006621 2.24877122,17.6198125 2.01899941,14.0067687 C1.81011595,10.4354942 3.35585358,7.51164367 5.06869797,5.69467944 C5.94600852,4.75487036 7.01131418,3.85683057 8.32727999,3.18852189 C9.62235746,2.52021321 11.3352019,2.12340493 13.0062696,2.0189817 Z M14.6564489,6.53006529 C14.6564489,7.03129681 14.6564489,7.53252832 14.6564489,8.03375983 C19.4607686,8.05464447 19.2936618,16.2205412 15.1159925,16.6591187 C12.5676143,16.9306191 11.2934252,14.9048085 11.1472067,12.7954592 C11.042765,11.1038028 11.523197,8.76472245 10.8547699,7.53252832 C10.2698962,6.46741136 8.51527511,6.65537317 6.80243071,6.63448853 C6.80243071,7.21925862 6.80243071,7.80402872 6.80243071,8.38879881 C7.44996945,8.49322205 8.57794015,8.13818306 9.01659542,8.68118386 C9.43436235,9.20330002 9.16281384,11.0202642 9.16281384,11.980958 C9.16281384,15.4686939 9.16281384,19.2488149 9.16281384,22.3606272 C9.83124093,22.3606272 10.499668,22.3606272 11.1680951,22.3606272 C11.1680951,20.6272015 11.1680951,18.8937759 11.1680951,17.1394656 C12.1707357,17.9330822 13.5702549,18.4343137 15.324876,18.2881212 C18.6043464,18.05839 20.4842975,15.2180781 20.212749,11.6885729 C20.0038656,8.7438378 17.977696,6.30033419 14.6982256,6.38387277 C14.6564489,6.38387277 14.6564489,6.46741136 14.6564489,6.53006529 Z" id="Shape" fill="#FFFFFF" fill-rule="nonzero"></path>
                <path d="M15.2382854,6.00206356 C18.6509788,5.91852342 20.7594582,8.3829575 20.9768272,11.3068623 C21.23767,14.8364332 19.281349,17.6767979 15.8686555,17.9274183 C14.021019,18.0736135 12.5646466,17.5723727 11.5430123,16.7787414 C11.5430123,18.5121992 11.5430123,20.2456571 11.5430123,22 C10.8474314,22 10.1518506,22 9.45626979,22 C9.45626979,18.8881299 9.45626979,15.1079386 9.45626979,11.6201378 C9.45626979,10.6594263 9.7171126,8.84242826 9.30411148,8.32030239 C8.84763657,7.77729149 7.69558083,8.13233708 7,8.02791191 C7,7.44313094 7,6.85834998 7,6.27356901 C8.78242587,6.29445404 10.6083255,6.10648873 11.2169588,7.17162549 C11.9342765,8.40384253 11.4125909,10.7429664 11.5212754,12.4346542 C11.6734337,14.5440427 12.9776477,16.549006 15.6512865,16.2983856 C20.0204036,15.8389148 20.1942988,7.67286632 15.1948116,7.65198129 C15.1948116,7.15074046 15.1948116,6.64949963 15.1948116,6.1482588 C15.1948116,6.0856037 15.1948116,6.00206356 15.2382854,6.00206356 Z" id="Path" fill="#000000"></path>
            </g>
        </g>
    </g>
</svg>