<svg xmlns="http://www.w3.org/2000/svg" width="20" height="27" viewBox="0 0 20 27">
    <g fill="#F88612" fill-rule="nonzero">
        <path d="M13.352 3.272A7.46 7.46 0 0 0 4.695 4.66c-2.662 2.661-2.928 6.905-.62 9.87a.413.413 0 1 0 .653-.508 6.653 6.653 0 0 1 .552-8.777 6.635 6.635 0 0 1 7.698-1.235.414.414 0 1 0 .374-.738zM16.656 6.576a.414.414 0 0 0-.739.373 6.635 6.635 0 0 1-1.236 7.698 6.653 6.653 0 0 1-8.777.551.414.414 0 0 0-.508.653 7.436 7.436 0 0 0 4.578 1.569 7.471 7.471 0 0 0 5.293-2.188 7.461 7.461 0 0 0 1.389-8.656zM15.587 5a7.587 7.587 0 0 0-.66-.66.414.414 0 1 0-.549.62 6.793 6.793 0 0 1 .589.588.413.413 0 0 0 .584.036.414.414 0 0 0 .036-.584z"/>
        <path d="M19.747 10.688a1.404 1.404 0 0 0 0-1.468l-.544-.892a.582.582 0 0 1-.078-.394l.162-1.03a1.404 1.404 0 0 0-.563-1.36l-.844-.613a.583.583 0 0 1-.223-.334l-.246-1.015a1.404 1.404 0 0 0-1.038-1.039l-1.016-.245a.582.582 0 0 1-.333-.224l-.614-.844A1.403 1.403 0 0 0 13.05.667L12.02.83a.582.582 0 0 1-.393-.078l-.893-.544a1.404 1.404 0 0 0-1.468 0l-.892.544A.582.582 0 0 1 7.98.83L6.95.667a1.404 1.404 0 0 0-1.36.563l-.613.844a.583.583 0 0 1-.334.223l-1.015.246A1.404 1.404 0 0 0 2.589 3.58l-.245 1.016a.582.582 0 0 1-.224.333l-.844.614c-.43.313-.645.833-.563 1.359l.162 1.031a.582.582 0 0 1-.078.393l-.544.893a1.404 1.404 0 0 0 0 1.468l.544.892c.072.118.1.258.078.394l-.162 1.03a1.403 1.403 0 0 0 .563 1.36l.844.613c.111.081.19.2.223.334l.246 1.015c.125.516.523.914 1.038 1.039l.424.102-2.87 6.4a.414.414 0 0 0 .427.581l2.31-.276 1.33 1.907a.414.414 0 0 0 .716-.067l2.93-6.538.372.227a1.407 1.407 0 0 0 1.468 0l.384-.235 2.935 6.546a.414.414 0 0 0 .717.067l1.33-1.907 2.308.276a.414.414 0 0 0 .427-.58l-2.87-6.404.407-.099a1.404 1.404 0 0 0 1.039-1.038l.245-1.016a.582.582 0 0 1 .224-.333l.843-.614c.43-.313.646-.833.564-1.359l-.163-1.031a.582.582 0 0 1 .078-.393l.545-.893zM5.508 25.007l-1.054-1.512a.414.414 0 0 0-.388-.174l-1.83.219 2.614-5.832c.048.035.09.077.126.126l.614.843c.058.08.124.153.195.218l-1.376 3.07a.414.414 0 0 0 .755.338l1.371-3.059c.135.019.274.019.414-.003l1.03-.163a.58.58 0 0 1 .186.002l-2.657 5.927zm12.273-1.467l-1.83-.22a.414.414 0 0 0-.388.175l-1.054 1.512-2.658-5.93a.583.583 0 0 1 .169.002l1.03.162c.146.023.29.022.43.001l1.373 3.061a.414.414 0 1 0 .755-.338l-1.382-3.082c.067-.061.129-.13.184-.205l.613-.844a.58.58 0 0 1 .14-.136l2.618 5.842zm1.26-13.283l-.545.893c-.174.285-.24.623-.189.952l.162 1.032a.58.58 0 0 1-.232.56l-.844.614c-.27.197-.462.484-.54.809l-.247 1.015a.58.58 0 0 1-.428.429l-1.016.245a1.41 1.41 0 0 0-.808.541l-.614.844a.58.58 0 0 1-.56.232l-1.032-.162a1.411 1.411 0 0 0-.953.189l-.892.544a.58.58 0 0 1-.606 0l-.893-.544a1.41 1.41 0 0 0-.953-.189l-1.03.162a.58.58 0 0 1-.562-.232l-.614-.844a1.411 1.411 0 0 0-.808-.54l-1.015-.247a.58.58 0 0 1-.429-.428l-.246-1.016a1.41 1.41 0 0 0-.54-.808l-.844-.614a.58.58 0 0 1-.232-.56l.162-1.032a1.411 1.411 0 0 0-.19-.952l-.543-.893a.58.58 0 0 1 0-.606l.544-.893c.174-.285.24-.623.189-.953l-.162-1.03a.58.58 0 0 1 .232-.562l.844-.614c.27-.196.462-.483.54-.808l.247-1.015a.58.58 0 0 1 .428-.429l1.016-.246a1.41 1.41 0 0 0 .808-.54l.614-.844a.58.58 0 0 1 .56-.232l1.031.162c.33.052.669-.015.953-.19l.893-.544a.58.58 0 0 1 .606 0l.893.545c.284.174.623.24.952.189l1.032-.162a.58.58 0 0 1 .56.232l.614.844c.197.27.484.462.809.54l1.015.246a.58.58 0 0 1 .429.43l.245 1.014c.079.325.271.612.541.809l.844.613a.58.58 0 0 1 .232.561l-.162 1.031c-.052.33.015.668.189.953l.544.893a.58.58 0 0 1 0 .606z"/>
        <path d="M11.102 6v7.28H9.09V8.51c-.326.247-.64.447-.945.6A7.38 7.38 0 0 1 7 9.55V7.919c.677-.218 1.203-.48 1.577-.786.374-.306.667-.684.88-1.133h1.645z"/>
    </g>
</svg>
