<svg xmlns="http://www.w3.org/2000/svg" width="20" height="20" viewBox="0 0 20 20">
    <g fill="none" fill-rule="evenodd">
        <g fill="#0D8FB6" fill-rule="nonzero">
            <path d="M19.785 8.09a13.788 13.788 0 0 0-9.813-4.066A13.788 13.788 0 0 0 .158 8.09a.539.539 0 0 0 .762.762 12.718 12.718 0 0 1 9.052-3.75c3.419 0 6.634 1.332 9.051 3.75a.537.537 0 0 0 .762 0 .539.539 0 0 0 0-.762z"/>
            <path d="M9.972 7.019c-2.908 0-5.641 1.132-7.697 3.188a.539.539 0 0 0 .762.762 9.743 9.743 0 0 1 6.935-2.873c2.619 0 5.082 1.02 6.934 2.873a.539.539 0 0 0 .762-.762 10.813 10.813 0 0 0-7.696-3.188z"/>
            <path d="M9.971 9.953c-2.123 0-4.12.827-5.621 2.329a.539.539 0 0 0 .762.762 6.827 6.827 0 0 1 4.86-2.013c1.835 0 3.56.715 4.859 2.013a.537.537 0 0 0 .762 0 .539.539 0 0 0 0-.762A7.897 7.897 0 0 0 9.97 9.953z"/>
            <path d="M9.971 12.918a4.953 4.953 0 0 0-3.525 1.46.539.539 0 1 0 .762.762 3.882 3.882 0 0 1 2.763-1.145c1.044 0 2.026.407 2.764 1.145a.537.537 0 0 0 .761 0 .539.539 0 0 0 0-.762 4.952 4.952 0 0 0-3.525-1.46z"/>
        </g>
        <path stroke="#FFF" stroke-linecap="round" stroke-linejoin="round" stroke-width="4" d="M4 15.85l13-12.9"/>
        <path stroke="#0D8FB6" stroke-linecap="round" stroke-linejoin="round" stroke-width="1.5" d="M4 15.85l13-12.9"/>
        <path fill="#0D8FB6" fill-rule="nonzero" d="M9.972 15.107a1.077 1.077 0 1 0 0 2.155 1.077 1.077 0 0 0 0-2.155z"/>
    </g>
</svg>
