<svg xmlns="http://www.w3.org/2000/svg" width="20" height="20" viewBox="0 0 20 20">
    <defs>
        <linearGradient id="prefix__a" x1="0%" x2="100%" y1="19.529%" y2="80.471%">
            <stop offset="0%" stop-color="#EC6F21"/>
            <stop offset="100%" stop-color="#F4D770"/>
        </linearGradient>
        <linearGradient id="prefix__b" x1="0%" x2="100%" y1="19.743%" y2="80.257%">
            <stop offset="0%" stop-color="#EC6F21"/>
            <stop offset="100%" stop-color="#F4D770"/>
        </linearGradient>
    </defs>
    <g fill="none">
        <path fill="url(#prefix__a)" d="M3.761 3.964c2.951-2.67 7.368-2.71 10.36-.274l-2.372.09c-.306.012-.543.265-.53.571.012.298.257.531.55.531h.021l3.64-.135c.299-.012.531-.253.531-.55v-.041-.025l-.134-3.6c-.012-.306-.27-.543-.572-.53-.306.012-.543.265-.53.57l.085 2.258C13.33 1.617 11.504.915 9.553.817c-2.416-.123-4.738.706-6.53 2.33C.557 5.38-.487 8.776.296 12.01c.061.253.286.42.535.42.045 0 .086-.004.13-.016.294-.074.478-.372.405-.666-.686-2.84.228-5.824 2.395-7.783z" transform="translate(1)"/>
        <path fill="url(#prefix__b)" d="M18.06 7.98c-.074-.294-.372-.478-.666-.404-.294.073-.477.371-.404.665.69 2.841-.229 5.825-2.396 7.784-1.522 1.375-3.433 2.053-5.335 2.053-1.816 0-3.628-.616-5.09-1.833l2.4-.216c.303-.029.527-.294.499-.6-.029-.306-.294-.527-.6-.498l-3.629.327c-.302.028-.527.293-.498.6l.327 3.628c.024.286.265.502.547.502.016 0 .032 0 .049-.004.302-.028.526-.294.497-.6l-.195-2.208c1.481 1.2 3.298 1.898 5.236 1.996.155.008.31.012.462.012 2.248 0 4.387-.824 6.069-2.343 2.465-2.232 3.51-5.624 2.726-8.861z" transform="translate(1)"/>
    </g>
</svg>
