<svg xmlns="http://www.w3.org/2000/svg" width="20" height="20" viewBox="0 0 20 20">
    <g fill="#4480C8" fill-rule="nonzero">
        <path d="M19.502 11c-.318 0-.502.319-.502.618v4.894c0 1.332-1.3 2.482-2.714 2.482H3.714c-1.418 0-2.706-1.154-2.706-2.482v-4.974C1.008 11.24.82 11 .502 11c-.319 0-.502.24-.502.538v4.974C0 18.438 1.668 20 3.714 20h12.572C18.336 20 20 18.434 20 16.512v-4.894c0-.295-.18-.618-.498-.618z"/>
        <path d="M15.335 10.448a.637.637 0 0 0 0-.857.525.525 0 0 0-.78 0l-3.999 4.344V-.4c0-.334-.245-.6-.552-.6-.308 0-.56.266-.56.6v14.335l-3.99-4.344a.534.534 0 0 0-.789 0 .637.637 0 0 0 0 .857L9.61 15.82c.213.24.567.24.78 0l4.945-5.372z"/>
    </g>
</svg>
