<svg xmlns="http://www.w3.org/2000/svg" width="20" height="20" viewBox="0 0 20 20">
    <path fill="#03A9F4" fill-rule="nonzero" d="M5.804 0C2.608 0 0 2.608 0 5.805c0 .866.264 1.659.607 2.398A9.795 9.795 0 0 0 .42 10c0 5.282 4.295 9.58 9.577 9.58.619 0 1.22-.073 1.808-.187.74.337 1.526.607 2.392.607 3.19 0 5.797-2.608 5.797-5.805.007 0 .007 0 0-.006 0-.86-.264-1.653-.6-2.392A9.794 9.794 0 0 0 19.58 10c0-5.282-4.302-9.58-9.583-9.58-.613 0-1.214.073-1.803.187C7.456.264 6.663 0 5.804 0zm0 1.538c.739 0 1.424.187 2.03.517a.77.77 0 0 0 .517.072 8.315 8.315 0 0 1 1.647-.168A8.03 8.03 0 0 1 18.043 10c0 .565-.066 1.112-.174 1.647a.76.76 0 0 0 .078.522c.324.601.51 1.293.51 2.026a4.25 4.25 0 0 1-4.26 4.267c-.738 0-1.43-.187-2.03-.511a.76.76 0 0 0-.523-.078 8.269 8.269 0 0 1-1.646.168A8.024 8.024 0 0 1 1.958 10c0-.565.06-1.112.169-1.647a.772.772 0 0 0-.078-.516 4.28 4.28 0 0 1-.51-2.032 4.252 4.252 0 0 1 4.265-4.267zM9.95 4.615c-2.025 0-4.17.86-4.17 3.143 0 1.1.39 2.272 2.553 2.813l2.686.667c.811.204 1.016.661 1.016 1.076 0 .685-.68 1.358-1.917 1.358-2.415 0-2.079-1.857-3.37-1.857-.584 0-1.004.403-1.004.973 0 1.112 1.352 2.597 4.374 2.597 2.872 0 4.302-1.389 4.302-3.246 0-1.195-.553-2.47-2.734-2.956l-1.989-.439C8.94 8.57 8.07 8.347 8.07 7.632c0-.715.613-1.214 1.712-1.214 2.224 0 2.025 1.527 3.125 1.527.583 0 1.087-.343 1.087-.932 0-1.37-2.187-2.398-4.043-2.398z"/>
</svg>
