<svg xmlns="http://www.w3.org/2000/svg" width="146" height="42" viewBox="0 0 146 42">
    <g fill="none" fill-rule="evenodd">
        <path fill="#202020" d="M23.194 39.9c-.057-.592-.09-1.656.037-2.355.165-1.072.383-2.132.851-3.12.245-.516.57-.978 1.084-1.276.585-.338 1.222-.382 1.877-.314.654.068 1.625.213 1.965.21.413-.002 1.008-.041 1.395-.507.311-.372.379-.78.298-1.243a5.782 5.782 0 0 1-.08-.968c0-.114.08-.254.168-.338.396-.381.432-.726.099-1.16l-.1-.13a.752.752 0 0 1 .098-.044c.519-.138.548-.644.385-.998-.25-.544-.178-.794.372-1.07.216-.109.403-.246.515-.462.196-.384.132-.766-.214-1.082-.637-.581-1.141-1.269-1.64-1.962a2.642 2.642 0 0 1-.1-.155c-.145-.246-.066-.52-.004-.79.206-.889.23-1.79.165-2.691-.07-.92-.508-1.981-.984-2.492-9.6-9.641-25.091 4.082-12.355 14.548.186.17.384.358.496.59.339.707.27 1.433.05 2.159-.365 1.206-1.04 2.23-1.884 3.157-.136.15-.23.3-.941 1.094l.08.045C5.522 34.833.598 24.558 3.767 14.984c3.305-9.98 14.158-15.422 24.24-12.15a19.095 19.095 0 0 1 11.821 10.931A19.945 19.945 0 0 0 27.347 2.02C16.81-1.4 5.468 4.286 2.014 14.72-1.439 25.15 4.302 36.38 14.84 39.8c10.224 3.319 21.206-1.937 25.004-11.783-2.823 6.956-9.424 11.445-16.65 11.883z"/>
        <path fill="#FFF" d="M22.347 19.2c.548-.952 1.217-1.243 2.473-1.036.33.057.296.067.62.133-.577.713-1.27.96-3.093.902zM23.526 19.642c-.31.5-.69.67-1.52.737-.5.042-.995.083-1.487.142.149-.653.732-1.02 1.674-.977.433.02.863.051 1.333.098z"/>
        <path fill="#CEE63F" d="M23.26 17.764c-.707.648-.873 1.55-2.419 1.667-.015-.935 1.126-1.801 2.418-1.667zM21.664 20.707c-.284 1.404-1.699 1.044-2.607 1.512.082-.982 1.003-1.58 2.607-1.512z"/>
        <path fill="#FFF" d="M20.611 19.305c-.252.56-.223.642-.473 1.138-.057.106-.92.58-1.193 1.015-.266-.891.25-1.698 1.666-2.153zM20.087 22.31c-.104 1.167-1.345 1.044-1.945 1.643-.229-.776.6-1.536 1.945-1.642z"/>
        <path fill="#FFF" d="M17.872 23.257c-.153-.811-.287-1.584.73-2.096.304.843-.018 1.493-.73 2.096zM17.384 25.307c.443-.597.77-1.316 1.62-1.53.21.672-.575 1.36-1.62 1.53z"/>
        <path fill="#CEE63F" d="M17.335 25.157c-.116-.704-.357-1.38.275-2.029.197.733.266 1.393-.275 2.03z"/>
        <path fill="#202021" d="M12.12 26.275c-.492-1.641-.5-3.029-.152-4.22.162-2.517 1.276-4.926 3.327-6.683 3.872-3.316 9.764-3.176 13.878.095l.002-.004c1.546-2.316 2.14-4.082 2.577-5.338-.67-.295-1.38-.591-2.014-.832-.417 1.418-1.099 2.898-2.121 4.423.86-1.594 1.382-3.133 1.647-4.599a31.73 31.73 0 0 0-.775-.27 17.177 17.177 0 0 1-1.162 2.94c.385-.984.672-2.002.857-3.04-18.007-5.831-21.696 10.803-17.631 19 .595 1.451 1.268 3.257-.832 5.847 1.823-.903 3.765-3.375 2.695-6.427a15.56 15.56 0 0 1-.296-.892z"/>
        <path fill="#202021" stroke="#202021" stroke-width=".5" d="M58.66 25.688l-.924-2.884h-5.152l-1.092 3.136c-.252.756-.448 1.512-.448 2.128 0 .924.42 1.316.784 1.512.504.308.7.308.924.364V30h-4.144v-.056c.308-.056.588-.112.924-.364.28-.196.504-.448.784-.896.28-.476.588-1.4 1.036-2.716l5.068-14.504h.56l3.836 11.956c.672 2.016 1.596 4.48 2.044 5.376.364.644.756.868 1.232 1.036.252.084.336.084.56.112V30h-7.084v-.056c.196-.028.588-.14.812-.252.532-.224.896-.504.896-1.4 0-.728-.392-1.876-.616-2.604zm-3.416-10.444l-2.604 7.448h5.04l-2.408-7.448h-.028zm23.772.952h-.056c-.28-.784-1.12-2.352-2.184-3.248-.812-.7-1.512-1.232-2.772-1.232h-1.736v12.712c0 1.708.056 3.36.364 4.256.168.532.588.868 1.092 1.036.196.084.504.168.728.224V30h-7.14v-.056a5.53 5.53 0 0 0 .728-.224c.504-.168.924-.504 1.092-1.036.308-.896.392-2.548.392-4.256V11.716h-1.736c-1.26 0-2.1.532-2.912 1.26-1.064.952-1.736 2.436-2.044 3.192h-.056l.812-4.564h14.616l.812 4.592zM79.184 30v-.056c.168-.028.42-.084.644-.168.56-.168 1.008-.504 1.204-1.12.308-.98.336-2.856.336-4.732v-6.272c0-1.848-.028-3.752-.336-4.704-.196-.616-.644-.952-1.204-1.12a3.443 3.443 0 0 0-.616-.168v-.056h6.944v.056c-.196.056-.308.084-.504.168-.56.196-.98.504-1.176 1.12-.308.952-.364 2.856-.364 4.704v2.912h7.672v-2.912c0-1.848-.056-3.752-.364-4.704-.196-.616-.644-.952-1.176-1.12l-.504-.168v-.056h6.944v.056c-.28.056-.392.084-.616.168-.56.168-1.008.504-1.204 1.12-.308.952-.336 2.856-.336 4.704v6.272c0 1.876.028 3.752.336 4.732.196.616.644.952 1.204 1.12.224.084.476.14.616.168V30H89.74v-.056l.504-.168c.532-.168.98-.504 1.176-1.12.308-.98.364-2.856.364-4.732v-3.248h-7.672v3.248c0 1.876.056 3.752.364 4.732.196.616.644.952 1.176 1.12l.532.168V30h-7zm32.424-4.816L111.16 30H97.692v-.056c.196-.028.392-.084.644-.168.532-.168.98-.504 1.176-1.12.336-.952.364-2.884.364-4.732v-6.216c0-1.876-.056-3.78-.364-4.732-.196-.644-.644-.98-1.204-1.148a3.443 3.443 0 0 0-.616-.168v-.056h12.656l.616 4.564h-.056c-.42-1.316-1.288-2.772-2.212-3.584-.448-.42-1.064-.868-2.1-.868h-1.344c-.616 0-1.372.028-1.764.336-.924.756-.868 2.632-.868 4.284v4.06h1.288c1.484 0 2.072-.112 2.576-.56.728-.616 1.148-1.82 1.26-2.576h.056v6.104h-.056c-.112-.784-.476-1.624-1.148-2.184-.504-.392-1.204-.672-2.688-.672h-1.288v4.704c0 2.156-.112 3.92.784 4.368.532.252 1.26.308 2.016.308h1.204c1.456 0 2.156-.504 2.772-1.092 1.064-1.064 1.764-2.436 2.156-3.612h.056zm17.5-13.524a5.76 5.76 0 0 0-.812.196c-.42.168-.84.448-1.036.98-.224.56-.42 1.316-.42 2.828v14.588h-.252L115.612 14.04h-.028v11.9c0 1.54.168 2.268.392 2.828.196.504.644.868 1.064.98.224.056.448.14.784.196V30h-4.648v-.056c.308-.056.588-.14.84-.196.392-.112.812-.476 1.008-.98.224-.56.448-1.288.448-2.828v-9.184c0-2.324-.196-2.968-.476-3.528-.252-.532-.952-1.12-1.512-1.344a5.12 5.12 0 0 0-.7-.224v-.056h4.788l9.128 13.888h.028v-9.828c0-1.512-.196-2.268-.42-2.828-.196-.532-.616-.84-1.036-.98-.224-.056-.476-.14-.784-.196v-.056h4.62v.056zm9.548 14.028l-.924-2.884h-5.152l-1.092 3.136c-.252.756-.448 1.512-.448 2.128 0 .924.42 1.316.784 1.512.504.308.7.308.924.364V30h-4.144v-.056c.308-.056.588-.112.924-.364.28-.196.504-.448.784-.896.28-.476.588-1.4 1.036-2.716l5.068-14.504h.56l3.836 11.956c.672 2.016 1.596 4.48 2.044 5.376.364.644.756.868 1.232 1.036.252.084.336.084.56.112V30h-7.084v-.056c.196-.028.588-.14.812-.252.532-.224.896-.504.896-1.4 0-.728-.392-1.876-.616-2.604zm-3.416-10.444l-2.604 7.448h5.04l-2.408-7.448h-.028z"/>
    </g>
</svg>
