<svg xmlns="http://www.w3.org/2000/svg" width="84" height="20" viewBox="0 0 84 20">
    <defs>
        <linearGradient id="a" x1="0%" y1="47.232%" y2="52.768%">
            <stop offset="0%" stop-color="#186CA9"/>
            <stop offset="100%" stop-color="#4AD6F1"/>
        </linearGradient>
    </defs>
    <g fill="none" fill-rule="nonzero">
        <path fill="url(#a)" d="M4 0h78.58a1 1 0 0 1 .706 1.708l-18.06 18a1 1 0 0 1-.706.292H4a4 4 0 0 1-4-4V4a4 4 0 0 1 4-4z"/>
        <path fill="#FFF" d="M12.77 13v-1.233h-2.646v-1.188h2.25V9.31h-2.25V8.032h2.565V6.799H8.711V13h4.059zm2.565 0V9.436L17.369 13h1.242V6.799h-1.413v3.519l-1.98-3.519h-1.296V13h1.413zm7.218 0V8.032h1.638V6.799h-4.689v1.233h1.638V13h1.413zm3.942 0v-2.178h.279L28.205 13h1.647l-1.602-2.259c.999-.252 1.458-1.017 1.458-1.89 0-1.026-.648-2.052-2.088-2.052h-2.538V13h1.413zm.9-3.294h-.9V8.032h.936c.576 0 .855.441.855.855s-.27.819-.891.819zM34.919 13v-1.233h-2.646v-1.188h2.25V9.31h-2.25V8.032h2.565V6.799H30.86V13h4.059zm2.565 0v-2.106h1.143c1.44 0 2.088-1.008 2.088-2.043 0-1.026-.648-2.052-2.088-2.052h-2.556V13h1.413zm1.08-3.339h-1.08V8.032h1.089c.522 0 .72.423.72.819 0 .396-.198.81-.729.81zM43.073 13v-2.178h.279L44.783 13h1.647l-1.602-2.259c.999-.252 1.458-1.017 1.458-1.89 0-1.026-.648-2.052-2.088-2.052H41.66V13h1.413zm.9-3.294h-.9V8.032h.936c.576 0 .855.441.855.855s-.27.819-.891.819zM48.851 13V6.799h-1.413V13h1.413zm3.348.081c1.134 0 2.286-.567 2.286-1.899 0-1.125-.9-1.584-1.782-1.854l-.648-.198c-.576-.162-.612-.441-.612-.567 0-.342.288-.612.729-.612.486 0 .711.315.711.684h1.413c0-1.206-.909-1.917-2.097-1.917-1.233 0-2.187.756-2.187 1.872 0 .585.261 1.422 1.629 1.791l.738.225c.549.18.684.405.684.648 0 .405-.351.612-.81.612-.486 0-.882-.306-.882-.702h-1.413c0 1.143.918 1.917 2.241 1.917zM59.624 13v-1.233h-2.646v-1.188h2.25V9.31h-2.25V8.032h2.565V6.799h-3.978V13h4.059z"/>
    </g>
</svg>
