<?xml version="1.0" encoding="UTF-8"?>
<svg width="100px" height="101px" viewBox="0 0 100 101" version="1.1" xmlns="http://www.w3.org/2000/svg" xmlns:xlink="http://www.w3.org/1999/xlink">
    <!-- Generator: sketchtool 52.6 (67491) - http://www.bohemiancoding.com/sketch -->
    <title>F6E1DE94-5107-4B83-91C2-20C30942ADDE</title>
    <desc>Created with sketchtool.</desc>
    <g id="Symbols" stroke="none" stroke-width="1" fill="none" fill-rule="evenodd">
        <g id="logo-athena" fill="#333333">
            <g id="Group-2" transform="translate(1.000000, 1.000000)">
                <path d="M40.8756261,96.3493187 C15.436932,90.2756919 -0.311449648,64.5096712 5.69929095,38.8008604 C11.7100316,13.0920496 37.2044064,-2.8235538 62.6421724,3.25570023 C76.747971,6.62358071 87.8729915,16.0453928 93.9626132,28.1541939 C87.6883169,15.1215938 75.8867748,4.94292301 60.8529632,1.35089231 C34.262605,-4.99752956 7.61842196,11.6364799 1.33670155,38.5054323 C-4.94501887,65.3743846 11.5142208,92.3005468 38.099939,98.6489687 C63.8987021,104.809817 89.750362,89.3284462 97,63.8541021 C89.75593,87.7537675 65.2897937,102.180038 40.8756261,96.3493187 Z" id="Path"></path>
                <path d="M30.17008,54.5863481 C28.6631701,49.4752312 29.0565998,45.6871784 30.7054785,42.7403963 C32.7004639,32.5125603 42.5130088,24.7263703 53.3211906,24.7263703 C58.0757514,24.7263703 63.0214596,26.2333748 67.5783776,29.7020996 C68.9052749,29.8682996 69.8981281,29.71984 70.391771,28.7683917 C73.7322119,21.0793073 75.3096422,17.5638972 76,16.0989095 C74.43123,15.3948938 72.9011226,14.7568601 71.4096776,14.1848084 C70.4335266,17.558295 68.8366103,21.0802411 66.4435556,24.7086299 C68.458027,20.9168422 69.6782158,17.2539062 70.2999089,13.767441 C69.6884227,13.5414837 69.0843596,13.329532 68.485864,13.1259837 C67.7935287,15.5373557 66.8831678,17.8798532 65.7661884,20.1241242 C66.6671836,17.7832207 67.3399801,15.3597529 67.7750924,12.8878882 C25.622441,-0.985143435 16.9874015,38.5881974 26.5020904,58.0877527 C27.8939408,61.5424718 29.4713712,65.837528 24.5535,72 C28.821841,69.8524719 33.3685521,63.9701123 30.8632215,56.7095998 C30.6034094,55.9931347 30.3723623,55.2853841 30.17008,54.5863481 Z" id="Path"></path>
                <path d="M47,44 C46.47376,44.380241 45.9169779,44.7052781 45.3368133,44.9709317 C44.4534685,46.1863354 43.3640098,48.0586335 43.0722383,50.2052174 C42.9851782,50.798901 42.9767608,51.4035958 43.0472548,52 C43.7762374,51.6680745 45.7865162,50.5192547 46.8893588,47.571677 C46.7177075,46.7064449 46.6949993,45.8127967 46.8224388,44.9381366 C46.8652008,44.6218457 46.9244886,44.3086017 47,44 Z" id="Path"></path>
                <path d="M63,30.8734431 C62.673913,30.9519084 62.3405797,31.0379671 62,31.1265569 C62.3347826,31.0379671 62.6681159,30.9519084 63,30.8734431 Z" id="Path"></path>
                <path d="M50.8739275,35.1265569 C50.9576657,35.0404982 51.0423343,34.9557051 51.1260725,34.8734431 C51.0432647,34.9557051 50.9585961,35.0404982 50.8739275,35.1265569 Z" id="Path"></path>
                <path d="M53.1505637,38.6404509 C53.6355325,37.843389 54.260317,37.1245105 55,36.5124851 C54.4945134,36.500028 53.990287,36.4600579 53.4899988,36.392787 C52.8027364,36.3013135 52.1225036,36.1701217 51.4533883,36 C49.8095167,37.1669606 48.315529,38.5004163 47,39.9748627 C48.4973936,40.0706212 50.8753788,39.9464898 53.1505637,38.6404509 Z" id="Path"></path>
                <path d="M52,39 C51.4363436,39.2749842 50.8475853,39.5018133 50.2408133,39.6777567 C48.0178319,41.5979087 47.2983943,43.539924 47.087211,44.8355513 C46.9641932,45.5529767 46.971368,46.2848311 47.1084304,47 C47.9703409,46.8403042 50.6955141,46.0674905 51.6483648,42.621673 C51.4725904,41.8479729 51.463314,41.0489904 51.6210827,40.2718631 C51.7037188,39.8374538 51.8306097,39.4115356 52,39 Z" id="Path"></path>
                <path d="M50.874359,36.1265569 L51.125641,35.8734431 L50.874359,36.1265569 Z" id="Path"></path>
                <path d="M56.1297942,32.8734431 L55.8702058,33.1265569 L56.1297942,32.8734431 Z" id="Path"></path>
                <path d="M57.1451462,31.8734431 L56.8548538,32.1265569 L57.1451462,31.8734431 Z" id="Path"></path>
                <path d="M67.9032564,29.9936722 L68.0967436,30.0063278 L67.9032564,29.9936722 Z" id="Path"></path>
                <polygon id="Path" points="68.0841795 31.0607473 67.9409487 30.9392527 67.9158205 30.9392527"></polygon>
                <path d="M63.0610847,33.84241 C63.211338,33.9184102 63.5799006,34.0577441 64.1482117,33.9741438 C64.9648828,33.8533878 66.2924151,33.2428523 68,31.0371557 C67.6924226,31.0177334 67.2743648,31 66.7626196,31 C65.6896506,31.0021816 64.6180593,31.0735589 63.555153,31.2136452 C63.1680297,31.9432478 62.8657554,32.8772066 63.0610847,33.84241 Z" id="Path"></path>
                <path d="M54.989245,36.4412772 C53.3829088,37.7670275 52.4049335,39.3057421 52.0978398,41.016171 C51.9755062,41.670956 51.9678295,42.342509 52.0751621,43 C52.7632377,42.8891731 53.4281881,42.6622009 54.0424515,42.3284912 C55.5306748,41.5063725 56.440617,40.1700699 56.7505454,38.3550774 C56.7146391,38.1219679 56.6258181,37.2614773 57,36 C56.3575146,36.2560175 55.6785238,36.4050278 54.989245,36.4412772 Z" id="Path"></path>
                <path d="M59,33.0206547 C58.6165596,33.0628228 58.2311661,33.0838075 57.845506,33.0835168 C57.3817629,33.0827307 56.9184444,33.0548461 56.4578253,33 C54.8829683,33.6989791 53.3880701,34.5723078 52,35.6042888 C53.4369579,35.9635011 55.9421747,36.3685129 57.6255185,35.3815772 C57.9772233,34.5349288 58.4395793,33.7407481 59,33.0206547 Z" id="Path"></path>
                <path d="M62,30 C60.2867592,30.3992232 58.609798,31.0700077 57,32 C57.1828649,31.8940772 57.3648832,31.7926016 57.5460549,31.6955731 C58.8862174,31.7392359 60.4989841,31.4384475 61.9373518,30.202547 C61.9593634,30.134627 61.9796817,30.0667071 62,30 Z" id="Path"></path>
                <path d="M59.4963858,32.7517337 C57.1056857,35.2750809 56.9650563,37.2963477 57.0050895,38 C57.8847932,37.8243181 60.4428115,37.0587147 61.9209601,33.9926029 C61.7814321,33.3314433 61.8084427,32.6505034 62,32 C61.2075376,32.3524974 60.365151,32.6054319 59.4963858,32.7517337 Z" id="Path"></path>
                <path d="M49,40.3846154 C47.9718869,40.5823975 46.9200958,40.6234846 45.8798565,40.5065005 C46.0134489,40.3349585 46.1488344,40.166125 46.2824268,40 C45.0272328,41.5535978 43.9277371,43.2284192 43,45 C43.9907352,44.9097147 45.4441124,44.5178765 47.147639,43.2701336 C47.5817436,42.2007825 48.2099173,41.2222438 49,40.3846154 Z" id="Path"></path>
                <path d="M39.874359,52.1635426 C39.9573512,52.0538894 40.0426488,51.9451734 40.125641,51.8364574 C40.0426488,51.9451734 39.9573512,52.0538894 39.874359,52.1635426 Z" id="Path"></path>
                <path d="M42.9849854,51.882954 C42.9476581,51.7241059 42.8113324,51.0469113 42.9119538,50 C42.2895616,50.8360427 41.7442585,51.415699 41.2776673,51.8114259 C40.6374229,53.4324199 41.2630609,55.2661403 41.5722283,56 C42.0550488,55.3776126 43.1399749,53.7556897 42.9849854,51.882954 Z" id="Path"></path>
                <path d="M45,45 C44.4683398,45.1507021 43.9206741,45.2377003 43.3685069,45.2591672 C42.4347615,47.1099674 41.6429783,49.029107 41,51 C41.6037736,50.5170914 42.3398556,49.77688 43.2091777,48.6423244 C43.4784533,47.6093847 44.0104822,46.3704164 45,45 Z" id="Path"></path>
                <path d="M40.125641,52.8331771 C40.0418803,52.9437676 39.9581197,53.054358 39.874359,53.1668229 C39.9581197,53.0524836 40.0418803,52.9437676 40.125641,52.8331771 Z" id="Path"></path>
                <path d="M41.125641,51.8359888 L40.874359,52.1640112 L41.125641,51.8359888 Z" id="Path"></path>
                <path d="M76.2475221,52.1893918 C74.7668654,50.7993542 73.5965205,49.1549612 72.4353836,47.4964896 C72.3654023,47.3960615 72.1075766,46.9661917 72.2070236,47.1266889 C71.8672461,46.538199 72.0514074,45.8811927 72.1950532,45.2354494 C72.6747933,43.1114419 72.7309625,40.9564612 72.5799502,38.8005419 C72.4252548,36.5958165 71.4068429,34.0550793 70.3018752,32.8349247 C69.6640633,32.1747898 69.0155087,31.5631483 68.3562113,31 C66.8009693,33.1690594 65.2963717,34.3732581 63.8866171,34.5797458 C63.4486815,34.6524066 62.9996071,34.6024475 62.5873593,34.4352044 C61.0809201,37.7690421 58.503583,38.5086434 57.7503634,38.6588163 C57.3028515,41.0052674 55.9280875,42.2038346 54.836932,42.8035875 C54.1646151,43.1712141 53.434512,43.4164208 52.6794826,43.5281716 C52.0874041,45.7169411 50.8433947,46.8629478 49.8894393,47.4429905 C49.3147468,47.7958507 48.6825537,48.0406385 48.0229647,48.1656975 C46.7264693,51.2808459 44.3811755,52.3733535 43.6546592,52.6455419 C43.7633144,54.8737318 42.2458255,56.6720519 41.7568773,57.1920255 C42.5782366,59.0691863 41.2964741,61.6972115 40.9097354,62.4180413 C42.0202279,63.7498869 40.9180226,66.1582843 40.6086317,66.7702387 C40.9309139,67.0593215 41.2611765,67.3474657 41.5994194,67.6346713 C42.0331192,68.0410766 42.4926016,68.4906567 42.7513482,69.042542 C43.5395584,70.7319867 43.3774965,72.4683605 42.8682906,74.2047343 C42.0202279,77.088992 40.450253,79.5358712 38.4926186,81.7556139 C38.176782,82.1150902 36.6510059,83.8589726 35,85.7567823 C36.3545062,86.5292339 44.9760164,91.1320324 55.9566325,89.739179 L55.9962272,89.739179 C55.8249572,88.6757674 55.75958,87.5888913 55.6757866,86.5114009 C55.5689731,85.1260562 55.6610537,84.0936177 56.0137225,82.09538 C56.396778,79.5321168 56.9032215,76.9979497 57.9916147,74.6336656 C58.5597522,73.4003709 59.3157342,72.2947232 60.5100201,71.5842178 C61.8691303,70.7742229 63.3488662,70.6700404 64.8691176,70.8333534 C66.3893689,70.9966664 68.6444237,71.3430026 69.4344756,71.3373711 C70.3939559,71.3298625 71.7751654,71.2360044 72.6757141,70.1237866 C73.3976263,69.2330738 73.5550842,68.2578887 73.3663189,67.1494252 C73.2419403,66.3841532 73.1803401,65.6096475 73.1821576,64.8339473 C73.1821576,64.561759 73.3663189,64.2285629 73.5716587,64.0277067 C74.4924651,63.1154066 74.5744169,62.2903944 73.8009395,61.2523244 L73.5698171,60.9407157 C73.643086,60.900484 73.7190945,60.865667 73.7972563,60.8365333 C75.001671,60.506153 75.0707315,59.2953842 74.6922801,58.4497232 C74.1103304,57.1497893 74.2779172,56.550975 75.5550757,55.8902144 C76.0559943,55.6311662 76.4915358,55.3026631 76.7475199,54.7855052 C77.1996359,53.8581878 77.051386,52.944949 76.2475221,52.1893918 Z" id="Path"></path>
                <path d="M43.125641,44.7867854 C43.0408201,44.9273664 42.9570594,45.0695095 42.874359,45.2132146 C42.9570594,45.0701343 43.0408201,44.9279913 43.125641,44.7867854 Z" id="Path"></path>
                <path d="M38.0552821,63.8205248 C38.0175897,63.9395501 37.9798974,64.0595127 37.9447179,64.1794752 C37.9824103,64.0595127 38.0175897,63.9395501 38.0552821,63.8205248 Z" id="Path"></path>
                <path d="M39.839967,54 C39.9435542,53.6603979 40.0502429,53.3270646 40.160033,53 C40.0502429,53.3281548 39.9435542,53.6614881 39.839967,54 Z" id="Path"></path>
                <path d="M39.589437,62.5805754 C39.3830384,62.4013841 39.1885779,62.2073999 39.0074359,62 C38.7895241,62.9073155 38.4503066,63.7772505 38,64.5836037 C38.4470206,65.0577547 38.9161737,65.5298868 39.4074592,66 C39.7115753,65.3389574 40.4665374,63.4492754 39.589437,62.5805754 Z" id="Path"></path>
                <path d="M39,60.5733148 C38.8545689,60.4200834 38.7065637,60.2605976 38.5624196,60.0813065 L38.4980695,60 C38.3135993,60.9728978 38.1475761,61.9728978 38,63 C38.4554046,62.2275321 38.79128,61.4124682 39,60.5733148 Z" id="Path"></path>
                <path d="M40.755188,57.2302304 C40.5154827,56.7057179 40.3290645,56.1466911 40.2001546,55.565809 C40.157401,55.377206 40.1238089,55.188603 40.0940341,55 C39.9795155,55.2187795 39.8604162,55.4252997 39.7374996,55.6223899 C39.4596012,57.0255961 39.213768,58.5077013 39,60.0687054 C39.3000582,60.7931861 39.7008617,61.4468938 40.184122,62 C40.5368392,61.1654318 41.4285572,58.7701738 40.755188,57.2302304 Z" id="Path"></path>
                <path d="M40.1055385,53.8505155 L39.8944615,54.1494845 L40.1055385,53.8505155 Z" id="Path"></path>
                <path d="M39.021359,59.8734431 C39.0062821,59.9595018 38.9912051,60.0480916 38.978641,60.1265569 C38.9912051,60.0480916 39.0062821,59.9620329 39.021359,59.8734431 Z" id="Path"></path>
                <path d="M40.0992564,54.8523899 C40.0339231,54.9461106 39.9660769,55.0492034 39.9007436,55.1476101 C39.9660769,55.0492034 40.0339231,54.9507966 40.0992564,54.8523899 Z" id="Path"></path>
                <path d="M50.9748486,35.4099894 C56.6090486,31.0720841 62.5640373,30.1783823 66,30.0785639 C62.0986155,27.4030558 57.7243921,26 53.2277869,26 C50.9885184,26.0019826 48.7622845,26.3428781 46.6238036,27.011245 C44.5229175,27.6656861 42.5250731,28.6170902 40.690139,29.8369472 C38.8782229,31.0370275 37.2460382,32.4914776 35.8430767,34.1561948 C34.4528824,35.7994789 33.3224404,37.6483467 32.4914833,39.6378145 C30.943153,43.3444766 30.5896933,47.4465347 31.480906,51.3660179 C32.3839356,55.4165952 34.5191278,59.3244415 37.83549,63 C38.6476604,56.3401493 40.2553126,50.5740003 42.6222885,45.8405527 C44.780659,41.5250366 47.5908055,38.0155312 50.9748486,35.4099894 Z" id="Path"></path>
            </g>
        </g>
    </g>
</svg>