<?xml version="1.0" encoding="UTF-8"?>
<svg width="13px" height="13px" viewBox="0 0 13 13" version="1.1" xmlns="http://www.w3.org/2000/svg" xmlns:xlink="http://www.w3.org/1999/xlink">
    <title>Picto/+</title>
    <g id="VUE-DEMANDE-TÂCHES" stroke="none" stroke-width="1" fill="none" fill-rule="evenodd">
        <g id="1440_DASHBOARD-TÂCHES-/-EN-COURS---TERMINEES" transform="translate(-161.000000, -621.000000)" fill-rule="nonzero">
            <g id="document" transform="translate(162.000000, 622.000000)">
                <path d="M5.5,11 C2.46715493,11 0,8.53273352 0,5.50024867 C0,2.46751515 2.46715493,0 5.5,0 C8.53284507,0 11,2.46726648 11,5.50024867 C11,8.53323085 8.53234776,11 5.5,11 Z" id="Path" stroke="#4480C8" fill="#4480C8"></path>
                <path d="M2.9892451,5.58751937 C2.95461865,5.56512561 2.93315635,5.53421827 2.93333333,5.50004592 C2.93333333,5.4317012 3.01916735,5.37618806 3.12484564,5.37619097 L7.87531949,5.37632184 C7.98099778,5.37632475 8.06666667,5.43172599 8.06666667,5.50007071 C8.06666667,5.56841543 7.98101408,5.62381194 7.87533579,5.62380903 L3.12450127,5.62367815 C3.07166213,5.62379332 3.02387154,5.60991313 2.9892451,5.58751937 Z" id="Path" stroke="#FFFFFF" fill="#FFFFFF"></path>
                <path d="M5.41253894,8.01058026 C5.39014518,7.97595499 5.37626557,7.92816513 5.37638191,7.87532597 L5.3762391,3.12467077 C5.37623852,3.01899246 5.43163881,2.93333333 5.49998586,2.93333333 C5.56833291,2.93333333 5.62373414,3.01899572 5.62373473,3.12467403 L5.6237609,7.87514889 C5.62376148,7.98082721 5.56824456,8.06666667 5.49989751,8.06666667 C5.46584062,8.06666667 5.43493271,8.04520554 5.41253894,8.01058026 Z" id="Path" stroke="#FFFFFF" fill="#FFFFFF"></path>
            </g>
        </g>
    </g>
</svg>