<?xml version="1.0" encoding="UTF-8"?>
<svg width="20px" height="20px" viewBox="0 0 20 20" version="1.1" xmlns="http://www.w3.org/2000/svg" xmlns:xlink="http://www.w3.org/1999/xlink">
    <!-- Generator: sketchtool 52.6 (67491) - http://www.bohemiancoding.com/sketch -->
    <title>3455755F-BD3F-4956-A63F-EAC7CA3B225A</title>
    <desc>Created with sketchtool.</desc>
    <g id="Symbols" stroke="none" stroke-width="1" fill="none" fill-rule="evenodd">
        <g id="icon/-20-mail-gris">
            <g id="Group" transform="translate(0.000000, 3.000000)">
                <path d="M18.3172342,14.1721945 L1.60609868,14.1721945 C0.720817085,14.1721945 1.77635684e-15,13.4520198 1.77635684e-15,12.5660958 L1.77635684e-15,1.61443015 C1.77635684e-15,0.728506125 0.720817085,0.00833147868 1.60609868,0.00833147868 L18.3172342,0.00833147868 C19.2025158,0.00833147868 19.9233328,0.728506125 19.9233328,1.61443015 L19.9233328,12.5660958 C19.9233328,13.4520198 19.2025158,14.1721945 18.3172342,14.1721945 Z" id="Path" fill="#777777" fill-rule="nonzero"></path>
                <path d="M1.67214749,0.716819766 C1.14085005,0.716819766 0.708488288,1.14918153 0.708488288,1.68047897 L0.708488288,12.6321446 C0.708488288,13.1634421 1.14085005,13.5958038 1.67214749,13.5958038 L18.383283,13.5958038 C18.9145804,13.5958038 19.3469422,13.1634421 19.3469422,12.6321446 L19.3469422,1.68047897 C19.3469422,1.14918153 18.9145804,0.716819766 18.383283,0.716819766 L1.67214749,0.716819766 Z" id="Path" fill="#FFFFFF" fill-rule="nonzero"></path>
                <path d="M16.0617936,11.2039303 C15.9827735,11.2039303 15.9037535,11.1750205 15.8420793,11.1165585 L12.1454826,7.64867022 C12.0163523,7.5278916 12.0099279,7.32423829 12.1313489,7.19510796 C12.25277,7.06469275 12.4551384,7.05891079 12.5855536,7.18097429 L16.2821503,10.6488625 C16.4112807,10.7696412 16.4177051,10.9732945 16.296284,11.1024248 C16.2326825,11.169881 16.1478805,11.2039303 16.0617936,11.2039303 Z" id="Path" fill="#777777"></path>
                <path d="M3.86397988,11.2031992 C3.77853543,11.2031992 3.69309098,11.1691499 3.62948947,11.1016938 C3.50806841,10.9725635 3.51449281,10.7689102 3.64362314,10.6481315 L7.34150473,7.18024327 C7.4712775,7.05946465 7.67493081,7.06460417 7.79570943,7.19437694 C7.91713049,7.32350728 7.9107061,7.52716059 7.78157577,7.64793921 L4.08369418,11.1158275 C4.02201999,11.1742895 3.94299993,11.2031992 3.86397988,11.2031992 Z" id="Path" fill="#777777"></path>
                <path d="M10.247165,8.9009922 C9.81994279,8.9009922 9.39272054,8.75901307 9.06764617,8.47569727 L0.818723374,1.27973276 C0.685095964,1.16345122 0.670962296,0.960440345 0.78724384,0.826170495 C0.904810263,0.692543086 1.1071787,0.680336736 1.24080611,0.795333401 L9.4897289,7.99065547 C9.90024772,8.34849425 10.5940824,8.34849425 11.0039587,7.99065547 L19.2426025,0.806897311 C19.3755875,0.690615767 19.5779559,0.703464557 19.6961648,0.837734406 C19.8124463,0.972004255 19.7989551,1.17437269 19.6653277,1.29129667 L11.4266839,8.47505483 C11.1009671,8.75901307 10.6743873,8.9009922 10.247165,8.9009922 Z" id="Path" fill="#777777"></path>
            </g>
        </g>
    </g>
</svg>