<svg xmlns="http://www.w3.org/2000/svg" width="20" height="20" viewBox="0 0 20 20">
    <g fill="none" fill-rule="nonzero">
        <path fill="#F8A812" d="M10 4.906a.39.39 0 1 0 0 .782.39.39 0 0 0 0-.782zM3.516 11.938a.39.39 0 1 0 0-.782.39.39 0 0 0 0 .781z"/>
        <path fill="#F8A812" d="M13.125 1C9.608 1 6.722 3.425 6.499 6.479 3.149 6.647 0 9.062 0 12.329c0 1.364.54 2.687 1.523 3.735a2.376 2.376 0 0 1-.627 2.238.39.39 0 0 0 .276.667 4.309 4.309 0 0 0 2.985-1.207c.777.265 1.791.425 2.718.425 3.516 0 6.402-2.424 6.626-5.477.818-.036 1.669-.187 2.342-.417a4.309 4.309 0 0 0 2.985 1.207.39.39 0 0 0 .276-.667 2.376 2.376 0 0 1-.627-2.238C19.46 9.547 20 8.225 20 6.859 20 3.465 16.608 1 13.125 1z"/>
        <path fill="#FFF" d="M6.875 17.406c-.922 0-1.973-.18-2.676-.46a.39.39 0 0 0-.433.098 3.525 3.525 0 0 1-1.753 1.04 3.16 3.16 0 0 0 .238-2.324.39.39 0 0 0-.095-.165C1.269 14.682.78 13.522.78 12.328c0-2.753 2.79-5.078 6.094-5.078 3.12 0 5.86 2.169 5.86 5.078 0 2.8-2.63 5.078-5.86 5.078z"/>
        <path fill="#FFF" d="M17.844 10.126a.392.392 0 0 0-.095.165 3.16 3.16 0 0 0 .238 2.325 3.524 3.524 0 0 1-1.753-1.04.39.39 0 0 0-.433-.1c-.61.243-1.48.411-2.301.452-.114-1.477-.851-2.866-2.11-3.897h5.094a.39.39 0 1 0 0-.781H10.19a7.285 7.285 0 0 0-2.907-.77c.224-2.623 2.76-4.699 5.843-4.699 3.303 0 6.094 2.326 6.094 5.078 0 1.194-.488 2.354-1.375 3.267z"/>
        <path fill="#F8A812" d="M10 11.156H5.078a.39.39 0 1 0 0 .781H10a.39.39 0 1 0 0-.78zM10 13.5H3.516a.39.39 0 1 0 0 .781H10a.39.39 0 1 0 0-.781zM16.484 4.906h-4.922a.39.39 0 1 0 0 .782h4.922a.39.39 0 1 0 0-.782z"/>
    </g>
</svg>
