<svg xmlns="http://www.w3.org/2000/svg" width="20" height="20" viewBox="0 0 20 20">
    <g fill="#0D8FB6" fill-rule="nonzero">
        <path d="M17.661 19.68H2.34A.331.331 0 0 1 2 19.356V8.026c.152-.178.152-.178.339-.323.187-.145.338.145.338.323v11.007h14.646V8.026c0-.178.151-.397.338-.323.187.073.187.181.339.323v11.33a.331.331 0 0 1-.339.324z"/>
        <path d="M19.697 10.424a.294.294 0 0 1-.209-.088L10 .769.511 10.335a.29.29 0 0 1-.428-.013.34.34 0 0 1 .012-.457L9.79.089a.29.29 0 0 1 .417 0l9.697 9.776a.34.34 0 0 1 .013.457.295.295 0 0 1-.221.102zM12.488 19.659H7.324A.324.324 0 0 1 7 19.335v-7.011c0-.18.145-.324.324-.324h5.164c.178 0 .323.145.323.324v7.011a.324.324 0 0 1-.323.324zm-4.84-.647h4.516v-6.365H7.647v6.365z"/>
    </g>
</svg>
