<svg xmlns="http://www.w3.org/2000/svg" width="20" height="20" viewBox="0 0 20 20">
    <g fill="#777" fill-rule="nonzero">
        <path d="M15.792 12.914c-.393-.852-1.797-2.033-3.154-3.174-.756-.636-1.471-1.238-1.927-1.712a.405.405 0 0 0-.436-.101c-.28.105-.454.187-.59.25-.21.097-.28.13-.56.16a.414.414 0 0 0-.305.19c-.59.915-1.2.837-1.607.695-.13-.045-.153-.103-.165-.158-.088-.38.351-1.266.92-1.858 1.355-1.41 2.053-1.762 3.528-1.077a47.596 47.596 0 0 0 3.367 1.394c.219.079.455-.04.53-.267a.439.439 0 0 0-.256-.552 46.432 46.432 0 0 1-3.3-1.367c-1.911-.888-2.96-.303-4.457 1.255-.57.593-1.344 1.792-1.144 2.672.086.374.339.652.716.78.944.325 1.805.015 2.447-.871.265-.042.41-.105.626-.206.078-.037.17-.08.292-.13.476.465 1.12 1.007 1.797 1.576 1.225 1.03 2.614 2.199 2.927 2.875a.52.52 0 0 1-.124.65c-.165.148-.391.195-.514.106a.404.404 0 0 0-.45-.016.439.439 0 0 0-.2.419c.028.275-.215.433-.32.488-.266.14-.545.116-.649.015a.408.408 0 0 0-.432-.088.431.431 0 0 0-.267.365.82.82 0 0 1-.492.663c-.127.05-.312.081-.478-.077a.41.41 0 0 0-.673.173c-.016.043-.052.147-.442.147-.278 0-.777-.195-1.02-.363-.293-.2-2.128-1.623-3.712-3.003-.222-.195-.607-.613-.947-.982a13.934 13.934 0 0 0-.72-.75.404.404 0 0 0-.587.052.446.446 0 0 0 .05.61c.128.114.378.389.654.688.372.404.756.821 1.014 1.047 1.552 1.35 3.417 2.81 3.789 3.063.306.21.967.505 1.479.505.41 0 .727-.098.946-.29.293.12.627.12.947-.01.38-.153.691-.46.868-.833.328.073.704.022 1.046-.157.334-.175.575-.443.695-.756.332.019.674-.104.956-.356.479-.425.61-1.087.334-1.684z"/>
        <path d="M8.333 5.733h-3.75a.425.425 0 0 0-.416.434c0 .239.186.433.416.433h3.75c.23 0 .417-.194.417-.433a.425.425 0 0 0-.417-.434zM17.012 11.991a.406.406 0 0 0-.578-.117l-1.218.85a.444.444 0 0 0-.113.602c.08.124.212.192.346.192.08 0 .16-.024.232-.074l1.218-.851a.445.445 0 0 0 .113-.602zM14.426 14.06c-.299-.245-1.633-1.666-2.458-2.56a.404.404 0 0 0-.589-.013.445.445 0 0 0-.012.613c.214.232 2.103 2.28 2.542 2.64a.405.405 0 0 0 .586-.072.445.445 0 0 0-.07-.609zM12.76 14.929c-.498-.416-1.752-1.801-2.036-2.122a.406.406 0 0 0-.589-.026.446.446 0 0 0-.025.613c.015.016 1.512 1.697 2.13 2.211a.409.409 0 0 0 .586-.067.446.446 0 0 0-.065-.61zM11.102 15.801c-.594-.52-1.81-1.867-2.047-2.13a.405.405 0 0 0-.59-.022.446.446 0 0 0-.02.613c.342.38 1.506 1.663 2.12 2.202a.406.406 0 0 0 .588-.052.446.446 0 0 0-.05-.61z"/>
        <path d="M4.87 4.985c-.714-.703-3.57-.931-4.428-.984a.405.405 0 0 0-.311.117.442.442 0 0 0-.131.315v7.8c0 .24.187.434.417.434h2.5c.18 0 .34-.12.396-.3.06-.194 1.496-4.777 1.685-7.03a.44.44 0 0 0-.128-.352zM2.612 11.8H.833V4.898c1.34.11 2.784.349 3.31.614-.221 1.898-1.22 5.27-1.53 6.288zM19.583 4.867c-3.271 0-5.086.87-5.162.907a.427.427 0 0 0-.223.27.452.452 0 0 0 .046.351c.515.863 2.128 5.652 2.438 6.82a.42.42 0 0 0 .401.318h2.5c.23 0 .417-.194.417-.433V5.3a.425.425 0 0 0-.417-.433zm-.416 7.8h-1.772c-.395-1.339-1.562-4.828-2.213-6.27.636-.224 2.002-.61 3.985-.659v6.929z"/>
    </g>
</svg>
