<?xml version="1.0" encoding="UTF-8"?>
<svg width="20px" height="20px" viewBox="0 0 20 20" version="1.1" xmlns="http://www.w3.org/2000/svg" xmlns:xlink="http://www.w3.org/1999/xlink">
    <!-- Generator: sketchtool 52.6 (67491) - http://www.bohemiancoding.com/sketch -->
    <title>8CCFF484-15FA-4EAB-BB25-E7D9DD6DBCB1</title>
    <desc>Created with sketchtool.</desc>
    <g id="Symbols" stroke="none" stroke-width="1" fill="none" fill-rule="evenodd">
        <g id="icon/20-ligne-orange-pro" fill="#F8A812">
            <path d="M1.35888672,11.0219727 L1.35888672,13.9277344 L0,13.9277344 L0,6.10742188 L2.99169922,6.10742188 C3.8654015,6.10742188 4.55916084,6.3347959 5.07299805,6.78955078 C5.58683525,7.24430566 5.84375,7.84586214 5.84375,8.59423828 C5.84375,9.36051815 5.59220629,9.9567036 5.08911133,10.3828125 C4.58601636,10.8089214 3.88151495,11.0219727 2.97558594,11.0219727 L1.35888672,11.0219727 Z M1.35888672,9.93164062 L2.99169922,9.93164062 C3.47510007,9.93164062 3.84391149,9.81795361 4.09814453,9.59057617 C4.35237757,9.36319873 4.47949219,9.03467012 4.47949219,8.60498047 C4.47949219,8.18245231 4.35058723,7.84497197 4.09277344,7.5925293 C3.83495965,7.34008663 3.48047101,7.21028649 3.02929688,7.203125 L1.35888672,7.203125 L1.35888672,9.93164062 Z M9.90429688,10.9145508 L8.38964844,10.9145508 L8.38964844,13.9277344 L7.03076172,13.9277344 L7.03076172,6.10742188 L9.78076172,6.10742188 C10.68311,6.10742188 11.3795548,6.30973105 11.8701172,6.71435547 C12.3606795,7.11897989 12.605957,7.70442325 12.605957,8.47070312 C12.605957,8.9934922 12.4797376,9.43123196 12.2272949,9.78393555 C11.9748523,10.1366391 11.6230491,10.4078767 11.171875,10.5976562 L12.9282227,13.8579102 L12.9282227,13.9277344 L11.4726562,13.9277344 L9.90429688,10.9145508 Z M8.38964844,9.82421875 L9.78613281,9.82421875 C10.2444684,9.82421875 10.6025378,9.70874139 10.8603516,9.4777832 C11.1181654,9.24682502 11.2470703,8.93082883 11.2470703,8.52978516 C11.2470703,8.11083775 11.1280123,7.786785 10.8898926,7.55761719 C10.6517729,7.32844937 10.2963891,7.21028649 9.82373047,7.203125 L8.38964844,7.203125 L8.38964844,9.82421875 Z M20.1362305,10.2216797 C20.1362305,10.9879596 20.0037448,11.6602347 19.7387695,12.2385254 C19.4737942,12.816816 19.0951359,13.260822 18.6027832,13.5705566 C18.1104305,13.8802913 17.5437858,14.0351562 16.902832,14.0351562 C16.2690398,14.0351562 15.7041854,13.8802913 15.208252,13.5705566 C14.7123185,13.260822 14.3291843,12.8195016 14.0588379,12.246582 C13.7884915,11.6736625 13.65153,11.0130246 13.6479492,10.2646484 L13.6479492,9.82421875 C13.6479492,9.06151962 13.7831204,8.38834927 14.0534668,7.8046875 C14.3238132,7.22102573 14.705157,6.77433423 15.1975098,6.46459961 C15.6898625,6.15486499 16.2547169,6 16.8920898,6 C17.5294628,6 18.0943172,6.15307464 18.5866699,6.45922852 C19.0790226,6.76538239 19.4594713,7.20580767 19.7280273,7.78051758 C19.9965834,8.35522748 20.1326497,9.02392197 20.1362305,9.78662109 L20.1362305,10.2216797 Z M18.7773438,9.81347656 C18.7773438,8.94693577 18.613527,8.28271715 18.2858887,7.82080078 C17.9582503,7.35888441 17.4936554,7.12792969 16.8920898,7.12792969 C16.3048473,7.12792969 15.8456234,7.35798924 15.5144043,7.81811523 C15.1831852,8.27824123 15.0139974,8.92903225 15.0068359,9.77050781 L15.0068359,10.2216797 C15.0068359,11.081059 15.1742334,11.7452776 15.5090332,12.2143555 C15.8438331,12.6834333 16.308428,12.9179688 16.902832,12.9179688 C17.5043975,12.9179688 17.9672022,12.6888044 18.2912598,12.2304688 C18.6153174,11.7721331 18.7773438,11.1025435 18.7773438,10.2216797 L18.7773438,9.81347656 Z" id="PRO"></path>
        </g>
    </g>
</svg>