<?xml version="1.0" encoding="UTF-8"?>
<svg width="20px" height="20px" viewBox="0 0 20 20" version="1.1" xmlns="http://www.w3.org/2000/svg" xmlns:xlink="http://www.w3.org/1999/xlink">
    <!-- Generator: sketchtool 52.6 (67491) - http://www.bohemiancoding.com/sketch -->
    <title>5A362FCA-CEE0-4DB4-B2EE-4B48B54F92B8</title>
    <desc>Created with sketchtool.</desc>
    <g id="Symbols" stroke="none" stroke-width="1" fill="none" fill-rule="evenodd">
        <g id="icon/20-ligne-hors-contrat">
            <g id="smartphone-(2)" transform="translate(2.000000, 0.000000)">
                <path d="M11.167,10.3316667 C10.983,10.3316667 10.8336667,10.4806667 10.8336667,10.665 L10.8336667,15.3333333 L0.833666667,15.3333333 L0.833666667,2.66666667 L10.8336667,2.66666667 L10.8336667,7.33266667 C10.8336667,7.517 10.983,7.666 11.167,7.666 C11.351,7.666 11.5003333,7.517 11.5003333,7.33266667 L11.5003333,1.46833333 C11.5003333,0.659 10.8416667,0 10.0316667,0 L1.63533333,0 C0.825666667,0 0.167,0.659 0.167,1.46833333 L0.167,18.5313333 C0.167,19.341 0.825666667,20 1.63533333,20 L10.0316667,20 C10.8413333,20 11.5,19.341 11.5,18.5316667 L11.5,10.665 C11.5003333,10.4806667 11.351,10.3316667 11.167,10.3316667 Z M1.63533333,0.666666667 L10.0316667,0.666666667 C10.4736667,0.666666667 10.8333333,1.02633333 10.8333333,1.46833333 L10.8333333,2 L0.833333333,2 L0.833333333,1.46833333 C0.833666667,1.02633333 1.19333333,0.666666667 1.63533333,0.666666667 Z M10.0316667,19.3333333 L1.63533333,19.3333333 C1.19333333,19.3333333 0.833666667,18.9736667 0.833666667,18.5316667 L0.833666667,16 L10.8336667,16 L10.8336667,18.5316667 C10.8336667,18.9736667 10.474,19.3333333 10.0316667,19.3333333 Z" id="Shape" fill="#777777" fill-rule="nonzero"></path>
                <path d="M8.23322222,12.2212222 C8.14788889,12.2212222 8.06255556,12.1887778 7.99766667,12.1234444 C7.86744444,11.9932222 7.86744444,11.7816667 7.99766667,11.6514444 L13.8514444,5.79766667 C13.9816667,5.66744444 14.1927778,5.66744444 14.323,5.79766667 C14.4532222,5.92788889 14.4532222,6.139 14.323,6.26922222 L8.46877778,12.1234444 C8.40388889,12.1887778 8.31855556,12.2212222 8.23322222,12.2212222 Z" id="Path" fill="#ED5565"></path>
                <path d="M14.0874444,12.2207778 C14.0021111,12.2207778 13.9167778,12.1883333 13.8518889,12.123 L7.99766667,6.26922222 C7.86744444,6.139 7.86744444,5.92788889 7.99766667,5.79766667 C8.12788889,5.66744444 8.339,5.66744444 8.46922222,5.79766667 L14.323,11.6514444 C14.4532222,11.7816667 14.4532222,11.9932222 14.323,12.1234444 C14.2581111,12.1883333 14.1727778,12.2207778 14.0874444,12.2207778 Z" id="Path" fill="#ED5565"></path>
                <path d="M5.83366667,16.3333333 C5.09833333,16.3333333 4.50033333,16.9313333 4.50033333,17.6666667 C4.50033333,18.402 5.09833333,19 5.83366667,19 C6.569,19 7.167,18.402 7.167,17.6666667 C7.167,16.9313333 6.56866667,16.3333333 5.83366667,16.3333333 Z M5.83366667,18.3333333 C5.466,18.3333333 5.167,18.0343333 5.167,17.6666667 C5.167,17.299 5.466,17 5.83366667,17 C6.20133333,17 6.50033333,17.299 6.50033333,17.6666667 C6.50033333,18.0343333 6.20133333,18.3333333 5.83366667,18.3333333 Z" id="Shape" fill="#777777" fill-rule="nonzero"></path>
                <path d="M4.50033333,1.66666667 L5.83366667,1.66666667 C6.01766667,1.66666667 6.167,1.51766667 6.167,1.33333333 C6.167,1.149 6.01766667,1 5.83366667,1 L4.50033333,1 C4.31633333,1 4.167,1.149 4.167,1.33333333 C4.167,1.51766667 4.316,1.66666667 4.50033333,1.66666667 Z" id="Path" fill="#777777"></path>
                <path d="M6.83366667,1.66666667 L7.167,1.66666667 C7.351,1.66666667 7.50033333,1.51766667 7.50033333,1.33333333 C7.50033333,1.149 7.351,1 7.167,1 L6.83366667,1 C6.64966667,1 6.50033333,1.149 6.50033333,1.33333333 C6.50033333,1.51766667 6.64933333,1.66666667 6.83366667,1.66666667 Z" id="Path" fill="#777777"></path>
            </g>
        </g>
    </g>
</svg>