<?xml version="1.0" encoding="UTF-8"?>
<svg width="20px" height="20px" viewBox="0 0 20 20" version="1.1" xmlns="http://www.w3.org/2000/svg" xmlns:xlink="http://www.w3.org/1999/xlink">
    <!-- Generator: sketchtool 52.6 (67491) - http://www.bohemiancoding.com/sketch -->
    <title>9443A3A9-4CB1-49F3-AF9A-6692A3E5DBEE</title>
    <desc>Created with sketchtool.</desc>
    <g id="Symbols" stroke="none" stroke-width="1" fill="none" fill-rule="evenodd">
        <g id="icon/-20-crayon-blc" fill="#FFFFFF" fill-rule="nonzero">
            <g id="edit-(1)">
                <path d="M18.3026475,0.898600847 C17.1044067,-0.299533616 15.1617596,-0.299533616 13.9635188,0.898600847 L1.79946976,13.0615703 C1.71610695,13.1449257 1.65591522,13.2482546 1.62448773,13.3617031 L0.0248801636,19.136131 C-0.0409045817,19.3728817 0.0259454351,19.62641 0.199595879,19.8003113 C0.373512572,19.9739463 0.627063427,20.0407904 0.863835165,19.9752778 L6.63877551,18.3755459 C6.75223416,18.3441211 6.85557211,18.2839348 6.93893499,18.2005793 L19.1027176,6.03734359 C20.2990941,4.83841017 20.2990941,2.89753346 19.1027176,1.69859998 L18.3026475,0.898600847 Z M3.28508605,13.5047123 L13.2404194,3.5499961 L16.451087,6.76037877 L6.49548728,16.715095 L3.28508605,13.5047123 Z M2.64375153,14.7915285 L5.20882328,17.3566388 L1.66070928,18.3395939 L2.64375153,14.7915285 Z M18.1385852,5.0732967 L17.4154859,5.79633188 L14.2045519,2.58568292 L14.9279175,1.86264773 C15.5934886,1.19713579 16.6726777,1.19713579 17.3382487,1.86264773 L18.1385852,2.66264686 C18.8030908,3.32895776 18.8030908,4.40725217 18.1385852,5.0732967 Z" id="Shape"></path>
            </g>
        </g>
    </g>
</svg>