<?xml version="1.0" encoding="UTF-8"?>
<svg width="100px" height="100px" viewBox="0 0 19 20" version="1.1" xmlns="http://www.w3.org/2000/svg" xmlns:xlink="http://www.w3.org/1999/xlink">
    <!-- Generator: sketchtool 52.6 (67491) - http://www.bohemiancoding.com/sketch -->
    <title>13C25628-4B88-4760-8C0B-6C5280E9D75E</title>
    <desc>Created with sketchtool.</desc>
    <g id="Symbols" stroke="none" stroke-width="1" fill="none" fill-rule="evenodd">
        <g id="icon/-20-calendar" fill="#5a8fce" fill-rule="nonzero">
            <g id="calendar">
                <path d="M18.6607143,1.33333333 L16.2857143,1.33333333 L16.2857143,0.333333333 C16.2857143,0.149 16.1340536,0 15.9464286,0 L13.5714286,0 C13.3838036,0 13.2321429,0.149 13.2321429,0.333333333 L13.2321429,1.33333333 L5.76785714,1.33333333 L5.76785714,0.333333333 C5.76785714,0.149 5.61619643,0 5.42857143,0 L3.05357143,0 C2.86594643,0 2.71428571,0.149 2.71428571,0.333333333 L2.71428571,1.33333333 L0.339285714,1.33333333 C0.151660714,1.33333333 0,1.48233333 0,1.66666667 L0,5.33333333 L0,19.6666667 C0,19.851 0.151660714,20 0.339285714,20 L18.6607143,20 C18.8483393,20 19,19.851 19,19.6666667 L19,5.33333333 L19,1.66666667 C19,1.48233333 18.8483393,1.33333333 18.6607143,1.33333333 Z M13.9107143,0.666666667 L15.6071429,0.666666667 L15.6071429,1.66666667 L15.6071429,2.66666667 L13.9107143,2.66666667 L13.9107143,1.66666667 L13.9107143,0.666666667 Z M3.39285714,0.666666667 L5.08928571,0.666666667 L5.08928571,1.66666667 L5.08928571,2.66666667 L3.39285714,2.66666667 L3.39285714,1.66666667 L3.39285714,0.666666667 Z M0.678571429,2 L2.71428571,2 L2.71428571,3 C2.71428571,3.18433333 2.86594643,3.33333333 3.05357143,3.33333333 L5.42857143,3.33333333 C5.61619643,3.33333333 5.76785714,3.18433333 5.76785714,3 L5.76785714,2 L13.2321429,2 L13.2321429,3 C13.2321429,3.18433333 13.3838036,3.33333333 13.5714286,3.33333333 L15.9464286,3.33333333 C16.1340536,3.33333333 16.2857143,3.18433333 16.2857143,3 L16.2857143,2 L18.3214286,2 L18.3214286,5 L0.678571429,5 L0.678571429,2 Z M0.678571429,19.3333333 L0.678571429,5.66666667 L18.3214286,5.66666667 L18.3214286,19.3333333 L0.678571429,19.3333333 Z" id="Shape"></path>
                <path d="M12.2368421,8 L9.84210526,8 L9.15789474,8 L6.76315789,8 L6.07894737,8 L3,8 L3,11.1034483 L3,11.7931034 L3,14.2068966 L3,14.8965517 L3,18 L6.07894737,18 L6.76315789,18 L9.15789474,18 L9.84210526,18 L12.2368421,18 L12.9210526,18 L16,18 L16,14.8965517 L16,14.2068966 L16,11.7931034 L16,11.1034483 L16,8 L12.9210526,8 L12.2368421,8 Z M9.84210526,8.68965517 L12.2368421,8.68965517 L12.2368421,11.1034483 L9.84210526,11.1034483 L9.84210526,8.68965517 Z M12.2368421,14.2068966 L9.84210526,14.2068966 L9.84210526,11.7931034 L12.2368421,11.7931034 L12.2368421,14.2068966 Z M6.76315789,11.7931034 L9.15789474,11.7931034 L9.15789474,14.2068966 L6.76315789,14.2068966 L6.76315789,11.7931034 Z M6.76315789,8.68965517 L9.15789474,8.68965517 L9.15789474,11.1034483 L6.76315789,11.1034483 L6.76315789,8.68965517 Z M3.68421053,8.68965517 L6.07894737,8.68965517 L6.07894737,11.1034483 L3.68421053,11.1034483 L3.68421053,8.68965517 Z M3.68421053,11.7931034 L6.07894737,11.7931034 L6.07894737,14.2068966 L3.68421053,14.2068966 L3.68421053,11.7931034 Z M6.07894737,17.3103448 L3.68421053,17.3103448 L3.68421053,14.8965517 L6.07894737,14.8965517 L6.07894737,17.3103448 Z M9.15789474,17.3103448 L6.76315789,17.3103448 L6.76315789,14.8965517 L9.15789474,14.8965517 L9.15789474,17.3103448 Z M12.2368421,17.3103448 L9.84210526,17.3103448 L9.84210526,14.8965517 L12.2368421,14.8965517 L12.2368421,17.3103448 Z M15.3157895,17.3103448 L12.9210526,17.3103448 L12.9210526,14.8965517 L15.3157895,14.8965517 L15.3157895,17.3103448 Z M15.3157895,14.2068966 L12.9210526,14.2068966 L12.9210526,11.7931034 L15.3157895,11.7931034 L15.3157895,14.2068966 Z M15.3157895,8.68965517 L15.3157895,11.1034483 L12.9210526,11.1034483 L12.9210526,8.68965517 L15.3157895,8.68965517 Z" id="Shape"></path>
            </g>
        </g>
    </g>
</svg>