<svg xmlns="http://www.w3.org/2000/svg" width="19" height="20" viewBox="0 0 19 20">
    <g fill="#0D8FB6" fill-rule="nonzero">
        <path d="M18.769 5.412L13.673.118A.385.385 0 0 0 13.396 0H5.802c-.85 0-1.541.691-1.541 1.54v5.383H1.183C.547 6.923.03 7.44.03 8.076v5.771C.03 14.483.547 15 1.183 15h3.078v3.462c0 .848.691 1.538 1.541 1.538h11.533c.85 0 1.541-.69 1.541-1.537V5.679c0-.1-.038-.195-.107-.267zm-5.277-4.374l4.182 4.347h-4.182V1.038zM1.183 14.231a.384.384 0 0 1-.384-.384V8.076c0-.212.173-.384.384-.384H11.57c.212 0 .384.172.384.384v5.771a.384.384 0 0 1-.384.384H1.183zm16.924 4.232a.77.77 0 0 1-.772.768H5.802a.771.771 0 0 1-.772-.769V15h6.54c.635 0 1.152-.517 1.152-1.153V8.076c0-.636-.517-1.153-1.153-1.153H5.03V1.541c0-.426.346-.772.772-.772h6.92v5c0 .213.173.385.385.385h5v12.309z"/>
        <path d="M4.244 9.762a.867.867 0 0 0-.476-.324c-.123-.033-.388-.05-.793-.05h-1.07v3.304h.666v-1.246h.435c.302 0 .533-.016.692-.047a.969.969 0 0 0 .346-.157.905.905 0 0 0 .28-.326c.074-.138.111-.308.111-.511 0-.263-.064-.477-.191-.643zm-.572.909a.438.438 0 0 1-.208.162c-.089.035-.265.052-.528.052h-.365v-.938h.323c.24 0 .4.008.48.023.108.02.197.068.268.146.07.078.106.178.106.298a.445.445 0 0 1-.076.257zM6.99 9.389v2.206L5.64 9.389h-.65v3.303h.62v-2.154l1.332 2.154h.67V9.39zM9.853 10.92v.558h.764v.419c-.1.078-.222.144-.362.2a1.15 1.15 0 0 1-.42.081.873.873 0 0 1-.685-.294c-.175-.196-.262-.49-.262-.882 0-.363.086-.638.258-.823.172-.184.404-.277.695-.277.193 0 .353.047.482.141a.7.7 0 0 1 .262.384l.663-.124a1.165 1.165 0 0 0-.445-.713c-.231-.172-.551-.258-.962-.258-.315 0-.579.055-.79.165a1.457 1.457 0 0 0-.634.615 1.902 1.902 0 0 0-.216.917c0 .317.064.61.194.88.129.27.322.477.579.622.257.145.558.218.904.218.271 0 .54-.052.805-.155.265-.103.468-.222.608-.357v-1.316H9.853z"/>
    </g>
</svg>
