<svg xmlns="http://www.w3.org/2000/svg" width="100" height="101" viewBox="0 0 100 101">
    <g fill="none" fill-rule="evenodd">
        <path fill="#202020" d="M55.485 98.221c-.143-1.492-.225-4.18.092-5.946.413-2.706.957-5.382 2.128-7.878.612-1.302 1.425-2.47 2.71-3.22 1.463-.855 3.056-.965 4.692-.793 1.636.171 4.063.538 4.913.532 1.033-.008 2.52-.107 3.488-1.281.777-.94.947-1.97.744-3.14-.134-.809-.2-1.627-.199-2.446 0-.287.199-.639.42-.85.99-.964 1.08-1.835.246-2.931l-.248-.33c.079-.042.16-.078.244-.11 1.297-.348 1.37-1.626.964-2.52-.627-1.372-.446-2.004.928-2.701.54-.274 1.008-.62 1.288-1.167.49-.969.33-1.933-.535-2.731-1.592-1.469-2.853-3.204-4.102-4.955a6.681 6.681 0 0 1-.246-.39c-.366-.622-.168-1.315-.013-1.997.516-2.243.577-4.518.414-6.794-.174-2.32-1.27-5.003-2.46-6.29C46.952 15.937 8.226 50.587 40.065 77.013c.467.43.961.904 1.24 1.492.848 1.784.674 3.617.126 5.45-.913 3.046-2.602 5.629-4.71 7.973-.34.378-.574.758-2.353 2.761l.198.113C11.308 85.43-1.003 59.484 6.921 35.31 15.184 10.108 42.315-3.63 67.52 4.632c13.973 4.58 24.424 14.964 29.553 27.6C91.836 18.656 80.77 7.458 65.867 2.577 39.525-6.058 11.17 8.297 2.536 34.639c-8.634 26.344 5.72 54.696 32.063 63.332 25.561 8.378 53.017-4.89 62.511-29.753-7.056 17.564-23.56 28.897-41.625 30.003z"/>
        <path fill="#FFF" d="M53.368 45.953c1.368-2.4 3.041-3.136 6.182-2.614.826.143.739.17 1.551.336-1.444 1.8-3.176 2.425-7.733 2.278zM56.315 47.071c-.776 1.265-1.723 1.693-3.8 1.861-1.249.105-2.487.21-3.717.358.371-1.648 1.829-2.577 4.184-2.466 1.083.049 2.159.13 3.333.247z"/>
        <path fill="#CEE63F" d="M55.648 42.328c-1.765 1.638-2.18 3.916-6.045 4.21-.038-2.36 2.814-4.548 6.045-4.21zM51.66 49.76c-.71 3.544-4.247 2.637-6.517 3.817.205-2.478 2.506-3.99 6.517-3.816z"/>
        <path fill="#FFF" d="M49.027 46.22c-.63 1.412-.558 1.62-1.18 2.874-.146.266-2.3 1.466-2.986 2.563-.664-2.251.625-4.288 4.166-5.437zM47.717 53.81c-.26 2.944-3.361 2.633-4.862 4.146-.572-1.96 1.502-3.879 4.862-4.146z"/>
        <path fill="#FFF" d="M42.18 56.2c-.383-2.05-.718-4 1.824-5.294.76 2.129-.043 3.77-1.823 5.293zM40.959 61.375c1.109-1.508 1.928-3.323 4.049-3.865.528 1.7-1.435 3.435-4.05 3.865z"/>
        <path fill="#CEE63F" d="M40.838 60.997c-.291-1.777-.892-3.484.687-5.123.492 1.851.665 3.517-.687 5.123z"/>
        <path fill="#202021" d="M27.8 63.819c-1.229-4.144-1.249-7.647-.38-10.657.406-6.354 3.19-12.436 8.316-16.872 9.681-8.373 24.411-8.02 34.696.24l.006-.012c3.865-5.846 5.352-10.306 6.442-13.477a109.548 109.548 0 0 0-5.034-2.102c-1.043 3.58-2.748 7.319-5.304 11.17 2.152-4.025 3.454-7.912 4.118-11.613a78.794 78.794 0 0 0-1.937-.68 43.629 43.629 0 0 1-2.905 7.42 41.207 41.207 0 0 0 2.143-7.674C22.943 4.838 13.72 46.838 23.882 67.534c1.487 3.666 3.172 8.225-2.08 14.765 4.558-2.279 9.414-8.522 6.738-16.228a39.565 39.565 0 0 1-.74-2.252z"/>
    </g>
</svg>
