<svg xmlns="http://www.w3.org/2000/svg" width="20" height="20" viewBox="0 0 20 20">
    <g fill="none" fill-rule="evenodd">
        <path fill="#2FABF7" d="M1.714 1.73L2.413 1.73 2.063 0.841z" transform="translate(0 7)"/>
        <path fill="#228FE0" d="M10.381.968c-.064-.031-.159-.031-.254-.031h-.635v.507h.635c.095 0 .19 0 .254-.031.063-.032.095-.127.095-.223.032-.127-.032-.19-.095-.222z" transform="translate(0 7)"/>
        <path fill="#0571C1" fill-rule="nonzero" d="M17.175.016v.38l-.19-.38h-1.493v.38l-.19-.38H13.27c-.35 0-.635.063-.889.19v-.19h-1.429v.19c-.158-.127-.349-.19-.603-.19H5.24l-.35.794-.35-.794H2.922v.38l-.19-.38H1.364L.73 1.508 0 3.158h1.619l.19-.507h.445l.19.508h1.842v-.381l.158.38h.921l.159-.38v.38h4.413v-.825H10c.063 0 .063 0 .063.096v.698h2.286v-.19c.19.095.476.19.857.19h.953l.19-.508h.445l.19.508h1.841v-.476l.286.476h1.492V.016h-1.428zM6.445 2.683h-.54V.937l-.762 1.746h-.476L3.905.937v1.746h-1.08l-.222-.477h-1.08l-.19.508H.73L1.683.46h.793l.89 2.127V.46h.856l.699 1.524L5.556.46h.888v2.223zM8.602.937H7.365v.412h1.206v.445H7.365v.444h1.238v.476H6.825V.46h1.778v.477zm2.381.92c.064.127.095.222.095.413v.444h-.54V2.43c0-.127 0-.318-.095-.445-.095-.095-.19-.095-.38-.095h-.572v.825h-.54V.46h1.207c.285 0 .476 0 .635.096.158.095.254.254.254.507 0 .35-.223.54-.381.604.158.031.254.127.317.19zm.953.826h-.54V.429h.54v2.254zm6.253 0h-.761L16.413 1v1.683h-1.08l-.19-.477h-1.111l-.19.508h-.604c-.254 0-.571-.063-.762-.254-.19-.19-.286-.444-.286-.857 0-.317.064-.635.286-.889.159-.19.445-.254.794-.254h.508v.477h-.508c-.19 0-.286.031-.413.126-.095.096-.159.286-.159.508 0 .254.032.413.16.54.094.095.221.127.38.127h.222l.73-1.746h.794l.889 2.127V.492h.794l.92 1.556V.492h.54v2.19h.063z" transform="translate(0 7)"/>
        <g fill="#228FE0">
            <path d="M6.246.897L6.976.897 6.627.008zM.849 5.468L.849 3.659.024 4.548z" transform="translate(0 7) translate(7.976 .833)"/>
        </g>
        <path fill="#2FABF7" d="M5.429 4.714L5.429 5.127 6.603 5.127 6.603 5.571 5.429 5.571 5.429 6.048 6.73 6.048 7.333 5.381 6.762 4.714z" transform="translate(0 7)"/>
        <path fill="#228FE0" d="M10.032 4.714h-.667v.572h.698c.191 0 .318-.096.318-.286-.032-.19-.159-.286-.35-.286z" transform="translate(0 7)"/>
        <path fill="#0571C1" fill-rule="nonzero" d="M19.841 5.254V3.825h-1.333c-.286 0-.508.064-.667.19v-.19h-1.46c-.222 0-.508.064-.635.19v-.19h-2.571v.19c-.19-.158-.54-.19-.699-.19h-1.714v.19c-.159-.158-.54-.19-.73-.19H8.127l-.444.477-.413-.477H4.413v3.112h2.793l.445-.477.412.477h1.715v-.73H10c.222 0 .508 0 .73-.096v.857h1.429v-.825h.063c.095 0 .095 0 .095.095v.73h4.318c.286 0 .571-.063.73-.19v.19h1.365c.286 0 .572-.031.762-.158.318-.191.508-.54.508-.953 0-.222-.063-.444-.159-.603zM10 5.762h-.635v.762H8.35l-.635-.73-.666.73H4.952V4.27H7.08l.635.73.667-.73h1.682c.413 0 .89.127.89.73-.032.635-.477.762-.953.762zm3.175-.127c.063.095.095.222.095.413v.444h-.54v-.286c0-.127 0-.349-.095-.444-.064-.095-.19-.095-.381-.095h-.571v.825h-.54V4.238h1.206c.254 0 .476 0 .635.095.159.096.286.254.286.508 0 .35-.222.54-.381.603.159.064.254.127.286.19zm2.19-.92h-1.238v.412h1.206v.444h-1.206v.445h1.238v.476h-1.778V4.238h1.778v.476zm1.333 1.777h-1.015v-.476h1.015c.096 0 .16 0 .223-.064.031-.031.063-.095.063-.158 0-.064-.032-.127-.063-.16-.032-.03-.096-.063-.19-.063-.509-.031-1.112 0-1.112-.698 0-.317.19-.667.762-.667h1.048v.54h-.985c-.095 0-.158 0-.222.032-.063.032-.063.095-.063.159 0 .095.063.126.127.158.063.032.127.032.19.032h.286c.286 0 .476.063.603.19.095.096.159.254.159.477 0 .476-.286.698-.826.698zm2.73-.222c-.126.127-.349.222-.666.222h-1.016v-.476h1.016c.095 0 .159 0 .222-.064.032-.031.064-.095.064-.158 0-.064-.032-.127-.064-.16-.032-.03-.095-.063-.19-.063-.508-.031-1.111 0-1.111-.698 0-.317.19-.667.761-.667h1.048v.54h-.952c-.096 0-.159 0-.223.032-.063.032-.063.095-.063.159 0 .095.032.126.127.158.063.032.127.032.19.032h.286c.286 0 .476.063.603.19.032 0 .032.032.032.032.095.127.127.286.127.445 0 .19-.063.349-.19.476z" transform="translate(0 7)"/>
        <path fill="#228FE0" d="M12.603 4.778c-.063-.032-.159-.032-.254-.032h-.635v.508h.635c.095 0 .19 0 .254-.032s.095-.127.095-.222c.032-.127-.031-.19-.095-.222z" transform="translate(0 7)"/>
        <g fill="#228FE0">
            <path d="M2.405.135C2.34.103 2.246.103 2.15.103h-.635v.508h.635c.095 0 .19 0 .254-.032C2.468.548 2.5.452 2.5.357c.032-.127-.032-.19-.095-.222zM6.246.897L6.976.897 6.627.008zM.849 5.468L.849 3.659.024 4.548z" transform="translate(0 7) translate(7.976 .833)"/>
        </g>
        <path fill="#228FE0" d="M10.032 4.714h-.667v.572h.698c.191 0 .318-.096.318-.286-.032-.19-.159-.286-.35-.286zM12.603 4.778c-.063-.032-.159-.032-.254-.032h-.635v.508h.635c.095 0 .19 0 .254-.032s.095-.127.095-.222c.032-.127-.031-.19-.095-.222z" transform="translate(0 7)"/>
        <g fill="#2FABF7">
            <path d="M9.81 6.429L9.365 5.952 9.365 6.492 8.317 6.492 7.683 5.762 6.984 6.492 4.889 6.492 4.889 4.27 7.016 4.27 7.683 5 8 4.619 7.206 3.825 4.413 3.825 4.413 6.937 7.206 6.937 7.683 6.46 8.095 6.937 9.81 6.937zM6.508 3.127L6.095 2.683 5.905 2.683 5.905 2.492 5.429 2.016 5.111 2.683 4.667 2.683 3.905.937 3.905 2.683 2.825 2.683 2.603 2.206 1.524 2.206 1.302 2.683.73 2.683 1.683.46 2.476.46 3.365 2.587 3.365.46 3.841.46 3.397.016 2.921.016 2.921.397 2.762.016 1.365.016.73 1.508 0 3.127.73 3.127 1.651 3.127 1.841 2.651 2.286 2.651 2.508 3.127 4.286 3.127 4.286 2.746 4.444 3.127 5.365 3.127 5.524 2.746 5.524 3.127z" transform="translate(0 7)"/>
            <path d="M5.048 1.667L4.54 1.159 4.921 1.984z" transform="translate(0 7)"/>
        </g>
        <g fill="#228FE0">
            <path fill-rule="nonzero" d="M16.357 6.738c.286-.19.476-.508.508-.857l-.444-.444c.031.095.063.19.063.317 0 .19-.063.35-.19.476-.127.127-.35.222-.667.222h-1.016v-.476h1.016c.095 0 .159 0 .222-.063.032-.032.064-.096.064-.159 0-.064-.032-.127-.064-.159s-.095-.063-.19-.063c-.508-.032-1.111 0-1.111-.699 0-.317.19-.603.666-.666l-.349-.35c-.063.032-.095.064-.127.064v-.19h-1.46c-.222 0-.508.063-.635.19v-.19H10.04v.19c-.19-.159-.54-.19-.699-.19H7.627v.19c-.159-.159-.54-.19-.73-.19H4.992l-.444.476-.413-.477h-.35l.953.953.476-.508h1.683c.413 0 .889.127.889.73 0 .635-.445.762-.92.762H6.23v.476l.476.476v-.476h.16c.221 0 .507 0 .73-.095v.857h1.428V6.04h.063c.096 0 .096 0 .096.095v.73H13.5c.286 0 .571-.063.73-.19v.19h1.365c.254.032.54 0 .762-.127zM10.04 5.595c.063.095.095.222.095.413v.444h-.54v-.285c0-.127 0-.35-.095-.445-.063-.095-.19-.095-.381-.095h-.571v.825h-.54V4.198h1.206c.254 0 .476 0 .635.096.159.095.286.254.286.508 0 .349-.222.54-.381.603.159.063.254.127.286.19zm2.19-.92h-1.238v.412h1.206v.445h-1.206v.444h1.238v.476h-1.778V4.198h1.778v.477zm1.333 1.777h-1.015v-.476h1.015c.096 0 .16 0 .223-.063.031-.032.063-.096.063-.159 0-.064-.032-.127-.063-.159-.032-.032-.096-.063-.19-.063-.509-.032-1.112 0-1.112-.699 0-.317.19-.666.762-.666h1.048v.54h-.984c-.096 0-.16 0-.223.031-.063.032-.063.095-.063.159 0 .095.063.127.127.159.063.031.127.031.19.031h.286c.286 0 .476.064.603.19.095.096.159.255.159.477 0 .476-.286.698-.826.698z" transform="translate(0 7) translate(3.135 .04)"/>
            <path d="M15.087 4.897c0 .095.032.127.127.159.064.031.127.031.19.031h.286c.191 0 .318.032.445.096l-.476-.477h-.286c-.095 0-.159 0-.222.032-.032.032-.064.095-.064.159zM13.976 2.992L14.043 3.092 14.076 3.092zM12.23 1.246L12.77 2.548 12.77 1.786z" transform="translate(0 7) translate(3.135 .04)"/>
            <path fill-rule="nonzero" d="M6.802 2.294h.063c.064 0 .064 0 .064.095v.698h2.285v-.19c.19.095.476.19.857.19h.953l.19-.508h.445l.19.508h1.841V2.77l-.444-.445v.35h-1.08l-.158-.508h-1.111l-.19.508h-.604c-.254 0-.571-.064-.762-.254-.19-.19-.285-.445-.285-.858 0-.317.063-.634.285-.888.159-.19.445-.254.794-.254h.508v.476h-.508c-.19 0-.286.032-.413.127-.095.095-.159.286-.159.508 0 .254.032.412.16.54.094.095.221.126.38.126h.222l.73-1.746h.318l-.444-.444h-.826c-.349 0-.635.063-.889.19v-.19H7.817v.19c-.158-.127-.349-.19-.603-.19h-5.11l-.35.794-.35-.794H.009l.444.444h.635l.54 1.175.19.19L2.39.421h.889v2.254h-.54V.929l-.54 1.27.921.92h3.65l.033-.825zM8.262.42h.54v2.254h-.54V.42zM5.468.897H4.23v.413h1.207v.444H4.23v.444h1.238v.477H3.69V.42h1.778v.476zm.89 1.746h-.54V.389h1.206c.286 0 .476 0 .635.095.158.095.254.254.254.508 0 .35-.223.54-.381.603.127.032.222.127.254.19.063.128.095.223.095.413v.445h-.54v-.286c0-.127 0-.317-.095-.444-.032-.064-.127-.064-.317-.064h-.572v.794z" transform="translate(0 7) translate(3.135 .04)"/>
        </g>
    </g>
</svg>
