<svg xmlns="http://www.w3.org/2000/svg" width="20" height="20" viewBox="0 0 20 20">
    <g fill="#4480C8">
        <path stroke="#4480C8" stroke-width=".4" d="M19.648 18.287h-2.67V1.37c-.001-.175-.132-.322-.306-.341L7.652.01C7.557 0 7.46.03 7.387.096 7.313.16 7.27.254 7.27.352v.674H3.366c-.19 0-.343.154-.343.344v16.917H.352c-.19 0-.343.154-.343.343 0 .19.153.344.343.344h6.92v.674c0 .19.153.343.342.343.013 0 .027 0 .04-.002l9-1.015h2.995c.19 0 .343-.154.343-.344 0-.19-.154-.343-.343-.343h0zM3.6 18.3V1.8h3.5v16.5H3.6zM7.957.736l8.334.94v16.648l-8.334.941V.735z"/>
        <path d="M10.436 8.979c-.564 0-1.02.457-1.02 1.021 0 .564.456 1.021 1.02 1.021.564 0 1.021-.457 1.021-1.021 0-.564-.457-1.02-1.02-1.021zm0 1.356c-.185 0-.335-.15-.335-.335 0-.185.15-.335.335-.335.185 0 .335.15.335.335 0 .185-.15.335-.335.335z"/>
    </g>
</svg>
