<svg xmlns="http://www.w3.org/2000/svg" width="20" height="20" viewBox="0 0 20 20">
    <g fill="none" fill-rule="evenodd">
        <g fill="#ED5565" fill-rule="nonzero">
            <g>
                <path d="M6.515 13.84l-.263 2.364c-.013.118.025.236.104.324.08.088.192.139.31.139h1.667c.119 0 .232-.05.31-.14.08-.087.118-.205.105-.323l-.263-2.364c.427-.31.682-.801.682-1.34 0-.92-.748-1.667-1.667-1.667-.92 0-1.667.748-1.667 1.667 0 .539.255 1.03.682 1.34zm.985-2.173c.46 0 .833.374.833.833 0 .32-.181.605-.473.747-.16.077-.253.246-.233.421l.24 2.165h-.735l.241-2.165c.02-.175-.074-.344-.233-.42-.292-.143-.473-.429-.473-.748 0-.46.374-.833.833-.833z" transform="translate(3)"/>
                <path d="M14.583 7.5h-1.25V5.833C13.333 2.617 10.717 0 7.5 0S1.667 2.617 1.667 5.833V7.5H.417c-.23 0-.417.186-.417.417v10.416C0 19.253.747 20 1.667 20h11.666c.92 0 1.667-.747 1.667-1.667V7.917c0-.23-.186-.417-.417-.417zM2.5 5.833c0-2.757 2.243-5 5-5s5 2.243 5 5V7.5h-.833V5.833c0-2.297-1.87-4.166-4.167-4.166-2.297 0-4.167 1.869-4.167 4.166V7.5H2.5V5.833zm8.333 0V7.5H4.167V5.833C4.167 3.995 5.662 2.5 7.5 2.5s3.333 1.495 3.333 3.333zm3.334 12.5c0 .46-.374.834-.834.834H1.667c-.46 0-.834-.374-.834-.834v-10h13.334v10z" transform="translate(3)"/>
            </g>
        </g>
    </g>
</svg>
