<svg xmlns="http://www.w3.org/2000/svg" width="20" height="20" viewBox="0 0 20 20">
    <g fill="none" fill-rule="evenodd">
        <path fill="#3C58BF" d="M7.333 5.929L8.349 0.214 9.937 0.214 8.952 5.929z" transform="translate(0 7)"/>
        <path fill="#293688" d="M7.333 5.929L8.635 0.214 9.937 0.214 8.952 5.929z" transform="translate(0 7)"/>
        <path fill="#3C58BF" d="M14.698.278c-.317-.127-.825-.254-1.46-.254-1.587 0-2.73.793-2.73 1.936 0 .857.794 1.302 1.429 1.588.634.285.825.476.825.73 0 .38-.508.571-.952.571-.635 0-.985-.095-1.524-.317l-.223-.095-.222 1.301c.381.159 1.08.318 1.81.318 1.682 0 2.793-.794 2.793-2 0-.667-.412-1.175-1.365-1.588-.571-.285-.92-.444-.92-.73 0-.254.285-.508.92-.508.54 0 .921.095 1.207.222l.158.064.254-1.238z" transform="translate(0 7)"/>
        <path fill="#293688" d="M14.698.278c-.317-.127-.825-.254-1.46-.254-1.587 0-2.444.793-2.444 1.936 0 .857.508 1.302 1.143 1.588.634.285.825.476.825.73 0 .38-.508.571-.952.571-.635 0-.985-.095-1.524-.317l-.223-.095-.222 1.301c.381.159 1.08.318 1.81.318 1.682 0 2.793-.794 2.793-2 0-.667-.412-1.175-1.365-1.588-.571-.285-.92-.444-.92-.73 0-.254.285-.508.92-.508.54 0 .921.095 1.207.222l.158.064.254-1.238z" transform="translate(0 7)"/>
        <path fill="#3C58BF" fill-rule="nonzero" d="M17.429.214c-.381 0-.667.032-.826.413l-2.38 5.302h1.714l.317-.953h2.032l.19.953H20L18.667.214h-1.238zm-.73 3.81c.095-.286.634-1.683.634-1.683s.127-.349.223-.571l.095.54s.317 1.428.38 1.746h-1.333v-.032z" transform="translate(0 7)"/>
        <path fill="#293688" fill-rule="nonzero" d="M17.81.214c-.381 0-.667.032-.826.413l-2.762 5.302h1.715l.317-.953h2.032l.19.953H20L18.667.214h-.857zm-1.112 3.81c.127-.318.635-1.683.635-1.683s.127-.349.223-.571l.095.54s.317 1.428.38 1.746h-1.333v-.032z" transform="translate(0 7)"/>
        <path fill="#3C58BF" d="M4.413 4.214l-.159-.825c-.286-.952-1.206-2-2.222-2.508l1.428 5.08h1.715L7.746.245H6.032l-1.62 3.968z" transform="translate(0 7)"/>
        <path fill="#293688" d="M4.413 4.214l-.159-.825c-.286-.952-1.206-2-2.222-2.508l1.428 5.08h1.715L7.746.245H6.349L4.413 4.214z" transform="translate(0 7)"/>
        <path fill="#FFBC00" d="M0 .214l.286.064c2.031.476 3.428 1.682 3.968 3.11L3.683.69c-.096-.38-.381-.476-.73-.476H0z" transform="translate(0 7)"/>
        <path fill="#F7981D" d="M0 .214C2.032.69 3.714 1.93 4.254 3.357l-.54-2.254C3.62.723 3.302.5 2.952.5L0 .214z" transform="translate(0 7)"/>
        <path fill="#ED7C00" d="M0 .214C2.032.69 3.714 1.93 4.254 3.357L3.873 2.12c-.095-.38-.222-.762-.667-.92L0 .213z" transform="translate(0 7)"/>
        <g fill="#051244">
            <path d="M3.937 3.19l-1.08-1.079-.508 1.206-.127-.793C1.937 1.57 1.016.524 0 .016l1.429 5.08h1.714l.794-1.906zM6.889 5.095L5.524 3.698 5.27 5.095zM10.54 3.127c.127.127.19.222.158.35 0 .38-.508.57-.952.57-.635 0-.984-.095-1.524-.317L8 3.635l-.222 1.302c.38.158 1.08.317 1.81.317 1.015 0 1.84-.286 2.317-.794L10.54 3.127zM12.381 5.095h1.492l.317-.952h2.032l.19.952h1.525l-.54-2.317L15.492.937l.095.507s.318 1.429.381 1.746h-1.333c.127-.317.635-1.682.635-1.682s.127-.35.222-.571" transform="translate(0 7) translate(2.063 .833)"/>
        </g>
    </g>
</svg>
