<svg xmlns="http://www.w3.org/2000/svg" width="20" height="20" viewBox="0 0 20 20">
    <g fill="none">
        <path fill="#ED5565" d="M9.83 19.66C4.41 19.66 0 15.25 0 9.83S4.41 0 9.83 0c5.422 0 9.831 4.41 9.831 9.83 0 5.422-4.41 9.83-9.83 9.83z"/>
        <path fill="#FFF" stroke="#FFF" d="M6.409 14c-.105 0-.21-.04-.29-.12-.159-.16-.159-.42 0-.579l7.183-7.181c.16-.16.418-.16.578 0 .16.16.16.419 0 .578L6.698 13.88c-.08.08-.184.12-.29.12z"/>
        <path fill="#FFF" stroke="#FFF" d="M13.591 14c-.105 0-.21-.04-.289-.12L6.12 6.698c-.16-.16-.16-.418 0-.578.16-.16.419-.16.578 0l7.182 7.182c.16.16.16.419 0 .579-.08.08-.184.119-.289.119z"/>
    </g>
</svg>
