<svg xmlns="http://www.w3.org/2000/svg" width="20" height="20" viewBox="0 0 20 20">
    <path fill="#AB4796" d="M19.333 3.795c-.37-.424-.9-.657-1.488-.657H3.609l-.143-1.074C3.312.907 2.506 0 1.632 0H.586C.262 0 0 .262 0 .586c0 .324.262.586.586.586h1.046c.188 0 .586.397.673 1.047l1.677 12.58c.074.554.359 1.073.802 1.461.329.288.717.48 1.125.56-.166.305-.26.654-.26 1.025 0 1.188.966 2.155 2.154 2.155 1.189 0 2.155-.967 2.155-2.155 0-.354-.086-.688-.238-.983h3.07c-.152.295-.238.629-.238.983 0 1.188.967 2.155 2.155 2.155 1.188 0 2.155-.967 2.155-2.155 0-.354-.086-.688-.238-.983h1.535c.323 0 .586-.262.586-.586 0-.324-.263-.586-.586-.586H6.339c-.573 0-1.12-.48-1.196-1.047l-.122-.92h4.56v.001h7.009c.56 0 1.111-.214 1.555-.602.443-.388.728-.907.802-1.462l.84-6.303c.078-.584-.083-1.139-.454-1.562zM8.786 17.845c0 .542-.44.983-.983.983-.542 0-.983-.44-.983-.983 0-.542.441-.983.983-.983s.983.441.983.983zm6.904 0c0 .542-.44.983-.983.983-.542 0-.983-.44-.983-.983 0-.542.44-.983.983-.983.542 0 .983.441.983.983zm2.761-13.278c.145.166.207.39.175.635l-.353 2.643h-3.986l.235-3.535h3.323c.246 0 .461.091.606.257zm-8.32 7.985l-.236-3.535h3.14l-.237 3.535H10.13zm-.315-4.707L9.581 4.31h3.767l-.236 3.535H9.816zM8.406 4.31l.236 3.535H4.237L3.766 4.31h4.64zM4.393 9.017H8.72l.236 3.535H4.865l-.472-3.535zm12.197 3.535h-2.617l.236-3.535h3.908l-.332 2.488c-.075.568-.623 1.047-1.195 1.047z"/>
</svg>
