<svg xmlns="http://www.w3.org/2000/svg" width="84" height="20" viewBox="0 0 84 20">
    <defs>
        <linearGradient id="a" x1="0%" y1="47.232%" y2="52.768%">
            <stop offset="0%" stop-color="#EC6F21"/>
            <stop offset="100%" stop-color="#F4D770"/>
        </linearGradient>
    </defs>
    <g fill="none" fill-rule="nonzero">
        <path fill="url(#a)" d="M4 0h78.58a1 1 0 0 1 .706 1.708l-18.06 18a1 1 0 0 1-.706.292H4a4 4 0 0 1-4-4V4a4 4 0 0 1 4-4z"/>
        <path fill="#FFF" d="M10.402 13c1.458 0 2.007-.936 2.007-1.782 0-.711-.378-1.413-1.197-1.53.711-.207.873-.855.873-1.287 0-.918-.729-1.602-1.863-1.602H7.711V13h2.691zm-.288-3.78h-.99V8.032h.999c.387 0 .549.279.549.594 0 .378-.225.594-.558.594zm.117 2.547H9.124v-1.386h1.107c.531 0 .756.369.756.693 0 .351-.252.693-.756.693zM17.539 13v-1.233h-2.646v-1.188h2.25V9.31h-2.25V8.032h2.565V6.799H13.48V13h4.059zm2.565 0V9.436L22.138 13h1.242V6.799h-1.413v3.519l-1.98-3.519h-1.296V13h1.413zm8.757 0v-1.233h-2.646v-1.188h2.25V9.31h-2.25V8.032h2.565V6.799h-3.978V13h4.059zm2.565 0v-2.439h1.989V9.337h-1.989V8.032h2.511V6.799h-3.924V13h1.413zm4.932 0V6.799h-1.413V13h1.413zm4.221.072c1.089 0 2.043-.54 2.61-1.368l-1.098-.774c-.324.504-.801.81-1.458.81-1.062 0-1.782-.828-1.782-1.854 0-1.026.747-1.827 1.791-1.827.648 0 1.125.306 1.449.801l1.098-.765a3.156 3.156 0 0 0-2.61-1.377 3.157 3.157 0 0 0-3.15 3.168c0 1.764 1.404 3.186 3.15 3.186zm4.95-.072V6.799h-1.413V13h1.413zm2.16 0l.459-1.44h2.178l.468 1.44h1.503l-2.286-6.201h-1.539L46.177 13h1.512zm2.241-2.664h-1.395l.693-2.169.702 2.169zM54.34 13V6.799h-1.413V13h1.413zm2.844 0v-2.178h.279L58.894 13h1.647l-1.602-2.259c.999-.252 1.458-1.017 1.458-1.89 0-1.026-.648-2.052-2.088-2.052h-2.538V13h1.413zm.9-3.294h-.9V8.032h.936c.576 0 .855.441.855.855s-.27.819-.891.819zM65.608 13v-1.233h-2.646v-1.188h2.25V9.31h-2.25V8.032h2.565V6.799h-3.978V13h4.059z"/>
    </g>
</svg>
