<?xml version="1.0" encoding="UTF-8"?>
<svg width="140px" height="42px" viewBox="0 0 140 42" version="1.1" xmlns="http://www.w3.org/2000/svg" xmlns:xlink="http://www.w3.org/1999/xlink">
    <!-- Generator: sketchtool 52.6 (67491) - http://www.bohemiancoding.com/sketch -->
    <title>A6D59F10-C96E-4B1F-B500-7B4B409F97EF</title>
    <desc>Created with sketchtool.</desc>
    <g id="Symbols" stroke="none" stroke-width="1" fill="none" fill-rule="evenodd">
        <g id="Logo-Athena-2" fill="#333333">
            <g id="logo-athena_Plan-de-travail-1-copie-3" transform="translate(1.000000, 1.000000)">
                <path d="M16.3189536,38.5289597 C6.16908506,36.1012184 -0.114413738,25.8020619 2.2838315,15.5257732 C4.68207674,5.24948454 14.8541615,-1.11227741 25.0036598,1.31771321 C30.6317789,2.66391753 35.0705876,6.42999063 37.5003059,11.2701031 C34.9969037,6.06073102 30.2881674,1.99212746 24.2897773,0.556326148 C13.6804025,-1.98125586 3.04955192,4.66766635 0.54318755,15.4076851 C-1.96317682,26.1477038 4.60394956,36.9105904 15.211473,39.4481724 C25.5050067,41.9107779 35.8196458,35.7225867 38.7122028,25.5400187 C35.8218675,35.0931584 26.0600429,40.8596064 16.3189536,38.5289597 Z" id="Path"></path>
                <path d="M11.8016474,21.8965323 C11.2003273,19.8444236 11.3573222,18.3235239 12.0152938,17.1403936 C12.8113764,13.0339269 16.7269922,9.90777882 21.0399088,9.90777882 C22.9371774,9.90777882 24.9107218,10.5128397 26.7291226,11.9055295 C27.2586101,11.9722587 27.6548001,11.9126523 27.8517843,11.5306467 C29.1847599,8.44348641 29.8142206,7.03205248 30.0897022,6.44386129 C29.4636973,6.16119963 28.8531205,5.90502968 28.2579716,5.67535145 C27.8684465,7.02980319 27.2312101,8.44386129 26.2762812,9.90065604 C27.0801395,8.37825679 27.5670459,6.90759138 27.8151274,5.50777882 C27.5711189,5.41705717 27.3300724,5.33195876 27.0912477,5.2502343 C26.8149769,6.21839792 26.4517049,7.15890852 26.0059834,8.05998126 C26.3655181,7.12011066 26.633992,6.14709057 26.8076201,5.15463918 C9.98694929,-0.415370197 6.54120741,15.4732896 10.3379662,23.302343 C10.8933727,24.6894096 11.5228334,26.4138707 9.5603971,28.8880975 C11.2636437,28.0258669 13.0779716,25.664105 12.0782399,22.7490159 C11.974564,22.4613558 11.8823665,22.1771946 11.8016474,21.8965323 Z" id="Path"></path>
                <path d="M18.817172,17.6569822 C18.5987942,17.8004189 18.3677421,17.9230313 18.1269869,18.0232427 C17.7604186,18.4817245 17.3083177,19.1880037 17.1872391,19.9977507 C17.1511111,20.2217035 17.147618,20.44981 17.1768715,20.6747891 C17.4793829,20.5495783 18.3136034,20.1162137 18.7712584,19.0043112 C18.7000269,18.6779232 18.6906035,18.340816 18.7434881,18.0108716 C18.7612334,17.8915585 18.7858364,17.7733947 18.817172,17.6569822 Z" id="Path"></path>
                <path d="M25.0673464,12.2388004 C24.9840354,12.2701865 24.8988731,12.30461 24.8118594,12.3400459 C24.897392,12.30461 24.9825543,12.2701865 25.0673464,12.2388004 Z" id="Path"></path>
                <path d="M20.4019318,14.1912174 C20.4352562,14.1567939 20.4689509,14.1228767 20.5022753,14.0899719 C20.4693212,14.1228767 20.4356265,14.1567939 20.4019318,14.1912174 Z" id="Path"></path>
                <path d="M20.9269761,15.3761949 C21.1121351,15.0391916 21.3506751,14.7352447 21.6330829,14.4764761 C21.4400903,14.4712092 21.2475788,14.4543095 21.056571,14.4258669 C20.7941771,14.3871913 20.5344672,14.3317225 20.2790019,14.2597938 C19.6513788,14.7531929 19.0809808,15.3169873 18.5787175,15.9403936 C19.1504159,15.980881 20.0583204,15.9283974 20.9269761,15.3761949 Z" id="Path"></path>
                <path d="M20.765538,15.7285848 C20.55899,15.8370322 20.3432436,15.9264883 20.1208962,15.9958763 C19.3063,16.7531396 19.042667,17.5190253 18.9652804,18.0299906 C18.9202013,18.3129265 18.9228305,18.6015529 18.9730561,18.8835989 C19.2888972,18.8206186 20.2875181,18.5158388 20.6366837,17.1568885 C20.5722724,16.8517591 20.5688731,16.536659 20.6266863,16.2301781 C20.6569678,16.0588571 20.703466,15.8908849 20.765538,15.7285848 Z" id="Path"></path>
                <path d="M20.294183,14.2834386 L20.394183,14.1821931 L20.294183,14.2834386 Z" id="Path"></path>
                <path d="M22.4954441,12.9499531 L22.3921384,13.0511987 L22.4954441,12.9499531 Z" id="Path"></path>
                <path d="M22.6235578,12.89597 L22.5080333,12.9972155 L22.6235578,12.89597 Z" id="Path"></path>
                <path d="M26.9666731,12.1907346 L27.0436731,12.1957968 L26.9666731,12.1907346 Z" id="Path"></path>
                <polygon id="Path" points="27.1097651 12.230873 27.0527651 12.1822751 27.0427651 12.1822751"></polygon>
                <path d="M24.869992,13.4043112 C24.932938,13.4380506 25.087341,13.4999063 25.3254253,13.4627929 C25.6675557,13.4091846 26.2237027,13.1381443 26.9390663,12.1589503 C26.810212,12.150328 26.6350738,12.1424555 26.4206869,12.1424555 C25.9711848,12.143424 25.5222599,12.1751111 25.0769734,12.2373008 C24.9147947,12.5611996 24.7881621,12.9758201 24.869992,13.4043112 Z" id="Path"></path>
                <path d="M21.9803971,14.470478 C21.3509364,14.9885661 20.9677059,15.5898782 20.8473679,16.2582943 C20.7994301,16.5141768 20.7964219,16.776612 20.8384814,17.033552 C21.1081114,16.9902421 21.3686796,16.901544 21.6093856,16.771134 C22.1925624,16.4498594 22.5491334,15.9276476 22.6705822,15.2183693 C22.6565119,15.1272727 22.6217065,14.7910028 22.7683338,14.2980319 C22.5165687,14.3980806 22.2504987,14.4563121 21.9803971,14.470478 Z" id="Path"></path>
                <path d="M23.4533351,13.0084349 C23.2919886,13.0260379 23.1298202,13.034798 22.9675396,13.0346767 C22.7724028,13.0343485 22.5774446,13.022708 22.3836222,12.9998126 C21.7209436,13.2916014 21.0919106,13.6561724 20.5078294,14.0869728 C21.1124819,14.236926 22.1666434,14.4059981 22.8749718,13.9940019 C23.0229645,13.6405685 23.2175176,13.3090378 23.4533351,13.0084349 Z" id="Path"></path>
                <path d="M24.8103783,12.2777882 C24.0610683,12.4011844 23.3276257,12.6085178 22.6235578,12.89597 C22.7035364,12.8632302 22.7831446,12.831865 22.8623826,12.8018744 C23.4485216,12.8153702 24.1538878,12.7223993 24.7829783,12.3403936 C24.7926053,12.3194002 24.8014918,12.2984067 24.8103783,12.2777882 Z" id="Path"></path>
                <path d="M23.7799141,12.9574508 C22.917553,13.9805061 22.8668259,14.8 22.8812664,15.0852858 C23.1985887,15.0140581 24.121304,14.7036551 24.6544942,13.4605436 C24.6041644,13.1924858 24.6139075,12.9164084 24.6830051,12.652671 C24.3971521,12.7955861 24.0932907,12.8981348 23.7799141,12.9574508 Z" id="Path"></path>
                <path d="M19.698417,16.1027179 C19.2738313,16.184841 18.8394673,16.2019012 18.4098739,16.1533271 C18.4650443,16.0820993 18.5209552,16.0119963 18.5761256,15.9430178 C18.0577611,16.5881031 17.6036962,17.2835228 17.2205635,18.019119 C17.6297129,17.9816307 18.2299222,17.8189316 18.9334371,17.3008435 C19.1127117,16.8568273 19.3721321,16.4505182 19.698417,16.1027179 Z" id="Path"></path>
                <path d="M16.0486558,20.9117151 C16.0816833,20.8678538 16.1156282,20.8243674 16.1486558,20.780881 C16.1156282,20.8243674 16.0816833,20.8678538 16.0486558,20.9117151 Z" id="Path"></path>
                <path d="M16.9832197,20.8434864 C16.9661873,20.7793814 16.9039818,20.5060918 16.9498954,20.0835989 C16.6658975,20.4209934 16.4170754,20.6549203 16.2041696,20.8146204 C15.9120258,21.468791 16.1975047,22.2088097 16.3385779,22.5049672 C16.5588892,22.2537957 17.0539415,21.5992502 16.9832197,20.8434864 Z" id="Path"></path>
                <path d="M17.7481996,18.1525773 C17.5369214,18.2131783 17.3192827,18.2481624 17.0998551,18.2567948 C16.7287909,19.0010465 16.4141415,19.7727793 16.1586262,20.5653233 C16.3985618,20.371134 16.6910759,20.073477 17.0365388,19.6172446 C17.1435471,19.2018744 17.3549718,18.7036551 17.7481996,18.1525773 Z" id="Path"></path>
                <path d="M16.0879313,20.9806935 C16.054598,21.0249297 16.0212646,21.0691659 15.9879313,21.1141518 C16.0212646,21.0684161 16.054598,21.0249297 16.0879313,20.9806935 Z" id="Path"></path>
                <path d="M16.2101207,20.5829428 L16.1101207,20.7141518 L16.2101207,20.5829428 Z" id="Path"></path>
                <path d="M30.3166783,20.7220244 C29.7212825,20.1668229 29.2506681,19.5100281 28.7837564,18.8476101 C28.7556158,18.8074977 28.6519399,18.6358013 28.6919292,18.6999063 C28.5552992,18.4648547 28.6293534,18.2024367 28.6871156,17.9445173 C28.8800268,17.0961575 28.9026134,16.2354264 28.8418889,15.3743205 C28.7796834,14.4937207 28.3701637,13.4789128 27.9258385,12.9915651 C27.6693641,12.7278975 27.4085699,12.4835989 27.1434559,12.2586692 C26.5180682,13.1250234 25.9130453,13.6059981 25.3461605,13.6884724 C25.1700595,13.7174942 24.9894795,13.6975398 24.8237081,13.6307404 C24.2179447,14.9623243 23.1815562,15.257732 22.8786745,15.3177132 C22.6987228,16.2549203 22.1459082,16.7336457 21.7071371,16.9731959 C21.4367877,17.1200314 21.1432016,17.2179705 20.8395922,17.2626054 C20.6015079,18.1368322 20.1012718,18.5945642 19.717671,18.8262418 C19.486578,18.9671793 19.232363,19.0649512 18.9671317,19.1149016 C18.4457902,20.3591378 17.50271,20.7955014 17.2105661,20.9042174 C17.2542581,21.7941893 16.6440515,22.5124649 16.4474376,22.72015 C16.7777193,23.4699157 16.2623021,24.5195876 16.1067883,24.8074977 C16.5533351,25.3394564 16.1101207,26.3014058 15.9857097,26.5458294 C16.1153045,26.6612933 16.2481084,26.7763824 16.3841213,26.8910965 C16.5585189,27.0534208 16.7432841,27.2329897 16.8473303,27.4534208 C17.1642823,28.1282099 17.0991146,28.8217432 16.8943547,29.5152765 C16.5533351,30.6672915 15.9220231,31.6446111 15.1348269,32.531209 C15.007824,32.6747891 14.3942849,33.3713215 13.7303891,34.1293346 C14.2750577,34.4378632 17.741905,36.2762887 22.1573866,35.7199625 L22.1733083,35.7199625 C22.1044379,35.2952202 22.0781486,34.8611059 22.044454,34.4307404 C22.0015025,33.8774133 22.0385296,33.4650422 22.1803434,32.6669166 C22.3343762,31.6431115 22.5380252,30.6309278 22.9756855,29.6865979 C23.2041427,29.1940019 23.5081352,28.7523899 23.9883767,28.4686036 C24.5348967,28.1450797 25.1299222,28.1034677 25.7412396,28.1686973 C26.352557,28.2339269 27.2593507,28.3722587 27.5770432,28.3700094 C27.9628656,28.3670103 28.5182721,28.329522 28.8803971,27.8852858 C29.1706896,27.529522 29.2340059,27.1400187 29.1581003,26.6972821 C29.1080857,26.3916212 29.0833153,26.0822722 29.0840461,25.7724461 C29.0840461,25.6637301 29.1581003,25.5306467 29.2406708,25.4504217 C29.6109418,25.0860356 29.6438959,24.7565136 29.3328683,24.3418932 L29.2399302,24.2174321 C29.2693928,24.2013629 29.2999571,24.1874565 29.3313872,24.1758201 C29.8157016,24.0438613 29.843472,23.5602624 29.6912906,23.222493 C29.4572793,22.7032802 29.5246686,22.464105 30.0382345,22.2001874 C30.2396619,22.0967198 30.4148001,21.9655108 30.5177354,21.7589503 C30.6995385,21.3885661 30.6399249,21.0238051 30.3166783,20.7220244 Z" id="Path"></path>
                <path d="M17.2179984,18.0494845 C17.1842431,18.105717 17.1509098,18.1625742 17.1179984,18.2200562 C17.1509098,18.1628241 17.1842431,18.1059669 17.2179984,18.0494845 Z" id="Path"></path>
                <path d="M15.2068269,25.3379569 C15.1918269,25.385567 15.1768269,25.433552 15.1628269,25.481537 C15.1778269,25.433552 15.1918269,25.385567 15.2068269,25.3379569 Z" id="Path"></path>
                <path d="M15.8424148,21.6356139 C15.8836383,21.4799125 15.9260961,21.3270853 15.969788,21.1771321 C15.9260961,21.3275851 15.8836383,21.4804124 15.8424148,21.6356139 Z" id="Path"></path>
                <path d="M15.8957338,24.9064667 C15.8025027,24.8288284 15.714664,24.7447807 15.6328414,24.6549203 C15.5344098,25.0480337 15.3811838,25.4249512 15.1777784,25.7743205 C15.3796995,25.9797563 15.5916179,26.1843174 15.8135337,26.3880037 C15.9509042,26.1015933 16.2919238,25.2828491 15.8957338,24.9064667 Z" id="Path"></path>
                <path d="M15.4517789,24.4401125 C15.4099383,24.3850047 15.3673571,24.3276476 15.3258868,24.2631678 L15.3073732,24.2339269 C15.254301,24.5838176 15.2065361,24.9434552 15.1640783,25.3128397 C15.2950985,25.0350312 15.39173,24.7419036 15.4517789,24.4401125 Z" id="Path"></path>
                <path d="M16.2152777,22.7497657 C16.0990224,22.5412529 16.008611,22.3190193 15.9460907,22.0880975 C15.9253555,22.0131209 15.9090636,21.9381443 15.894623,21.8631678 C15.8390824,21.9501406 15.7813201,22.0322399 15.7217065,22.1105904 C15.5869278,22.6684161 15.4677006,23.257607 15.3640247,23.8781631 C15.5095507,24.1661706 15.7039374,24.4260433 15.938315,24.6459231 C16.1093802,24.3141518 16.5418567,23.3619494 16.2152777,22.7497657 Z" id="Path"></path>
                <path d="M15.8766525,21.724836 L15.7926525,21.8444236 L15.8766525,21.724836 Z" id="Path"></path>
                <path d="M15.3808692,24.0003749 C15.3748692,24.0347984 15.3688692,24.0702343 15.3638692,24.1016204 C15.3688692,24.0702343 15.3748692,24.0358108 15.3808692,24.0003749 Z" id="Path"></path>
                <path d="M15.818797,21.9441425 C15.792797,21.9816307 15.765797,22.0228679 15.739797,22.0622306 C15.765797,22.0228679 15.792797,21.9835052 15.818797,21.9441425 Z" id="Path"></path>
                <path d="M20.1401503,13.9891284 C22.3902871,12.2459231 24.7685377,11.8867854 26.140762,11.8466729 C24.5826617,10.7715089 22.8357231,10.2076851 21.0399088,10.2076851 C20.1456096,10.2084818 19.256516,10.3454721 18.4024685,10.6140581 C17.5634352,10.877048 16.7655538,11.2593737 16.0327341,11.7495783 C15.3091071,12.2318355 14.6572597,12.8163123 14.0969573,13.4852858 C13.5417539,14.1456464 13.090288,14.8886216 12.7584277,15.6880975 C12.1400693,17.177635 11.9989077,18.8260641 12.3548323,20.4011246 C12.7154763,22.028866 13.5682104,23.5992502 14.8926697,25.0762887 C15.2170271,22.4 15.859077,20.0828491 16.8043789,18.1806935 C17.6663697,16.4464855 18.7886611,15.0361762 20.1401503,13.9891284 Z" id="Path"></path>
                <g id="Logo-Athena-2" transform="translate(48.024148, 12.746017)">
                    <g id="Apollon">
                        <g id="Group">
                            <path d="M7.70163671,0.012371134 L10.6193721,9.09015933 C11.0185243,10.3147766 11.3211591,11.110278 11.5272766,11.4766635 C11.7299546,11.839037 12.0411537,12.1268057 12.415927,12.2984067 L12.415927,13.1396439 C11.5519614,13.08791 10.5793829,13.0619182 9.49819157,13.0616682 C8.441685,13.0616682 7.55303461,13.0876601 6.83224041,13.1396439 L6.83224041,12.2984067 C7.56636437,12.2466729 7.93354977,12.0249922 7.93379662,11.6333646 C7.93379662,11.4766635 7.88862356,11.2614808 7.79827743,10.9878163 L7.14141669,8.97282099 L3.00400859,8.97282099 L2.30826939,11.0073102 C2.21841696,11.2682287 2.17336732,11.4704155 2.17312047,11.6138707 C2.17312047,11.9920025 2.44366515,12.2201812 2.98475449,12.2984067 L2.98475449,13.1396439 C2.44391199,13.1134021 1.9672498,13.100906 1.55476791,13.1021556 C1.1812879,13.1021556 0.665994097,13.1146517 0.00888650389,13.1396439 L0.00888650389,12.2984067 C0.395449423,12.1552015 0.691666219,11.9596376 0.897536893,11.7117151 C1.10340757,11.4637926 1.31026563,11.0338019 1.51811108,10.4217432 L4.70651462,1.20749766 L4.35845989,0.0138706654 C5.17009391,0.0531084036 5.73043735,0.0727272727 6.03949021,0.0727272727 C6.32163671,0.0717275851 6.87568554,0.0516088722 7.70163671,0.012371134 Z M6.83187014,8.01387067 L5.15083982,2.55557638 L3.31503622,8.01387067 L6.83187014,8.01387067 Z" id="Shape" fill-rule="nonzero"></path>
                            <path d="M24.9747786,0.012371134 L25.1291816,3.18163074 C24.9501544,3.15437458 24.7692415,3.14183753 24.5882157,3.14414246 C24.4328224,3.14029379 24.2774562,3.15285779 24.1246364,3.18163074 C23.6990716,1.68209934 22.8616421,0.932333646 21.6123477,0.932333646 L20.7236973,0.932333646 L20.7236973,10.4985942 C20.7236973,11.3593252 20.7977515,11.8777882 20.9458599,12.0539831 C21.0939683,12.2301781 21.5286665,12.3247735 22.2499544,12.3377694 L22.2499544,13.1396439 C21.4770754,13.08791 20.4143976,13.0619182 19.0619211,13.0616682 C17.7094446,13.0614183 16.6466434,13.0874102 15.8735176,13.1396439 L15.8735176,12.3377694 C16.5948055,12.3247735 17.0295036,12.2301781 17.177612,12.0539831 C17.3257204,11.8777882 17.3997746,11.3593252 17.3997746,10.4985942 L17.3997746,0.931958763 L16.530008,0.931958763 C15.3063858,0.931958763 14.4562436,1.68172446 13.9795814,3.18125586 C13.8266343,3.15250282 13.6711473,3.13993909 13.5156319,3.14376757 C13.3409815,3.14085827 13.166414,3.15340205 12.99392,3.18125586 L13.1098149,0.0119962512 C14.4109471,0.06447985 16.5558036,0.0905966885 19.5443842,0.0903467666 C21.9795331,0.0905966885 23.7896646,0.064604811 24.9747786,0.012371134 Z" id="Path"></path>
                            <path d="M32.2398658,5.92089972 L37.6891441,5.92089972 L37.6891441,2.65342081 C37.6891441,1.79268978 37.6150899,1.27435177 37.4669815,1.09840675 C37.3188731,0.922461731 36.8840515,0.827866292 36.1625168,0.814620431 L36.1625168,0.012371134 C36.9482318,0.0648547329 38.011033,0.0909715714 39.3509203,0.0907216495 C40.6908076,0.0904717276 41.7536088,0.0643548891 42.5393239,0.012371134 L42.5393239,0.814620431 C41.8177891,0.82761637 41.3829675,0.922211809 41.2348591,1.09840675 C41.0867507,1.27460169 41.0126965,1.79293971 41.0126965,2.65342081 L41.0126965,10.4985942 C41.0126965,11.3593252 41.0867507,11.8777882 41.2348591,12.0539831 C41.3829675,12.2301781 41.8177891,12.3247735 42.5393239,12.3377694 L42.5393239,13.1396439 C41.7531151,13.08791 40.6903139,13.0619182 39.3509203,13.0616682 C38.0115267,13.0614183 36.9487255,13.0874102 36.1625168,13.1396439 L36.1625168,12.3377694 C36.8838047,12.3247735 37.3186262,12.2301781 37.4669815,12.0539831 C37.6153367,11.8777882 37.6893909,11.3593252 37.6891441,10.4985942 L37.6891441,6.87947516 L32.2398658,6.87947516 L32.2398658,10.4985942 C32.2398658,11.3593252 32.31392,11.8777882 32.4620284,12.0539831 C32.6101368,12.2301781 33.044835,12.3247735 33.7661229,12.3377694 L33.7661229,13.1396439 C32.9804078,13.08791 31.9176067,13.0619182 30.5777193,13.0616682 C29.237832,13.0614183 28.1751543,13.0874102 27.3896861,13.1396439 L27.3896861,12.3377694 C28.110974,12.3247735 28.5456721,12.2301781 28.6937805,12.0539831 C28.8418889,11.8777882 28.9159431,11.3593252 28.9159431,10.4985942 L28.9159431,2.65342081 C28.9159431,1.79268978 28.8418889,1.27435177 28.6937805,1.09840675 C28.5456721,0.922461731 28.110974,0.827866292 27.3896861,0.814620431 L27.3896861,0.012371134 C28.1751543,0.0648547329 29.237832,0.0909715714 30.5777193,0.0907216495 C31.9176067,0.0904717276 32.9804078,0.0643548891 33.7661229,0.012371134 L33.7661229,0.814620431 C33.0443413,0.82761637 32.6096431,0.922211809 32.4620284,1.09840675 C32.3144137,1.27460169 32.2403595,1.79293971 32.2398658,2.65342081 L32.2398658,5.92089972 Z" id="Path"></path>
                            <path d="M57.1472552,0.012371134 L57.1472552,2.81162137 C57.0055648,2.79887535 56.8124068,2.79237738 56.5677811,2.79212746 C56.3485806,2.79212746 56.1682587,2.79862543 56.0268151,2.81162137 C55.6915965,1.55951265 54.7511081,0.933458294 53.2053501,0.933458294 L50.2491065,0.933458294 L50.2491065,5.8031865 L52.5869976,5.8031865 C53.2184331,5.8031865 53.6694231,5.6793502 53.9399678,5.4316776 C54.2105125,5.184005 54.3650389,4.76051234 54.4035471,4.16119963 C54.5449906,4.17419556 54.699517,4.18069353 54.8671264,4.18069353 C55.0218997,4.18069353 55.170008,4.17419556 55.3114516,4.16119963 L55.3114516,8.30740394 C55.1695144,8.29465792 55.021406,8.28815995 54.8671264,8.28791003 C54.725436,8.28791003 54.5709096,8.294408 54.4035471,8.30740394 C54.351956,7.73258357 54.1908881,7.33158388 53.9203434,7.10440487 C53.6497988,6.87722587 53.1931312,6.76313652 52.5503408,6.76213683 L50.2509579,6.76213683 L50.2509579,12.239925 L53.5360021,12.239925 C54.2182882,12.239925 54.733582,12.2008122 55.0818836,12.1225867 C55.5842117,12.0119197 56.0459397,11.7611692 56.4148591,11.3986879 C56.8399302,10.9945642 57.1813201,10.4467354 57.4390287,9.7552015 C57.7676476,9.8791601 58.1129976,9.95171974 58.4631983,9.97038425 L57.8255916,13.1396439 C56.6533137,13.08791 53.7612503,13.0619182 49.1494017,13.0616682 C47.6423987,13.0616682 46.3928575,13.0876601 45.4007781,13.1396439 L45.4007781,12.3377694 C46.122066,12.3247735 46.5568876,12.2301781 46.7052428,12.0539831 C46.8535981,11.8777882 46.9276523,11.3593252 46.9274054,10.4985942 L46.9274054,2.65342081 C46.9274054,1.79268978 46.8533512,1.27435177 46.7052428,1.09840675 C46.5571344,0.922461731 46.1223129,0.827866292 45.4007781,0.814620431 L45.4007781,0.012371134 C46.4311189,0.0648547329 47.7901368,0.0909715714 49.477832,0.0907216495 C52.5298524,0.0907216495 55.0863268,0.064604811 57.1472552,0.012371134 Z" id="Path"></path>
                            <path d="M65.3209874,0.012371134 L72.8956211,9.98987816 L72.8956211,2.65342081 C72.8956211,1.77994377 72.8215669,1.25510778 72.6734585,1.07891284 C72.5253501,0.902717901 72.0776925,0.815245236 71.3304856,0.816494845 L71.1179501,0.816494845 L71.1179501,0.0142455483 C72.0066005,0.0534832865 72.7538074,0.0731021556 73.3595707,0.0731021556 C73.9391682,0.0731021556 74.6734156,0.0534832865 75.5623129,0.0142455483 L75.5623129,0.816494845 L75.3501476,0.816494845 C74.6029407,0.816494845 74.1552831,0.90396751 74.0071747,1.07891284 C73.8590663,1.25385817 73.7850121,1.77869416 73.7850121,2.65342081 L73.7850121,11.1632615 L75.2535068,13.139269 L73.3406869,13.0807873 C73.1730775,13.0807873 72.4709203,13.1002812 71.2342152,13.139269 L63.5436866,2.9660731 L63.5436866,10.4985942 C63.5436866,11.3733208 63.6177408,11.8981568 63.7658492,12.0731022 C63.9139576,12.2480475 64.3616152,12.336145 65.1088221,12.3373946 L65.3213577,12.3373946 L65.3213577,13.1396439 C64.4327073,13.100656 63.6921653,13.0811621 63.0997317,13.0811621 C62.5319828,13.0811621 61.7914408,13.100656 60.8781057,13.1396439 L60.8781057,12.3377694 L61.0906413,12.3377694 C61.8378481,12.3377694 62.2855058,12.249672 62.4336142,12.073477 C62.5817226,11.8972821 62.6557768,11.3724461 62.6557768,10.4989691 L62.6557768,1.77319588 L61.3420553,0.0112464855 C62.2951328,0.0504842237 62.952117,0.0701030928 63.3130078,0.0701030928 C63.530974,0.0708528585 64.2003005,0.0516088722 65.3209874,0.012371134 Z" id="Path"></path>
                            <path d="M85.243048,0.012371134 L88.161524,9.09015933 C88.5606761,10.3147766 88.8634344,11.110278 89.0697988,11.4766635 C89.2725375,11.8389879 89.5837187,12.12674 89.9584492,12.2984067 L89.9584492,13.1396439 C89.0944835,13.08791 88.121905,13.0619182 87.0407137,13.0616682 C85.9842071,13.0616682 85.0955567,13.0876601 84.3747625,13.1396439 L84.3747625,12.2984067 C85.1091334,12.2466729 85.4761953,12.0249922 85.4759485,11.6333646 C85.4759485,11.4766635 85.4308988,11.2614808 85.3407996,10.9878163 L84.6809767,8.97282099 L80.5476415,8.97282099 L79.8519023,11.0073102 C79.7615562,11.2682287 79.7165066,11.4704155 79.7167534,11.6138707 C79.7167534,11.9920025 79.9871747,12.2201812 80.5280172,12.2984067 L80.5280172,13.1396439 C79.9871747,13.1134021 79.5106359,13.100906 79.0984009,13.1021556 C78.7244272,13.1021556 78.2091334,13.1146517 77.5525195,13.1396439 L77.5525195,12.2984067 C77.9390824,12.1552015 78.2352992,11.9596376 78.4411698,11.7117151 C78.6470405,11.4637926 78.853158,11.0333021 79.0595224,10.4202437 L82.2479259,1.20599813 L81.9002415,0.012371134 C82.7118755,0.0516088722 83.2722189,0.0712277413 83.5812718,0.0712277413 C83.8644057,0.0712277413 84.4183311,0.0516088722 85.243048,0.012371134 Z M84.3736517,8.01387067 L82.6922511,2.55557638 L80.8568178,8.01387067 L84.3736517,8.01387067 Z" id="Shape" fill-rule="nonzero"></path>
                        </g>
                    </g>
                </g>
            </g>
        </g>
    </g>
</svg>