<svg xmlns="http://www.w3.org/2000/svg" width="84" height="20" viewBox="0 0 84 20">
    <defs>
        <linearGradient id="a" x1="0%" y1="47.232%" y2="52.768%">
            <stop offset="0%" stop-color="#D21451"/>
            <stop offset="100%" stop-color="#F9A2BE"/>
        </linearGradient>
    </defs>
    <g fill="none" fill-rule="nonzero">
        <path fill="url(#a)" d="M4 0h78.58a1 1 0 0 1 .706 1.708l-18.06 18a1 1 0 0 1-.706.292H4a4 4 0 0 1-4-4V4a4 4 0 0 1 4-4z"/>
        <path fill="#FFF" d="M10.124 13v-2.106h1.143c1.44 0 2.088-1.008 2.088-2.043 0-1.026-.648-2.052-2.088-2.052H8.711V13h1.413zm1.08-3.339h-1.08V8.032h1.089c.522 0 .72.423.72.819 0 .396-.198.81-.729.81zM15.029 13l.459-1.44h2.178l.468 1.44h1.503l-2.286-6.201h-1.539L13.517 13h1.512zm2.241-2.664h-1.395l.693-2.169.702 2.169zM21.68 13v-2.178h.279L23.39 13h1.647l-1.602-2.259c.999-.252 1.458-1.017 1.458-1.89 0-1.026-.648-2.052-2.088-2.052h-2.538V13h1.413zm.9-3.294h-.9V8.032h.936c.576 0 .855.441.855.855s-.27.819-.891.819zM28.565 13V8.032h1.638V6.799h-4.689v1.233h1.638V13h1.413zm3.942 0V6.799h-1.413V13h1.413zm4.221.072c1.089 0 2.043-.54 2.61-1.368l-1.098-.774c-.324.504-.801.81-1.458.81-1.062 0-1.782-.828-1.782-1.854 0-1.026.747-1.827 1.791-1.827.648 0 1.125.306 1.449.801l1.098-.765a3.156 3.156 0 0 0-2.61-1.377 3.157 3.157 0 0 0-3.15 3.168c0 1.764 1.404 3.186 3.15 3.186zm5.895.009c1.278 0 2.412-.891 2.412-2.322v-3.96h-1.413v3.852c0 .783-.495 1.089-.999 1.089-.513 0-1.008-.306-1.008-1.089V6.799h-1.413v3.96c0 1.431 1.143 2.322 2.421 2.322zM50.084 13v-1.233h-2.277V6.799h-1.413V13h3.69zm2.304 0V6.799h-1.413V13h1.413zm5.49 0v-1.233h-2.646v-1.188h2.25V9.31h-2.25V8.032h2.565V6.799h-3.978V13h4.059zm2.565 0v-2.178h.279L62.153 13H63.8l-1.602-2.259c.999-.252 1.458-1.017 1.458-1.89 0-1.026-.648-2.052-2.088-2.052H59.03V13h1.413zm.9-3.294h-.9V8.032h.936c.576 0 .855.441.855.855s-.27.819-.891.819z"/>
    </g>
</svg>
