<svg xmlns="http://www.w3.org/2000/svg" width="84" height="20" viewBox="0 0 84 20">
    <defs>
        <linearGradient id="a" x1="0%" y1="47.232%" y2="52.768%">
            <stop offset="0%" stop-color="#89278D"/>
            <stop offset="100%" stop-color="#FA8AD6"/>
        </linearGradient>
    </defs>
    <g fill="none" fill-rule="nonzero">
        <path fill="url(#a)" d="M4 0h78.58a1 1 0 0 1 .706 1.708l-18.06 18a1 1 0 0 1-.706.292H4a4 4 0 0 1-4-4V4a4 4 0 0 1 4-4z"/>
        <path fill="#FFF" d="M10.628 13.081c1.134 0 2.286-.567 2.286-1.899 0-1.125-.9-1.584-1.782-1.854l-.648-.198c-.576-.162-.612-.441-.612-.567 0-.342.288-.612.729-.612.486 0 .711.315.711.684h1.413c0-1.206-.909-1.917-2.097-1.917-1.233 0-2.187.756-2.187 1.872 0 .585.261 1.422 1.629 1.791l.738.225c.549.18.684.405.684.648 0 .405-.351.612-.81.612-.486 0-.882-.306-.882-.702H8.387c0 1.143.918 1.917 2.241 1.917zM18.053 13v-1.233h-2.646v-1.188h2.25V9.31h-2.25V8.032h2.565V6.799h-3.978V13h4.059zm2.565 0v-2.178h.279L22.328 13h1.647l-1.602-2.259c.999-.252 1.458-1.017 1.458-1.89 0-1.026-.648-2.052-2.088-2.052h-2.538V13h1.413zm.9-3.294h-.9V8.032h.936c.576 0 .855.441.855.855s-.27.819-.891.819zM27.548 13l1.89-6.201h-1.485l-1.035 3.924-1.044-3.924h-1.467L26.297 13h1.251zm4.149 0V6.799h-1.413V13h1.413zm4.221.072c1.089 0 2.043-.54 2.61-1.368l-1.098-.774c-.324.504-.801.81-1.458.81-1.062 0-1.782-.828-1.782-1.854 0-1.026.747-1.827 1.791-1.827.648 0 1.125.306 1.449.801l1.098-.765a3.156 3.156 0 0 0-2.61-1.377 3.157 3.157 0 0 0-3.15 3.168c0 1.764 1.404 3.186 3.15 3.186zM43.514 13v-1.233h-2.646v-1.188h2.25V9.31h-2.25V8.032h2.565V6.799h-3.978V13h4.059z"/>
    </g>
</svg>
