<svg xmlns="http://www.w3.org/2000/svg" width="84" height="20" viewBox="0 0 84 20">
    <defs>
        <linearGradient id="a" x1="2.845%" y1="47.338%" y2="52.768%">
            <stop offset="0%" stop-color="#66881D"/>
            <stop offset="100%" stop-color="#BBE766"/>
        </linearGradient>
    </defs>
    <g fill="none" fill-rule="nonzero">
        <path fill="url(#a)" d="M4 0h78.58a1 1 0 0 1 .706 1.708l-18.06 18a1 1 0 0 1-.706.292H4a4 4 0 0 1-4-4V4a4 4 0 0 1 4-4z"/>
        <path fill="#FFF" d="M9.845 13l.414-3.519 1.35 2.808h1.08l1.35-2.817.405 3.528h1.449l-.756-6.201h-1.206l-1.782 3.879-1.809-3.879H9.161L8.396 13h1.449zm7.875 0l.459-1.44h2.178l.468 1.44h1.503l-2.286-6.201h-1.539L16.208 13h1.512zm2.241-2.664h-1.395l.693-2.169.702 2.169zM25.478 13V8.032h1.638V6.799h-4.689v1.233h1.638V13h1.413zm6.588 0v-1.233H29.42v-1.188h2.25V9.31h-2.25V8.032h2.565V6.799h-3.978V13h4.059zm2.565 0v-2.178h.279L36.341 13h1.647l-1.602-2.259c.999-.252 1.458-1.017 1.458-1.89 0-1.026-.648-2.052-2.088-2.052h-2.538V13h1.413zm.9-3.294h-.9V8.032h.936c.576 0 .855.441.855.855s-.27.819-.891.819zM40.409 13V6.799h-1.413V13h1.413zm5.49 0v-1.233h-2.646v-1.188h2.25V9.31h-2.25V8.032h2.565V6.799H41.84V13h4.059zm4.842 0v-1.233h-2.277V6.799h-1.413V13h3.69z"/>
    </g>
</svg>
