<svg xmlns="http://www.w3.org/2000/svg" width="20" height="20" viewBox="0 0 20 20">
    <defs>
        <linearGradient id="prefix__a" x1="9.992%" x2="90.008%" y1="0%" y2="100%">
            <stop offset="0%" stop-color="#EC6F21"/>
            <stop offset="100%" stop-color="#F4D770"/>
        </linearGradient>
        <linearGradient id="prefix__b" x1="18%" x2="82%" y1="0%" y2="100%">
            <stop offset="0%" stop-color="#EC6F21"/>
            <stop offset="100%" stop-color="#F4D770"/>
        </linearGradient>
        <linearGradient id="prefix__c" x1="0%" x2="100%" y1="37.175%" y2="62.825%">
            <stop offset="0%" stop-color="#EC6F21"/>
            <stop offset="100%" stop-color="#F4D770"/>
        </linearGradient>
        <linearGradient id="prefix__d" x1="0%" x2="100%" y1="49.372%" y2="50.628%">
            <stop offset="0%" stop-color="#EC6F21"/>
            <stop offset="100%" stop-color="#F4D770"/>
        </linearGradient>
        <linearGradient id="prefix__e" x1="0%" x2="100%" y1="0%" y2="100%">
            <stop offset="0%" stop-color="#EC6F21"/>
            <stop offset="100%" stop-color="#F4D770"/>
        </linearGradient>
    </defs>
    <g fill="none">
        <path fill="url(#prefix__a)" d="M17.5 9.61h-2.891V.39c0-.157-.096-.3-.241-.36-.146-.06-.314-.027-.426.084l-1.107 1.107L11.73.114c-.153-.152-.4-.152-.553 0L10.07 1.221 8.963.114c-.152-.152-.4-.152-.552 0L7.304 1.221 6.198.114c-.153-.152-.4-.152-.553 0L4.54 1.221 3.432.114c-.152-.152-.4-.152-.552 0L1.773 1.221.667.114C.515-.037.27-.038.117.112c-.08.08-.12.184-.117.289v17.568C0 19.089.911 20 2.031 20H15.86c1.12 0 2.031-.911 2.031-2.031V10c0-.216-.174-.39-.39-.39zM2.03 19.218c-.689 0-1.25-.561-1.25-1.25V1.334l.716.716c.152.152.4.152.552 0L3.156.943 4.263 2.05c.152.152.4.152.552 0L5.922.943 7.028 2.05c.153.152.4.152.553 0L8.687.943 9.794 2.05c.152.152.4.152.552 0L11.453.943l1.106 1.107c.153.152.4.152.553 0l.716-.716V17.969c0 .471.162.905.432 1.25H2.031zm15.078-1.25c0 .689-.56 1.25-1.25 1.25-.689 0-1.25-.561-1.25-1.25V10.39h2.5v7.578z" transform="translate(1)"/>
        <path fill="url(#prefix__b)" d="M8.445 8.508c-.702 0-1.307-.489-1.578-1.19H8.16c.137 0 .248-.11.248-.245 0-.136-.111-.246-.248-.246h-1.42c-.014-.107-.022-.216-.022-.327 0-.086.005-.17.014-.254h1.805c.137 0 .249-.11.249-.246s-.112-.246-.249-.246H6.841c.256-.739.878-1.262 1.604-1.262.274 0 .535.073.779.216.118.07.27.031.34-.086.071-.116.033-.267-.086-.337C9.161 4.1 8.804 4 8.445 4c-.996 0-1.841.739-2.125 1.754H5.85c-.138 0-.249.11-.249.246s.111.246.249.246h.381c-.007.083-.011.168-.011.254 0 .11.006.22.019.327h-.39c-.137 0-.248.11-.248.246s.111.246.249.246h.493C6.644 8.296 7.473 9 8.445 9c.36 0 .716-.099 1.033-.285.118-.07.157-.22.087-.337-.07-.117-.223-.155-.341-.086-.244.143-.505.216-.779.216z" transform="translate(1)"/>
        <path fill="url(#prefix__c)" d="M11.229 6.205h-.761c-.216 0-.391.175-.391.39 0 .217.175.392.39.392h.762c.216 0 .39-.175.39-.391 0-.216-.174-.39-.39-.39zM4.141 6.205h-.76c-.217 0-.392.175-.392.39 0 .217.175.392.391.392h.761c.216 0 .391-.175.391-.391 0-.216-.175-.39-.39-.39z" transform="translate(1)"/>
        <path fill="url(#prefix__d)" d="M11.427 10.547H5.238c-.216 0-.39.175-.39.39 0 .217.174.391.39.391h6.189c.215 0 .39-.174.39-.39 0-.216-.175-.39-.39-.39z" transform="translate(1)"/>
        <path fill="url(#prefix__e)" d="M3.459 10.662c-.073-.073-.174-.115-.277-.115-.102 0-.203.042-.276.115-.072.072-.114.173-.114.276 0 .103.042.203.114.276.073.073.174.114.276.114.103 0 .204-.041.277-.114.072-.073.114-.173.114-.276 0-.103-.042-.204-.114-.276z" transform="translate(1)"/>
        <path fill="url(#prefix__d)" d="M11.427 13.125H5.238c-.216 0-.39.175-.39.39 0 .217.174.391.39.391h6.189c.215 0 .39-.174.39-.39 0-.216-.175-.39-.39-.39z" transform="translate(1)"/>
        <path fill="url(#prefix__e)" d="M3.459 13.24c-.073-.073-.174-.115-.277-.115-.102 0-.203.042-.276.115-.072.072-.114.173-.114.276 0 .103.042.203.114.276.073.073.174.114.276.114.103 0 .204-.041.277-.114.072-.073.114-.173.114-.276 0-.103-.042-.204-.114-.276z" transform="translate(1)"/>
        <path fill="url(#prefix__d)" d="M11.427 15.703H5.238c-.216 0-.39.175-.39.39 0 .217.174.391.39.391h6.189c.215 0 .39-.174.39-.39 0-.216-.175-.39-.39-.39z" transform="translate(1)"/>
        <path fill="url(#prefix__e)" d="M3.459 15.818c-.073-.073-.174-.115-.277-.115-.102 0-.203.042-.276.115-.072.072-.114.173-.114.276 0 .103.042.203.114.276.073.073.174.114.276.114.103 0 .204-.041.277-.114.072-.073.114-.173.114-.276 0-.103-.042-.204-.114-.276z" transform="translate(1)"/>
    </g>
</svg>
