<svg xmlns="http://www.w3.org/2000/svg" width="20" height="20" viewBox="0 0 20 20">
    <defs>
        <linearGradient id="prefix__a" x1="0%" x2="100%" y1="2.784%" y2="97.216%">
            <stop offset="0%" stop-color="#EC6F21"/>
            <stop offset="100%" stop-color="#F4D770"/>
        </linearGradient>
        <linearGradient id="prefix__b" x1="0%" x2="100%" y1="0%" y2="100%">
            <stop offset="0%" stop-color="#EC6F21"/>
            <stop offset="100%" stop-color="#F4D770"/>
        </linearGradient>
        <linearGradient id="prefix__c" x1="0%" x2="100%" y1="0%" y2="100%">
            <stop offset="0%" stop-color="#EC6F21"/>
            <stop offset="100%" stop-color="#F4D770"/>
        </linearGradient>
        <linearGradient id="prefix__d" x1="0%" x2="100%" y1="0%" y2="100%">
            <stop offset="0%" stop-color="#EC6F21"/>
            <stop offset="100%" stop-color="#F4D770"/>
        </linearGradient>
        <linearGradient id="prefix__e" x1="0%" x2="100%" y1=".001%" y2="99.999%">
            <stop offset="0%" stop-color="#EC6F21"/>
            <stop offset="100%" stop-color="#F4D770"/>
        </linearGradient>
        <linearGradient id="prefix__f" x1="0%" x2="100%" y1="0%" y2="100%">
            <stop offset="0%" stop-color="#EC6F21"/>
            <stop offset="100%" stop-color="#F4D770"/>
        </linearGradient>
    </defs>
    <g fill="none">
        <path fill="url(#prefix__a)" d="M19.803.051c-.122-.07-.272-.068-.392.003l-7.159 4.233c-.186.11-.247.35-.137.535.11.186.35.248.535.138l5.136-3.037-9.567 9.926-4.758-1.456 15.209-9c.185-.11.247-.35.137-.535-.11-.186-.35-.248-.535-.138l-15.97 9.452c-.134.078-.208.228-.19.382.018.154.126.282.274.327l5.682 1.739 2.507 4.563.008.012c.042.07.105.127.183.16.049.02.1.03.151.03.1 0 .199-.038.273-.11l2.883-2.818 5.422 1.659c.038.011.076.017.114.017.083 0 .165-.026.233-.077.1-.073.158-.19.158-.314V.391c0-.14-.075-.27-.197-.34zm-9.207 12.81c-.045.065-.07.142-.07.222v2.39l-1.711-3.116 7.575-7.86-5.794 8.364zm.712 3.206V13.61l1.914.585-1.914 1.87zm7.91-.853l-7.675-2.348 7.676-11.08v13.428z"/>
        <path fill="url(#prefix__b)" d="M6.423 13.577c-.153-.152-.4-.152-.553 0l-3.646 3.647c-.153.152-.153.4 0 .552.076.076.176.115.276.115.1 0 .2-.038.276-.115l3.647-3.646c.152-.153.152-.4 0-.553z"/>
        <path fill="url(#prefix__c)" d="M1.565 18.435c-.152-.153-.4-.153-.552 0l-.899.898c-.152.153-.152.4 0 .553.077.076.177.114.277.114.1 0 .2-.038.276-.114l.898-.899c.153-.152.153-.4 0-.552z"/>
        <path fill="url(#prefix__d)" d="M5.572 19.31c-.072-.072-.173-.114-.276-.114-.103 0-.203.041-.276.114-.073.073-.115.173-.115.276 0 .103.042.204.115.277.073.072.173.114.276.114.103 0 .204-.042.276-.114.073-.073.115-.174.115-.277 0-.103-.042-.203-.115-.276z"/>
        <path fill="url(#prefix__e)" d="M8.479 16.404c-.153-.153-.4-.153-.553 0l-1.931 1.931c-.153.153-.153.4 0 .553.076.076.176.114.276.114.1 0 .2-.038.276-.114l1.932-1.932c.152-.152.152-.4 0-.552z"/>
        <path fill="url(#prefix__f)" d="M15.145 16.255c-.153-.152-.4-.152-.553 0l-1.936 1.937c-.153.153-.153.4 0 .553.076.076.176.114.276.114.1 0 .2-.038.276-.114l1.937-1.937c.152-.153.152-.4 0-.553z"/>
    </g>
</svg>
