<svg xmlns="http://www.w3.org/2000/svg" width="20" height="20" viewBox="0 0 20 20">
    <defs>
        <linearGradient id="prefix__a" x1="0%" x2="100%" y1="0%" y2="100%">
            <stop offset="0%" stop-color="#EC6F21"/>
            <stop offset="100%" stop-color="#F4D770"/>
        </linearGradient>
        <linearGradient id="prefix__b" x1="0%" x2="100%" y1="0%" y2="100%">
            <stop offset="0%" stop-color="#EC6F21"/>
            <stop offset="100%" stop-color="#F4D770"/>
        </linearGradient>
    </defs>
    <g fill="none">
        <path fill="url(#prefix__a)" d="M18.965 7.896l-1.403-.238c-.147-.472-.334-.927-.564-1.362l.827-1.156c.35-.493.296-1.165-.134-1.59l-1.244-1.245c-.234-.234-.543-.363-.873-.363-.259 0-.505.079-.714.23l-1.16.826c-.452-.238-.923-.434-1.412-.58l-.234-1.387C11.954.434 11.441 0 10.835 0H9.077c-.605 0-1.119.434-1.219 1.031l-.242 1.42c-.468.146-.923.338-1.357.572L5.11 2.196c-.21-.15-.46-.23-.719-.23-.33 0-.643.13-.872.364L2.27 3.574c-.425.426-.484 1.098-.133 1.591l.835 1.173c-.23.439-.414.894-.555 1.366l-1.387.233C.434 8.037 0 8.551 0 9.157v1.757c0 .606.434 1.12 1.031 1.22l1.42.242c.146.467.338.923.572 1.357L2.2 14.877c-.35.493-.296 1.165.134 1.59l1.244 1.245c.234.234.543.363.873.363.259 0 .505-.08.714-.23l1.173-.835c.422.222.865.401 1.32.543l.233 1.403c.1.597.614 1.032 1.22 1.032h1.762c.605 0 1.119-.435 1.219-1.032l.238-1.403c.472-.146.927-.334 1.361-.563l1.157.826c.208.15.459.23.718.23.33 0 .639-.13.872-.363l1.245-1.245c.426-.425.484-1.098.133-1.59l-.826-1.161c.23-.439.421-.894.563-1.361l1.403-.234c.597-.1 1.032-.614 1.032-1.22V9.116c.008-.606-.426-1.12-1.023-1.22zm-.097 2.977c0 .054-.037.1-.091.108l-1.754.293c-.221.037-.397.2-.451.413-.159.614-.4 1.202-.726 1.75-.113.191-.105.43.025.613l1.03 1.453c.03.042.026.105-.012.142l-1.244 1.244c-.03.03-.058.034-.08.034-.024 0-.045-.009-.062-.021l-1.449-1.031c-.18-.13-.421-.138-.613-.025-.547.325-1.136.567-1.75.726-.217.054-.38.234-.413.451l-.297 1.754c-.008.054-.054.092-.108.092H9.115c-.054 0-.1-.038-.109-.092l-.292-1.754c-.038-.221-.2-.397-.413-.45-.597-.155-1.174-.393-1.712-.702-.088-.05-.188-.076-.284-.076-.113 0-.23.034-.326.105l-1.461 1.04c-.021.012-.042.02-.063.02-.017 0-.05-.004-.08-.033l-1.243-1.244c-.038-.038-.042-.096-.013-.142l1.027-1.44c.13-.184.138-.427.025-.619-.325-.543-.576-1.131-.735-1.745-.058-.213-.233-.376-.45-.413l-1.767-.301c-.054-.008-.092-.054-.092-.109V9.157c0-.055.038-.1.092-.109l1.741-.292c.222-.038.401-.2.455-.418.155-.614.393-1.206.714-1.753.113-.192.1-.43-.029-.61L3.06 4.514c-.029-.042-.025-.105.013-.142l1.244-1.245c.03-.029.059-.033.08-.033.025 0 .046.008.062.02L5.9 4.143c.185.13.427.138.619.025.543-.326 1.131-.576 1.745-.735.213-.058.376-.234.413-.45l.301-1.767c.008-.054.054-.092.109-.092h1.757c.055 0 .1.038.109.092l.292 1.741c.038.221.2.401.418.455.63.159 1.232.405 1.791.735.192.113.43.105.614-.025l1.44-1.035c.021-.013.042-.021.063-.021.017 0 .05.004.08.033l1.244 1.244c.037.038.041.096.012.142l-1.031 1.45c-.13.179-.138.42-.025.613.325.547.568 1.136.726 1.75.054.217.234.38.451.413l1.754.296c.054.009.092.055.092.109v1.758h-.005z"/>
        <path fill="url(#prefix__b)" d="M9.996 5.679c-2.38 0-4.313 1.933-4.313 4.313s1.933 4.313 4.313 4.313 4.313-1.933 4.313-4.313-1.933-4.313-4.313-4.313zm0 7.498c-1.758 0-3.186-1.427-3.186-3.185s1.428-3.186 3.186-3.186 3.186 1.428 3.186 3.186-1.428 3.185-3.186 3.185z"/>
    </g>
</svg>
