<svg xmlns="http://www.w3.org/2000/svg" width="20" height="20" viewBox="0 0 20 20">
    <g fill="none" fill-rule="evenodd">
        <path fill="#ED5565" fill-rule="nonzero" d="M19.333 3.795c-.37-.424-.9-.657-1.488-.657H3.609l-.143-1.074C3.312.907 2.506 0 1.632 0H.586C.262 0 0 .262 0 .586c0 .324.262.586.586.586h1.046c.188 0 .586.397.673 1.047l1.677 12.58c.074.554.359 1.073.802 1.461.329.288.717.48 1.125.56-.166.305-.26.654-.26 1.025 0 1.188.966 2.155 2.154 2.155 1.189 0 2.155-.967 2.155-2.155 0-.354-.086-.688-.238-.983h3.07c-.152.295-.238.629-.238.983 0 1.188.967 2.155 2.155 2.155 1.188 0 2.155-.967 2.155-2.155 0-.354-.086-.688-.238-.983h1.535c.323 0 .586-.262.586-.586 0-.324-.263-.586-.586-.586H6.339c-.573 0-1.12-.48-1.196-1.047l-.122-.92h4.56v.001h7.009c.56 0 1.111-.214 1.555-.602.443-.388.728-.907.802-1.462l.84-6.303c.078-.584-.083-1.139-.454-1.562zM8.786 17.845c0 .542-.44.983-.983.983-.542 0-.983-.44-.983-.983 0-.542.441-.983.983-.983s.983.441.983.983zm6.904 0c0 .542-.44.983-.983.983-.542 0-.983-.44-.983-.983 0-.542.44-.983.983-.983.542 0 .983.441.983.983zm2.761-13.278c.145.166.207.39.175.635l-.353 2.643h-3.986l.235-3.535h3.323c.246 0 .461.091.606.257zm-8.32 7.985l-.236-3.535h3.14l-.237 3.535H10.13zm-.315-4.707L9.581 4.31h3.767l-.236 3.535H9.816zM8.406 4.31l.236 3.535H4.237L3.766 4.31h4.64zM4.393 9.017H8.72l.236 3.535H4.865l-.472-3.535zm12.197 3.535h-2.617l.236-3.535h3.908l-.332 2.488c-.075.568-.623 1.047-1.195 1.047z"/>
        <g transform="translate(9 9)">
            <circle cx="5.5" cy="5.5" r="5.5" fill="#CEE63F" fill-rule="nonzero"/>
            <path fill="#CEE63F" fill-rule="nonzero" d="M5.19.012c1.707-.113 3.173.604 4.053 1.45.914.88 1.621 2.114 1.742 3.745.13 1.795-.595 3.098-1.449 4.022-.897.966-2.087 1.666-3.726 1.76-1.664.104-3.104-.57-4.036-1.432C.808 8.667.135 7.503.014 5.828-.114 4.042.628 2.704 1.447 1.79 1.87 1.323 2.361.918 3 .59 3.585.28 4.396.064 5.189.013zM3.37 1.229c-.544.276-.984.647-1.346 1.035C1.308 3.024.67 4.232.756 5.708.851 7.2 1.403 8.185 2.248 8.96c.828.76 1.941 1.33 3.459 1.286 1.38-.043 2.51-.682 3.251-1.493.776-.854 1.32-1.864 1.285-3.46-.034-1.416-.724-2.53-1.492-3.254C7.975 1.306 6.76.668 5.293.754c-.69.043-1.397.207-1.923.475z"/>
            <path fill="#000" d="M6.208 2.445c1.39-.034 2.25.97 2.338 2.161.106 1.438-.69 2.596-2.081 2.698-.753.06-1.346-.145-1.762-.468v2.127h-.85V4.734c0-.391.106-1.132-.062-1.344-.186-.221-.656-.077-.94-.12v-.714c.727.008 1.47-.068 1.719.366.292.502.08 1.455.124 2.144.062.86.593 1.676 1.682 1.574 1.78-.187 1.851-3.514-.186-3.523v-.612c0-.026 0-.06.018-.06z"/>
        </g>
    </g>
</svg>
